<?xml version="1.0"?>
<svg xmlns="http://www.w3.org/2000/svg" xmlns:xlink="http://www.w3.org/1999/xlink" viewBox="0 0 290.800000 168.000000" width="145.400000mm" height="84.000000mm" version="1.1">
<a xlink:href="qaqf-0x7ffb4af62d90.svg">
<rect x="1.000000" y="1.000000" width="289.800000" height="167.000000" rx="0" ry="0" style="stroke:none;fill:#cccccc;"/>
<rect x="0.000000" y="0.000000" width="289.800000" height="167.000000" rx="0" ry="0" style="stroke:none;fill:#ffffff;"/>
</a>
<text x="10.000000" y="7.000000" font-family="Arial" font-size="7"></text>
<a xlink:href="delay-0x7ffb4af60fe0.svg">
<rect x="25.000000" y="25.000000" width="154.800000" height="24.000000" rx="0" ry="0" style="stroke:none;fill:#cccccc;"/>
<rect x="24.000000" y="24.000000" width="154.800000" height="24.000000" rx="0" ry="0" style="stroke:none;fill:#003366;"/>
</a>
<a xlink:href="delay-0x7ffb4af60fe0.svg">
<text x="101.400000" y="38.000000" font-family="Arial" font-size="7" text-anchor="middle" fill="#FFFFFF">delay(0.04599...: int),0 : +)(x56)</text>
</a>
<circle cx="26.000000" cy="26.000000" r="1"/>
<a xlink:href="h-0x7ffb4af617f0.svg">
<rect x="31.450000" y="57.000000" width="141.900000" height="24.000000" rx="0" ry="0" style="stroke:none;fill:#cccccc;"/>
<rect x="30.450000" y="56.000000" width="141.900000" height="24.000000" rx="0" ry="0" style="stroke:none;fill:#003366;"/>
</a>
<a xlink:href="h-0x7ffb4af617f0.svg">
<text x="101.400000" y="70.000000" font-family="Arial" font-size="7" text-anchor="middle" fill="#FFFFFF">h(1)(-5.00000...or) : -) : +)(0)</text>
</a>
<circle cx="32.450000" cy="58.000000" r="1"/>
<rect x="195.800000" y="41.000000" width="24.000000" height="24.000000" rx="0" ry="0" style="stroke:none;fill:#cccccc;"/>
<rect x="194.800000" y="40.000000" width="24.000000" height="24.000000" rx="0" ry="0" style="stroke:none;fill:#4B71A1;"/>
<text x="206.800000" y="54.000000" font-family="Arial" font-size="7" text-anchor="middle" fill="#FFFFFF">*</text>
<circle cx="196.800000" cy="42.000000" r="1"/>
<line x1="191.800000" y1="47.000000" x2="194.800000" y2="48.000000"  transform="rotate(0.000000,194.800000,48.000000)" style="stroke: black; stroke-width:0.25;"/>
<line x1="191.800000" y1="49.000000" x2="194.800000" y2="48.000000"  transform="rotate(0.000000,194.800000,48.000000)" style="stroke: black; stroke-width:0.25;"/>
<line x1="191.800000" y1="55.000000" x2="194.800000" y2="56.000000"  transform="rotate(0.000000,194.800000,56.000000)" style="stroke: black; stroke-width:0.25;"/>
<line x1="191.800000" y1="57.000000" x2="194.800000" y2="56.000000"  transform="rotate(0.000000,194.800000,56.000000)" style="stroke: black; stroke-width:0.25;"/>
<a xlink:href="delay-0x7ffb4af61dc0.svg">
<rect x="25.000000" y="89.000000" width="154.800000" height="24.000000" rx="0" ry="0" style="stroke:none;fill:#cccccc;"/>
<rect x="24.000000" y="88.000000" width="154.800000" height="24.000000" rx="0" ry="0" style="stroke:none;fill:#003366;"/>
</a>
<a xlink:href="delay-0x7ffb4af61dc0.svg">
<text x="101.400000" y="102.000000" font-family="Arial" font-size="7" text-anchor="middle" fill="#FFFFFF">delay(0.04599...: int),1 : +)(x56)</text>
</a>
<circle cx="26.000000" cy="90.000000" r="1"/>
<a xlink:href="h-0x7ffb4af625d0.svg">
<rect x="31.450000" y="121.000000" width="141.900000" height="24.000000" rx="0" ry="0" style="stroke:none;fill:#cccccc;"/>
<rect x="30.450000" y="120.000000" width="141.900000" height="24.000000" rx="0" ry="0" style="stroke:none;fill:#003366;"/>
</a>
<a xlink:href="h-0x7ffb4af625d0.svg">
<text x="101.400000" y="134.000000" font-family="Arial" font-size="7" text-anchor="middle" fill="#FFFFFF">h(1)(-5.00000...or) : -) : +)(1)</text>
</a>
<circle cx="32.450000" cy="122.000000" r="1"/>
<rect x="195.800000" y="105.000000" width="24.000000" height="24.000000" rx="0" ry="0" style="stroke:none;fill:#cccccc;"/>
<rect x="194.800000" y="104.000000" width="24.000000" height="24.000000" rx="0" ry="0" style="stroke:none;fill:#4B71A1;"/>
<text x="206.800000" y="118.000000" font-family="Arial" font-size="7" text-anchor="middle" fill="#FFFFFF">*</text>
<circle cx="196.800000" cy="106.000000" r="1"/>
<line x1="191.800000" y1="111.000000" x2="194.800000" y2="112.000000"  transform="rotate(0.000000,194.800000,112.000000)" style="stroke: black; stroke-width:0.25;"/>
<line x1="191.800000" y1="113.000000" x2="194.800000" y2="112.000000"  transform="rotate(0.000000,194.800000,112.000000)" style="stroke: black; stroke-width:0.25;"/>
<line x1="191.800000" y1="119.000000" x2="194.800000" y2="120.000000"  transform="rotate(0.000000,194.800000,120.000000)" style="stroke: black; stroke-width:0.25;"/>
<line x1="191.800000" y1="121.000000" x2="194.800000" y2="120.000000"  transform="rotate(0.000000,194.800000,120.000000)" style="stroke: black; stroke-width:0.25;"/>
<rect x="235.800000" y="73.000000" width="24.000000" height="24.000000" rx="0" ry="0" style="stroke:none;fill:#cccccc;"/>
<rect x="234.800000" y="72.000000" width="24.000000" height="24.000000" rx="0" ry="0" style="stroke:none;fill:#4B71A1;"/>
<text x="246.800000" y="86.000000" font-family="Arial" font-size="7" text-anchor="middle" fill="#FFFFFF">+</text>
<circle cx="236.800000" cy="74.000000" r="1"/>
<line x1="231.800000" y1="79.000000" x2="234.800000" y2="80.000000"  transform="rotate(0.000000,234.800000,80.000000)" style="stroke: black; stroke-width:0.25;"/>
<line x1="231.800000" y1="81.000000" x2="234.800000" y2="80.000000"  transform="rotate(0.000000,234.800000,80.000000)" style="stroke: black; stroke-width:0.25;"/>
<line x1="231.800000" y1="87.000000" x2="234.800000" y2="88.000000"  transform="rotate(0.000000,234.800000,88.000000)" style="stroke: black; stroke-width:0.25;"/>
<line x1="231.800000" y1="89.000000" x2="234.800000" y2="88.000000"  transform="rotate(0.000000,234.800000,88.000000)" style="stroke: black; stroke-width:0.25;"/>
<line x1="15.000000" y1="15.000000" x2="15.000000" y2="153.000000"  style="stroke: black; stroke-linecap:round; stroke-width:0.25; stroke-dasharray:3,3;"/>
<line x1="15.000000" y1="153.000000" x2="275.800000" y2="153.000000"  style="stroke: black; stroke-linecap:round; stroke-width:0.25; stroke-dasharray:3,3;"/>
<line x1="275.800000" y1="153.000000" x2="275.800000" y2="15.000000"  style="stroke: black; stroke-linecap:round; stroke-width:0.25; stroke-dasharray:3,3;"/>
<line x1="15.000000" y1="15.000000" x2="20.000000" y2="15.000000"  style="stroke: black; stroke-linecap:round; stroke-width:0.25; stroke-dasharray:3,3;"/>
<line x1="136.100000" y1="15.000000" x2="275.800000" y2="15.000000"  style="stroke: black; stroke-linecap:round; stroke-width:0.25; stroke-dasharray:3,3;"/>
<text x="20.000000" y="17.000000" font-family="Arial" font-size="7">fdelayltv(1)(...in) : *) : *)(x56)</text>
<line x1="277.800000" y1="83.000000" x2="280.800000" y2="84.000000"  transform="rotate(0.000000,280.800000,84.000000)" style="stroke: black; stroke-width:0.25;"/>
<line x1="277.800000" y1="85.000000" x2="280.800000" y2="84.000000"  transform="rotate(0.000000,280.800000,84.000000)" style="stroke: black; stroke-width:0.25;"/>
<line x1="172.350000" y1="68.000000" x2="176.350000" y2="68.000000"  style="stroke:black; stroke-linecap:round; stroke-width:0.25;"/>
<line x1="172.350000" y1="132.000000" x2="176.350000" y2="132.000000"  style="stroke:black; stroke-linecap:round; stroke-width:0.25;"/>
<line x1="176.350000" y1="68.000000" x2="182.800000" y2="68.000000"  style="stroke:black; stroke-linecap:round; stroke-width:0.25;"/>
<line x1="176.350000" y1="132.000000" x2="182.800000" y2="132.000000"  style="stroke:black; stroke-linecap:round; stroke-width:0.25;"/>
<line x1="178.800000" y1="36.000000" x2="182.800000" y2="36.000000"  style="stroke:black; stroke-linecap:round; stroke-width:0.25;"/>
<line x1="178.800000" y1="100.000000" x2="182.800000" y2="100.000000"  style="stroke:black; stroke-linecap:round; stroke-width:0.25;"/>
<line x1="182.800000" y1="36.000000" x2="190.800000" y2="36.000000"  style="stroke:black; stroke-linecap:round; stroke-width:0.25;"/>
<line x1="182.800000" y1="56.000000" x2="190.800000" y2="56.000000"  style="stroke:black; stroke-linecap:round; stroke-width:0.25;"/>
<line x1="182.800000" y1="68.000000" x2="182.800000" y2="56.000000"  style="stroke:black; stroke-linecap:round; stroke-width:0.25;"/>
<line x1="182.800000" y1="68.000000" x2="182.800000" y2="68.000000"  style="stroke:black; stroke-linecap:round; stroke-width:0.25;"/>
<line x1="182.800000" y1="100.000000" x2="190.800000" y2="100.000000"  style="stroke:black; stroke-linecap:round; stroke-width:0.25;"/>
<line x1="182.800000" y1="120.000000" x2="190.800000" y2="120.000000"  style="stroke:black; stroke-linecap:round; stroke-width:0.25;"/>
<line x1="182.800000" y1="132.000000" x2="182.800000" y2="120.000000"  style="stroke:black; stroke-linecap:round; stroke-width:0.25;"/>
<line x1="182.800000" y1="132.000000" x2="182.800000" y2="132.000000"  style="stroke:black; stroke-linecap:round; stroke-width:0.25;"/>
<line x1="190.800000" y1="36.000000" x2="190.800000" y2="48.000000"  style="stroke:black; stroke-linecap:round; stroke-width:0.25;"/>
<line x1="190.800000" y1="48.000000" x2="190.800000" y2="48.000000"  style="stroke:black; stroke-linecap:round; stroke-width:0.25;"/>
<line x1="190.800000" y1="48.000000" x2="194.800000" y2="48.000000"  style="stroke:black; stroke-linecap:round; stroke-width:0.25;"/>
<line x1="190.800000" y1="56.000000" x2="194.800000" y2="56.000000"  style="stroke:black; stroke-linecap:round; stroke-width:0.25;"/>
<line x1="190.800000" y1="100.000000" x2="190.800000" y2="112.000000"  style="stroke:black; stroke-linecap:round; stroke-width:0.25;"/>
<line x1="190.800000" y1="112.000000" x2="190.800000" y2="112.000000"  style="stroke:black; stroke-linecap:round; stroke-width:0.25;"/>
<line x1="190.800000" y1="112.000000" x2="194.800000" y2="112.000000"  style="stroke:black; stroke-linecap:round; stroke-width:0.25;"/>
<line x1="190.800000" y1="120.000000" x2="194.800000" y2="120.000000"  style="stroke:black; stroke-linecap:round; stroke-width:0.25;"/>
<line x1="218.800000" y1="52.000000" x2="222.800000" y2="52.000000"  style="stroke:black; stroke-linecap:round; stroke-width:0.25;"/>
<line x1="218.800000" y1="116.000000" x2="222.800000" y2="116.000000"  style="stroke:black; stroke-linecap:round; stroke-width:0.25;"/>
<line x1="222.800000" y1="52.000000" x2="230.800000" y2="52.000000"  style="stroke:black; stroke-linecap:round; stroke-width:0.25;"/>
<line x1="222.800000" y1="88.000000" x2="230.800000" y2="88.000000"  style="stroke:black; stroke-linecap:round; stroke-width:0.25;"/>
<line x1="222.800000" y1="116.000000" x2="222.800000" y2="88.000000"  style="stroke:black; stroke-linecap:round; stroke-width:0.25;"/>
<line x1="222.800000" y1="116.000000" x2="222.800000" y2="116.000000"  style="stroke:black; stroke-linecap:round; stroke-width:0.25;"/>
<line x1="230.800000" y1="52.000000" x2="230.800000" y2="80.000000"  style="stroke:black; stroke-linecap:round; stroke-width:0.25;"/>
<line x1="230.800000" y1="80.000000" x2="230.800000" y2="80.000000"  style="stroke:black; stroke-linecap:round; stroke-width:0.25;"/>
<line x1="230.800000" y1="80.000000" x2="234.800000" y2="80.000000"  style="stroke:black; stroke-linecap:round; stroke-width:0.25;"/>
<line x1="230.800000" y1="88.000000" x2="234.800000" y2="88.000000"  style="stroke:black; stroke-linecap:round; stroke-width:0.25;"/>
<line x1="258.800000" y1="84.000000" x2="262.800000" y2="84.000000"  style="stroke:black; stroke-linecap:round; stroke-width:0.25;"/>
<line x1="262.800000" y1="84.000000" x2="262.800000" y2="84.000000"  style="stroke:black; stroke-linecap:round; stroke-width:0.25;"/>
<line x1="262.800000" y1="84.000000" x2="266.800000" y2="84.000000"  style="stroke:black; stroke-linecap:round; stroke-width:0.25;"/>
<line x1="266.800000" y1="84.000000" x2="270.800000" y2="84.000000"  style="stroke:black; stroke-linecap:round; stroke-width:0.25;"/>
<line x1="270.800000" y1="84.000000" x2="280.800000" y2="84.000000"  style="stroke:black; stroke-linecap:round; stroke-width:0.25;"/>
</svg>
