<?xml version="1.0"?>
<svg xmlns="http://www.w3.org/2000/svg" xmlns:xlink="http://www.w3.org/1999/xlink" viewBox="0 0 508.300000 104.000000" width="254.150000mm" height="52.000000mm" version="1.1">
<a xlink:href="outs-0x7f8435367d10.svg">
<rect x="1.000000" y="1.000000" width="507.300000" height="103.000000" rx="0" ry="0" style="stroke:none;fill:#cccccc;"/>
<rect x="0.000000" y="0.000000" width="507.300000" height="103.000000" rx="0" ry="0" style="stroke:none;fill:#ffffff;"/>
</a>
<text x="10.000000" y="7.000000" font-family="Arial" font-size="7"></text>
<rect x="33.000000" y="41.000000" width="24.000000" height="24.000000" rx="0" ry="0" style="stroke:none;fill:#cccccc;"/>
<rect x="32.000000" y="40.000000" width="24.000000" height="24.000000" rx="0" ry="0" style="stroke:none;fill:#47945E;"/>
<text x="44.000000" y="54.000000" font-family="Arial" font-size="7" text-anchor="middle" fill="#FFFFFF">x</text>
<circle cx="34.000000" cy="42.000000" r="1"/>
<line x1="29.000000" y1="51.000000" x2="32.000000" y2="52.000000"  transform="rotate(0.000000,32.000000,52.000000)" style="stroke: black; stroke-width:0.25;"/>
<line x1="29.000000" y1="53.000000" x2="32.000000" y2="52.000000"  transform="rotate(0.000000,32.000000,52.000000)" style="stroke: black; stroke-width:0.25;"/>
<rect x="238.250000" y="25.000000" width="24.000000" height="24.000000" rx="0" ry="0" style="stroke:none;fill:#cccccc;"/>
<rect x="237.250000" y="24.000000" width="24.000000" height="24.000000" rx="0" ry="0" style="stroke:none;fill:#47945E;"/>
<text x="249.250000" y="38.000000" font-family="Arial" font-size="7" text-anchor="middle" fill="#FFFFFF">x</text>
<circle cx="239.250000" cy="26.000000" r="1"/>
<rect x="65.000000" y="57.000000" width="24.000000" height="24.000000" rx="0" ry="0" style="stroke:none;fill:#cccccc;"/>
<rect x="64.000000" y="56.000000" width="24.000000" height="24.000000" rx="0" ry="0" style="stroke:none;fill:#47945E;"/>
<text x="76.000000" y="70.000000" font-family="Arial" font-size="7" text-anchor="middle" fill="#FFFFFF">x</text>
<circle cx="66.000000" cy="58.000000" r="1"/>
<a xlink:href="amp-0x7f843535d4c0.svg">
<rect x="97.000000" y="57.000000" width="154.800000" height="24.000000" rx="0" ry="0" style="stroke:none;fill:#cccccc;"/>
<rect x="96.000000" y="56.000000" width="154.800000" height="24.000000" rx="0" ry="0" style="stroke:none;fill:#003366;"/>
</a>
<a xlink:href="amp-0x7f843535d4c0.svg">
<text x="173.400000" y="70.000000" font-family="Arial" font-size="7" text-anchor="middle" fill="#FFFFFF">amp_follower(0.14999999999999999f)</text>
</a>
<circle cx="98.000000" cy="58.000000" r="1"/>
<line x1="93.000000" y1="67.000000" x2="96.000000" y2="68.000000"  transform="rotate(0.000000,96.000000,68.000000)" style="stroke: black; stroke-width:0.25;"/>
<line x1="93.000000" y1="69.000000" x2="96.000000" y2="68.000000"  transform="rotate(0.000000,96.000000,68.000000)" style="stroke: black; stroke-width:0.25;"/>
<a xlink:href="linear2db-0x7f8434ed6a60.svg">
<rect x="259.800000" y="57.000000" width="38.700000" height="24.000000" rx="0" ry="0" style="stroke:none;fill:#cccccc;"/>
<rect x="258.800000" y="56.000000" width="38.700000" height="24.000000" rx="0" ry="0" style="stroke:none;fill:#003366;"/>
</a>
<a xlink:href="linear2db-0x7f8434ed6a60.svg">
<text x="278.150000" y="70.000000" font-family="Arial" font-size="7" text-anchor="middle" fill="#FFFFFF">linear2db</text>
</a>
<circle cx="260.800000" cy="58.000000" r="1"/>
<line x1="255.800000" y1="67.000000" x2="258.800000" y2="68.000000"  transform="rotate(0.000000,258.800000,68.000000)" style="stroke: black; stroke-width:0.25;"/>
<line x1="255.800000" y1="69.000000" x2="258.800000" y2="68.000000"  transform="rotate(0.000000,258.800000,68.000000)" style="stroke: black; stroke-width:0.25;"/>
<rect x="306.500000" y="57.000000" width="129.000000" height="24.000000" rx="0" ry="0" style="stroke:none;fill:#cccccc;"/>
<rect x="305.500000" y="56.000000" width="129.000000" height="24.000000" rx="0" ry="0" style="stroke:none;fill:#477881;"/>
<text x="370.000000" y="70.000000" font-family="Arial" font-size="7" text-anchor="middle" fill="#FFFFFF">vbargraph(CH 3, -70.0f, 5.0f)</text>
<circle cx="307.500000" cy="58.000000" r="1"/>
<line x1="302.500000" y1="67.000000" x2="305.500000" y2="68.000000"  transform="rotate(0.000000,305.500000,68.000000)" style="stroke: black; stroke-width:0.25;"/>
<line x1="302.500000" y1="69.000000" x2="305.500000" y2="68.000000"  transform="rotate(0.000000,305.500000,68.000000)" style="stroke: black; stroke-width:0.25;"/>
<rect x="451.500000" y="41.000000" width="25.800000" height="24.000000" rx="0" ry="0" style="stroke:none;fill:#cccccc;"/>
<rect x="450.500000" y="40.000000" width="25.800000" height="24.000000" rx="0" ry="0" style="stroke:none;fill:#4B71A1;"/>
<text x="463.400000" y="54.000000" font-family="Arial" font-size="7" text-anchor="middle" fill="#FFFFFF">attach</text>
<circle cx="452.500000" cy="42.000000" r="1"/>
<line x1="447.500000" y1="47.000000" x2="450.500000" y2="48.000000"  transform="rotate(0.000000,450.500000,48.000000)" style="stroke: black; stroke-width:0.25;"/>
<line x1="447.500000" y1="49.000000" x2="450.500000" y2="48.000000"  transform="rotate(0.000000,450.500000,48.000000)" style="stroke: black; stroke-width:0.25;"/>
<line x1="447.500000" y1="55.000000" x2="450.500000" y2="56.000000"  transform="rotate(0.000000,450.500000,56.000000)" style="stroke: black; stroke-width:0.25;"/>
<line x1="447.500000" y1="57.000000" x2="450.500000" y2="56.000000"  transform="rotate(0.000000,450.500000,56.000000)" style="stroke: black; stroke-width:0.25;"/>
<line x1="15.000000" y1="15.000000" x2="15.000000" y2="89.000000"  style="stroke: black; stroke-linecap:round; stroke-width:0.25; stroke-dasharray:3,3;"/>
<line x1="15.000000" y1="89.000000" x2="493.300000" y2="89.000000"  style="stroke: black; stroke-linecap:round; stroke-width:0.25; stroke-dasharray:3,3;"/>
<line x1="493.300000" y1="89.000000" x2="493.300000" y2="15.000000"  style="stroke: black; stroke-linecap:round; stroke-width:0.25; stroke-dasharray:3,3;"/>
<line x1="15.000000" y1="15.000000" x2="20.000000" y2="15.000000"  style="stroke: black; stroke-linecap:round; stroke-width:0.25; stroke-dasharray:3,3;"/>
<line x1="52.250000" y1="15.000000" x2="493.300000" y2="15.000000"  style="stroke: black; stroke-linecap:round; stroke-width:0.25; stroke-dasharray:3,3;"/>
<text x="20.000000" y="17.000000" font-family="Arial" font-size="7">ch3meter</text>
<line x1="495.300000" y1="51.000000" x2="498.300000" y2="52.000000"  transform="rotate(0.000000,498.300000,52.000000)" style="stroke: black; stroke-width:0.25;"/>
<line x1="495.300000" y1="53.000000" x2="498.300000" y2="52.000000"  transform="rotate(0.000000,498.300000,52.000000)" style="stroke: black; stroke-width:0.25;"/>
<line x1="10.000000" y1="52.000000" x2="20.000000" y2="52.000000"  style="stroke:black; stroke-linecap:round; stroke-width:0.25;"/>
<line x1="20.000000" y1="52.000000" x2="24.000000" y2="52.000000"  style="stroke:black; stroke-linecap:round; stroke-width:0.25;"/>
<line x1="24.000000" y1="52.000000" x2="28.000000" y2="52.000000"  style="stroke:black; stroke-linecap:round; stroke-width:0.25;"/>
<line x1="28.000000" y1="52.000000" x2="28.000000" y2="52.000000"  style="stroke:black; stroke-linecap:round; stroke-width:0.25;"/>
<line x1="28.000000" y1="52.000000" x2="32.000000" y2="52.000000"  style="stroke:black; stroke-linecap:round; stroke-width:0.25;"/>
<line x1="88.000000" y1="68.000000" x2="92.000000" y2="68.000000"  style="stroke:black; stroke-linecap:round; stroke-width:0.25;"/>
<line x1="92.000000" y1="68.000000" x2="92.000000" y2="68.000000"  style="stroke:black; stroke-linecap:round; stroke-width:0.25;"/>
<line x1="92.000000" y1="68.000000" x2="96.000000" y2="68.000000"  style="stroke:black; stroke-linecap:round; stroke-width:0.25;"/>
<line x1="250.800000" y1="68.000000" x2="254.800000" y2="68.000000"  style="stroke:black; stroke-linecap:round; stroke-width:0.25;"/>
<line x1="254.800000" y1="68.000000" x2="254.800000" y2="68.000000"  style="stroke:black; stroke-linecap:round; stroke-width:0.25;"/>
<line x1="254.800000" y1="68.000000" x2="258.800000" y2="68.000000"  style="stroke:black; stroke-linecap:round; stroke-width:0.25;"/>
<line x1="261.250000" y1="36.000000" x2="265.250000" y2="36.000000"  style="stroke:black; stroke-linecap:round; stroke-width:0.25;"/>
<line x1="265.250000" y1="36.000000" x2="438.500000" y2="36.000000"  style="stroke:black; stroke-linecap:round; stroke-width:0.25;"/>
<line x1="297.500000" y1="68.000000" x2="301.500000" y2="68.000000"  style="stroke:black; stroke-linecap:round; stroke-width:0.25;"/>
<line x1="301.500000" y1="68.000000" x2="301.500000" y2="68.000000"  style="stroke:black; stroke-linecap:round; stroke-width:0.25;"/>
<line x1="301.500000" y1="68.000000" x2="305.500000" y2="68.000000"  style="stroke:black; stroke-linecap:round; stroke-width:0.25;"/>
<line x1="434.500000" y1="68.000000" x2="438.500000" y2="68.000000"  style="stroke:black; stroke-linecap:round; stroke-width:0.25;"/>
<line x1="438.500000" y1="36.000000" x2="446.500000" y2="36.000000"  style="stroke:black; stroke-linecap:round; stroke-width:0.25;"/>
<line x1="438.500000" y1="56.000000" x2="446.500000" y2="56.000000"  style="stroke:black; stroke-linecap:round; stroke-width:0.25;"/>
<line x1="438.500000" y1="68.000000" x2="438.500000" y2="56.000000"  style="stroke:black; stroke-linecap:round; stroke-width:0.25;"/>
<line x1="438.500000" y1="68.000000" x2="438.500000" y2="68.000000"  style="stroke:black; stroke-linecap:round; stroke-width:0.25;"/>
<line x1="446.500000" y1="36.000000" x2="446.500000" y2="48.000000"  style="stroke:black; stroke-linecap:round; stroke-width:0.25;"/>
<line x1="446.500000" y1="48.000000" x2="446.500000" y2="48.000000"  style="stroke:black; stroke-linecap:round; stroke-width:0.25;"/>
<line x1="446.500000" y1="48.000000" x2="450.500000" y2="48.000000"  style="stroke:black; stroke-linecap:round; stroke-width:0.25;"/>
<line x1="446.500000" y1="56.000000" x2="450.500000" y2="56.000000"  style="stroke:black; stroke-linecap:round; stroke-width:0.25;"/>
<line x1="476.300000" y1="52.000000" x2="480.300000" y2="52.000000"  style="stroke:black; stroke-linecap:round; stroke-width:0.25;"/>
<line x1="480.300000" y1="52.000000" x2="480.300000" y2="52.000000"  style="stroke:black; stroke-linecap:round; stroke-width:0.25;"/>
<line x1="480.300000" y1="52.000000" x2="484.300000" y2="52.000000"  style="stroke:black; stroke-linecap:round; stroke-width:0.25;"/>
<line x1="484.300000" y1="52.000000" x2="488.300000" y2="52.000000"  style="stroke:black; stroke-linecap:round; stroke-width:0.25;"/>
<line x1="488.300000" y1="52.000000" x2="498.300000" y2="52.000000"  style="stroke:black; stroke-linecap:round; stroke-width:0.25;"/>
</svg>
