<?xml version="1.0"?>
<svg xmlns="http://www.w3.org/2000/svg" xmlns:xlink="http://www.w3.org/1999/xlink" viewBox="0 0 302.400000 72.000000" width="151.200000mm" height="36.000000mm" version="1.1">
<a xlink:href="delay-0x7faadf8d4910.svg">
<rect x="1.000000" y="1.000000" width="301.400000" height="71.000000" rx="0" ry="0" style="stroke:none;fill:#cccccc;"/>
<rect x="0.000000" y="0.000000" width="301.400000" height="71.000000" rx="0" ry="0" style="stroke:none;fill:#ffffff;"/>
</a>
<text x="10.000000" y="7.000000" font-family="Arial" font-size="7"></text>
<rect x="25.000000" y="25.000000" width="167.700000" height="24.000000" rx="0" ry="0" style="stroke:none;fill:#cccccc;"/>
<rect x="24.000000" y="24.000000" width="167.700000" height="24.000000" rx="0" ry="0" style="stroke:none;fill:#477881;"/>
<text x="107.850000" y="38.000000" font-family="Arial" font-size="7" text-anchor="middle" fill="#FFFFFF">nentry(Delay, 0.0f, 0.0f, 1.0f, 0.001f)</text>
<circle cx="26.000000" cy="26.000000" r="1"/>
<a xlink:href="sec2samp-0x7faade6e94a0.svg">
<rect x="200.700000" y="25.000000" width="38.700000" height="24.000000" rx="0" ry="0" style="stroke:none;fill:#cccccc;"/>
<rect x="199.700000" y="24.000000" width="38.700000" height="24.000000" rx="0" ry="0" style="stroke:none;fill:#003366;"/>
</a>
<a xlink:href="sec2samp-0x7faade6e94a0.svg">
<text x="219.050000" y="38.000000" font-family="Arial" font-size="7" text-anchor="middle" fill="#FFFFFF">sec2samp</text>
</a>
<circle cx="201.700000" cy="26.000000" r="1"/>
<line x1="196.700000" y1="35.000000" x2="199.700000" y2="36.000000"  transform="rotate(0.000000,199.700000,36.000000)" style="stroke: black; stroke-width:0.25;"/>
<line x1="196.700000" y1="37.000000" x2="199.700000" y2="36.000000"  transform="rotate(0.000000,199.700000,36.000000)" style="stroke: black; stroke-width:0.25;"/>
<rect x="247.400000" y="25.000000" width="24.000000" height="24.000000" rx="0" ry="0" style="stroke:none;fill:#cccccc;"/>
<rect x="246.400000" y="24.000000" width="24.000000" height="24.000000" rx="0" ry="0" style="stroke:none;fill:#4B71A1;"/>
<text x="258.400000" y="38.000000" font-family="Arial" font-size="7" text-anchor="middle" fill="#FFFFFF">int</text>
<circle cx="248.400000" cy="26.000000" r="1"/>
<line x1="243.400000" y1="35.000000" x2="246.400000" y2="36.000000"  transform="rotate(0.000000,246.400000,36.000000)" style="stroke: black; stroke-width:0.25;"/>
<line x1="243.400000" y1="37.000000" x2="246.400000" y2="36.000000"  transform="rotate(0.000000,246.400000,36.000000)" style="stroke: black; stroke-width:0.25;"/>
<line x1="15.000000" y1="15.000000" x2="15.000000" y2="57.000000"  style="stroke: black; stroke-linecap:round; stroke-width:0.25; stroke-dasharray:3,3;"/>
<line x1="15.000000" y1="57.000000" x2="287.400000" y2="57.000000"  style="stroke: black; stroke-linecap:round; stroke-width:0.25; stroke-dasharray:3,3;"/>
<line x1="287.400000" y1="57.000000" x2="287.400000" y2="15.000000"  style="stroke: black; stroke-linecap:round; stroke-width:0.25; stroke-dasharray:3,3;"/>
<line x1="15.000000" y1="15.000000" x2="20.000000" y2="15.000000"  style="stroke: black; stroke-linecap:round; stroke-width:0.25; stroke-dasharray:3,3;"/>
<line x1="36.125000" y1="15.000000" x2="287.400000" y2="15.000000"  style="stroke: black; stroke-linecap:round; stroke-width:0.25; stroke-dasharray:3,3;"/>
<text x="20.000000" y="17.000000" font-family="Arial" font-size="7">del</text>
<line x1="289.400000" y1="35.000000" x2="292.400000" y2="36.000000"  transform="rotate(0.000000,292.400000,36.000000)" style="stroke: black; stroke-width:0.25;"/>
<line x1="289.400000" y1="37.000000" x2="292.400000" y2="36.000000"  transform="rotate(0.000000,292.400000,36.000000)" style="stroke: black; stroke-width:0.25;"/>
<line x1="191.700000" y1="36.000000" x2="195.700000" y2="36.000000"  style="stroke:black; stroke-linecap:round; stroke-width:0.25;"/>
<line x1="195.700000" y1="36.000000" x2="195.700000" y2="36.000000"  style="stroke:black; stroke-linecap:round; stroke-width:0.25;"/>
<line x1="195.700000" y1="36.000000" x2="199.700000" y2="36.000000"  style="stroke:black; stroke-linecap:round; stroke-width:0.25;"/>
<line x1="238.400000" y1="36.000000" x2="242.400000" y2="36.000000"  style="stroke:black; stroke-linecap:round; stroke-width:0.25;"/>
<line x1="242.400000" y1="36.000000" x2="242.400000" y2="36.000000"  style="stroke:black; stroke-linecap:round; stroke-width:0.25;"/>
<line x1="242.400000" y1="36.000000" x2="246.400000" y2="36.000000"  style="stroke:black; stroke-linecap:round; stroke-width:0.25;"/>
<line x1="270.400000" y1="36.000000" x2="274.400000" y2="36.000000"  style="stroke:black; stroke-linecap:round; stroke-width:0.25;"/>
<line x1="274.400000" y1="36.000000" x2="274.400000" y2="36.000000"  style="stroke:black; stroke-linecap:round; stroke-width:0.25;"/>
<line x1="274.400000" y1="36.000000" x2="278.400000" y2="36.000000"  style="stroke:black; stroke-linecap:round; stroke-width:0.25;"/>
<line x1="278.400000" y1="36.000000" x2="282.400000" y2="36.000000"  style="stroke:black; stroke-linecap:round; stroke-width:0.25;"/>
<line x1="282.400000" y1="36.000000" x2="292.400000" y2="36.000000"  style="stroke:black; stroke-linecap:round; stroke-width:0.25;"/>
</svg>
