<?xml version="1.0"?>
<svg xmlns="http://www.w3.org/2000/svg" xmlns:xlink="http://www.w3.org/1999/xlink" viewBox="0 0 328.500000 200.000000" width="164.250000mm" height="100.000000mm" version="1.1">
<a xlink:href="fb-0x7fa1a3149420.svg">
<rect x="1.000000" y="1.000000" width="327.500000" height="199.000000" rx="0" ry="0" style="stroke:none;fill:#cccccc;"/>
<rect x="0.000000" y="0.000000" width="327.500000" height="199.000000" rx="0" ry="0" style="stroke:none;fill:#ffffff;"/>
</a>
<text x="10.000000" y="7.000000" font-family="Arial" font-size="7"></text>
<rect x="33.000000" y="89.000000" width="24.000000" height="24.000000" rx="0" ry="0" style="stroke:none;fill:#cccccc;"/>
<rect x="32.000000" y="88.000000" width="24.000000" height="24.000000" rx="0" ry="0" style="stroke:none;fill:#47945E;"/>
<text x="44.000000" y="102.000000" font-family="Arial" font-size="7" text-anchor="middle" fill="#FFFFFF">x</text>
<circle cx="34.000000" cy="90.000000" r="1"/>
<line x1="29.000000" y1="99.000000" x2="32.000000" y2="100.000000"  transform="rotate(0.000000,32.000000,100.000000)" style="stroke: black; stroke-width:0.25;"/>
<line x1="29.000000" y1="101.000000" x2="32.000000" y2="100.000000"  transform="rotate(0.000000,32.000000,100.000000)" style="stroke: black; stroke-width:0.25;"/>
<rect x="149.250000" y="25.000000" width="24.000000" height="24.000000" rx="0" ry="0" style="stroke:none;fill:#cccccc;"/>
<rect x="148.250000" y="24.000000" width="24.000000" height="24.000000" rx="0" ry="0" style="stroke:none;fill:#47945E;"/>
<text x="160.250000" y="38.000000" font-family="Arial" font-size="7" text-anchor="middle" fill="#FFFFFF">x</text>
<circle cx="150.250000" cy="26.000000" r="1"/>
<a xlink:href="SR-0x7fa1a14506b0.svg">
<rect x="129.250000" y="57.000000" width="24.000000" height="24.000000" rx="0" ry="0" style="stroke:none;fill:#cccccc;"/>
<rect x="128.250000" y="56.000000" width="24.000000" height="24.000000" rx="0" ry="0" style="stroke:none;fill:#003366;"/>
</a>
<a xlink:href="SR-0x7fa1a14506b0.svg">
<text x="140.250000" y="70.000000" font-family="Arial" font-size="7" text-anchor="middle" fill="#FFFFFF">SR</text>
</a>
<circle cx="130.250000" cy="58.000000" r="1"/>
<rect x="109.250000" y="89.000000" width="24.000000" height="24.000000" rx="0" ry="0" style="stroke:none;fill:#cccccc;"/>
<rect x="108.250000" y="88.000000" width="24.000000" height="24.000000" rx="0" ry="0" style="stroke:none;fill:#f44800;"/>
<text x="120.250000" y="102.000000" font-family="Arial" font-size="7" text-anchor="middle" fill="#FFFFFF">0</text>
<circle cx="110.250000" cy="90.000000" r="1"/>
<rect x="65.000000" y="121.000000" width="25.800000" height="24.000000" rx="0" ry="0" style="stroke:none;fill:#cccccc;"/>
<rect x="64.000000" y="120.000000" width="25.800000" height="24.000000" rx="0" ry="0" style="stroke:none;fill:#f44800;"/>
<text x="76.900000" y="134.000000" font-family="Arial" font-size="7" text-anchor="middle" fill="#FFFFFF">0.059</text>
<circle cx="66.000000" cy="122.000000" r="1"/>
<a xlink:href="sec2samp-0x7fa1a330bc80.svg">
<rect x="98.800000" y="121.000000" width="38.700000" height="24.000000" rx="0" ry="0" style="stroke:none;fill:#cccccc;"/>
<rect x="97.800000" y="120.000000" width="38.700000" height="24.000000" rx="0" ry="0" style="stroke:none;fill:#003366;"/>
</a>
<a xlink:href="sec2samp-0x7fa1a330bc80.svg">
<text x="117.150000" y="134.000000" font-family="Arial" font-size="7" text-anchor="middle" fill="#FFFFFF">sec2samp</text>
</a>
<circle cx="99.800000" cy="122.000000" r="1"/>
<line x1="94.800000" y1="131.000000" x2="97.800000" y2="132.000000"  transform="rotate(0.000000,97.800000,132.000000)" style="stroke: black; stroke-width:0.25;"/>
<line x1="94.800000" y1="133.000000" x2="97.800000" y2="132.000000"  transform="rotate(0.000000,97.800000,132.000000)" style="stroke: black; stroke-width:0.25;"/>
<rect x="89.250000" y="153.000000" width="24.000000" height="24.000000" rx="0" ry="0" style="stroke:none;fill:#cccccc;"/>
<rect x="88.250000" y="152.000000" width="24.000000" height="24.000000" rx="0" ry="0" style="stroke:none;fill:#f44800;"/>
<text x="100.250000" y="166.000000" font-family="Arial" font-size="7" text-anchor="middle" fill="#FFFFFF">1</text>
<circle cx="90.250000" cy="154.000000" r="1"/>
<rect x="153.500000" y="137.000000" width="24.000000" height="24.000000" rx="0" ry="0" style="stroke:none;fill:#cccccc;"/>
<rect x="152.500000" y="136.000000" width="24.000000" height="24.000000" rx="0" ry="0" style="stroke:none;fill:#4B71A1;"/>
<text x="164.500000" y="150.000000" font-family="Arial" font-size="7" text-anchor="middle" fill="#FFFFFF">-</text>
<circle cx="154.500000" cy="138.000000" r="1"/>
<line x1="149.500000" y1="143.000000" x2="152.500000" y2="144.000000"  transform="rotate(0.000000,152.500000,144.000000)" style="stroke: black; stroke-width:0.25;"/>
<line x1="149.500000" y1="145.000000" x2="152.500000" y2="144.000000"  transform="rotate(0.000000,152.500000,144.000000)" style="stroke: black; stroke-width:0.25;"/>
<line x1="149.500000" y1="151.000000" x2="152.500000" y2="152.000000"  transform="rotate(0.000000,152.500000,152.000000)" style="stroke: black; stroke-width:0.25;"/>
<line x1="149.500000" y1="153.000000" x2="152.500000" y2="152.000000"  transform="rotate(0.000000,152.500000,152.000000)" style="stroke: black; stroke-width:0.25;"/>
<rect x="193.500000" y="121.000000" width="24.000000" height="24.000000" rx="0" ry="0" style="stroke:none;fill:#cccccc;"/>
<rect x="192.500000" y="120.000000" width="24.000000" height="24.000000" rx="0" ry="0" style="stroke:none;fill:#4B71A1;"/>
<text x="204.500000" y="134.000000" font-family="Arial" font-size="7" text-anchor="middle" fill="#FFFFFF">max</text>
<circle cx="194.500000" cy="122.000000" r="1"/>
<line x1="189.500000" y1="127.000000" x2="192.500000" y2="128.000000"  transform="rotate(0.000000,192.500000,128.000000)" style="stroke: black; stroke-width:0.25;"/>
<line x1="189.500000" y1="129.000000" x2="192.500000" y2="128.000000"  transform="rotate(0.000000,192.500000,128.000000)" style="stroke: black; stroke-width:0.25;"/>
<line x1="189.500000" y1="135.000000" x2="192.500000" y2="136.000000"  transform="rotate(0.000000,192.500000,136.000000)" style="stroke: black; stroke-width:0.25;"/>
<line x1="189.500000" y1="137.000000" x2="192.500000" y2="136.000000"  transform="rotate(0.000000,192.500000,136.000000)" style="stroke: black; stroke-width:0.25;"/>
<rect x="233.500000" y="105.000000" width="24.000000" height="24.000000" rx="0" ry="0" style="stroke:none;fill:#cccccc;"/>
<rect x="232.500000" y="104.000000" width="24.000000" height="24.000000" rx="0" ry="0" style="stroke:none;fill:#4B71A1;"/>
<text x="244.500000" y="118.000000" font-family="Arial" font-size="7" text-anchor="middle" fill="#FFFFFF">min</text>
<circle cx="234.500000" cy="106.000000" r="1"/>
<line x1="229.500000" y1="111.000000" x2="232.500000" y2="112.000000"  transform="rotate(0.000000,232.500000,112.000000)" style="stroke: black; stroke-width:0.25;"/>
<line x1="229.500000" y1="113.000000" x2="232.500000" y2="112.000000"  transform="rotate(0.000000,232.500000,112.000000)" style="stroke: black; stroke-width:0.25;"/>
<line x1="229.500000" y1="119.000000" x2="232.500000" y2="120.000000"  transform="rotate(0.000000,232.500000,120.000000)" style="stroke: black; stroke-width:0.25;"/>
<line x1="229.500000" y1="121.000000" x2="232.500000" y2="120.000000"  transform="rotate(0.000000,232.500000,120.000000)" style="stroke: black; stroke-width:0.25;"/>
<rect x="273.500000" y="89.000000" width="24.000000" height="24.000000" rx="0" ry="0" style="stroke:none;fill:#cccccc;"/>
<rect x="272.500000" y="88.000000" width="24.000000" height="24.000000" rx="0" ry="0" style="stroke:none;fill:#4B71A1;"/>
<text x="284.500000" y="102.000000" font-family="Arial" font-size="7" text-anchor="middle" fill="#FFFFFF">@</text>
<circle cx="274.500000" cy="90.000000" r="1"/>
<line x1="269.500000" y1="95.000000" x2="272.500000" y2="96.000000"  transform="rotate(0.000000,272.500000,96.000000)" style="stroke: black; stroke-width:0.25;"/>
<line x1="269.500000" y1="97.000000" x2="272.500000" y2="96.000000"  transform="rotate(0.000000,272.500000,96.000000)" style="stroke: black; stroke-width:0.25;"/>
<line x1="269.500000" y1="103.000000" x2="272.500000" y2="104.000000"  transform="rotate(0.000000,272.500000,104.000000)" style="stroke: black; stroke-width:0.25;"/>
<line x1="269.500000" y1="105.000000" x2="272.500000" y2="104.000000"  transform="rotate(0.000000,272.500000,104.000000)" style="stroke: black; stroke-width:0.25;"/>
<line x1="15.000000" y1="15.000000" x2="15.000000" y2="185.000000"  style="stroke: black; stroke-linecap:round; stroke-width:0.25; stroke-dasharray:3,3;"/>
<line x1="15.000000" y1="185.000000" x2="313.500000" y2="185.000000"  style="stroke: black; stroke-linecap:round; stroke-width:0.25; stroke-dasharray:3,3;"/>
<line x1="313.500000" y1="185.000000" x2="313.500000" y2="15.000000"  style="stroke: black; stroke-linecap:round; stroke-width:0.25; stroke-dasharray:3,3;"/>
<line x1="15.000000" y1="15.000000" x2="20.000000" y2="15.000000"  style="stroke: black; stroke-linecap:round; stroke-width:0.25; stroke-dasharray:3,3;"/>
<line x1="119.975000" y1="15.000000" x2="313.500000" y2="15.000000"  style="stroke: black; stroke-linecap:round; stroke-width:0.25; stroke-dasharray:3,3;"/>
<text x="20.000000" y="17.000000" font-family="Arial" font-size="7">delay(192000....) : *),1 : -)</text>
<line x1="315.500000" y1="99.000000" x2="318.500000" y2="100.000000"  transform="rotate(0.000000,318.500000,100.000000)" style="stroke: black; stroke-width:0.25;"/>
<line x1="315.500000" y1="101.000000" x2="318.500000" y2="100.000000"  transform="rotate(0.000000,318.500000,100.000000)" style="stroke: black; stroke-width:0.25;"/>
<line x1="10.000000" y1="100.000000" x2="20.000000" y2="100.000000"  style="stroke:black; stroke-linecap:round; stroke-width:0.25;"/>
<line x1="20.000000" y1="100.000000" x2="24.000000" y2="100.000000"  style="stroke:black; stroke-linecap:round; stroke-width:0.25;"/>
<line x1="24.000000" y1="100.000000" x2="28.000000" y2="100.000000"  style="stroke:black; stroke-linecap:round; stroke-width:0.25;"/>
<line x1="28.000000" y1="100.000000" x2="28.000000" y2="100.000000"  style="stroke:black; stroke-linecap:round; stroke-width:0.25;"/>
<line x1="28.000000" y1="100.000000" x2="32.000000" y2="100.000000"  style="stroke:black; stroke-linecap:round; stroke-width:0.25;"/>
<line x1="89.800000" y1="132.000000" x2="93.800000" y2="132.000000"  style="stroke:black; stroke-linecap:round; stroke-width:0.25;"/>
<line x1="93.800000" y1="132.000000" x2="93.800000" y2="132.000000"  style="stroke:black; stroke-linecap:round; stroke-width:0.25;"/>
<line x1="93.800000" y1="132.000000" x2="97.800000" y2="132.000000"  style="stroke:black; stroke-linecap:round; stroke-width:0.25;"/>
<line x1="112.250000" y1="164.000000" x2="116.250000" y2="164.000000"  style="stroke:black; stroke-linecap:round; stroke-width:0.25;"/>
<line x1="116.250000" y1="164.000000" x2="140.500000" y2="164.000000"  style="stroke:black; stroke-linecap:round; stroke-width:0.25;"/>
<line x1="132.250000" y1="100.000000" x2="136.250000" y2="100.000000"  style="stroke:black; stroke-linecap:round; stroke-width:0.25;"/>
<line x1="136.250000" y1="100.000000" x2="180.500000" y2="100.000000"  style="stroke:black; stroke-linecap:round; stroke-width:0.25;"/>
<line x1="136.500000" y1="132.000000" x2="140.500000" y2="132.000000"  style="stroke:black; stroke-linecap:round; stroke-width:0.25;"/>
<line x1="140.500000" y1="132.000000" x2="148.500000" y2="132.000000"  style="stroke:black; stroke-linecap:round; stroke-width:0.25;"/>
<line x1="140.500000" y1="152.000000" x2="148.500000" y2="152.000000"  style="stroke:black; stroke-linecap:round; stroke-width:0.25;"/>
<line x1="140.500000" y1="164.000000" x2="140.500000" y2="152.000000"  style="stroke:black; stroke-linecap:round; stroke-width:0.25;"/>
<line x1="140.500000" y1="164.000000" x2="140.500000" y2="164.000000"  style="stroke:black; stroke-linecap:round; stroke-width:0.25;"/>
<line x1="148.500000" y1="132.000000" x2="148.500000" y2="144.000000"  style="stroke:black; stroke-linecap:round; stroke-width:0.25;"/>
<line x1="148.500000" y1="144.000000" x2="148.500000" y2="144.000000"  style="stroke:black; stroke-linecap:round; stroke-width:0.25;"/>
<line x1="148.500000" y1="144.000000" x2="152.500000" y2="144.000000"  style="stroke:black; stroke-linecap:round; stroke-width:0.25;"/>
<line x1="148.500000" y1="152.000000" x2="152.500000" y2="152.000000"  style="stroke:black; stroke-linecap:round; stroke-width:0.25;"/>
<line x1="152.250000" y1="68.000000" x2="156.250000" y2="68.000000"  style="stroke:black; stroke-linecap:round; stroke-width:0.25;"/>
<line x1="156.250000" y1="68.000000" x2="220.500000" y2="68.000000"  style="stroke:black; stroke-linecap:round; stroke-width:0.25;"/>
<line x1="172.250000" y1="36.000000" x2="176.250000" y2="36.000000"  style="stroke:black; stroke-linecap:round; stroke-width:0.25;"/>
<line x1="176.250000" y1="36.000000" x2="260.500000" y2="36.000000"  style="stroke:black; stroke-linecap:round; stroke-width:0.25;"/>
<line x1="176.500000" y1="148.000000" x2="180.500000" y2="148.000000"  style="stroke:black; stroke-linecap:round; stroke-width:0.25;"/>
<line x1="180.500000" y1="100.000000" x2="188.500000" y2="100.000000"  style="stroke:black; stroke-linecap:round; stroke-width:0.25;"/>
<line x1="180.500000" y1="136.000000" x2="188.500000" y2="136.000000"  style="stroke:black; stroke-linecap:round; stroke-width:0.25;"/>
<line x1="180.500000" y1="148.000000" x2="180.500000" y2="136.000000"  style="stroke:black; stroke-linecap:round; stroke-width:0.25;"/>
<line x1="180.500000" y1="148.000000" x2="180.500000" y2="148.000000"  style="stroke:black; stroke-linecap:round; stroke-width:0.25;"/>
<line x1="188.500000" y1="100.000000" x2="188.500000" y2="128.000000"  style="stroke:black; stroke-linecap:round; stroke-width:0.25;"/>
<line x1="188.500000" y1="128.000000" x2="188.500000" y2="128.000000"  style="stroke:black; stroke-linecap:round; stroke-width:0.25;"/>
<line x1="188.500000" y1="128.000000" x2="192.500000" y2="128.000000"  style="stroke:black; stroke-linecap:round; stroke-width:0.25;"/>
<line x1="188.500000" y1="136.000000" x2="192.500000" y2="136.000000"  style="stroke:black; stroke-linecap:round; stroke-width:0.25;"/>
<line x1="216.500000" y1="132.000000" x2="220.500000" y2="132.000000"  style="stroke:black; stroke-linecap:round; stroke-width:0.25;"/>
<line x1="220.500000" y1="68.000000" x2="228.500000" y2="68.000000"  style="stroke:black; stroke-linecap:round; stroke-width:0.25;"/>
<line x1="220.500000" y1="120.000000" x2="228.500000" y2="120.000000"  style="stroke:black; stroke-linecap:round; stroke-width:0.25;"/>
<line x1="220.500000" y1="132.000000" x2="220.500000" y2="120.000000"  style="stroke:black; stroke-linecap:round; stroke-width:0.25;"/>
<line x1="220.500000" y1="132.000000" x2="220.500000" y2="132.000000"  style="stroke:black; stroke-linecap:round; stroke-width:0.25;"/>
<line x1="228.500000" y1="68.000000" x2="228.500000" y2="112.000000"  style="stroke:black; stroke-linecap:round; stroke-width:0.25;"/>
<line x1="228.500000" y1="112.000000" x2="228.500000" y2="112.000000"  style="stroke:black; stroke-linecap:round; stroke-width:0.25;"/>
<line x1="228.500000" y1="112.000000" x2="232.500000" y2="112.000000"  style="stroke:black; stroke-linecap:round; stroke-width:0.25;"/>
<line x1="228.500000" y1="120.000000" x2="232.500000" y2="120.000000"  style="stroke:black; stroke-linecap:round; stroke-width:0.25;"/>
<line x1="256.500000" y1="116.000000" x2="260.500000" y2="116.000000"  style="stroke:black; stroke-linecap:round; stroke-width:0.25;"/>
<line x1="260.500000" y1="36.000000" x2="268.500000" y2="36.000000"  style="stroke:black; stroke-linecap:round; stroke-width:0.25;"/>
<line x1="260.500000" y1="104.000000" x2="268.500000" y2="104.000000"  style="stroke:black; stroke-linecap:round; stroke-width:0.25;"/>
<line x1="260.500000" y1="116.000000" x2="260.500000" y2="104.000000"  style="stroke:black; stroke-linecap:round; stroke-width:0.25;"/>
<line x1="260.500000" y1="116.000000" x2="260.500000" y2="116.000000"  style="stroke:black; stroke-linecap:round; stroke-width:0.25;"/>
<line x1="268.500000" y1="36.000000" x2="268.500000" y2="96.000000"  style="stroke:black; stroke-linecap:round; stroke-width:0.25;"/>
<line x1="268.500000" y1="96.000000" x2="268.500000" y2="96.000000"  style="stroke:black; stroke-linecap:round; stroke-width:0.25;"/>
<line x1="268.500000" y1="96.000000" x2="272.500000" y2="96.000000"  style="stroke:black; stroke-linecap:round; stroke-width:0.25;"/>
<line x1="268.500000" y1="104.000000" x2="272.500000" y2="104.000000"  style="stroke:black; stroke-linecap:round; stroke-width:0.25;"/>
<line x1="296.500000" y1="100.000000" x2="300.500000" y2="100.000000"  style="stroke:black; stroke-linecap:round; stroke-width:0.25;"/>
<line x1="300.500000" y1="100.000000" x2="300.500000" y2="100.000000"  style="stroke:black; stroke-linecap:round; stroke-width:0.25;"/>
<line x1="300.500000" y1="100.000000" x2="304.500000" y2="100.000000"  style="stroke:black; stroke-linecap:round; stroke-width:0.25;"/>
<line x1="304.500000" y1="100.000000" x2="308.500000" y2="100.000000"  style="stroke:black; stroke-linecap:round; stroke-width:0.25;"/>
<line x1="308.500000" y1="100.000000" x2="318.500000" y2="100.000000"  style="stroke:black; stroke-linecap:round; stroke-width:0.25;"/>
</svg>
