<?xml version="1.0"?>
<svg xmlns="http://www.w3.org/2000/svg" xmlns:xlink="http://www.w3.org/1999/xlink" viewBox="0 0 499.000000 296.000000" width="249.500000mm" height="148.000000mm" version="1.1">
<a xlink:href="process.svg">
<rect x="1.000000" y="1.000000" width="498.000000" height="295.000000" rx="0" ry="0" style="stroke:none;fill:#cccccc;"/>
<rect x="0.000000" y="0.000000" width="498.000000" height="295.000000" rx="0" ry="0" style="stroke:none;fill:#ffffff;"/>
</a>
<text x="10.000000" y="7.000000" font-family="Arial" font-size="7"></text>
<a xlink:href="fb-0x7facf990b760.svg">
<rect x="107.000000" y="25.000000" width="129.000000" height="24.000000" rx="0" ry="0" style="stroke:none;fill:#cccccc;"/>
<rect x="106.000000" y="24.000000" width="129.000000" height="24.000000" rx="0" ry="0" style="stroke:none;fill:#003366;"/>
</a>
<a xlink:href="fb-0x7facf990b760.svg">
<text x="170.500000" y="38.000000" font-family="Arial" font-size="7" text-anchor="middle" fill="#FFFFFF">fb_comb(19200...)(0.5f)(0.5f)</text>
</a>
<circle cx="108.000000" cy="26.000000" r="1"/>
<line x1="103.000000" y1="35.000000" x2="106.000000" y2="36.000000"  transform="rotate(0.000000,106.000000,36.000000)" style="stroke: black; stroke-width:0.25;"/>
<line x1="103.000000" y1="37.000000" x2="106.000000" y2="36.000000"  transform="rotate(0.000000,106.000000,36.000000)" style="stroke: black; stroke-width:0.25;"/>
<a xlink:href="fb-0x7facf990dfa0.svg">
<rect x="107.000000" y="57.000000" width="129.000000" height="24.000000" rx="0" ry="0" style="stroke:none;fill:#cccccc;"/>
<rect x="106.000000" y="56.000000" width="129.000000" height="24.000000" rx="0" ry="0" style="stroke:none;fill:#003366;"/>
</a>
<a xlink:href="fb-0x7facf990dfa0.svg">
<text x="170.500000" y="70.000000" font-family="Arial" font-size="7" text-anchor="middle" fill="#FFFFFF">fb_comb(19200...)(0.5f)(0.5f)</text>
</a>
<circle cx="108.000000" cy="58.000000" r="1"/>
<line x1="103.000000" y1="67.000000" x2="106.000000" y2="68.000000"  transform="rotate(0.000000,106.000000,68.000000)" style="stroke: black; stroke-width:0.25;"/>
<line x1="103.000000" y1="69.000000" x2="106.000000" y2="68.000000"  transform="rotate(0.000000,106.000000,68.000000)" style="stroke: black; stroke-width:0.25;"/>
<rect x="252.000000" y="41.000000" width="24.000000" height="24.000000" rx="0" ry="0" style="stroke:none;fill:#cccccc;"/>
<rect x="251.000000" y="40.000000" width="24.000000" height="24.000000" rx="0" ry="0" style="stroke:none;fill:#4B71A1;"/>
<text x="263.000000" y="54.000000" font-family="Arial" font-size="7" text-anchor="middle" fill="#FFFFFF">+</text>
<circle cx="253.000000" cy="42.000000" r="1"/>
<line x1="248.000000" y1="47.000000" x2="251.000000" y2="48.000000"  transform="rotate(0.000000,251.000000,48.000000)" style="stroke: black; stroke-width:0.25;"/>
<line x1="248.000000" y1="49.000000" x2="251.000000" y2="48.000000"  transform="rotate(0.000000,251.000000,48.000000)" style="stroke: black; stroke-width:0.25;"/>
<line x1="248.000000" y1="55.000000" x2="251.000000" y2="56.000000"  transform="rotate(0.000000,251.000000,56.000000)" style="stroke: black; stroke-width:0.25;"/>
<line x1="248.000000" y1="57.000000" x2="251.000000" y2="56.000000"  transform="rotate(0.000000,251.000000,56.000000)" style="stroke: black; stroke-width:0.25;"/>
<a xlink:href="fb-0x7facf99109c0.svg">
<rect x="107.000000" y="89.000000" width="129.000000" height="24.000000" rx="0" ry="0" style="stroke:none;fill:#cccccc;"/>
<rect x="106.000000" y="88.000000" width="129.000000" height="24.000000" rx="0" ry="0" style="stroke:none;fill:#003366;"/>
</a>
<a xlink:href="fb-0x7facf99109c0.svg">
<text x="170.500000" y="102.000000" font-family="Arial" font-size="7" text-anchor="middle" fill="#FFFFFF">fb_comb(19200...)(0.5f)(0.5f)</text>
</a>
<circle cx="108.000000" cy="90.000000" r="1"/>
<line x1="103.000000" y1="99.000000" x2="106.000000" y2="100.000000"  transform="rotate(0.000000,106.000000,100.000000)" style="stroke: black; stroke-width:0.25;"/>
<line x1="103.000000" y1="101.000000" x2="106.000000" y2="100.000000"  transform="rotate(0.000000,106.000000,100.000000)" style="stroke: black; stroke-width:0.25;"/>
<a xlink:href="fb-0x7facf9913210.svg">
<rect x="107.000000" y="121.000000" width="129.000000" height="24.000000" rx="0" ry="0" style="stroke:none;fill:#cccccc;"/>
<rect x="106.000000" y="120.000000" width="129.000000" height="24.000000" rx="0" ry="0" style="stroke:none;fill:#003366;"/>
</a>
<a xlink:href="fb-0x7facf9913210.svg">
<text x="170.500000" y="134.000000" font-family="Arial" font-size="7" text-anchor="middle" fill="#FFFFFF">fb_comb(19200...)(0.5f)(0.5f)</text>
</a>
<circle cx="108.000000" cy="122.000000" r="1"/>
<line x1="103.000000" y1="131.000000" x2="106.000000" y2="132.000000"  transform="rotate(0.000000,106.000000,132.000000)" style="stroke: black; stroke-width:0.25;"/>
<line x1="103.000000" y1="133.000000" x2="106.000000" y2="132.000000"  transform="rotate(0.000000,106.000000,132.000000)" style="stroke: black; stroke-width:0.25;"/>
<rect x="252.000000" y="105.000000" width="24.000000" height="24.000000" rx="0" ry="0" style="stroke:none;fill:#cccccc;"/>
<rect x="251.000000" y="104.000000" width="24.000000" height="24.000000" rx="0" ry="0" style="stroke:none;fill:#4B71A1;"/>
<text x="263.000000" y="118.000000" font-family="Arial" font-size="7" text-anchor="middle" fill="#FFFFFF">+</text>
<circle cx="253.000000" cy="106.000000" r="1"/>
<line x1="248.000000" y1="111.000000" x2="251.000000" y2="112.000000"  transform="rotate(0.000000,251.000000,112.000000)" style="stroke: black; stroke-width:0.25;"/>
<line x1="248.000000" y1="113.000000" x2="251.000000" y2="112.000000"  transform="rotate(0.000000,251.000000,112.000000)" style="stroke: black; stroke-width:0.25;"/>
<line x1="248.000000" y1="119.000000" x2="251.000000" y2="120.000000"  transform="rotate(0.000000,251.000000,120.000000)" style="stroke: black; stroke-width:0.25;"/>
<line x1="248.000000" y1="121.000000" x2="251.000000" y2="120.000000"  transform="rotate(0.000000,251.000000,120.000000)" style="stroke: black; stroke-width:0.25;"/>
<a xlink:href="fb-0x7facf9915c30.svg">
<rect x="107.000000" y="153.000000" width="129.000000" height="24.000000" rx="0" ry="0" style="stroke:none;fill:#cccccc;"/>
<rect x="106.000000" y="152.000000" width="129.000000" height="24.000000" rx="0" ry="0" style="stroke:none;fill:#003366;"/>
</a>
<a xlink:href="fb-0x7facf9915c30.svg">
<text x="170.500000" y="166.000000" font-family="Arial" font-size="7" text-anchor="middle" fill="#FFFFFF">fb_comb(19200...)(0.5f)(0.5f)</text>
</a>
<circle cx="108.000000" cy="154.000000" r="1"/>
<line x1="103.000000" y1="163.000000" x2="106.000000" y2="164.000000"  transform="rotate(0.000000,106.000000,164.000000)" style="stroke: black; stroke-width:0.25;"/>
<line x1="103.000000" y1="165.000000" x2="106.000000" y2="164.000000"  transform="rotate(0.000000,106.000000,164.000000)" style="stroke: black; stroke-width:0.25;"/>
<a xlink:href="fb-0x7facf9918480.svg">
<rect x="107.000000" y="185.000000" width="129.000000" height="24.000000" rx="0" ry="0" style="stroke:none;fill:#cccccc;"/>
<rect x="106.000000" y="184.000000" width="129.000000" height="24.000000" rx="0" ry="0" style="stroke:none;fill:#003366;"/>
</a>
<a xlink:href="fb-0x7facf9918480.svg">
<text x="170.500000" y="198.000000" font-family="Arial" font-size="7" text-anchor="middle" fill="#FFFFFF">fb_comb(19200...)(0.5f)(0.5f)</text>
</a>
<circle cx="108.000000" cy="186.000000" r="1"/>
<line x1="103.000000" y1="195.000000" x2="106.000000" y2="196.000000"  transform="rotate(0.000000,106.000000,196.000000)" style="stroke: black; stroke-width:0.25;"/>
<line x1="103.000000" y1="197.000000" x2="106.000000" y2="196.000000"  transform="rotate(0.000000,106.000000,196.000000)" style="stroke: black; stroke-width:0.25;"/>
<rect x="252.000000" y="169.000000" width="24.000000" height="24.000000" rx="0" ry="0" style="stroke:none;fill:#cccccc;"/>
<rect x="251.000000" y="168.000000" width="24.000000" height="24.000000" rx="0" ry="0" style="stroke:none;fill:#4B71A1;"/>
<text x="263.000000" y="182.000000" font-family="Arial" font-size="7" text-anchor="middle" fill="#FFFFFF">+</text>
<circle cx="253.000000" cy="170.000000" r="1"/>
<line x1="248.000000" y1="175.000000" x2="251.000000" y2="176.000000"  transform="rotate(0.000000,251.000000,176.000000)" style="stroke: black; stroke-width:0.25;"/>
<line x1="248.000000" y1="177.000000" x2="251.000000" y2="176.000000"  transform="rotate(0.000000,251.000000,176.000000)" style="stroke: black; stroke-width:0.25;"/>
<line x1="248.000000" y1="183.000000" x2="251.000000" y2="184.000000"  transform="rotate(0.000000,251.000000,184.000000)" style="stroke: black; stroke-width:0.25;"/>
<line x1="248.000000" y1="185.000000" x2="251.000000" y2="184.000000"  transform="rotate(0.000000,251.000000,184.000000)" style="stroke: black; stroke-width:0.25;"/>
<a xlink:href="fb-0x7facf991ae90.svg">
<rect x="107.000000" y="217.000000" width="129.000000" height="24.000000" rx="0" ry="0" style="stroke:none;fill:#cccccc;"/>
<rect x="106.000000" y="216.000000" width="129.000000" height="24.000000" rx="0" ry="0" style="stroke:none;fill:#003366;"/>
</a>
<a xlink:href="fb-0x7facf991ae90.svg">
<text x="170.500000" y="230.000000" font-family="Arial" font-size="7" text-anchor="middle" fill="#FFFFFF">fb_comb(19200...)(0.5f)(0.5f)</text>
</a>
<circle cx="108.000000" cy="218.000000" r="1"/>
<line x1="103.000000" y1="227.000000" x2="106.000000" y2="228.000000"  transform="rotate(0.000000,106.000000,228.000000)" style="stroke: black; stroke-width:0.25;"/>
<line x1="103.000000" y1="229.000000" x2="106.000000" y2="228.000000"  transform="rotate(0.000000,106.000000,228.000000)" style="stroke: black; stroke-width:0.25;"/>
<a xlink:href="fb-0x7facf991d6e0.svg">
<rect x="107.000000" y="249.000000" width="129.000000" height="24.000000" rx="0" ry="0" style="stroke:none;fill:#cccccc;"/>
<rect x="106.000000" y="248.000000" width="129.000000" height="24.000000" rx="0" ry="0" style="stroke:none;fill:#003366;"/>
</a>
<a xlink:href="fb-0x7facf991d6e0.svg">
<text x="170.500000" y="262.000000" font-family="Arial" font-size="7" text-anchor="middle" fill="#FFFFFF">fb_comb(19200...)(0.5f)(0.5f)</text>
</a>
<circle cx="108.000000" cy="250.000000" r="1"/>
<line x1="103.000000" y1="259.000000" x2="106.000000" y2="260.000000"  transform="rotate(0.000000,106.000000,260.000000)" style="stroke: black; stroke-width:0.25;"/>
<line x1="103.000000" y1="261.000000" x2="106.000000" y2="260.000000"  transform="rotate(0.000000,106.000000,260.000000)" style="stroke: black; stroke-width:0.25;"/>
<rect x="252.000000" y="233.000000" width="24.000000" height="24.000000" rx="0" ry="0" style="stroke:none;fill:#cccccc;"/>
<rect x="251.000000" y="232.000000" width="24.000000" height="24.000000" rx="0" ry="0" style="stroke:none;fill:#4B71A1;"/>
<text x="263.000000" y="246.000000" font-family="Arial" font-size="7" text-anchor="middle" fill="#FFFFFF">+</text>
<circle cx="253.000000" cy="234.000000" r="1"/>
<line x1="248.000000" y1="239.000000" x2="251.000000" y2="240.000000"  transform="rotate(0.000000,251.000000,240.000000)" style="stroke: black; stroke-width:0.25;"/>
<line x1="248.000000" y1="241.000000" x2="251.000000" y2="240.000000"  transform="rotate(0.000000,251.000000,240.000000)" style="stroke: black; stroke-width:0.25;"/>
<line x1="248.000000" y1="247.000000" x2="251.000000" y2="248.000000"  transform="rotate(0.000000,251.000000,248.000000)" style="stroke: black; stroke-width:0.25;"/>
<line x1="248.000000" y1="249.000000" x2="251.000000" y2="248.000000"  transform="rotate(0.000000,251.000000,248.000000)" style="stroke: black; stroke-width:0.25;"/>
<rect x="372.000000" y="137.000000" width="24.000000" height="24.000000" rx="0" ry="0" style="stroke:none;fill:#cccccc;"/>
<rect x="371.000000" y="136.000000" width="24.000000" height="24.000000" rx="0" ry="0" style="stroke:none;fill:#4B71A1;"/>
<text x="383.000000" y="150.000000" font-family="Arial" font-size="7" text-anchor="middle" fill="#FFFFFF">+</text>
<circle cx="373.000000" cy="138.000000" r="1"/>
<line x1="368.000000" y1="143.000000" x2="371.000000" y2="144.000000"  transform="rotate(0.000000,371.000000,144.000000)" style="stroke: black; stroke-width:0.25;"/>
<line x1="368.000000" y1="145.000000" x2="371.000000" y2="144.000000"  transform="rotate(0.000000,371.000000,144.000000)" style="stroke: black; stroke-width:0.25;"/>
<line x1="368.000000" y1="151.000000" x2="371.000000" y2="152.000000"  transform="rotate(0.000000,371.000000,152.000000)" style="stroke: black; stroke-width:0.25;"/>
<line x1="368.000000" y1="153.000000" x2="371.000000" y2="152.000000"  transform="rotate(0.000000,371.000000,152.000000)" style="stroke: black; stroke-width:0.25;"/>
<rect x="372.000000" y="169.000000" width="24.000000" height="24.000000" rx="0" ry="0" style="stroke:none;fill:#cccccc;"/>
<rect x="371.000000" y="168.000000" width="24.000000" height="24.000000" rx="0" ry="0" style="stroke:none;fill:#4B71A1;"/>
<text x="383.000000" y="182.000000" font-family="Arial" font-size="7" text-anchor="middle" fill="#FFFFFF">+</text>
<circle cx="373.000000" cy="170.000000" r="1"/>
<line x1="368.000000" y1="175.000000" x2="371.000000" y2="176.000000"  transform="rotate(0.000000,371.000000,176.000000)" style="stroke: black; stroke-width:0.25;"/>
<line x1="368.000000" y1="177.000000" x2="371.000000" y2="176.000000"  transform="rotate(0.000000,371.000000,176.000000)" style="stroke: black; stroke-width:0.25;"/>
<line x1="368.000000" y1="183.000000" x2="371.000000" y2="184.000000"  transform="rotate(0.000000,371.000000,184.000000)" style="stroke: black; stroke-width:0.25;"/>
<line x1="368.000000" y1="185.000000" x2="371.000000" y2="184.000000"  transform="rotate(0.000000,371.000000,184.000000)" style="stroke: black; stroke-width:0.25;"/>
<rect x="412.000000" y="153.000000" width="24.000000" height="24.000000" rx="0" ry="0" style="stroke:none;fill:#cccccc;"/>
<rect x="411.000000" y="152.000000" width="24.000000" height="24.000000" rx="0" ry="0" style="stroke:none;fill:#4B71A1;"/>
<text x="423.000000" y="166.000000" font-family="Arial" font-size="7" text-anchor="middle" fill="#FFFFFF">+</text>
<circle cx="413.000000" cy="154.000000" r="1"/>
<line x1="408.000000" y1="159.000000" x2="411.000000" y2="160.000000"  transform="rotate(0.000000,411.000000,160.000000)" style="stroke: black; stroke-width:0.25;"/>
<line x1="408.000000" y1="161.000000" x2="411.000000" y2="160.000000"  transform="rotate(0.000000,411.000000,160.000000)" style="stroke: black; stroke-width:0.25;"/>
<line x1="408.000000" y1="167.000000" x2="411.000000" y2="168.000000"  transform="rotate(0.000000,411.000000,168.000000)" style="stroke: black; stroke-width:0.25;"/>
<line x1="408.000000" y1="169.000000" x2="411.000000" y2="168.000000"  transform="rotate(0.000000,411.000000,168.000000)" style="stroke: black; stroke-width:0.25;"/>
<line x1="15.000000" y1="15.000000" x2="15.000000" y2="281.000000"  style="stroke: black; stroke-linecap:round; stroke-width:0.25; stroke-dasharray:3,3;"/>
<line x1="15.000000" y1="281.000000" x2="484.000000" y2="281.000000"  style="stroke: black; stroke-linecap:round; stroke-width:0.25; stroke-dasharray:3,3;"/>
<line x1="484.000000" y1="281.000000" x2="484.000000" y2="15.000000"  style="stroke: black; stroke-linecap:round; stroke-width:0.25; stroke-dasharray:3,3;"/>
<line x1="15.000000" y1="15.000000" x2="20.000000" y2="15.000000"  style="stroke: black; stroke-linecap:round; stroke-width:0.25; stroke-dasharray:3,3;"/>
<line x1="129.650000" y1="15.000000" x2="484.000000" y2="15.000000"  style="stroke: black; stroke-linecap:round; stroke-width:0.25; stroke-dasharray:3,3;"/>
<text x="20.000000" y="17.000000" font-family="Arial" font-size="7">early_reflections_8_comb_filters</text>
<line x1="486.000000" y1="131.000000" x2="489.000000" y2="132.000000"  transform="rotate(0.000000,489.000000,132.000000)" style="stroke: black; stroke-width:0.25;"/>
<line x1="486.000000" y1="133.000000" x2="489.000000" y2="132.000000"  transform="rotate(0.000000,489.000000,132.000000)" style="stroke: black; stroke-width:0.25;"/>
<line x1="486.000000" y1="139.000000" x2="489.000000" y2="140.000000"  transform="rotate(0.000000,489.000000,140.000000)" style="stroke: black; stroke-width:0.25;"/>
<line x1="486.000000" y1="141.000000" x2="489.000000" y2="140.000000"  transform="rotate(0.000000,489.000000,140.000000)" style="stroke: black; stroke-width:0.25;"/>
<line x1="486.000000" y1="147.000000" x2="489.000000" y2="148.000000"  transform="rotate(0.000000,489.000000,148.000000)" style="stroke: black; stroke-width:0.25;"/>
<line x1="486.000000" y1="149.000000" x2="489.000000" y2="148.000000"  transform="rotate(0.000000,489.000000,148.000000)" style="stroke: black; stroke-width:0.25;"/>
<line x1="486.000000" y1="155.000000" x2="489.000000" y2="156.000000"  transform="rotate(0.000000,489.000000,156.000000)" style="stroke: black; stroke-width:0.25;"/>
<line x1="486.000000" y1="157.000000" x2="489.000000" y2="156.000000"  transform="rotate(0.000000,489.000000,156.000000)" style="stroke: black; stroke-width:0.25;"/>
<line x1="486.000000" y1="163.000000" x2="489.000000" y2="164.000000"  transform="rotate(0.000000,489.000000,164.000000)" style="stroke: black; stroke-width:0.25;"/>
<line x1="486.000000" y1="165.000000" x2="489.000000" y2="164.000000"  transform="rotate(0.000000,489.000000,164.000000)" style="stroke: black; stroke-width:0.25;"/>
<line x1="10.000000" y1="148.000000" x2="20.000000" y2="148.000000"  style="stroke:black; stroke-linecap:round; stroke-width:0.25;"/>
<line x1="20.000000" y1="148.000000" x2="24.000000" y2="148.000000"  style="stroke:black; stroke-linecap:round; stroke-width:0.25;"/>
<line x1="24.000000" y1="148.000000" x2="28.000000" y2="148.000000"  style="stroke:black; stroke-linecap:round; stroke-width:0.25;"/>
<line x1="28.000000" y1="148.000000" x2="28.000000" y2="148.000000"  style="stroke:black; stroke-linecap:round; stroke-width:0.25;"/>
<line x1="28.000000" y1="148.000000" x2="32.000000" y2="148.000000"  style="stroke:black; stroke-linecap:round; stroke-width:0.25;"/>
<line x1="32.000000" y1="148.000000" x2="36.000000" y2="148.000000"  style="stroke:black; stroke-linecap:round; stroke-width:0.25;"/>
<line x1="36.000000" y1="148.000000" x2="102.000000" y2="36.000000"  style="stroke:black; stroke-linecap:round; stroke-width:0.25;"/>
<line x1="36.000000" y1="148.000000" x2="102.000000" y2="68.000000"  style="stroke:black; stroke-linecap:round; stroke-width:0.25;"/>
<line x1="36.000000" y1="148.000000" x2="102.000000" y2="100.000000"  style="stroke:black; stroke-linecap:round; stroke-width:0.25;"/>
<line x1="36.000000" y1="148.000000" x2="102.000000" y2="132.000000"  style="stroke:black; stroke-linecap:round; stroke-width:0.25;"/>
<line x1="36.000000" y1="148.000000" x2="102.000000" y2="164.000000"  style="stroke:black; stroke-linecap:round; stroke-width:0.25;"/>
<line x1="36.000000" y1="148.000000" x2="102.000000" y2="196.000000"  style="stroke:black; stroke-linecap:round; stroke-width:0.25;"/>
<line x1="36.000000" y1="148.000000" x2="102.000000" y2="228.000000"  style="stroke:black; stroke-linecap:round; stroke-width:0.25;"/>
<line x1="36.000000" y1="148.000000" x2="102.000000" y2="260.000000"  style="stroke:black; stroke-linecap:round; stroke-width:0.25;"/>
<line x1="102.000000" y1="36.000000" x2="106.000000" y2="36.000000"  style="stroke:black; stroke-linecap:round; stroke-width:0.25;"/>
<line x1="102.000000" y1="68.000000" x2="106.000000" y2="68.000000"  style="stroke:black; stroke-linecap:round; stroke-width:0.25;"/>
<line x1="102.000000" y1="100.000000" x2="106.000000" y2="100.000000"  style="stroke:black; stroke-linecap:round; stroke-width:0.25;"/>
<line x1="102.000000" y1="132.000000" x2="106.000000" y2="132.000000"  style="stroke:black; stroke-linecap:round; stroke-width:0.25;"/>
<line x1="102.000000" y1="164.000000" x2="106.000000" y2="164.000000"  style="stroke:black; stroke-linecap:round; stroke-width:0.25;"/>
<line x1="102.000000" y1="196.000000" x2="106.000000" y2="196.000000"  style="stroke:black; stroke-linecap:round; stroke-width:0.25;"/>
<line x1="102.000000" y1="228.000000" x2="106.000000" y2="228.000000"  style="stroke:black; stroke-linecap:round; stroke-width:0.25;"/>
<line x1="102.000000" y1="260.000000" x2="106.000000" y2="260.000000"  style="stroke:black; stroke-linecap:round; stroke-width:0.25;"/>
<line x1="235.000000" y1="36.000000" x2="239.000000" y2="36.000000"  style="stroke:black; stroke-linecap:round; stroke-width:0.25;"/>
<line x1="235.000000" y1="68.000000" x2="239.000000" y2="68.000000"  style="stroke:black; stroke-linecap:round; stroke-width:0.25;"/>
<line x1="235.000000" y1="100.000000" x2="239.000000" y2="100.000000"  style="stroke:black; stroke-linecap:round; stroke-width:0.25;"/>
<line x1="235.000000" y1="132.000000" x2="239.000000" y2="132.000000"  style="stroke:black; stroke-linecap:round; stroke-width:0.25;"/>
<line x1="235.000000" y1="164.000000" x2="239.000000" y2="164.000000"  style="stroke:black; stroke-linecap:round; stroke-width:0.25;"/>
<line x1="235.000000" y1="196.000000" x2="239.000000" y2="196.000000"  style="stroke:black; stroke-linecap:round; stroke-width:0.25;"/>
<line x1="235.000000" y1="228.000000" x2="239.000000" y2="228.000000"  style="stroke:black; stroke-linecap:round; stroke-width:0.25;"/>
<line x1="235.000000" y1="260.000000" x2="239.000000" y2="260.000000"  style="stroke:black; stroke-linecap:round; stroke-width:0.25;"/>
<line x1="239.000000" y1="36.000000" x2="247.000000" y2="36.000000"  style="stroke:black; stroke-linecap:round; stroke-width:0.25;"/>
<line x1="239.000000" y1="56.000000" x2="247.000000" y2="56.000000"  style="stroke:black; stroke-linecap:round; stroke-width:0.25;"/>
<line x1="239.000000" y1="68.000000" x2="239.000000" y2="56.000000"  style="stroke:black; stroke-linecap:round; stroke-width:0.25;"/>
<line x1="239.000000" y1="68.000000" x2="239.000000" y2="68.000000"  style="stroke:black; stroke-linecap:round; stroke-width:0.25;"/>
<line x1="239.000000" y1="100.000000" x2="247.000000" y2="100.000000"  style="stroke:black; stroke-linecap:round; stroke-width:0.25;"/>
<line x1="239.000000" y1="120.000000" x2="247.000000" y2="120.000000"  style="stroke:black; stroke-linecap:round; stroke-width:0.25;"/>
<line x1="239.000000" y1="132.000000" x2="239.000000" y2="120.000000"  style="stroke:black; stroke-linecap:round; stroke-width:0.25;"/>
<line x1="239.000000" y1="132.000000" x2="239.000000" y2="132.000000"  style="stroke:black; stroke-linecap:round; stroke-width:0.25;"/>
<line x1="239.000000" y1="164.000000" x2="247.000000" y2="164.000000"  style="stroke:black; stroke-linecap:round; stroke-width:0.25;"/>
<line x1="239.000000" y1="184.000000" x2="247.000000" y2="184.000000"  style="stroke:black; stroke-linecap:round; stroke-width:0.25;"/>
<line x1="239.000000" y1="196.000000" x2="239.000000" y2="184.000000"  style="stroke:black; stroke-linecap:round; stroke-width:0.25;"/>
<line x1="239.000000" y1="196.000000" x2="239.000000" y2="196.000000"  style="stroke:black; stroke-linecap:round; stroke-width:0.25;"/>
<line x1="239.000000" y1="228.000000" x2="247.000000" y2="228.000000"  style="stroke:black; stroke-linecap:round; stroke-width:0.25;"/>
<line x1="239.000000" y1="248.000000" x2="247.000000" y2="248.000000"  style="stroke:black; stroke-linecap:round; stroke-width:0.25;"/>
<line x1="239.000000" y1="260.000000" x2="239.000000" y2="248.000000"  style="stroke:black; stroke-linecap:round; stroke-width:0.25;"/>
<line x1="239.000000" y1="260.000000" x2="239.000000" y2="260.000000"  style="stroke:black; stroke-linecap:round; stroke-width:0.25;"/>
<line x1="247.000000" y1="36.000000" x2="247.000000" y2="48.000000"  style="stroke:black; stroke-linecap:round; stroke-width:0.25;"/>
<line x1="247.000000" y1="48.000000" x2="247.000000" y2="48.000000"  style="stroke:black; stroke-linecap:round; stroke-width:0.25;"/>
<line x1="247.000000" y1="48.000000" x2="251.000000" y2="48.000000"  style="stroke:black; stroke-linecap:round; stroke-width:0.25;"/>
<line x1="247.000000" y1="56.000000" x2="251.000000" y2="56.000000"  style="stroke:black; stroke-linecap:round; stroke-width:0.25;"/>
<line x1="247.000000" y1="100.000000" x2="247.000000" y2="112.000000"  style="stroke:black; stroke-linecap:round; stroke-width:0.25;"/>
<line x1="247.000000" y1="112.000000" x2="247.000000" y2="112.000000"  style="stroke:black; stroke-linecap:round; stroke-width:0.25;"/>
<line x1="247.000000" y1="112.000000" x2="251.000000" y2="112.000000"  style="stroke:black; stroke-linecap:round; stroke-width:0.25;"/>
<line x1="247.000000" y1="120.000000" x2="251.000000" y2="120.000000"  style="stroke:black; stroke-linecap:round; stroke-width:0.25;"/>
<line x1="247.000000" y1="164.000000" x2="247.000000" y2="176.000000"  style="stroke:black; stroke-linecap:round; stroke-width:0.25;"/>
<line x1="247.000000" y1="176.000000" x2="247.000000" y2="176.000000"  style="stroke:black; stroke-linecap:round; stroke-width:0.25;"/>
<line x1="247.000000" y1="176.000000" x2="251.000000" y2="176.000000"  style="stroke:black; stroke-linecap:round; stroke-width:0.25;"/>
<line x1="247.000000" y1="184.000000" x2="251.000000" y2="184.000000"  style="stroke:black; stroke-linecap:round; stroke-width:0.25;"/>
<line x1="247.000000" y1="228.000000" x2="247.000000" y2="240.000000"  style="stroke:black; stroke-linecap:round; stroke-width:0.25;"/>
<line x1="247.000000" y1="240.000000" x2="247.000000" y2="240.000000"  style="stroke:black; stroke-linecap:round; stroke-width:0.25;"/>
<line x1="247.000000" y1="240.000000" x2="251.000000" y2="240.000000"  style="stroke:black; stroke-linecap:round; stroke-width:0.25;"/>
<line x1="247.000000" y1="248.000000" x2="251.000000" y2="248.000000"  style="stroke:black; stroke-linecap:round; stroke-width:0.25;"/>
<line x1="275.000000" y1="52.000000" x2="279.000000" y2="52.000000"  style="stroke:black; stroke-linecap:round; stroke-width:0.25;"/>
<line x1="275.000000" y1="116.000000" x2="279.000000" y2="116.000000"  style="stroke:black; stroke-linecap:round; stroke-width:0.25;"/>
<line x1="275.000000" y1="180.000000" x2="279.000000" y2="180.000000"  style="stroke:black; stroke-linecap:round; stroke-width:0.25;"/>
<line x1="275.000000" y1="244.000000" x2="279.000000" y2="244.000000"  style="stroke:black; stroke-linecap:round; stroke-width:0.25;"/>
<line x1="279.000000" y1="52.000000" x2="367.000000" y2="104.000000"  style="stroke:black; stroke-linecap:round; stroke-width:0.25;"/>
<line x1="279.000000" y1="52.000000" x2="367.000000" y2="144.000000"  style="stroke:black; stroke-linecap:round; stroke-width:0.25;"/>
<line x1="279.000000" y1="116.000000" x2="367.000000" y2="112.000000"  style="stroke:black; stroke-linecap:round; stroke-width:0.25;"/>
<line x1="279.000000" y1="116.000000" x2="367.000000" y2="152.000000"  style="stroke:black; stroke-linecap:round; stroke-width:0.25;"/>
<line x1="279.000000" y1="180.000000" x2="367.000000" y2="120.000000"  style="stroke:black; stroke-linecap:round; stroke-width:0.25;"/>
<line x1="279.000000" y1="180.000000" x2="367.000000" y2="176.000000"  style="stroke:black; stroke-linecap:round; stroke-width:0.25;"/>
<line x1="279.000000" y1="244.000000" x2="367.000000" y2="128.000000"  style="stroke:black; stroke-linecap:round; stroke-width:0.25;"/>
<line x1="279.000000" y1="244.000000" x2="367.000000" y2="184.000000"  style="stroke:black; stroke-linecap:round; stroke-width:0.25;"/>
<line x1="367.000000" y1="104.000000" x2="403.000000" y2="104.000000"  style="stroke:black; stroke-linecap:round; stroke-width:0.25;"/>
<line x1="367.000000" y1="112.000000" x2="403.000000" y2="112.000000"  style="stroke:black; stroke-linecap:round; stroke-width:0.25;"/>
<line x1="367.000000" y1="120.000000" x2="403.000000" y2="120.000000"  style="stroke:black; stroke-linecap:round; stroke-width:0.25;"/>
<line x1="367.000000" y1="128.000000" x2="403.000000" y2="128.000000"  style="stroke:black; stroke-linecap:round; stroke-width:0.25;"/>
<line x1="367.000000" y1="144.000000" x2="371.000000" y2="144.000000"  style="stroke:black; stroke-linecap:round; stroke-width:0.25;"/>
<line x1="367.000000" y1="152.000000" x2="371.000000" y2="152.000000"  style="stroke:black; stroke-linecap:round; stroke-width:0.25;"/>
<line x1="367.000000" y1="176.000000" x2="371.000000" y2="176.000000"  style="stroke:black; stroke-linecap:round; stroke-width:0.25;"/>
<line x1="367.000000" y1="184.000000" x2="371.000000" y2="184.000000"  style="stroke:black; stroke-linecap:round; stroke-width:0.25;"/>
<line x1="395.000000" y1="148.000000" x2="399.000000" y2="148.000000"  style="stroke:black; stroke-linecap:round; stroke-width:0.25;"/>
<line x1="395.000000" y1="180.000000" x2="399.000000" y2="180.000000"  style="stroke:black; stroke-linecap:round; stroke-width:0.25;"/>
<line x1="399.000000" y1="148.000000" x2="407.000000" y2="148.000000"  style="stroke:black; stroke-linecap:round; stroke-width:0.25;"/>
<line x1="399.000000" y1="168.000000" x2="407.000000" y2="168.000000"  style="stroke:black; stroke-linecap:round; stroke-width:0.25;"/>
<line x1="399.000000" y1="180.000000" x2="399.000000" y2="168.000000"  style="stroke:black; stroke-linecap:round; stroke-width:0.25;"/>
<line x1="399.000000" y1="180.000000" x2="399.000000" y2="180.000000"  style="stroke:black; stroke-linecap:round; stroke-width:0.25;"/>
<line x1="403.000000" y1="104.000000" x2="439.000000" y2="104.000000"  style="stroke:black; stroke-linecap:round; stroke-width:0.25;"/>
<line x1="403.000000" y1="112.000000" x2="439.000000" y2="112.000000"  style="stroke:black; stroke-linecap:round; stroke-width:0.25;"/>
<line x1="403.000000" y1="120.000000" x2="439.000000" y2="120.000000"  style="stroke:black; stroke-linecap:round; stroke-width:0.25;"/>
<line x1="403.000000" y1="128.000000" x2="439.000000" y2="128.000000"  style="stroke:black; stroke-linecap:round; stroke-width:0.25;"/>
<line x1="407.000000" y1="148.000000" x2="407.000000" y2="160.000000"  style="stroke:black; stroke-linecap:round; stroke-width:0.25;"/>
<line x1="407.000000" y1="160.000000" x2="407.000000" y2="160.000000"  style="stroke:black; stroke-linecap:round; stroke-width:0.25;"/>
<line x1="407.000000" y1="160.000000" x2="411.000000" y2="160.000000"  style="stroke:black; stroke-linecap:round; stroke-width:0.25;"/>
<line x1="407.000000" y1="168.000000" x2="411.000000" y2="168.000000"  style="stroke:black; stroke-linecap:round; stroke-width:0.25;"/>
<line x1="435.000000" y1="164.000000" x2="439.000000" y2="164.000000"  style="stroke:black; stroke-linecap:round; stroke-width:0.25;"/>
<line x1="439.000000" y1="104.000000" x2="471.000000" y2="104.000000"  style="stroke:black; stroke-linecap:round; stroke-width:0.25;"/>
<line x1="439.000000" y1="112.000000" x2="463.000000" y2="112.000000"  style="stroke:black; stroke-linecap:round; stroke-width:0.25;"/>
<line x1="439.000000" y1="120.000000" x2="455.000000" y2="120.000000"  style="stroke:black; stroke-linecap:round; stroke-width:0.25;"/>
<line x1="439.000000" y1="128.000000" x2="447.000000" y2="128.000000"  style="stroke:black; stroke-linecap:round; stroke-width:0.25;"/>
<line x1="439.000000" y1="164.000000" x2="471.000000" y2="164.000000"  style="stroke:black; stroke-linecap:round; stroke-width:0.25;"/>
<line x1="447.000000" y1="128.000000" x2="447.000000" y2="156.000000"  style="stroke:black; stroke-linecap:round; stroke-width:0.25;"/>
<line x1="447.000000" y1="156.000000" x2="471.000000" y2="156.000000"  style="stroke:black; stroke-linecap:round; stroke-width:0.25;"/>
<line x1="455.000000" y1="120.000000" x2="455.000000" y2="148.000000"  style="stroke:black; stroke-linecap:round; stroke-width:0.25;"/>
<line x1="455.000000" y1="148.000000" x2="471.000000" y2="148.000000"  style="stroke:black; stroke-linecap:round; stroke-width:0.25;"/>
<line x1="463.000000" y1="112.000000" x2="463.000000" y2="140.000000"  style="stroke:black; stroke-linecap:round; stroke-width:0.25;"/>
<line x1="463.000000" y1="140.000000" x2="471.000000" y2="140.000000"  style="stroke:black; stroke-linecap:round; stroke-width:0.25;"/>
<line x1="471.000000" y1="104.000000" x2="471.000000" y2="132.000000"  style="stroke:black; stroke-linecap:round; stroke-width:0.25;"/>
<line x1="471.000000" y1="132.000000" x2="471.000000" y2="132.000000"  style="stroke:black; stroke-linecap:round; stroke-width:0.25;"/>
<line x1="471.000000" y1="132.000000" x2="475.000000" y2="132.000000"  style="stroke:black; stroke-linecap:round; stroke-width:0.25;"/>
<line x1="471.000000" y1="140.000000" x2="475.000000" y2="140.000000"  style="stroke:black; stroke-linecap:round; stroke-width:0.25;"/>
<line x1="471.000000" y1="148.000000" x2="475.000000" y2="148.000000"  style="stroke:black; stroke-linecap:round; stroke-width:0.25;"/>
<line x1="471.000000" y1="156.000000" x2="475.000000" y2="156.000000"  style="stroke:black; stroke-linecap:round; stroke-width:0.25;"/>
<line x1="471.000000" y1="164.000000" x2="475.000000" y2="164.000000"  style="stroke:black; stroke-linecap:round; stroke-width:0.25;"/>
<line x1="475.000000" y1="132.000000" x2="479.000000" y2="132.000000"  style="stroke:black; stroke-linecap:round; stroke-width:0.25;"/>
<line x1="475.000000" y1="140.000000" x2="479.000000" y2="140.000000"  style="stroke:black; stroke-linecap:round; stroke-width:0.25;"/>
<line x1="475.000000" y1="148.000000" x2="479.000000" y2="148.000000"  style="stroke:black; stroke-linecap:round; stroke-width:0.25;"/>
<line x1="475.000000" y1="156.000000" x2="479.000000" y2="156.000000"  style="stroke:black; stroke-linecap:round; stroke-width:0.25;"/>
<line x1="475.000000" y1="164.000000" x2="479.000000" y2="164.000000"  style="stroke:black; stroke-linecap:round; stroke-width:0.25;"/>
<line x1="479.000000" y1="132.000000" x2="489.000000" y2="132.000000"  style="stroke:black; stroke-linecap:round; stroke-width:0.25;"/>
<line x1="479.000000" y1="140.000000" x2="489.000000" y2="140.000000"  style="stroke:black; stroke-linecap:round; stroke-width:0.25;"/>
<line x1="479.000000" y1="148.000000" x2="489.000000" y2="148.000000"  style="stroke:black; stroke-linecap:round; stroke-width:0.25;"/>
<line x1="479.000000" y1="156.000000" x2="489.000000" y2="156.000000"  style="stroke:black; stroke-linecap:round; stroke-width:0.25;"/>
<line x1="479.000000" y1="164.000000" x2="489.000000" y2="164.000000"  style="stroke:black; stroke-linecap:round; stroke-width:0.25;"/>
</svg>
