<?xml version="1.0"?>
<svg xmlns="http://www.w3.org/2000/svg" xmlns:xlink="http://www.w3.org/1999/xlink" viewBox="0 0 201.800000 136.000000" width="100.900000mm" height="68.000000mm" version="1.1">
<a xlink:href="main-0x7ffc4dab96e0.svg">
<rect x="1.000000" y="1.000000" width="200.800000" height="135.000000" rx="0" ry="0" style="stroke:none;fill:#cccccc;"/>
<rect x="0.000000" y="0.000000" width="200.800000" height="135.000000" rx="0" ry="0" style="stroke:none;fill:#ffffff;"/>
</a>
<text x="10.000000" y="7.000000" font-family="Arial" font-size="7"></text>
<rect x="85.900000" y="25.000000" width="24.000000" height="24.000000" rx="0" ry="0" style="stroke:none;fill:#cccccc;"/>
<rect x="84.900000" y="24.000000" width="24.000000" height="24.000000" rx="0" ry="0" style="stroke:none;fill:#4B71A1;"/>
<text x="96.900000" y="38.000000" font-family="Arial" font-size="7" text-anchor="middle" fill="#FFFFFF">+</text>
<circle cx="86.900000" cy="26.000000" r="1"/>
<line x1="81.900000" y1="31.000000" x2="84.900000" y2="32.000000"  transform="rotate(0.000000,84.900000,32.000000)" style="stroke: black; stroke-width:0.25;"/>
<line x1="81.900000" y1="33.000000" x2="84.900000" y2="32.000000"  transform="rotate(0.000000,84.900000,32.000000)" style="stroke: black; stroke-width:0.25;"/>
<line x1="81.900000" y1="39.000000" x2="84.900000" y2="40.000000"  transform="rotate(0.000000,84.900000,40.000000)" style="stroke: black; stroke-width:0.25;"/>
<line x1="81.900000" y1="41.000000" x2="84.900000" y2="40.000000"  transform="rotate(0.000000,84.900000,40.000000)" style="stroke: black; stroke-width:0.25;"/>
<rect x="65.900000" y="57.000000" width="24.000000" height="24.000000" rx="0" ry="0" style="stroke:none;fill:#cccccc;"/>
<rect x="64.900000" y="56.000000" width="24.000000" height="24.000000" rx="0" ry="0" style="stroke:none;fill:#4B71A1;"/>
<text x="76.900000" y="70.000000" font-family="Arial" font-size="7" text-anchor="middle" fill="#FFFFFF">+</text>
<circle cx="66.900000" cy="58.000000" r="1"/>
<line x1="61.900000" y1="63.000000" x2="64.900000" y2="64.000000"  transform="rotate(0.000000,64.900000,64.000000)" style="stroke: black; stroke-width:0.25;"/>
<line x1="61.900000" y1="65.000000" x2="64.900000" y2="64.000000"  transform="rotate(0.000000,64.900000,64.000000)" style="stroke: black; stroke-width:0.25;"/>
<line x1="61.900000" y1="71.000000" x2="64.900000" y2="72.000000"  transform="rotate(0.000000,64.900000,72.000000)" style="stroke: black; stroke-width:0.25;"/>
<line x1="61.900000" y1="73.000000" x2="64.900000" y2="72.000000"  transform="rotate(0.000000,64.900000,72.000000)" style="stroke: black; stroke-width:0.25;"/>
<rect x="65.000000" y="89.000000" width="25.800000" height="24.000000" rx="0" ry="0" style="stroke:none;fill:#cccccc;"/>
<rect x="64.000000" y="88.000000" width="25.800000" height="24.000000" rx="0" ry="0" style="stroke:none;fill:#f44800;"/>
<text x="76.900000" y="102.000000" font-family="Arial" font-size="7" text-anchor="middle" fill="#FFFFFF">0.25</text>
<circle cx="66.000000" cy="90.000000" r="1"/>
<rect x="106.800000" y="73.000000" width="24.000000" height="24.000000" rx="0" ry="0" style="stroke:none;fill:#cccccc;"/>
<rect x="105.800000" y="72.000000" width="24.000000" height="24.000000" rx="0" ry="0" style="stroke:none;fill:#4B71A1;"/>
<text x="117.800000" y="86.000000" font-family="Arial" font-size="7" text-anchor="middle" fill="#FFFFFF">*</text>
<circle cx="107.800000" cy="74.000000" r="1"/>
<line x1="102.800000" y1="79.000000" x2="105.800000" y2="80.000000"  transform="rotate(0.000000,105.800000,80.000000)" style="stroke: black; stroke-width:0.25;"/>
<line x1="102.800000" y1="81.000000" x2="105.800000" y2="80.000000"  transform="rotate(0.000000,105.800000,80.000000)" style="stroke: black; stroke-width:0.25;"/>
<line x1="102.800000" y1="87.000000" x2="105.800000" y2="88.000000"  transform="rotate(0.000000,105.800000,88.000000)" style="stroke: black; stroke-width:0.25;"/>
<line x1="102.800000" y1="89.000000" x2="105.800000" y2="88.000000"  transform="rotate(0.000000,105.800000,88.000000)" style="stroke: black; stroke-width:0.25;"/>
<rect x="146.800000" y="57.000000" width="24.000000" height="24.000000" rx="0" ry="0" style="stroke:none;fill:#cccccc;"/>
<rect x="145.800000" y="56.000000" width="24.000000" height="24.000000" rx="0" ry="0" style="stroke:none;fill:#4B71A1;"/>
<text x="157.800000" y="70.000000" font-family="Arial" font-size="7" text-anchor="middle" fill="#FFFFFF">+</text>
<circle cx="147.800000" cy="58.000000" r="1"/>
<line x1="142.800000" y1="63.000000" x2="145.800000" y2="64.000000"  transform="rotate(0.000000,145.800000,64.000000)" style="stroke: black; stroke-width:0.25;"/>
<line x1="142.800000" y1="65.000000" x2="145.800000" y2="64.000000"  transform="rotate(0.000000,145.800000,64.000000)" style="stroke: black; stroke-width:0.25;"/>
<line x1="142.800000" y1="71.000000" x2="145.800000" y2="72.000000"  transform="rotate(0.000000,145.800000,72.000000)" style="stroke: black; stroke-width:0.25;"/>
<line x1="142.800000" y1="73.000000" x2="145.800000" y2="72.000000"  transform="rotate(0.000000,145.800000,72.000000)" style="stroke: black; stroke-width:0.25;"/>
<line x1="15.000000" y1="15.000000" x2="15.000000" y2="121.000000"  style="stroke: black; stroke-linecap:round; stroke-width:0.25; stroke-dasharray:3,3;"/>
<line x1="15.000000" y1="121.000000" x2="186.800000" y2="121.000000"  style="stroke: black; stroke-linecap:round; stroke-width:0.25; stroke-dasharray:3,3;"/>
<line x1="186.800000" y1="121.000000" x2="186.800000" y2="15.000000"  style="stroke: black; stroke-linecap:round; stroke-width:0.25; stroke-dasharray:3,3;"/>
<line x1="15.000000" y1="15.000000" x2="20.000000" y2="15.000000"  style="stroke: black; stroke-linecap:round; stroke-width:0.25; stroke-dasharray:3,3;"/>
<line x1="42.575000" y1="15.000000" x2="186.800000" y2="15.000000"  style="stroke: black; stroke-linecap:round; stroke-width:0.25; stroke-dasharray:3,3;"/>
<text x="20.000000" y="17.000000" font-family="Arial" font-size="7">ermix</text>
<line x1="188.800000" y1="67.000000" x2="191.800000" y2="68.000000"  transform="rotate(0.000000,191.800000,68.000000)" style="stroke: black; stroke-width:0.25;"/>
<line x1="188.800000" y1="69.000000" x2="191.800000" y2="68.000000"  transform="rotate(0.000000,191.800000,68.000000)" style="stroke: black; stroke-width:0.25;"/>
<line x1="10.000000" y1="56.000000" x2="20.000000" y2="56.000000"  style="stroke:black; stroke-linecap:round; stroke-width:0.25;"/>
<line x1="10.000000" y1="64.000000" x2="20.000000" y2="64.000000"  style="stroke:black; stroke-linecap:round; stroke-width:0.25;"/>
<line x1="10.000000" y1="72.000000" x2="20.000000" y2="72.000000"  style="stroke:black; stroke-linecap:round; stroke-width:0.25;"/>
<line x1="10.000000" y1="80.000000" x2="20.000000" y2="80.000000"  style="stroke:black; stroke-linecap:round; stroke-width:0.25;"/>
<line x1="20.000000" y1="56.000000" x2="24.000000" y2="56.000000"  style="stroke:black; stroke-linecap:round; stroke-width:0.25;"/>
<line x1="20.000000" y1="64.000000" x2="24.000000" y2="64.000000"  style="stroke:black; stroke-linecap:round; stroke-width:0.25;"/>
<line x1="20.000000" y1="72.000000" x2="24.000000" y2="72.000000"  style="stroke:black; stroke-linecap:round; stroke-width:0.25;"/>
<line x1="20.000000" y1="80.000000" x2="24.000000" y2="80.000000"  style="stroke:black; stroke-linecap:round; stroke-width:0.25;"/>
<line x1="24.000000" y1="56.000000" x2="28.000000" y2="56.000000"  style="stroke:black; stroke-linecap:round; stroke-width:0.25;"/>
<line x1="24.000000" y1="64.000000" x2="28.000000" y2="64.000000"  style="stroke:black; stroke-linecap:round; stroke-width:0.25;"/>
<line x1="24.000000" y1="72.000000" x2="28.000000" y2="72.000000"  style="stroke:black; stroke-linecap:round; stroke-width:0.25;"/>
<line x1="24.000000" y1="80.000000" x2="28.000000" y2="80.000000"  style="stroke:black; stroke-linecap:round; stroke-width:0.25;"/>
<line x1="28.000000" y1="32.000000" x2="60.000000" y2="32.000000"  style="stroke:black; stroke-linecap:round; stroke-width:0.25;"/>
<line x1="28.000000" y1="56.000000" x2="28.000000" y2="32.000000"  style="stroke:black; stroke-linecap:round; stroke-width:0.25;"/>
<line x1="28.000000" y1="56.000000" x2="28.000000" y2="56.000000"  style="stroke:black; stroke-linecap:round; stroke-width:0.25;"/>
<line x1="28.000000" y1="64.000000" x2="36.000000" y2="64.000000"  style="stroke:black; stroke-linecap:round; stroke-width:0.25;"/>
<line x1="28.000000" y1="72.000000" x2="44.000000" y2="72.000000"  style="stroke:black; stroke-linecap:round; stroke-width:0.25;"/>
<line x1="28.000000" y1="80.000000" x2="52.000000" y2="80.000000"  style="stroke:black; stroke-linecap:round; stroke-width:0.25;"/>
<line x1="36.000000" y1="40.000000" x2="60.000000" y2="40.000000"  style="stroke:black; stroke-linecap:round; stroke-width:0.25;"/>
<line x1="36.000000" y1="64.000000" x2="36.000000" y2="40.000000"  style="stroke:black; stroke-linecap:round; stroke-width:0.25;"/>
<line x1="44.000000" y1="64.000000" x2="60.000000" y2="64.000000"  style="stroke:black; stroke-linecap:round; stroke-width:0.25;"/>
<line x1="44.000000" y1="72.000000" x2="44.000000" y2="64.000000"  style="stroke:black; stroke-linecap:round; stroke-width:0.25;"/>
<line x1="52.000000" y1="72.000000" x2="60.000000" y2="72.000000"  style="stroke:black; stroke-linecap:round; stroke-width:0.25;"/>
<line x1="52.000000" y1="80.000000" x2="52.000000" y2="72.000000"  style="stroke:black; stroke-linecap:round; stroke-width:0.25;"/>
<line x1="60.000000" y1="64.000000" x2="60.900000" y2="64.000000"  style="stroke:black; stroke-linecap:round; stroke-width:0.25;"/>
<line x1="60.000000" y1="72.000000" x2="60.900000" y2="72.000000"  style="stroke:black; stroke-linecap:round; stroke-width:0.25;"/>
<line x1="60.000000" y1="32.000000" x2="80.900000" y2="32.000000"  style="stroke:black; stroke-linecap:round; stroke-width:0.25;"/>
<line x1="60.000000" y1="40.000000" x2="80.900000" y2="40.000000"  style="stroke:black; stroke-linecap:round; stroke-width:0.25;"/>
<line x1="60.900000" y1="64.000000" x2="64.900000" y2="64.000000"  style="stroke:black; stroke-linecap:round; stroke-width:0.25;"/>
<line x1="60.900000" y1="72.000000" x2="64.900000" y2="72.000000"  style="stroke:black; stroke-linecap:round; stroke-width:0.25;"/>
<line x1="80.900000" y1="32.000000" x2="84.900000" y2="32.000000"  style="stroke:black; stroke-linecap:round; stroke-width:0.25;"/>
<line x1="80.900000" y1="40.000000" x2="84.900000" y2="40.000000"  style="stroke:black; stroke-linecap:round; stroke-width:0.25;"/>
<line x1="88.900000" y1="68.000000" x2="92.900000" y2="68.000000"  style="stroke:black; stroke-linecap:round; stroke-width:0.25;"/>
<line x1="89.800000" y1="100.000000" x2="93.800000" y2="100.000000"  style="stroke:black; stroke-linecap:round; stroke-width:0.25;"/>
<line x1="92.900000" y1="68.000000" x2="93.800000" y2="68.000000"  style="stroke:black; stroke-linecap:round; stroke-width:0.25;"/>
<line x1="93.800000" y1="88.000000" x2="101.800000" y2="88.000000"  style="stroke:black; stroke-linecap:round; stroke-width:0.25;"/>
<line x1="93.800000" y1="100.000000" x2="93.800000" y2="88.000000"  style="stroke:black; stroke-linecap:round; stroke-width:0.25;"/>
<line x1="93.800000" y1="100.000000" x2="93.800000" y2="100.000000"  style="stroke:black; stroke-linecap:round; stroke-width:0.25;"/>
<line x1="93.800000" y1="68.000000" x2="101.800000" y2="68.000000"  style="stroke:black; stroke-linecap:round; stroke-width:0.25;"/>
<line x1="101.800000" y1="80.000000" x2="105.800000" y2="80.000000"  style="stroke:black; stroke-linecap:round; stroke-width:0.25;"/>
<line x1="101.800000" y1="88.000000" x2="105.800000" y2="88.000000"  style="stroke:black; stroke-linecap:round; stroke-width:0.25;"/>
<line x1="101.800000" y1="68.000000" x2="101.800000" y2="80.000000"  style="stroke:black; stroke-linecap:round; stroke-width:0.25;"/>
<line x1="101.800000" y1="80.000000" x2="101.800000" y2="80.000000"  style="stroke:black; stroke-linecap:round; stroke-width:0.25;"/>
<line x1="108.900000" y1="36.000000" x2="112.900000" y2="36.000000"  style="stroke:black; stroke-linecap:round; stroke-width:0.25;"/>
<line x1="112.900000" y1="36.000000" x2="133.800000" y2="36.000000"  style="stroke:black; stroke-linecap:round; stroke-width:0.25;"/>
<line x1="129.800000" y1="84.000000" x2="133.800000" y2="84.000000"  style="stroke:black; stroke-linecap:round; stroke-width:0.25;"/>
<line x1="133.800000" y1="36.000000" x2="141.800000" y2="36.000000"  style="stroke:black; stroke-linecap:round; stroke-width:0.25;"/>
<line x1="133.800000" y1="72.000000" x2="141.800000" y2="72.000000"  style="stroke:black; stroke-linecap:round; stroke-width:0.25;"/>
<line x1="133.800000" y1="84.000000" x2="133.800000" y2="72.000000"  style="stroke:black; stroke-linecap:round; stroke-width:0.25;"/>
<line x1="133.800000" y1="84.000000" x2="133.800000" y2="84.000000"  style="stroke:black; stroke-linecap:round; stroke-width:0.25;"/>
<line x1="141.800000" y1="36.000000" x2="141.800000" y2="64.000000"  style="stroke:black; stroke-linecap:round; stroke-width:0.25;"/>
<line x1="141.800000" y1="64.000000" x2="141.800000" y2="64.000000"  style="stroke:black; stroke-linecap:round; stroke-width:0.25;"/>
<line x1="141.800000" y1="64.000000" x2="145.800000" y2="64.000000"  style="stroke:black; stroke-linecap:round; stroke-width:0.25;"/>
<line x1="141.800000" y1="72.000000" x2="145.800000" y2="72.000000"  style="stroke:black; stroke-linecap:round; stroke-width:0.25;"/>
<line x1="169.800000" y1="68.000000" x2="173.800000" y2="68.000000"  style="stroke:black; stroke-linecap:round; stroke-width:0.25;"/>
<line x1="173.800000" y1="68.000000" x2="173.800000" y2="68.000000"  style="stroke:black; stroke-linecap:round; stroke-width:0.25;"/>
<line x1="173.800000" y1="68.000000" x2="177.800000" y2="68.000000"  style="stroke:black; stroke-linecap:round; stroke-width:0.25;"/>
<line x1="177.800000" y1="68.000000" x2="181.800000" y2="68.000000"  style="stroke:black; stroke-linecap:round; stroke-width:0.25;"/>
<line x1="181.800000" y1="68.000000" x2="191.800000" y2="68.000000"  style="stroke:black; stroke-linecap:round; stroke-width:0.25;"/>
</svg>
