<?xml version="1.0"?>
<svg xmlns="http://www.w3.org/2000/svg" xmlns:xlink="http://www.w3.org/1999/xlink" viewBox="0 0 387.800000 112.000000" width="193.900000mm" height="56.000000mm" version="1.1">
<a xlink:href="db2linear-0x7faae073a810.svg">
<rect x="1.000000" y="1.000000" width="386.800000" height="111.000000" rx="0" ry="0" style="stroke:none;fill:#cccccc;"/>
<rect x="0.000000" y="0.000000" width="386.800000" height="111.000000" rx="0" ry="0" style="stroke:none;fill:#ffffff;"/>
</a>
<text x="10.000000" y="7.000000" font-family="Arial" font-size="7"></text>
<rect x="45.000000" y="45.000000" width="258.000000" height="24.000000" rx="0" ry="0" style="stroke:none;fill:#cccccc;"/>
<rect x="44.000000" y="44.000000" width="258.000000" height="24.000000" rx="0" ry="0" style="stroke:none;fill:#477881;"/>
<text x="173.000000" y="58.000000" font-family="Arial" font-size="7" text-anchor="middle" fill="#FFFFFF">vslider(Band 6, 0.0f, -70.0f, 12.0f, 0.10000000000000001f)</text>
<circle cx="46.000000" cy="46.000000" r="1"/>
<line x1="35.000000" y1="35.000000" x2="35.000000" y2="77.000000"  style="stroke: black; stroke-linecap:round; stroke-width:0.25; stroke-dasharray:3,3;"/>
<line x1="35.000000" y1="77.000000" x2="311.000000" y2="77.000000"  style="stroke: black; stroke-linecap:round; stroke-width:0.25; stroke-dasharray:3,3;"/>
<line x1="311.000000" y1="77.000000" x2="311.000000" y2="35.000000"  style="stroke: black; stroke-linecap:round; stroke-width:0.25; stroke-dasharray:3,3;"/>
<line x1="35.000000" y1="35.000000" x2="40.000000" y2="35.000000"  style="stroke: black; stroke-linecap:round; stroke-width:0.25; stroke-dasharray:3,3;"/>
<line x1="78.700000" y1="35.000000" x2="311.000000" y2="35.000000"  style="stroke: black; stroke-linecap:round; stroke-width:0.25; stroke-dasharray:3,3;"/>
<text x="40.000000" y="37.000000" font-family="Arial" font-size="7">vgroup(EQ)</text>
<line x1="25.000000" y1="25.000000" x2="25.000000" y2="87.000000"  style="stroke: black; stroke-linecap:round; stroke-width:0.25; stroke-dasharray:3,3;"/>
<line x1="25.000000" y1="87.000000" x2="321.000000" y2="87.000000"  style="stroke: black; stroke-linecap:round; stroke-width:0.25; stroke-dasharray:3,3;"/>
<line x1="321.000000" y1="87.000000" x2="321.000000" y2="25.000000"  style="stroke: black; stroke-linecap:round; stroke-width:0.25; stroke-dasharray:3,3;"/>
<line x1="25.000000" y1="25.000000" x2="30.000000" y2="25.000000"  style="stroke: black; stroke-linecap:round; stroke-width:0.25; stroke-dasharray:3,3;"/>
<line x1="129.975000" y1="25.000000" x2="321.000000" y2="25.000000"  style="stroke: black; stroke-linecap:round; stroke-width:0.25; stroke-dasharray:3,3;"/>
<text x="30.000000" y="27.000000" font-family="Arial" font-size="7">eq_group(vsli...0000000001f))</text>
<a xlink:href="smoo-0x7faadcee4d60.svg">
<rect x="331.000000" y="45.000000" width="25.800000" height="24.000000" rx="0" ry="0" style="stroke:none;fill:#cccccc;"/>
<rect x="330.000000" y="44.000000" width="25.800000" height="24.000000" rx="0" ry="0" style="stroke:none;fill:#003366;"/>
</a>
<a xlink:href="smoo-0x7faadcee4d60.svg">
<text x="342.900000" y="58.000000" font-family="Arial" font-size="7" text-anchor="middle" fill="#FFFFFF">smoo</text>
</a>
<circle cx="332.000000" cy="46.000000" r="1"/>
<line x1="327.000000" y1="55.000000" x2="330.000000" y2="56.000000"  transform="rotate(0.000000,330.000000,56.000000)" style="stroke: black; stroke-width:0.25;"/>
<line x1="327.000000" y1="57.000000" x2="330.000000" y2="56.000000"  transform="rotate(0.000000,330.000000,56.000000)" style="stroke: black; stroke-width:0.25;"/>
<line x1="15.000000" y1="15.000000" x2="15.000000" y2="97.000000"  style="stroke: black; stroke-linecap:round; stroke-width:0.25; stroke-dasharray:3,3;"/>
<line x1="15.000000" y1="97.000000" x2="372.800000" y2="97.000000"  style="stroke: black; stroke-linecap:round; stroke-width:0.25; stroke-dasharray:3,3;"/>
<line x1="372.800000" y1="97.000000" x2="372.800000" y2="15.000000"  style="stroke: black; stroke-linecap:round; stroke-width:0.25; stroke-dasharray:3,3;"/>
<line x1="15.000000" y1="15.000000" x2="20.000000" y2="15.000000"  style="stroke: black; stroke-linecap:round; stroke-width:0.25; stroke-dasharray:3,3;"/>
<line x1="52.250000" y1="15.000000" x2="372.800000" y2="15.000000"  style="stroke: black; stroke-linecap:round; stroke-width:0.25; stroke-dasharray:3,3;"/>
<text x="20.000000" y="17.000000" font-family="Arial" font-size="7">fader(6)</text>
<line x1="374.800000" y1="55.000000" x2="377.800000" y2="56.000000"  transform="rotate(0.000000,377.800000,56.000000)" style="stroke: black; stroke-width:0.25;"/>
<line x1="374.800000" y1="57.000000" x2="377.800000" y2="56.000000"  transform="rotate(0.000000,377.800000,56.000000)" style="stroke: black; stroke-width:0.25;"/>
<line x1="302.000000" y1="56.000000" x2="306.000000" y2="56.000000"  style="stroke:black; stroke-linecap:round; stroke-width:0.25;"/>
<line x1="306.000000" y1="56.000000" x2="316.000000" y2="56.000000"  style="stroke:black; stroke-linecap:round; stroke-width:0.25;"/>
<line x1="316.000000" y1="56.000000" x2="326.000000" y2="56.000000"  style="stroke:black; stroke-linecap:round; stroke-width:0.25;"/>
<line x1="326.000000" y1="56.000000" x2="326.000000" y2="56.000000"  style="stroke:black; stroke-linecap:round; stroke-width:0.25;"/>
<line x1="326.000000" y1="56.000000" x2="330.000000" y2="56.000000"  style="stroke:black; stroke-linecap:round; stroke-width:0.25;"/>
<line x1="355.800000" y1="56.000000" x2="359.800000" y2="56.000000"  style="stroke:black; stroke-linecap:round; stroke-width:0.25;"/>
<line x1="359.800000" y1="56.000000" x2="359.800000" y2="56.000000"  style="stroke:black; stroke-linecap:round; stroke-width:0.25;"/>
<line x1="359.800000" y1="56.000000" x2="363.800000" y2="56.000000"  style="stroke:black; stroke-linecap:round; stroke-width:0.25;"/>
<line x1="363.800000" y1="56.000000" x2="367.800000" y2="56.000000"  style="stroke:black; stroke-linecap:round; stroke-width:0.25;"/>
<line x1="367.800000" y1="56.000000" x2="377.800000" y2="56.000000"  style="stroke:black; stroke-linecap:round; stroke-width:0.25;"/>
</svg>
