<?xml version="1.0"?>
<svg xmlns="http://www.w3.org/2000/svg" xmlns:xlink="http://www.w3.org/1999/xlink" viewBox="0 0 415.000000 120.000000" width="207.500000mm" height="60.000000mm" version="1.1">
<a xlink:href="er8comb-0x7fc73f38b890.svg">
<rect x="1.000000" y="1.000000" width="414.000000" height="119.000000" rx="0" ry="0" style="stroke:none;fill:#cccccc;"/>
<rect x="0.000000" y="0.000000" width="414.000000" height="119.000000" rx="0" ry="0" style="stroke:none;fill:#ffffff;"/>
</a>
<text x="10.000000" y="7.000000" font-family="Arial" font-size="7"></text>
<rect x="49.000000" y="69.000000" width="24.000000" height="24.000000" rx="0" ry="0" style="stroke:none;fill:#cccccc;"/>
<rect x="48.000000" y="68.000000" width="24.000000" height="24.000000" rx="0" ry="0" style="stroke:none;fill:#4B71A1;"/>
<text x="60.000000" y="82.000000" font-family="Arial" font-size="7" text-anchor="middle" fill="#FFFFFF">+</text>
<circle cx="50.000000" cy="70.000000" r="1"/>
<line x1="45.000000" y1="75.000000" x2="48.000000" y2="76.000000"  transform="rotate(0.000000,48.000000,76.000000)" style="stroke: black; stroke-width:0.25;"/>
<line x1="45.000000" y1="77.000000" x2="48.000000" y2="76.000000"  transform="rotate(0.000000,48.000000,76.000000)" style="stroke: black; stroke-width:0.25;"/>
<line x1="45.000000" y1="83.000000" x2="48.000000" y2="84.000000"  transform="rotate(0.000000,48.000000,84.000000)" style="stroke: black; stroke-width:0.25;"/>
<line x1="45.000000" y1="85.000000" x2="48.000000" y2="84.000000"  transform="rotate(0.000000,48.000000,84.000000)" style="stroke: black; stroke-width:0.25;"/>
<a xlink:href="delay-0x7fc73f37bbe0.svg">
<rect x="99.000000" y="65.000000" width="129.000000" height="24.000000" rx="0" ry="0" style="stroke:none;fill:#cccccc;"/>
<rect x="98.000000" y="64.000000" width="129.000000" height="24.000000" rx="0" ry="0" style="stroke:none;fill:#003366;"/>
</a>
<a xlink:href="delay-0x7fc73f37bbe0.svg">
<text x="162.500000" y="78.000000" font-family="Arial" font-size="7" text-anchor="middle" fill="#FFFFFF">delay((192000...: int),1 : -)</text>
</a>
<circle cx="100.000000" cy="66.000000" r="1"/>
<line x1="95.000000" y1="75.000000" x2="98.000000" y2="76.000000"  transform="rotate(0.000000,98.000000,76.000000)" style="stroke: black; stroke-width:0.25;"/>
<line x1="95.000000" y1="77.000000" x2="98.000000" y2="76.000000"  transform="rotate(0.000000,98.000000,76.000000)" style="stroke: black; stroke-width:0.25;"/>
<rect x="145.600000" y="25.000000" width="25.800000" height="24.000000" rx="0" ry="0" style="stroke:none;fill:#cccccc;"/>
<rect x="144.600000" y="24.000000" width="25.800000" height="24.000000" rx="0" ry="0" style="stroke:none;fill:#f44800;"/>
<text x="157.500000" y="38.000000" font-family="Arial" font-size="7" text-anchor="middle" fill="#FFFFFF">-0.5</text>
<circle cx="168.400000" cy="46.000000" r="1"/>
<rect x="105.600000" y="29.000000" width="24.000000" height="24.000000" rx="0" ry="0" style="stroke:none;fill:#cccccc;"/>
<rect x="104.600000" y="28.000000" width="24.000000" height="24.000000" rx="0" ry="0" style="stroke:none;fill:#4B71A1;"/>
<text x="116.600000" y="42.000000" font-family="Arial" font-size="7" text-anchor="middle" fill="#FFFFFF">*</text>
<circle cx="126.600000" cy="50.000000" r="1"/>
<line x1="131.600000" y1="43.000000" x2="128.600000" y2="44.000000"  transform="rotate(0.000000,128.600000,44.000000)" style="stroke: black; stroke-width:0.25;"/>
<line x1="131.600000" y1="45.000000" x2="128.600000" y2="44.000000"  transform="rotate(0.000000,128.600000,44.000000)" style="stroke: black; stroke-width:0.25;"/>
<line x1="131.600000" y1="35.000000" x2="128.600000" y2="36.000000"  transform="rotate(0.000000,128.600000,36.000000)" style="stroke: black; stroke-width:0.25;"/>
<line x1="131.600000" y1="37.000000" x2="128.600000" y2="36.000000"  transform="rotate(0.000000,128.600000,36.000000)" style="stroke: black; stroke-width:0.25;"/>
<line x1="229.000000" y1="76.000000" x2="229.000000" y2="72.000000"  style="stroke:black; stroke-linecap:round; stroke-width:0.25;"/>
<line x1="229.000000" y1="72.000000" x2="233.000000" y2="72.000000"  style="stroke:black; stroke-linecap:round; stroke-width:0.25;"/>
<line x1="233.000000" y1="72.000000" x2="233.000000" y2="76.000000"  style="stroke:black; stroke-linecap:round; stroke-width:0.25;"/>
<rect x="270.000000" y="53.040000" width="24.000000" height="24.000000" rx="0" ry="0" style="stroke:none;fill:#cccccc;"/>
<rect x="269.000000" y="52.040000" width="24.000000" height="24.000000" rx="0" ry="0" style="stroke:none;fill:#f44800;"/>
<text x="281.000000" y="66.040000" font-family="Arial" font-size="7" text-anchor="middle" fill="#FFFFFF">0.5</text>
<circle cx="271.000000" cy="54.040000" r="1"/>
<line x1="260.000000" y1="43.040000" x2="260.000000" y2="85.040000"  style="stroke: black; stroke-linecap:round; stroke-width:0.25; stroke-dasharray:3,3;"/>
<line x1="260.000000" y1="85.040000" x2="302.000000" y2="85.040000"  style="stroke: black; stroke-linecap:round; stroke-width:0.25; stroke-dasharray:3,3;"/>
<line x1="302.000000" y1="85.040000" x2="302.000000" y2="43.040000"  style="stroke: black; stroke-linecap:round; stroke-width:0.25; stroke-dasharray:3,3;"/>
<line x1="260.000000" y1="43.040000" x2="265.000000" y2="43.040000"  style="stroke: black; stroke-linecap:round; stroke-width:0.25; stroke-dasharray:3,3;"/>
<line x1="277.900000" y1="43.040000" x2="302.000000" y2="43.040000"  style="stroke: black; stroke-linecap:round; stroke-width:0.25; stroke-dasharray:3,3;"/>
<text x="265.000000" y="45.040000" font-family="Arial" font-size="7">aN</text>
<rect x="320.000000" y="49.040000" width="24.000000" height="24.000000" rx="0" ry="0" style="stroke:none;fill:#cccccc;"/>
<rect x="319.000000" y="48.040000" width="24.000000" height="24.000000" rx="0" ry="0" style="stroke:none;fill:#4B71A1;"/>
<text x="331.000000" y="62.040000" font-family="Arial" font-size="7" text-anchor="middle" fill="#FFFFFF">*</text>
<circle cx="321.000000" cy="50.040000" r="1"/>
<line x1="316.000000" y1="55.040000" x2="319.000000" y2="56.040000"  transform="rotate(0.000000,319.000000,56.040000)" style="stroke: black; stroke-width:0.25;"/>
<line x1="316.000000" y1="57.040000" x2="319.000000" y2="56.040000"  transform="rotate(0.000000,319.000000,56.040000)" style="stroke: black; stroke-width:0.25;"/>
<line x1="316.000000" y1="63.040000" x2="319.000000" y2="64.040000"  transform="rotate(0.000000,319.000000,64.040000)" style="stroke: black; stroke-width:0.25;"/>
<line x1="316.000000" y1="65.040000" x2="319.000000" y2="64.040000"  transform="rotate(0.000000,319.000000,64.040000)" style="stroke: black; stroke-width:0.25;"/>
<rect x="360.000000" y="49.000000" width="24.000000" height="24.000000" rx="0" ry="0" style="stroke:none;fill:#cccccc;"/>
<rect x="359.000000" y="48.000000" width="24.000000" height="24.000000" rx="0" ry="0" style="stroke:none;fill:#4B71A1;"/>
<text x="371.000000" y="62.000000" font-family="Arial" font-size="7" text-anchor="middle" fill="#FFFFFF">mem</text>
<circle cx="361.000000" cy="50.000000" r="1"/>
<line x1="356.000000" y1="59.000000" x2="359.000000" y2="60.000000"  transform="rotate(0.000000,359.000000,60.000000)" style="stroke: black; stroke-width:0.25;"/>
<line x1="356.000000" y1="61.000000" x2="359.000000" y2="60.000000"  transform="rotate(0.000000,359.000000,60.000000)" style="stroke: black; stroke-width:0.25;"/>
<line x1="15.000000" y1="15.000000" x2="15.000000" y2="105.000000"  style="stroke: black; stroke-linecap:round; stroke-width:0.25; stroke-dasharray:3,3;"/>
<line x1="15.000000" y1="105.000000" x2="400.000000" y2="105.000000"  style="stroke: black; stroke-linecap:round; stroke-width:0.25; stroke-dasharray:3,3;"/>
<line x1="400.000000" y1="105.000000" x2="400.000000" y2="15.000000"  style="stroke: black; stroke-linecap:round; stroke-width:0.25; stroke-dasharray:3,3;"/>
<line x1="15.000000" y1="15.000000" x2="20.000000" y2="15.000000"  style="stroke: black; stroke-linecap:round; stroke-width:0.25; stroke-dasharray:3,3;"/>
<line x1="119.975000" y1="15.000000" x2="400.000000" y2="15.000000"  style="stroke: black; stroke-linecap:round; stroke-width:0.25; stroke-dasharray:3,3;"/>
<text x="20.000000" y="17.000000" font-family="Arial" font-size="7">fb_comb((1920...)(0.5f)(0.5f)</text>
<line x1="402.000000" y1="59.000000" x2="405.000000" y2="60.000000"  transform="rotate(0.000000,405.000000,60.000000)" style="stroke: black; stroke-width:0.25;"/>
<line x1="402.000000" y1="61.000000" x2="405.000000" y2="60.000000"  transform="rotate(0.000000,405.000000,60.000000)" style="stroke: black; stroke-width:0.25;"/>
<line x1="10.000000" y1="60.000000" x2="20.000000" y2="60.000000"  style="stroke:black; stroke-linecap:round; stroke-width:0.25;"/>
<line x1="20.000000" y1="60.000000" x2="24.000000" y2="60.000000"  style="stroke:black; stroke-linecap:round; stroke-width:0.25;"/>
<line x1="24.000000" y1="60.000000" x2="28.000000" y2="60.000000"  style="stroke:black; stroke-linecap:round; stroke-width:0.25;"/>
<line x1="28.000000" y1="60.000000" x2="36.000000" y2="60.000000"  style="stroke:black; stroke-linecap:round; stroke-width:0.25;"/>
<line x1="36.000000" y1="60.000000" x2="36.000000" y2="84.000000"  style="stroke:black; stroke-linecap:round; stroke-width:0.25;"/>
<line x1="36.000000" y1="84.000000" x2="36.000000" y2="84.000000"  style="stroke:black; stroke-linecap:round; stroke-width:0.25;"/>
<line x1="36.000000" y1="84.000000" x2="44.000000" y2="84.000000"  style="stroke:black; stroke-linecap:round; stroke-width:0.25;"/>
<line x1="44.000000" y1="40.000000" x2="44.000000" y2="40.000000"  style="stroke:black; stroke-linecap:round; stroke-width:0.25;"/>
<line x1="44.000000" y1="40.000000" x2="44.000000" y2="76.000000"  style="stroke:black; stroke-linecap:round; stroke-width:0.25;"/>
<line x1="44.000000" y1="76.000000" x2="44.000000" y2="76.000000"  style="stroke:black; stroke-linecap:round; stroke-width:0.25;"/>
<line x1="44.000000" y1="76.000000" x2="48.000000" y2="76.000000"  style="stroke:black; stroke-linecap:round; stroke-width:0.25;"/>
<line x1="44.000000" y1="84.000000" x2="48.000000" y2="84.000000"  style="stroke:black; stroke-linecap:round; stroke-width:0.25;"/>
<line x1="72.000000" y1="80.000000" x2="76.000000" y2="80.000000"  style="stroke:black; stroke-linecap:round; stroke-width:0.25;"/>
<line x1="76.000000" y1="80.000000" x2="94.000000" y2="76.000000"  style="stroke:black; stroke-linecap:round; stroke-width:0.25;"/>
<line x1="76.000000" y1="80.000000" x2="94.000000" y2="96.000000"  style="stroke:black; stroke-linecap:round; stroke-width:0.25;"/>
<line x1="94.000000" y1="76.000000" x2="98.000000" y2="76.000000"  style="stroke:black; stroke-linecap:round; stroke-width:0.25;"/>
<line x1="94.000000" y1="96.000000" x2="162.500000" y2="96.000000"  style="stroke:black; stroke-linecap:round; stroke-width:0.25;"/>
<line x1="100.600000" y1="40.000000" x2="44.000000" y2="40.000000"  style="stroke:black; stroke-linecap:round; stroke-width:0.25;"/>
<line x1="104.600000" y1="40.000000" x2="100.600000" y2="40.000000"  style="stroke:black; stroke-linecap:round; stroke-width:0.25;"/>
<line x1="132.600000" y1="36.000000" x2="128.600000" y2="36.000000"  style="stroke:black; stroke-linecap:round; stroke-width:0.25;"/>
<line x1="132.600000" y1="44.000000" x2="128.600000" y2="44.000000"  style="stroke:black; stroke-linecap:round; stroke-width:0.25;"/>
<line x1="132.600000" y1="44.000000" x2="132.600000" y2="44.000000"  style="stroke:black; stroke-linecap:round; stroke-width:0.25;"/>
<line x1="132.600000" y1="56.000000" x2="132.600000" y2="44.000000"  style="stroke:black; stroke-linecap:round; stroke-width:0.25;"/>
<line x1="140.600000" y1="36.000000" x2="132.600000" y2="36.000000"  style="stroke:black; stroke-linecap:round; stroke-width:0.25;"/>
<line x1="140.600000" y1="56.000000" x2="132.600000" y2="56.000000"  style="stroke:black; stroke-linecap:round; stroke-width:0.25;"/>
<line x1="144.600000" y1="36.000000" x2="140.600000" y2="36.000000"  style="stroke:black; stroke-linecap:round; stroke-width:0.25;"/>
<line x1="157.500000" y1="56.000000" x2="140.600000" y2="56.000000"  style="stroke:black; stroke-linecap:round; stroke-width:0.25;"/>
<line x1="162.500000" y1="96.000000" x2="231.000000" y2="96.000000"  style="stroke:black; stroke-linecap:round; stroke-width:0.25;"/>
<line x1="174.400000" y1="56.000000" x2="157.500000" y2="56.000000"  style="stroke:black; stroke-linecap:round; stroke-width:0.25;"/>
<line x1="227.000000" y1="76.000000" x2="231.000000" y2="76.000000"  style="stroke:black; stroke-linecap:round; stroke-width:0.25;"/>
<line x1="231.000000" y1="56.000000" x2="174.400000" y2="56.000000"  style="stroke:black; stroke-linecap:round; stroke-width:0.25;"/>
<line x1="231.000000" y1="56.000000" x2="231.000000" y2="56.000000"  style="stroke:black; stroke-linecap:round; stroke-width:0.25;"/>
<line x1="231.000000" y1="72.000000" x2="231.000000" y2="56.000000"  style="stroke:black; stroke-linecap:round; stroke-width:0.25;"/>
<line x1="231.000000" y1="76.000000" x2="233.000000" y2="76.000000"  style="stroke:black; stroke-linecap:round; stroke-width:0.25;"/>
<line x1="231.000000" y1="96.000000" x2="239.000000" y2="96.000000"  style="stroke:black; stroke-linecap:round; stroke-width:0.25;"/>
<line x1="239.000000" y1="96.000000" x2="247.000000" y2="96.000000"  style="stroke:black; stroke-linecap:round; stroke-width:0.25;"/>
<line x1="247.000000" y1="34.040000" x2="255.000000" y2="34.040000"  style="stroke:black; stroke-linecap:round; stroke-width:0.25;"/>
<line x1="247.000000" y1="96.000000" x2="247.000000" y2="34.040000"  style="stroke:black; stroke-linecap:round; stroke-width:0.25;"/>
<line x1="255.000000" y1="34.040000" x2="281.000000" y2="34.040000"  style="stroke:black; stroke-linecap:round; stroke-width:0.25;"/>
<line x1="281.000000" y1="34.040000" x2="307.000000" y2="34.040000"  style="stroke:black; stroke-linecap:round; stroke-width:0.25;"/>
<line x1="293.000000" y1="64.040000" x2="297.000000" y2="64.040000"  style="stroke:black; stroke-linecap:round; stroke-width:0.25;"/>
<line x1="297.000000" y1="64.040000" x2="307.000000" y2="64.040000"  style="stroke:black; stroke-linecap:round; stroke-width:0.25;"/>
<line x1="307.000000" y1="34.040000" x2="315.000000" y2="34.040000"  style="stroke:black; stroke-linecap:round; stroke-width:0.25;"/>
<line x1="307.000000" y1="64.040000" x2="315.000000" y2="64.040000"  style="stroke:black; stroke-linecap:round; stroke-width:0.25;"/>
<line x1="315.000000" y1="34.040000" x2="315.000000" y2="56.040000"  style="stroke:black; stroke-linecap:round; stroke-width:0.25;"/>
<line x1="315.000000" y1="56.040000" x2="315.000000" y2="56.040000"  style="stroke:black; stroke-linecap:round; stroke-width:0.25;"/>
<line x1="315.000000" y1="56.040000" x2="319.000000" y2="56.040000"  style="stroke:black; stroke-linecap:round; stroke-width:0.25;"/>
<line x1="315.000000" y1="64.040000" x2="319.000000" y2="64.040000"  style="stroke:black; stroke-linecap:round; stroke-width:0.25;"/>
<line x1="343.000000" y1="60.040000" x2="347.000000" y2="60.040000"  style="stroke:black; stroke-linecap:round; stroke-width:0.25;"/>
<line x1="347.000000" y1="60.000000" x2="355.000000" y2="60.000000"  style="stroke:black; stroke-linecap:round; stroke-width:0.25;"/>
<line x1="347.000000" y1="60.040000" x2="347.000000" y2="60.000000"  style="stroke:black; stroke-linecap:round; stroke-width:0.25;"/>
<line x1="347.000000" y1="60.040000" x2="347.000000" y2="60.040000"  style="stroke:black; stroke-linecap:round; stroke-width:0.25;"/>
<line x1="355.000000" y1="60.000000" x2="359.000000" y2="60.000000"  style="stroke:black; stroke-linecap:round; stroke-width:0.25;"/>
<line x1="383.000000" y1="60.000000" x2="387.000000" y2="60.000000"  style="stroke:black; stroke-linecap:round; stroke-width:0.25;"/>
<line x1="387.000000" y1="60.000000" x2="387.000000" y2="60.000000"  style="stroke:black; stroke-linecap:round; stroke-width:0.25;"/>
<line x1="387.000000" y1="60.000000" x2="391.000000" y2="60.000000"  style="stroke:black; stroke-linecap:round; stroke-width:0.25;"/>
<line x1="391.000000" y1="60.000000" x2="395.000000" y2="60.000000"  style="stroke:black; stroke-linecap:round; stroke-width:0.25;"/>
<line x1="395.000000" y1="60.000000" x2="405.000000" y2="60.000000"  style="stroke:black; stroke-linecap:round; stroke-width:0.25;"/>
</svg>
