<?xml version="1.0"?>
<svg xmlns="http://www.w3.org/2000/svg" xmlns:xlink="http://www.w3.org/1999/xlink" viewBox="0 0 277.900000 168.000000" width="138.950000mm" height="84.000000mm" version="1.1">
<a xlink:href="process.svg">
<rect x="1.000000" y="1.000000" width="276.900000" height="167.000000" rx="0" ry="0" style="stroke:none;fill:#cccccc;"/>
<rect x="0.000000" y="0.000000" width="276.900000" height="167.000000" rx="0" ry="0" style="stroke:none;fill:#ffffff;"/>
</a>
<text x="10.000000" y="7.000000" font-family="Arial" font-size="7"></text>
<a xlink:href="delay-0x7f9f7b782580.svg">
<rect x="25.000000" y="25.000000" width="141.900000" height="24.000000" rx="0" ry="0" style="stroke:none;fill:#cccccc;"/>
<rect x="24.000000" y="24.000000" width="141.900000" height="24.000000" rx="0" ry="0" style="stroke:none;fill:#003366;"/>
</a>
<a xlink:href="delay-0x7f9f7b782580.svg">
<text x="94.950000" y="38.000000" font-family="Arial" font-size="7" text-anchor="middle" fill="#FFFFFF">delay(0.04599...: int),0 : +)(x1)</text>
</a>
<circle cx="26.000000" cy="26.000000" r="1"/>
<a xlink:href="h-0x7f9f7b782d10.svg">
<rect x="25.000000" y="57.000000" width="141.900000" height="24.000000" rx="0" ry="0" style="stroke:none;fill:#cccccc;"/>
<rect x="24.000000" y="56.000000" width="141.900000" height="24.000000" rx="0" ry="0" style="stroke:none;fill:#003366;"/>
</a>
<a xlink:href="h-0x7f9f7b782d10.svg">
<text x="94.950000" y="70.000000" font-family="Arial" font-size="7" text-anchor="middle" fill="#FFFFFF">h(1)(-5.00000...or) : -) : +)(0)</text>
</a>
<circle cx="26.000000" cy="58.000000" r="1"/>
<rect x="182.900000" y="41.000000" width="24.000000" height="24.000000" rx="0" ry="0" style="stroke:none;fill:#cccccc;"/>
<rect x="181.900000" y="40.000000" width="24.000000" height="24.000000" rx="0" ry="0" style="stroke:none;fill:#4B71A1;"/>
<text x="193.900000" y="54.000000" font-family="Arial" font-size="7" text-anchor="middle" fill="#FFFFFF">*</text>
<circle cx="183.900000" cy="42.000000" r="1"/>
<line x1="178.900000" y1="47.000000" x2="181.900000" y2="48.000000"  transform="rotate(0.000000,181.900000,48.000000)" style="stroke: black; stroke-width:0.25;"/>
<line x1="178.900000" y1="49.000000" x2="181.900000" y2="48.000000"  transform="rotate(0.000000,181.900000,48.000000)" style="stroke: black; stroke-width:0.25;"/>
<line x1="178.900000" y1="55.000000" x2="181.900000" y2="56.000000"  transform="rotate(0.000000,181.900000,56.000000)" style="stroke: black; stroke-width:0.25;"/>
<line x1="178.900000" y1="57.000000" x2="181.900000" y2="56.000000"  transform="rotate(0.000000,181.900000,56.000000)" style="stroke: black; stroke-width:0.25;"/>
<a xlink:href="delay-0x7f9f7b783280.svg">
<rect x="25.000000" y="89.000000" width="141.900000" height="24.000000" rx="0" ry="0" style="stroke:none;fill:#cccccc;"/>
<rect x="24.000000" y="88.000000" width="141.900000" height="24.000000" rx="0" ry="0" style="stroke:none;fill:#003366;"/>
</a>
<a xlink:href="delay-0x7f9f7b783280.svg">
<text x="94.950000" y="102.000000" font-family="Arial" font-size="7" text-anchor="middle" fill="#FFFFFF">delay(0.04599...: int),1 : +)(x1)</text>
</a>
<circle cx="26.000000" cy="90.000000" r="1"/>
<a xlink:href="h-0x7f9f7b783a10.svg">
<rect x="25.000000" y="121.000000" width="141.900000" height="24.000000" rx="0" ry="0" style="stroke:none;fill:#cccccc;"/>
<rect x="24.000000" y="120.000000" width="141.900000" height="24.000000" rx="0" ry="0" style="stroke:none;fill:#003366;"/>
</a>
<a xlink:href="h-0x7f9f7b783a10.svg">
<text x="94.950000" y="134.000000" font-family="Arial" font-size="7" text-anchor="middle" fill="#FFFFFF">h(1)(-5.00000...or) : -) : +)(1)</text>
</a>
<circle cx="26.000000" cy="122.000000" r="1"/>
<rect x="182.900000" y="105.000000" width="24.000000" height="24.000000" rx="0" ry="0" style="stroke:none;fill:#cccccc;"/>
<rect x="181.900000" y="104.000000" width="24.000000" height="24.000000" rx="0" ry="0" style="stroke:none;fill:#4B71A1;"/>
<text x="193.900000" y="118.000000" font-family="Arial" font-size="7" text-anchor="middle" fill="#FFFFFF">*</text>
<circle cx="183.900000" cy="106.000000" r="1"/>
<line x1="178.900000" y1="111.000000" x2="181.900000" y2="112.000000"  transform="rotate(0.000000,181.900000,112.000000)" style="stroke: black; stroke-width:0.25;"/>
<line x1="178.900000" y1="113.000000" x2="181.900000" y2="112.000000"  transform="rotate(0.000000,181.900000,112.000000)" style="stroke: black; stroke-width:0.25;"/>
<line x1="178.900000" y1="119.000000" x2="181.900000" y2="120.000000"  transform="rotate(0.000000,181.900000,120.000000)" style="stroke: black; stroke-width:0.25;"/>
<line x1="178.900000" y1="121.000000" x2="181.900000" y2="120.000000"  transform="rotate(0.000000,181.900000,120.000000)" style="stroke: black; stroke-width:0.25;"/>
<rect x="222.900000" y="73.000000" width="24.000000" height="24.000000" rx="0" ry="0" style="stroke:none;fill:#cccccc;"/>
<rect x="221.900000" y="72.000000" width="24.000000" height="24.000000" rx="0" ry="0" style="stroke:none;fill:#4B71A1;"/>
<text x="233.900000" y="86.000000" font-family="Arial" font-size="7" text-anchor="middle" fill="#FFFFFF">+</text>
<circle cx="223.900000" cy="74.000000" r="1"/>
<line x1="218.900000" y1="79.000000" x2="221.900000" y2="80.000000"  transform="rotate(0.000000,221.900000,80.000000)" style="stroke: black; stroke-width:0.25;"/>
<line x1="218.900000" y1="81.000000" x2="221.900000" y2="80.000000"  transform="rotate(0.000000,221.900000,80.000000)" style="stroke: black; stroke-width:0.25;"/>
<line x1="218.900000" y1="87.000000" x2="221.900000" y2="88.000000"  transform="rotate(0.000000,221.900000,88.000000)" style="stroke: black; stroke-width:0.25;"/>
<line x1="218.900000" y1="89.000000" x2="221.900000" y2="88.000000"  transform="rotate(0.000000,221.900000,88.000000)" style="stroke: black; stroke-width:0.25;"/>
<line x1="15.000000" y1="15.000000" x2="15.000000" y2="153.000000"  style="stroke: black; stroke-linecap:round; stroke-width:0.25; stroke-dasharray:3,3;"/>
<line x1="15.000000" y1="153.000000" x2="262.900000" y2="153.000000"  style="stroke: black; stroke-linecap:round; stroke-width:0.25; stroke-dasharray:3,3;"/>
<line x1="262.900000" y1="153.000000" x2="262.900000" y2="15.000000"  style="stroke: black; stroke-linecap:round; stroke-width:0.25; stroke-dasharray:3,3;"/>
<line x1="15.000000" y1="15.000000" x2="20.000000" y2="15.000000"  style="stroke: black; stroke-linecap:round; stroke-width:0.25; stroke-dasharray:3,3;"/>
<line x1="132.875000" y1="15.000000" x2="262.900000" y2="15.000000"  style="stroke: black; stroke-linecap:round; stroke-width:0.25; stroke-dasharray:3,3;"/>
<text x="20.000000" y="17.000000" font-family="Arial" font-size="7">fdelayltv(1)(... *) : *) : *)(x1)</text>
<line x1="264.900000" y1="83.000000" x2="267.900000" y2="84.000000"  transform="rotate(0.000000,267.900000,84.000000)" style="stroke: black; stroke-width:0.25;"/>
<line x1="264.900000" y1="85.000000" x2="267.900000" y2="84.000000"  transform="rotate(0.000000,267.900000,84.000000)" style="stroke: black; stroke-width:0.25;"/>
<line x1="165.900000" y1="36.000000" x2="169.900000" y2="36.000000"  style="stroke:black; stroke-linecap:round; stroke-width:0.25;"/>
<line x1="165.900000" y1="68.000000" x2="169.900000" y2="68.000000"  style="stroke:black; stroke-linecap:round; stroke-width:0.25;"/>
<line x1="165.900000" y1="100.000000" x2="169.900000" y2="100.000000"  style="stroke:black; stroke-linecap:round; stroke-width:0.25;"/>
<line x1="165.900000" y1="132.000000" x2="169.900000" y2="132.000000"  style="stroke:black; stroke-linecap:round; stroke-width:0.25;"/>
<line x1="169.900000" y1="36.000000" x2="177.900000" y2="36.000000"  style="stroke:black; stroke-linecap:round; stroke-width:0.25;"/>
<line x1="169.900000" y1="56.000000" x2="177.900000" y2="56.000000"  style="stroke:black; stroke-linecap:round; stroke-width:0.25;"/>
<line x1="169.900000" y1="68.000000" x2="169.900000" y2="56.000000"  style="stroke:black; stroke-linecap:round; stroke-width:0.25;"/>
<line x1="169.900000" y1="68.000000" x2="169.900000" y2="68.000000"  style="stroke:black; stroke-linecap:round; stroke-width:0.25;"/>
<line x1="169.900000" y1="100.000000" x2="177.900000" y2="100.000000"  style="stroke:black; stroke-linecap:round; stroke-width:0.25;"/>
<line x1="169.900000" y1="120.000000" x2="177.900000" y2="120.000000"  style="stroke:black; stroke-linecap:round; stroke-width:0.25;"/>
<line x1="169.900000" y1="132.000000" x2="169.900000" y2="120.000000"  style="stroke:black; stroke-linecap:round; stroke-width:0.25;"/>
<line x1="169.900000" y1="132.000000" x2="169.900000" y2="132.000000"  style="stroke:black; stroke-linecap:round; stroke-width:0.25;"/>
<line x1="177.900000" y1="36.000000" x2="177.900000" y2="48.000000"  style="stroke:black; stroke-linecap:round; stroke-width:0.25;"/>
<line x1="177.900000" y1="48.000000" x2="177.900000" y2="48.000000"  style="stroke:black; stroke-linecap:round; stroke-width:0.25;"/>
<line x1="177.900000" y1="48.000000" x2="181.900000" y2="48.000000"  style="stroke:black; stroke-linecap:round; stroke-width:0.25;"/>
<line x1="177.900000" y1="56.000000" x2="181.900000" y2="56.000000"  style="stroke:black; stroke-linecap:round; stroke-width:0.25;"/>
<line x1="177.900000" y1="100.000000" x2="177.900000" y2="112.000000"  style="stroke:black; stroke-linecap:round; stroke-width:0.25;"/>
<line x1="177.900000" y1="112.000000" x2="177.900000" y2="112.000000"  style="stroke:black; stroke-linecap:round; stroke-width:0.25;"/>
<line x1="177.900000" y1="112.000000" x2="181.900000" y2="112.000000"  style="stroke:black; stroke-linecap:round; stroke-width:0.25;"/>
<line x1="177.900000" y1="120.000000" x2="181.900000" y2="120.000000"  style="stroke:black; stroke-linecap:round; stroke-width:0.25;"/>
<line x1="205.900000" y1="52.000000" x2="209.900000" y2="52.000000"  style="stroke:black; stroke-linecap:round; stroke-width:0.25;"/>
<line x1="205.900000" y1="116.000000" x2="209.900000" y2="116.000000"  style="stroke:black; stroke-linecap:round; stroke-width:0.25;"/>
<line x1="209.900000" y1="52.000000" x2="217.900000" y2="52.000000"  style="stroke:black; stroke-linecap:round; stroke-width:0.25;"/>
<line x1="209.900000" y1="88.000000" x2="217.900000" y2="88.000000"  style="stroke:black; stroke-linecap:round; stroke-width:0.25;"/>
<line x1="209.900000" y1="116.000000" x2="209.900000" y2="88.000000"  style="stroke:black; stroke-linecap:round; stroke-width:0.25;"/>
<line x1="209.900000" y1="116.000000" x2="209.900000" y2="116.000000"  style="stroke:black; stroke-linecap:round; stroke-width:0.25;"/>
<line x1="217.900000" y1="52.000000" x2="217.900000" y2="80.000000"  style="stroke:black; stroke-linecap:round; stroke-width:0.25;"/>
<line x1="217.900000" y1="80.000000" x2="217.900000" y2="80.000000"  style="stroke:black; stroke-linecap:round; stroke-width:0.25;"/>
<line x1="217.900000" y1="80.000000" x2="221.900000" y2="80.000000"  style="stroke:black; stroke-linecap:round; stroke-width:0.25;"/>
<line x1="217.900000" y1="88.000000" x2="221.900000" y2="88.000000"  style="stroke:black; stroke-linecap:round; stroke-width:0.25;"/>
<line x1="245.900000" y1="84.000000" x2="249.900000" y2="84.000000"  style="stroke:black; stroke-linecap:round; stroke-width:0.25;"/>
<line x1="249.900000" y1="84.000000" x2="249.900000" y2="84.000000"  style="stroke:black; stroke-linecap:round; stroke-width:0.25;"/>
<line x1="249.900000" y1="84.000000" x2="253.900000" y2="84.000000"  style="stroke:black; stroke-linecap:round; stroke-width:0.25;"/>
<line x1="253.900000" y1="84.000000" x2="257.900000" y2="84.000000"  style="stroke:black; stroke-linecap:round; stroke-width:0.25;"/>
<line x1="257.900000" y1="84.000000" x2="267.900000" y2="84.000000"  style="stroke:black; stroke-linecap:round; stroke-width:0.25;"/>
</svg>
