<?xml version="1.0"?>
<svg xmlns="http://www.w3.org/2000/svg" xmlns:xlink="http://www.w3.org/1999/xlink" viewBox="0 0 280.300000 152.000000" width="140.150000mm" height="76.000000mm" version="1.1">
<a xlink:href="process.svg">
<rect x="1.000000" y="1.000000" width="279.300000" height="151.000000" rx="0" ry="0" style="stroke:none;fill:#cccccc;"/>
<rect x="0.000000" y="0.000000" width="279.300000" height="151.000000" rx="0" ry="0" style="stroke:none;fill:#ffffff;"/>
</a>
<text x="10.000000" y="7.000000" font-family="Arial" font-size="7"></text>
<a xlink:href="qaqf-0x7ffb4af62d90.svg">
<rect x="125.250000" y="25.000000" width="25.800000" height="32.000000" rx="0" ry="0" style="stroke:none;fill:#cccccc;"/>
<rect x="124.250000" y="24.000000" width="25.800000" height="32.000000" rx="0" ry="0" style="stroke:none;fill:#003366;"/>
</a>
<a xlink:href="qaqf-0x7ffb4af62d90.svg">
<text x="137.150000" y="42.000000" font-family="Arial" font-size="7" text-anchor="middle" fill="#FFFFFF">qaqf</text>
</a>
<circle cx="126.250000" cy="26.000000" r="1"/>
<line x1="121.250000" y1="39.000000" x2="124.250000" y2="40.000000"  transform="rotate(0.000000,124.250000,40.000000)" style="stroke: black; stroke-width:0.25;"/>
<line x1="121.250000" y1="41.000000" x2="124.250000" y2="40.000000"  transform="rotate(0.000000,124.250000,40.000000)" style="stroke: black; stroke-width:0.25;"/>
<a xlink:href="er8comb-0x7ffb4af77810.svg">
<rect x="71.000000" y="81.000000" width="38.700000" height="32.000000" rx="0" ry="0" style="stroke:none;fill:#cccccc;"/>
<rect x="70.000000" y="80.000000" width="38.700000" height="32.000000" rx="0" ry="0" style="stroke:none;fill:#003366;"/>
</a>
<a xlink:href="er8comb-0x7ffb4af77810.svg">
<text x="89.350000" y="98.000000" font-family="Arial" font-size="7" text-anchor="middle" fill="#FFFFFF">er8comb</text>
</a>
<circle cx="72.000000" cy="82.000000" r="1"/>
<line x1="67.000000" y1="95.000000" x2="70.000000" y2="96.000000"  transform="rotate(0.000000,70.000000,96.000000)" style="stroke: black; stroke-width:0.25;"/>
<line x1="67.000000" y1="97.000000" x2="70.000000" y2="96.000000"  transform="rotate(0.000000,70.000000,96.000000)" style="stroke: black; stroke-width:0.25;"/>
<a xlink:href="ermix-0x7ffb4d93d840.svg">
<rect x="145.700000" y="97.000000" width="25.800000" height="32.000000" rx="0" ry="0" style="stroke:none;fill:#cccccc;"/>
<rect x="144.700000" y="96.000000" width="25.800000" height="32.000000" rx="0" ry="0" style="stroke:none;fill:#003366;"/>
</a>
<a xlink:href="ermix-0x7ffb4d93d840.svg">
<text x="157.600000" y="114.000000" font-family="Arial" font-size="7" text-anchor="middle" fill="#FFFFFF">ermix</text>
</a>
<circle cx="146.700000" cy="98.000000" r="1"/>
<line x1="141.700000" y1="99.000000" x2="144.700000" y2="100.000000"  transform="rotate(0.000000,144.700000,100.000000)" style="stroke: black; stroke-width:0.25;"/>
<line x1="141.700000" y1="101.000000" x2="144.700000" y2="100.000000"  transform="rotate(0.000000,144.700000,100.000000)" style="stroke: black; stroke-width:0.25;"/>
<line x1="141.700000" y1="107.000000" x2="144.700000" y2="108.000000"  transform="rotate(0.000000,144.700000,108.000000)" style="stroke: black; stroke-width:0.25;"/>
<line x1="141.700000" y1="109.000000" x2="144.700000" y2="108.000000"  transform="rotate(0.000000,144.700000,108.000000)" style="stroke: black; stroke-width:0.25;"/>
<line x1="141.700000" y1="115.000000" x2="144.700000" y2="116.000000"  transform="rotate(0.000000,144.700000,116.000000)" style="stroke: black; stroke-width:0.25;"/>
<line x1="141.700000" y1="117.000000" x2="144.700000" y2="116.000000"  transform="rotate(0.000000,144.700000,116.000000)" style="stroke: black; stroke-width:0.25;"/>
<line x1="141.700000" y1="123.000000" x2="144.700000" y2="124.000000"  transform="rotate(0.000000,144.700000,124.000000)" style="stroke: black; stroke-width:0.25;"/>
<line x1="141.700000" y1="125.000000" x2="144.700000" y2="124.000000"  transform="rotate(0.000000,144.700000,124.000000)" style="stroke: black; stroke-width:0.25;"/>
<a xlink:href="waza-0x7ffb4af78fd0.svg">
<rect x="179.500000" y="97.000000" width="25.800000" height="32.000000" rx="0" ry="0" style="stroke:none;fill:#cccccc;"/>
<rect x="178.500000" y="96.000000" width="25.800000" height="32.000000" rx="0" ry="0" style="stroke:none;fill:#003366;"/>
</a>
<a xlink:href="waza-0x7ffb4af78fd0.svg">
<text x="191.400000" y="114.000000" font-family="Arial" font-size="7" text-anchor="middle" fill="#FFFFFF">waza</text>
</a>
<circle cx="180.500000" cy="98.000000" r="1"/>
<line x1="175.500000" y1="111.000000" x2="178.500000" y2="112.000000"  transform="rotate(0.000000,178.500000,112.000000)" style="stroke: black; stroke-width:0.25;"/>
<line x1="175.500000" y1="113.000000" x2="178.500000" y2="112.000000"  transform="rotate(0.000000,178.500000,112.000000)" style="stroke: black; stroke-width:0.25;"/>
<line x1="15.000000" y1="15.000000" x2="15.000000" y2="137.000000"  style="stroke: black; stroke-linecap:round; stroke-width:0.25; stroke-dasharray:3,3;"/>
<line x1="15.000000" y1="137.000000" x2="265.300000" y2="137.000000"  style="stroke: black; stroke-linecap:round; stroke-width:0.25; stroke-dasharray:3,3;"/>
<line x1="265.300000" y1="137.000000" x2="265.300000" y2="15.000000"  style="stroke: black; stroke-linecap:round; stroke-width:0.25; stroke-dasharray:3,3;"/>
<line x1="15.000000" y1="15.000000" x2="20.000000" y2="15.000000"  style="stroke: black; stroke-linecap:round; stroke-width:0.25; stroke-dasharray:3,3;"/>
<line x1="39.350000" y1="15.000000" x2="265.300000" y2="15.000000"  style="stroke: black; stroke-linecap:round; stroke-width:0.25; stroke-dasharray:3,3;"/>
<text x="20.000000" y="17.000000" font-family="Arial" font-size="7">main</text>
<line x1="267.300000" y1="63.000000" x2="270.300000" y2="64.000000"  transform="rotate(0.000000,270.300000,64.000000)" style="stroke: black; stroke-width:0.25;"/>
<line x1="267.300000" y1="65.000000" x2="270.300000" y2="64.000000"  transform="rotate(0.000000,270.300000,64.000000)" style="stroke: black; stroke-width:0.25;"/>
<line x1="267.300000" y1="71.000000" x2="270.300000" y2="72.000000"  transform="rotate(0.000000,270.300000,72.000000)" style="stroke: black; stroke-width:0.25;"/>
<line x1="267.300000" y1="73.000000" x2="270.300000" y2="72.000000"  transform="rotate(0.000000,270.300000,72.000000)" style="stroke: black; stroke-width:0.25;"/>
<line x1="267.300000" y1="79.000000" x2="270.300000" y2="80.000000"  transform="rotate(0.000000,270.300000,80.000000)" style="stroke: black; stroke-width:0.25;"/>
<line x1="267.300000" y1="81.000000" x2="270.300000" y2="80.000000"  transform="rotate(0.000000,270.300000,80.000000)" style="stroke: black; stroke-width:0.25;"/>
<line x1="267.300000" y1="87.000000" x2="270.300000" y2="88.000000"  transform="rotate(0.000000,270.300000,88.000000)" style="stroke: black; stroke-width:0.25;"/>
<line x1="267.300000" y1="89.000000" x2="270.300000" y2="88.000000"  transform="rotate(0.000000,270.300000,88.000000)" style="stroke: black; stroke-width:0.25;"/>
<line x1="10.000000" y1="76.000000" x2="20.000000" y2="76.000000"  style="stroke:black; stroke-linecap:round; stroke-width:0.25;"/>
<line x1="20.000000" y1="76.000000" x2="24.000000" y2="76.000000"  style="stroke:black; stroke-linecap:round; stroke-width:0.25;"/>
<line x1="24.000000" y1="76.000000" x2="28.000000" y2="76.000000"  style="stroke:black; stroke-linecap:round; stroke-width:0.25;"/>
<line x1="28.000000" y1="76.000000" x2="28.000000" y2="76.000000"  style="stroke:black; stroke-linecap:round; stroke-width:0.25;"/>
<line x1="28.000000" y1="76.000000" x2="32.000000" y2="76.000000"  style="stroke:black; stroke-linecap:round; stroke-width:0.25;"/>
<line x1="32.000000" y1="76.000000" x2="36.000000" y2="76.000000"  style="stroke:black; stroke-linecap:round; stroke-width:0.25;"/>
<line x1="36.000000" y1="76.000000" x2="66.000000" y2="40.000000"  style="stroke:black; stroke-linecap:round; stroke-width:0.25;"/>
<line x1="36.000000" y1="76.000000" x2="66.000000" y2="96.000000"  style="stroke:black; stroke-linecap:round; stroke-width:0.25;"/>
<line x1="66.000000" y1="40.000000" x2="120.250000" y2="40.000000"  style="stroke:black; stroke-linecap:round; stroke-width:0.25;"/>
<line x1="66.000000" y1="96.000000" x2="70.000000" y2="96.000000"  style="stroke:black; stroke-linecap:round; stroke-width:0.25;"/>
<line x1="108.700000" y1="84.000000" x2="112.700000" y2="84.000000"  style="stroke:black; stroke-linecap:round; stroke-width:0.25;"/>
<line x1="108.700000" y1="92.000000" x2="112.700000" y2="92.000000"  style="stroke:black; stroke-linecap:round; stroke-width:0.25;"/>
<line x1="108.700000" y1="100.000000" x2="112.700000" y2="100.000000"  style="stroke:black; stroke-linecap:round; stroke-width:0.25;"/>
<line x1="108.700000" y1="108.000000" x2="112.700000" y2="108.000000"  style="stroke:black; stroke-linecap:round; stroke-width:0.25;"/>
<line x1="112.700000" y1="84.000000" x2="140.700000" y2="64.000000"  style="stroke:black; stroke-linecap:round; stroke-width:0.25;"/>
<line x1="112.700000" y1="84.000000" x2="140.700000" y2="100.000000"  style="stroke:black; stroke-linecap:round; stroke-width:0.25;"/>
<line x1="112.700000" y1="92.000000" x2="140.700000" y2="72.000000"  style="stroke:black; stroke-linecap:round; stroke-width:0.25;"/>
<line x1="112.700000" y1="92.000000" x2="140.700000" y2="108.000000"  style="stroke:black; stroke-linecap:round; stroke-width:0.25;"/>
<line x1="112.700000" y1="100.000000" x2="140.700000" y2="80.000000"  style="stroke:black; stroke-linecap:round; stroke-width:0.25;"/>
<line x1="112.700000" y1="100.000000" x2="140.700000" y2="116.000000"  style="stroke:black; stroke-linecap:round; stroke-width:0.25;"/>
<line x1="112.700000" y1="108.000000" x2="140.700000" y2="88.000000"  style="stroke:black; stroke-linecap:round; stroke-width:0.25;"/>
<line x1="112.700000" y1="108.000000" x2="140.700000" y2="124.000000"  style="stroke:black; stroke-linecap:round; stroke-width:0.25;"/>
<line x1="120.250000" y1="40.000000" x2="124.250000" y2="40.000000"  style="stroke:black; stroke-linecap:round; stroke-width:0.25;"/>
<line x1="140.700000" y1="64.000000" x2="174.500000" y2="64.000000"  style="stroke:black; stroke-linecap:round; stroke-width:0.25;"/>
<line x1="140.700000" y1="72.000000" x2="174.500000" y2="72.000000"  style="stroke:black; stroke-linecap:round; stroke-width:0.25;"/>
<line x1="140.700000" y1="80.000000" x2="174.500000" y2="80.000000"  style="stroke:black; stroke-linecap:round; stroke-width:0.25;"/>
<line x1="140.700000" y1="88.000000" x2="174.500000" y2="88.000000"  style="stroke:black; stroke-linecap:round; stroke-width:0.25;"/>
<line x1="140.700000" y1="100.000000" x2="144.700000" y2="100.000000"  style="stroke:black; stroke-linecap:round; stroke-width:0.25;"/>
<line x1="140.700000" y1="108.000000" x2="144.700000" y2="108.000000"  style="stroke:black; stroke-linecap:round; stroke-width:0.25;"/>
<line x1="140.700000" y1="116.000000" x2="144.700000" y2="116.000000"  style="stroke:black; stroke-linecap:round; stroke-width:0.25;"/>
<line x1="140.700000" y1="124.000000" x2="144.700000" y2="124.000000"  style="stroke:black; stroke-linecap:round; stroke-width:0.25;"/>
<line x1="150.050000" y1="28.000000" x2="154.050000" y2="28.000000"  style="stroke:black; stroke-linecap:round; stroke-width:0.25;"/>
<line x1="150.050000" y1="36.000000" x2="154.050000" y2="36.000000"  style="stroke:black; stroke-linecap:round; stroke-width:0.25;"/>
<line x1="150.050000" y1="44.000000" x2="154.050000" y2="44.000000"  style="stroke:black; stroke-linecap:round; stroke-width:0.25;"/>
<line x1="150.050000" y1="52.000000" x2="154.050000" y2="52.000000"  style="stroke:black; stroke-linecap:round; stroke-width:0.25;"/>
<line x1="154.050000" y1="28.000000" x2="208.300000" y2="28.000000"  style="stroke:black; stroke-linecap:round; stroke-width:0.25;"/>
<line x1="154.050000" y1="36.000000" x2="208.300000" y2="36.000000"  style="stroke:black; stroke-linecap:round; stroke-width:0.25;"/>
<line x1="154.050000" y1="44.000000" x2="208.300000" y2="44.000000"  style="stroke:black; stroke-linecap:round; stroke-width:0.25;"/>
<line x1="154.050000" y1="52.000000" x2="208.300000" y2="52.000000"  style="stroke:black; stroke-linecap:round; stroke-width:0.25;"/>
<line x1="170.500000" y1="112.000000" x2="174.500000" y2="112.000000"  style="stroke:black; stroke-linecap:round; stroke-width:0.25;"/>
<line x1="174.500000" y1="64.000000" x2="208.300000" y2="64.000000"  style="stroke:black; stroke-linecap:round; stroke-width:0.25;"/>
<line x1="174.500000" y1="72.000000" x2="208.300000" y2="72.000000"  style="stroke:black; stroke-linecap:round; stroke-width:0.25;"/>
<line x1="174.500000" y1="80.000000" x2="208.300000" y2="80.000000"  style="stroke:black; stroke-linecap:round; stroke-width:0.25;"/>
<line x1="174.500000" y1="88.000000" x2="208.300000" y2="88.000000"  style="stroke:black; stroke-linecap:round; stroke-width:0.25;"/>
<line x1="174.500000" y1="112.000000" x2="174.500000" y2="112.000000"  style="stroke:black; stroke-linecap:round; stroke-width:0.25;"/>
<line x1="174.500000" y1="112.000000" x2="178.500000" y2="112.000000"  style="stroke:black; stroke-linecap:round; stroke-width:0.25;"/>
<line x1="204.300000" y1="100.000000" x2="208.300000" y2="100.000000"  style="stroke:black; stroke-linecap:round; stroke-width:0.25;"/>
<line x1="204.300000" y1="108.000000" x2="208.300000" y2="108.000000"  style="stroke:black; stroke-linecap:round; stroke-width:0.25;"/>
<line x1="204.300000" y1="116.000000" x2="208.300000" y2="116.000000"  style="stroke:black; stroke-linecap:round; stroke-width:0.25;"/>
<line x1="204.300000" y1="124.000000" x2="208.300000" y2="124.000000"  style="stroke:black; stroke-linecap:round; stroke-width:0.25;"/>
<line x1="208.300000" y1="28.000000" x2="244.300000" y2="64.000000"  style="stroke:black; stroke-linecap:round; stroke-width:0.25;"/>
<line x1="208.300000" y1="36.000000" x2="244.300000" y2="72.000000"  style="stroke:black; stroke-linecap:round; stroke-width:0.25;"/>
<line x1="208.300000" y1="44.000000" x2="244.300000" y2="80.000000"  style="stroke:black; stroke-linecap:round; stroke-width:0.25;"/>
<line x1="208.300000" y1="52.000000" x2="244.300000" y2="88.000000"  style="stroke:black; stroke-linecap:round; stroke-width:0.25;"/>
<line x1="208.300000" y1="64.000000" x2="244.300000" y2="64.000000"  style="stroke:black; stroke-linecap:round; stroke-width:0.25;"/>
<line x1="208.300000" y1="72.000000" x2="244.300000" y2="72.000000"  style="stroke:black; stroke-linecap:round; stroke-width:0.25;"/>
<line x1="208.300000" y1="80.000000" x2="244.300000" y2="80.000000"  style="stroke:black; stroke-linecap:round; stroke-width:0.25;"/>
<line x1="208.300000" y1="88.000000" x2="244.300000" y2="88.000000"  style="stroke:black; stroke-linecap:round; stroke-width:0.25;"/>
<line x1="208.300000" y1="100.000000" x2="244.300000" y2="64.000000"  style="stroke:black; stroke-linecap:round; stroke-width:0.25;"/>
<line x1="208.300000" y1="108.000000" x2="244.300000" y2="72.000000"  style="stroke:black; stroke-linecap:round; stroke-width:0.25;"/>
<line x1="208.300000" y1="116.000000" x2="244.300000" y2="80.000000"  style="stroke:black; stroke-linecap:round; stroke-width:0.25;"/>
<line x1="208.300000" y1="124.000000" x2="244.300000" y2="88.000000"  style="stroke:black; stroke-linecap:round; stroke-width:0.25;"/>
<line x1="244.300000" y1="64.000000" x2="248.300000" y2="64.000000"  style="stroke:black; stroke-linecap:round; stroke-width:0.25;"/>
<line x1="244.300000" y1="72.000000" x2="248.300000" y2="72.000000"  style="stroke:black; stroke-linecap:round; stroke-width:0.25;"/>
<line x1="244.300000" y1="80.000000" x2="248.300000" y2="80.000000"  style="stroke:black; stroke-linecap:round; stroke-width:0.25;"/>
<line x1="244.300000" y1="88.000000" x2="248.300000" y2="88.000000"  style="stroke:black; stroke-linecap:round; stroke-width:0.25;"/>
<line x1="248.300000" y1="64.000000" x2="252.300000" y2="64.000000"  style="stroke:black; stroke-linecap:round; stroke-width:0.25;"/>
<line x1="248.300000" y1="72.000000" x2="252.300000" y2="72.000000"  style="stroke:black; stroke-linecap:round; stroke-width:0.25;"/>
<line x1="248.300000" y1="80.000000" x2="252.300000" y2="80.000000"  style="stroke:black; stroke-linecap:round; stroke-width:0.25;"/>
<line x1="248.300000" y1="88.000000" x2="252.300000" y2="88.000000"  style="stroke:black; stroke-linecap:round; stroke-width:0.25;"/>
<line x1="252.300000" y1="64.000000" x2="252.300000" y2="64.000000"  style="stroke:black; stroke-linecap:round; stroke-width:0.25;"/>
<line x1="252.300000" y1="64.000000" x2="256.300000" y2="64.000000"  style="stroke:black; stroke-linecap:round; stroke-width:0.25;"/>
<line x1="252.300000" y1="72.000000" x2="252.300000" y2="72.000000"  style="stroke:black; stroke-linecap:round; stroke-width:0.25;"/>
<line x1="252.300000" y1="72.000000" x2="256.300000" y2="72.000000"  style="stroke:black; stroke-linecap:round; stroke-width:0.25;"/>
<line x1="252.300000" y1="80.000000" x2="252.300000" y2="80.000000"  style="stroke:black; stroke-linecap:round; stroke-width:0.25;"/>
<line x1="252.300000" y1="80.000000" x2="256.300000" y2="80.000000"  style="stroke:black; stroke-linecap:round; stroke-width:0.25;"/>
<line x1="252.300000" y1="88.000000" x2="252.300000" y2="88.000000"  style="stroke:black; stroke-linecap:round; stroke-width:0.25;"/>
<line x1="252.300000" y1="88.000000" x2="256.300000" y2="88.000000"  style="stroke:black; stroke-linecap:round; stroke-width:0.25;"/>
<line x1="256.300000" y1="64.000000" x2="260.300000" y2="64.000000"  style="stroke:black; stroke-linecap:round; stroke-width:0.25;"/>
<line x1="256.300000" y1="72.000000" x2="260.300000" y2="72.000000"  style="stroke:black; stroke-linecap:round; stroke-width:0.25;"/>
<line x1="256.300000" y1="80.000000" x2="260.300000" y2="80.000000"  style="stroke:black; stroke-linecap:round; stroke-width:0.25;"/>
<line x1="256.300000" y1="88.000000" x2="260.300000" y2="88.000000"  style="stroke:black; stroke-linecap:round; stroke-width:0.25;"/>
<line x1="260.300000" y1="64.000000" x2="270.300000" y2="64.000000"  style="stroke:black; stroke-linecap:round; stroke-width:0.25;"/>
<line x1="260.300000" y1="72.000000" x2="270.300000" y2="72.000000"  style="stroke:black; stroke-linecap:round; stroke-width:0.25;"/>
<line x1="260.300000" y1="80.000000" x2="270.300000" y2="80.000000"  style="stroke:black; stroke-linecap:round; stroke-width:0.25;"/>
<line x1="260.300000" y1="88.000000" x2="270.300000" y2="88.000000"  style="stroke:black; stroke-linecap:round; stroke-width:0.25;"/>
</svg>
