<?xml version="1.0"?>
<svg xmlns="http://www.w3.org/2000/svg" xmlns:xlink="http://www.w3.org/1999/xlink" viewBox="0 0 682.000000 360.000000" width="341.000000mm" height="180.000000mm" version="1.1">
<a xlink:href="outfbank-0x7fa139aeb040.svg">
<rect x="1.000000" y="1.000000" width="681.000000" height="359.000000" rx="0" ry="0" style="stroke:none;fill:#cccccc;"/>
<rect x="0.000000" y="0.000000" width="681.000000" height="359.000000" rx="0" ry="0" style="stroke:none;fill:#ffffff;"/>
</a>
<text x="10.000000" y="7.000000" font-family="Arial" font-size="7"></text>
<a xlink:href="mth-0x7fa136deb820.svg">
<rect x="33.000000" y="149.000000" width="129.000000" height="64.000000" rx="0" ry="0" style="stroke:none;fill:#cccccc;"/>
<rect x="32.000000" y="148.000000" width="129.000000" height="64.000000" rx="0" ry="0" style="stroke:none;fill:#003366;"/>
</a>
<a xlink:href="mth-0x7fa136deb820.svg">
<text x="96.500000" y="182.000000" font-family="Arial" font-size="7" text-anchor="middle" fill="#FFFFFF">mth_octave_fi...(1)(10000)(8)</text>
</a>
<circle cx="34.000000" cy="150.000000" r="1"/>
<line x1="29.000000" y1="179.000000" x2="32.000000" y2="180.000000"  transform="rotate(0.000000,32.000000,180.000000)" style="stroke: black; stroke-width:0.25;"/>
<line x1="29.000000" y1="181.000000" x2="32.000000" y2="180.000000"  transform="rotate(0.000000,32.000000,180.000000)" style="stroke: black; stroke-width:0.25;"/>
<a xlink:href="db2linear-0x7fa136cda330.svg">
<rect x="202.000000" y="33.000000" width="129.000000" height="24.000000" rx="0" ry="0" style="stroke:none;fill:#cccccc;"/>
<rect x="201.000000" y="32.000000" width="129.000000" height="24.000000" rx="0" ry="0" style="stroke:none;fill:#003366;"/>
</a>
<a xlink:href="db2linear-0x7fa136cda330.svg">
<text x="265.500000" y="46.000000" font-family="Arial" font-size="7" text-anchor="middle" fill="#FFFFFF">db2linear(vgr...,0.999f : *))</text>
</a>
<circle cx="203.000000" cy="34.000000" r="1"/>
<rect x="347.000000" y="29.000000" width="24.000000" height="24.000000" rx="0" ry="0" style="stroke:none;fill:#cccccc;"/>
<rect x="346.000000" y="28.000000" width="24.000000" height="24.000000" rx="0" ry="0" style="stroke:none;fill:#4B71A1;"/>
<text x="358.000000" y="42.000000" font-family="Arial" font-size="7" text-anchor="middle" fill="#FFFFFF">*</text>
<circle cx="348.000000" cy="30.000000" r="1"/>
<line x1="343.000000" y1="35.000000" x2="346.000000" y2="36.000000"  transform="rotate(0.000000,346.000000,36.000000)" style="stroke: black; stroke-width:0.25;"/>
<line x1="343.000000" y1="37.000000" x2="346.000000" y2="36.000000"  transform="rotate(0.000000,346.000000,36.000000)" style="stroke: black; stroke-width:0.25;"/>
<line x1="343.000000" y1="43.000000" x2="346.000000" y2="44.000000"  transform="rotate(0.000000,346.000000,44.000000)" style="stroke: black; stroke-width:0.25;"/>
<line x1="343.000000" y1="45.000000" x2="346.000000" y2="44.000000"  transform="rotate(0.000000,346.000000,44.000000)" style="stroke: black; stroke-width:0.25;"/>
<a xlink:href="db2linear-0x7fa136ce2010.svg">
<rect x="202.000000" y="73.000000" width="129.000000" height="24.000000" rx="0" ry="0" style="stroke:none;fill:#cccccc;"/>
<rect x="201.000000" y="72.000000" width="129.000000" height="24.000000" rx="0" ry="0" style="stroke:none;fill:#003366;"/>
</a>
<a xlink:href="db2linear-0x7fa136ce2010.svg">
<text x="265.500000" y="86.000000" font-family="Arial" font-size="7" text-anchor="middle" fill="#FFFFFF">db2linear(vgr...,0.999f : *))</text>
</a>
<circle cx="203.000000" cy="74.000000" r="1"/>
<rect x="347.000000" y="69.000000" width="24.000000" height="24.000000" rx="0" ry="0" style="stroke:none;fill:#cccccc;"/>
<rect x="346.000000" y="68.000000" width="24.000000" height="24.000000" rx="0" ry="0" style="stroke:none;fill:#4B71A1;"/>
<text x="358.000000" y="82.000000" font-family="Arial" font-size="7" text-anchor="middle" fill="#FFFFFF">*</text>
<circle cx="348.000000" cy="70.000000" r="1"/>
<line x1="343.000000" y1="75.000000" x2="346.000000" y2="76.000000"  transform="rotate(0.000000,346.000000,76.000000)" style="stroke: black; stroke-width:0.25;"/>
<line x1="343.000000" y1="77.000000" x2="346.000000" y2="76.000000"  transform="rotate(0.000000,346.000000,76.000000)" style="stroke: black; stroke-width:0.25;"/>
<line x1="343.000000" y1="83.000000" x2="346.000000" y2="84.000000"  transform="rotate(0.000000,346.000000,84.000000)" style="stroke: black; stroke-width:0.25;"/>
<line x1="343.000000" y1="85.000000" x2="346.000000" y2="84.000000"  transform="rotate(0.000000,346.000000,84.000000)" style="stroke: black; stroke-width:0.25;"/>
<rect x="387.000000" y="49.000000" width="24.000000" height="24.000000" rx="0" ry="0" style="stroke:none;fill:#cccccc;"/>
<rect x="386.000000" y="48.000000" width="24.000000" height="24.000000" rx="0" ry="0" style="stroke:none;fill:#4B71A1;"/>
<text x="398.000000" y="62.000000" font-family="Arial" font-size="7" text-anchor="middle" fill="#FFFFFF">+</text>
<circle cx="388.000000" cy="50.000000" r="1"/>
<line x1="383.000000" y1="55.000000" x2="386.000000" y2="56.000000"  transform="rotate(0.000000,386.000000,56.000000)" style="stroke: black; stroke-width:0.25;"/>
<line x1="383.000000" y1="57.000000" x2="386.000000" y2="56.000000"  transform="rotate(0.000000,386.000000,56.000000)" style="stroke: black; stroke-width:0.25;"/>
<line x1="383.000000" y1="63.000000" x2="386.000000" y2="64.000000"  transform="rotate(0.000000,386.000000,64.000000)" style="stroke: black; stroke-width:0.25;"/>
<line x1="383.000000" y1="65.000000" x2="386.000000" y2="64.000000"  transform="rotate(0.000000,386.000000,64.000000)" style="stroke: black; stroke-width:0.25;"/>
<a xlink:href="db2linear-0x7fa136ce9c20.svg">
<rect x="222.000000" y="113.000000" width="129.000000" height="24.000000" rx="0" ry="0" style="stroke:none;fill:#cccccc;"/>
<rect x="221.000000" y="112.000000" width="129.000000" height="24.000000" rx="0" ry="0" style="stroke:none;fill:#003366;"/>
</a>
<a xlink:href="db2linear-0x7fa136ce9c20.svg">
<text x="285.500000" y="126.000000" font-family="Arial" font-size="7" text-anchor="middle" fill="#FFFFFF">db2linear(vgr...,0.999f : *))</text>
</a>
<circle cx="223.000000" cy="114.000000" r="1"/>
<rect x="367.000000" y="109.000000" width="24.000000" height="24.000000" rx="0" ry="0" style="stroke:none;fill:#cccccc;"/>
<rect x="366.000000" y="108.000000" width="24.000000" height="24.000000" rx="0" ry="0" style="stroke:none;fill:#4B71A1;"/>
<text x="378.000000" y="122.000000" font-family="Arial" font-size="7" text-anchor="middle" fill="#FFFFFF">*</text>
<circle cx="368.000000" cy="110.000000" r="1"/>
<line x1="363.000000" y1="115.000000" x2="366.000000" y2="116.000000"  transform="rotate(0.000000,366.000000,116.000000)" style="stroke: black; stroke-width:0.25;"/>
<line x1="363.000000" y1="117.000000" x2="366.000000" y2="116.000000"  transform="rotate(0.000000,366.000000,116.000000)" style="stroke: black; stroke-width:0.25;"/>
<line x1="363.000000" y1="123.000000" x2="366.000000" y2="124.000000"  transform="rotate(0.000000,366.000000,124.000000)" style="stroke: black; stroke-width:0.25;"/>
<line x1="363.000000" y1="125.000000" x2="366.000000" y2="124.000000"  transform="rotate(0.000000,366.000000,124.000000)" style="stroke: black; stroke-width:0.25;"/>
<rect x="427.000000" y="69.000000" width="24.000000" height="24.000000" rx="0" ry="0" style="stroke:none;fill:#cccccc;"/>
<rect x="426.000000" y="68.000000" width="24.000000" height="24.000000" rx="0" ry="0" style="stroke:none;fill:#4B71A1;"/>
<text x="438.000000" y="82.000000" font-family="Arial" font-size="7" text-anchor="middle" fill="#FFFFFF">+</text>
<circle cx="428.000000" cy="70.000000" r="1"/>
<line x1="423.000000" y1="75.000000" x2="426.000000" y2="76.000000"  transform="rotate(0.000000,426.000000,76.000000)" style="stroke: black; stroke-width:0.25;"/>
<line x1="423.000000" y1="77.000000" x2="426.000000" y2="76.000000"  transform="rotate(0.000000,426.000000,76.000000)" style="stroke: black; stroke-width:0.25;"/>
<line x1="423.000000" y1="83.000000" x2="426.000000" y2="84.000000"  transform="rotate(0.000000,426.000000,84.000000)" style="stroke: black; stroke-width:0.25;"/>
<line x1="423.000000" y1="85.000000" x2="426.000000" y2="84.000000"  transform="rotate(0.000000,426.000000,84.000000)" style="stroke: black; stroke-width:0.25;"/>
<a xlink:href="db2linear-0x7fa136cf1cd0.svg">
<rect x="242.000000" y="153.000000" width="129.000000" height="24.000000" rx="0" ry="0" style="stroke:none;fill:#cccccc;"/>
<rect x="241.000000" y="152.000000" width="129.000000" height="24.000000" rx="0" ry="0" style="stroke:none;fill:#003366;"/>
</a>
<a xlink:href="db2linear-0x7fa136cf1cd0.svg">
<text x="305.500000" y="166.000000" font-family="Arial" font-size="7" text-anchor="middle" fill="#FFFFFF">db2linear(vgr...,0.999f : *))</text>
</a>
<circle cx="243.000000" cy="154.000000" r="1"/>
<rect x="387.000000" y="149.000000" width="24.000000" height="24.000000" rx="0" ry="0" style="stroke:none;fill:#cccccc;"/>
<rect x="386.000000" y="148.000000" width="24.000000" height="24.000000" rx="0" ry="0" style="stroke:none;fill:#4B71A1;"/>
<text x="398.000000" y="162.000000" font-family="Arial" font-size="7" text-anchor="middle" fill="#FFFFFF">*</text>
<circle cx="388.000000" cy="150.000000" r="1"/>
<line x1="383.000000" y1="155.000000" x2="386.000000" y2="156.000000"  transform="rotate(0.000000,386.000000,156.000000)" style="stroke: black; stroke-width:0.25;"/>
<line x1="383.000000" y1="157.000000" x2="386.000000" y2="156.000000"  transform="rotate(0.000000,386.000000,156.000000)" style="stroke: black; stroke-width:0.25;"/>
<line x1="383.000000" y1="163.000000" x2="386.000000" y2="164.000000"  transform="rotate(0.000000,386.000000,164.000000)" style="stroke: black; stroke-width:0.25;"/>
<line x1="383.000000" y1="165.000000" x2="386.000000" y2="164.000000"  transform="rotate(0.000000,386.000000,164.000000)" style="stroke: black; stroke-width:0.25;"/>
<rect x="467.000000" y="89.000000" width="24.000000" height="24.000000" rx="0" ry="0" style="stroke:none;fill:#cccccc;"/>
<rect x="466.000000" y="88.000000" width="24.000000" height="24.000000" rx="0" ry="0" style="stroke:none;fill:#4B71A1;"/>
<text x="478.000000" y="102.000000" font-family="Arial" font-size="7" text-anchor="middle" fill="#FFFFFF">+</text>
<circle cx="468.000000" cy="90.000000" r="1"/>
<line x1="463.000000" y1="95.000000" x2="466.000000" y2="96.000000"  transform="rotate(0.000000,466.000000,96.000000)" style="stroke: black; stroke-width:0.25;"/>
<line x1="463.000000" y1="97.000000" x2="466.000000" y2="96.000000"  transform="rotate(0.000000,466.000000,96.000000)" style="stroke: black; stroke-width:0.25;"/>
<line x1="463.000000" y1="103.000000" x2="466.000000" y2="104.000000"  transform="rotate(0.000000,466.000000,104.000000)" style="stroke: black; stroke-width:0.25;"/>
<line x1="463.000000" y1="105.000000" x2="466.000000" y2="104.000000"  transform="rotate(0.000000,466.000000,104.000000)" style="stroke: black; stroke-width:0.25;"/>
<a xlink:href="db2linear-0x7fa136cf9d80.svg">
<rect x="262.000000" y="193.000000" width="129.000000" height="24.000000" rx="0" ry="0" style="stroke:none;fill:#cccccc;"/>
<rect x="261.000000" y="192.000000" width="129.000000" height="24.000000" rx="0" ry="0" style="stroke:none;fill:#003366;"/>
</a>
<a xlink:href="db2linear-0x7fa136cf9d80.svg">
<text x="325.500000" y="206.000000" font-family="Arial" font-size="7" text-anchor="middle" fill="#FFFFFF">db2linear(vgr...,0.999f : *))</text>
</a>
<circle cx="263.000000" cy="194.000000" r="1"/>
<rect x="407.000000" y="189.000000" width="24.000000" height="24.000000" rx="0" ry="0" style="stroke:none;fill:#cccccc;"/>
<rect x="406.000000" y="188.000000" width="24.000000" height="24.000000" rx="0" ry="0" style="stroke:none;fill:#4B71A1;"/>
<text x="418.000000" y="202.000000" font-family="Arial" font-size="7" text-anchor="middle" fill="#FFFFFF">*</text>
<circle cx="408.000000" cy="190.000000" r="1"/>
<line x1="403.000000" y1="195.000000" x2="406.000000" y2="196.000000"  transform="rotate(0.000000,406.000000,196.000000)" style="stroke: black; stroke-width:0.25;"/>
<line x1="403.000000" y1="197.000000" x2="406.000000" y2="196.000000"  transform="rotate(0.000000,406.000000,196.000000)" style="stroke: black; stroke-width:0.25;"/>
<line x1="403.000000" y1="203.000000" x2="406.000000" y2="204.000000"  transform="rotate(0.000000,406.000000,204.000000)" style="stroke: black; stroke-width:0.25;"/>
<line x1="403.000000" y1="205.000000" x2="406.000000" y2="204.000000"  transform="rotate(0.000000,406.000000,204.000000)" style="stroke: black; stroke-width:0.25;"/>
<rect x="507.000000" y="109.000000" width="24.000000" height="24.000000" rx="0" ry="0" style="stroke:none;fill:#cccccc;"/>
<rect x="506.000000" y="108.000000" width="24.000000" height="24.000000" rx="0" ry="0" style="stroke:none;fill:#4B71A1;"/>
<text x="518.000000" y="122.000000" font-family="Arial" font-size="7" text-anchor="middle" fill="#FFFFFF">+</text>
<circle cx="508.000000" cy="110.000000" r="1"/>
<line x1="503.000000" y1="115.000000" x2="506.000000" y2="116.000000"  transform="rotate(0.000000,506.000000,116.000000)" style="stroke: black; stroke-width:0.25;"/>
<line x1="503.000000" y1="117.000000" x2="506.000000" y2="116.000000"  transform="rotate(0.000000,506.000000,116.000000)" style="stroke: black; stroke-width:0.25;"/>
<line x1="503.000000" y1="123.000000" x2="506.000000" y2="124.000000"  transform="rotate(0.000000,506.000000,124.000000)" style="stroke: black; stroke-width:0.25;"/>
<line x1="503.000000" y1="125.000000" x2="506.000000" y2="124.000000"  transform="rotate(0.000000,506.000000,124.000000)" style="stroke: black; stroke-width:0.25;"/>
<a xlink:href="db2linear-0x7fa136d05eb0.svg">
<rect x="282.000000" y="233.000000" width="129.000000" height="24.000000" rx="0" ry="0" style="stroke:none;fill:#cccccc;"/>
<rect x="281.000000" y="232.000000" width="129.000000" height="24.000000" rx="0" ry="0" style="stroke:none;fill:#003366;"/>
</a>
<a xlink:href="db2linear-0x7fa136d05eb0.svg">
<text x="345.500000" y="246.000000" font-family="Arial" font-size="7" text-anchor="middle" fill="#FFFFFF">db2linear(vgr...,0.999f : *))</text>
</a>
<circle cx="283.000000" cy="234.000000" r="1"/>
<rect x="427.000000" y="229.000000" width="24.000000" height="24.000000" rx="0" ry="0" style="stroke:none;fill:#cccccc;"/>
<rect x="426.000000" y="228.000000" width="24.000000" height="24.000000" rx="0" ry="0" style="stroke:none;fill:#4B71A1;"/>
<text x="438.000000" y="242.000000" font-family="Arial" font-size="7" text-anchor="middle" fill="#FFFFFF">*</text>
<circle cx="428.000000" cy="230.000000" r="1"/>
<line x1="423.000000" y1="235.000000" x2="426.000000" y2="236.000000"  transform="rotate(0.000000,426.000000,236.000000)" style="stroke: black; stroke-width:0.25;"/>
<line x1="423.000000" y1="237.000000" x2="426.000000" y2="236.000000"  transform="rotate(0.000000,426.000000,236.000000)" style="stroke: black; stroke-width:0.25;"/>
<line x1="423.000000" y1="243.000000" x2="426.000000" y2="244.000000"  transform="rotate(0.000000,426.000000,244.000000)" style="stroke: black; stroke-width:0.25;"/>
<line x1="423.000000" y1="245.000000" x2="426.000000" y2="244.000000"  transform="rotate(0.000000,426.000000,244.000000)" style="stroke: black; stroke-width:0.25;"/>
<rect x="547.000000" y="129.000000" width="24.000000" height="24.000000" rx="0" ry="0" style="stroke:none;fill:#cccccc;"/>
<rect x="546.000000" y="128.000000" width="24.000000" height="24.000000" rx="0" ry="0" style="stroke:none;fill:#4B71A1;"/>
<text x="558.000000" y="142.000000" font-family="Arial" font-size="7" text-anchor="middle" fill="#FFFFFF">+</text>
<circle cx="548.000000" cy="130.000000" r="1"/>
<line x1="543.000000" y1="135.000000" x2="546.000000" y2="136.000000"  transform="rotate(0.000000,546.000000,136.000000)" style="stroke: black; stroke-width:0.25;"/>
<line x1="543.000000" y1="137.000000" x2="546.000000" y2="136.000000"  transform="rotate(0.000000,546.000000,136.000000)" style="stroke: black; stroke-width:0.25;"/>
<line x1="543.000000" y1="143.000000" x2="546.000000" y2="144.000000"  transform="rotate(0.000000,546.000000,144.000000)" style="stroke: black; stroke-width:0.25;"/>
<line x1="543.000000" y1="145.000000" x2="546.000000" y2="144.000000"  transform="rotate(0.000000,546.000000,144.000000)" style="stroke: black; stroke-width:0.25;"/>
<a xlink:href="db2linear-0x7fa136d0df60.svg">
<rect x="302.000000" y="273.000000" width="129.000000" height="24.000000" rx="0" ry="0" style="stroke:none;fill:#cccccc;"/>
<rect x="301.000000" y="272.000000" width="129.000000" height="24.000000" rx="0" ry="0" style="stroke:none;fill:#003366;"/>
</a>
<a xlink:href="db2linear-0x7fa136d0df60.svg">
<text x="365.500000" y="286.000000" font-family="Arial" font-size="7" text-anchor="middle" fill="#FFFFFF">db2linear(vgr...,0.999f : *))</text>
</a>
<circle cx="303.000000" cy="274.000000" r="1"/>
<rect x="447.000000" y="269.000000" width="24.000000" height="24.000000" rx="0" ry="0" style="stroke:none;fill:#cccccc;"/>
<rect x="446.000000" y="268.000000" width="24.000000" height="24.000000" rx="0" ry="0" style="stroke:none;fill:#4B71A1;"/>
<text x="458.000000" y="282.000000" font-family="Arial" font-size="7" text-anchor="middle" fill="#FFFFFF">*</text>
<circle cx="448.000000" cy="270.000000" r="1"/>
<line x1="443.000000" y1="275.000000" x2="446.000000" y2="276.000000"  transform="rotate(0.000000,446.000000,276.000000)" style="stroke: black; stroke-width:0.25;"/>
<line x1="443.000000" y1="277.000000" x2="446.000000" y2="276.000000"  transform="rotate(0.000000,446.000000,276.000000)" style="stroke: black; stroke-width:0.25;"/>
<line x1="443.000000" y1="283.000000" x2="446.000000" y2="284.000000"  transform="rotate(0.000000,446.000000,284.000000)" style="stroke: black; stroke-width:0.25;"/>
<line x1="443.000000" y1="285.000000" x2="446.000000" y2="284.000000"  transform="rotate(0.000000,446.000000,284.000000)" style="stroke: black; stroke-width:0.25;"/>
<rect x="587.000000" y="149.000000" width="24.000000" height="24.000000" rx="0" ry="0" style="stroke:none;fill:#cccccc;"/>
<rect x="586.000000" y="148.000000" width="24.000000" height="24.000000" rx="0" ry="0" style="stroke:none;fill:#4B71A1;"/>
<text x="598.000000" y="162.000000" font-family="Arial" font-size="7" text-anchor="middle" fill="#FFFFFF">+</text>
<circle cx="588.000000" cy="150.000000" r="1"/>
<line x1="583.000000" y1="155.000000" x2="586.000000" y2="156.000000"  transform="rotate(0.000000,586.000000,156.000000)" style="stroke: black; stroke-width:0.25;"/>
<line x1="583.000000" y1="157.000000" x2="586.000000" y2="156.000000"  transform="rotate(0.000000,586.000000,156.000000)" style="stroke: black; stroke-width:0.25;"/>
<line x1="583.000000" y1="163.000000" x2="586.000000" y2="164.000000"  transform="rotate(0.000000,586.000000,164.000000)" style="stroke: black; stroke-width:0.25;"/>
<line x1="583.000000" y1="165.000000" x2="586.000000" y2="164.000000"  transform="rotate(0.000000,586.000000,164.000000)" style="stroke: black; stroke-width:0.25;"/>
<a xlink:href="db2linear-0x7fa136d16010.svg">
<rect x="322.000000" y="313.000000" width="129.000000" height="24.000000" rx="0" ry="0" style="stroke:none;fill:#cccccc;"/>
<rect x="321.000000" y="312.000000" width="129.000000" height="24.000000" rx="0" ry="0" style="stroke:none;fill:#003366;"/>
</a>
<a xlink:href="db2linear-0x7fa136d16010.svg">
<text x="385.500000" y="326.000000" font-family="Arial" font-size="7" text-anchor="middle" fill="#FFFFFF">db2linear(vgr...,0.999f : *))</text>
</a>
<circle cx="323.000000" cy="314.000000" r="1"/>
<rect x="467.000000" y="309.000000" width="24.000000" height="24.000000" rx="0" ry="0" style="stroke:none;fill:#cccccc;"/>
<rect x="466.000000" y="308.000000" width="24.000000" height="24.000000" rx="0" ry="0" style="stroke:none;fill:#4B71A1;"/>
<text x="478.000000" y="322.000000" font-family="Arial" font-size="7" text-anchor="middle" fill="#FFFFFF">*</text>
<circle cx="468.000000" cy="310.000000" r="1"/>
<line x1="463.000000" y1="315.000000" x2="466.000000" y2="316.000000"  transform="rotate(0.000000,466.000000,316.000000)" style="stroke: black; stroke-width:0.25;"/>
<line x1="463.000000" y1="317.000000" x2="466.000000" y2="316.000000"  transform="rotate(0.000000,466.000000,316.000000)" style="stroke: black; stroke-width:0.25;"/>
<line x1="463.000000" y1="323.000000" x2="466.000000" y2="324.000000"  transform="rotate(0.000000,466.000000,324.000000)" style="stroke: black; stroke-width:0.25;"/>
<line x1="463.000000" y1="325.000000" x2="466.000000" y2="324.000000"  transform="rotate(0.000000,466.000000,324.000000)" style="stroke: black; stroke-width:0.25;"/>
<rect x="627.000000" y="169.000000" width="24.000000" height="24.000000" rx="0" ry="0" style="stroke:none;fill:#cccccc;"/>
<rect x="626.000000" y="168.000000" width="24.000000" height="24.000000" rx="0" ry="0" style="stroke:none;fill:#4B71A1;"/>
<text x="638.000000" y="182.000000" font-family="Arial" font-size="7" text-anchor="middle" fill="#FFFFFF">+</text>
<circle cx="628.000000" cy="170.000000" r="1"/>
<line x1="623.000000" y1="175.000000" x2="626.000000" y2="176.000000"  transform="rotate(0.000000,626.000000,176.000000)" style="stroke: black; stroke-width:0.25;"/>
<line x1="623.000000" y1="177.000000" x2="626.000000" y2="176.000000"  transform="rotate(0.000000,626.000000,176.000000)" style="stroke: black; stroke-width:0.25;"/>
<line x1="623.000000" y1="183.000000" x2="626.000000" y2="184.000000"  transform="rotate(0.000000,626.000000,184.000000)" style="stroke: black; stroke-width:0.25;"/>
<line x1="623.000000" y1="185.000000" x2="626.000000" y2="184.000000"  transform="rotate(0.000000,626.000000,184.000000)" style="stroke: black; stroke-width:0.25;"/>
<line x1="15.000000" y1="15.000000" x2="15.000000" y2="345.000000"  style="stroke: black; stroke-linecap:round; stroke-width:0.25; stroke-dasharray:3,3;"/>
<line x1="15.000000" y1="345.000000" x2="667.000000" y2="345.000000"  style="stroke: black; stroke-linecap:round; stroke-width:0.25; stroke-dasharray:3,3;"/>
<line x1="667.000000" y1="345.000000" x2="667.000000" y2="15.000000"  style="stroke: black; stroke-linecap:round; stroke-width:0.25; stroke-dasharray:3,3;"/>
<line x1="15.000000" y1="15.000000" x2="20.000000" y2="15.000000"  style="stroke: black; stroke-linecap:round; stroke-width:0.25; stroke-dasharray:3,3;"/>
<line x1="100.625000" y1="15.000000" x2="667.000000" y2="15.000000"  style="stroke: black; stroke-linecap:round; stroke-width:0.25; stroke-dasharray:3,3;"/>
<text x="20.000000" y="17.000000" font-family="Arial" font-size="7">mthoctavefilterbankdemo</text>
<line x1="669.000000" y1="179.000000" x2="672.000000" y2="180.000000"  transform="rotate(0.000000,672.000000,180.000000)" style="stroke: black; stroke-width:0.25;"/>
<line x1="669.000000" y1="181.000000" x2="672.000000" y2="180.000000"  transform="rotate(0.000000,672.000000,180.000000)" style="stroke: black; stroke-width:0.25;"/>
<line x1="10.000000" y1="180.000000" x2="20.000000" y2="180.000000"  style="stroke:black; stroke-linecap:round; stroke-width:0.25;"/>
<line x1="20.000000" y1="180.000000" x2="24.000000" y2="180.000000"  style="stroke:black; stroke-linecap:round; stroke-width:0.25;"/>
<line x1="24.000000" y1="180.000000" x2="28.000000" y2="180.000000"  style="stroke:black; stroke-linecap:round; stroke-width:0.25;"/>
<line x1="28.000000" y1="180.000000" x2="28.000000" y2="180.000000"  style="stroke:black; stroke-linecap:round; stroke-width:0.25;"/>
<line x1="28.000000" y1="180.000000" x2="32.000000" y2="180.000000"  style="stroke:black; stroke-linecap:round; stroke-width:0.25;"/>
<line x1="161.000000" y1="152.000000" x2="165.000000" y2="152.000000"  style="stroke:black; stroke-linecap:round; stroke-width:0.25;"/>
<line x1="161.000000" y1="160.000000" x2="165.000000" y2="160.000000"  style="stroke:black; stroke-linecap:round; stroke-width:0.25;"/>
<line x1="161.000000" y1="168.000000" x2="165.000000" y2="168.000000"  style="stroke:black; stroke-linecap:round; stroke-width:0.25;"/>
<line x1="161.000000" y1="176.000000" x2="165.000000" y2="176.000000"  style="stroke:black; stroke-linecap:round; stroke-width:0.25;"/>
<line x1="161.000000" y1="184.000000" x2="165.000000" y2="184.000000"  style="stroke:black; stroke-linecap:round; stroke-width:0.25;"/>
<line x1="161.000000" y1="192.000000" x2="165.000000" y2="192.000000"  style="stroke:black; stroke-linecap:round; stroke-width:0.25;"/>
<line x1="161.000000" y1="200.000000" x2="165.000000" y2="200.000000"  style="stroke:black; stroke-linecap:round; stroke-width:0.25;"/>
<line x1="161.000000" y1="208.000000" x2="165.000000" y2="208.000000"  style="stroke:black; stroke-linecap:round; stroke-width:0.25;"/>
<line x1="165.000000" y1="24.000000" x2="197.000000" y2="24.000000"  style="stroke:black; stroke-linecap:round; stroke-width:0.25;"/>
<line x1="165.000000" y1="152.000000" x2="165.000000" y2="24.000000"  style="stroke:black; stroke-linecap:round; stroke-width:0.25;"/>
<line x1="165.000000" y1="152.000000" x2="165.000000" y2="152.000000"  style="stroke:black; stroke-linecap:round; stroke-width:0.25;"/>
<line x1="165.000000" y1="160.000000" x2="173.000000" y2="160.000000"  style="stroke:black; stroke-linecap:round; stroke-width:0.25;"/>
<line x1="165.000000" y1="168.000000" x2="181.000000" y2="168.000000"  style="stroke:black; stroke-linecap:round; stroke-width:0.25;"/>
<line x1="165.000000" y1="176.000000" x2="189.000000" y2="176.000000"  style="stroke:black; stroke-linecap:round; stroke-width:0.25;"/>
<line x1="165.000000" y1="184.000000" x2="197.000000" y2="184.000000"  style="stroke:black; stroke-linecap:round; stroke-width:0.25;"/>
<line x1="165.000000" y1="192.000000" x2="197.000000" y2="192.000000"  style="stroke:black; stroke-linecap:round; stroke-width:0.25;"/>
<line x1="165.000000" y1="200.000000" x2="189.000000" y2="200.000000"  style="stroke:black; stroke-linecap:round; stroke-width:0.25;"/>
<line x1="165.000000" y1="208.000000" x2="181.000000" y2="208.000000"  style="stroke:black; stroke-linecap:round; stroke-width:0.25;"/>
<line x1="173.000000" y1="64.000000" x2="197.000000" y2="64.000000"  style="stroke:black; stroke-linecap:round; stroke-width:0.25;"/>
<line x1="173.000000" y1="160.000000" x2="173.000000" y2="64.000000"  style="stroke:black; stroke-linecap:round; stroke-width:0.25;"/>
<line x1="181.000000" y1="104.000000" x2="197.000000" y2="104.000000"  style="stroke:black; stroke-linecap:round; stroke-width:0.25;"/>
<line x1="181.000000" y1="168.000000" x2="181.000000" y2="104.000000"  style="stroke:black; stroke-linecap:round; stroke-width:0.25;"/>
<line x1="181.000000" y1="208.000000" x2="181.000000" y2="304.000000"  style="stroke:black; stroke-linecap:round; stroke-width:0.25;"/>
<line x1="181.000000" y1="304.000000" x2="197.000000" y2="304.000000"  style="stroke:black; stroke-linecap:round; stroke-width:0.25;"/>
<line x1="189.000000" y1="144.000000" x2="197.000000" y2="144.000000"  style="stroke:black; stroke-linecap:round; stroke-width:0.25;"/>
<line x1="189.000000" y1="176.000000" x2="189.000000" y2="144.000000"  style="stroke:black; stroke-linecap:round; stroke-width:0.25;"/>
<line x1="189.000000" y1="200.000000" x2="189.000000" y2="264.000000"  style="stroke:black; stroke-linecap:round; stroke-width:0.25;"/>
<line x1="189.000000" y1="264.000000" x2="197.000000" y2="264.000000"  style="stroke:black; stroke-linecap:round; stroke-width:0.25;"/>
<line x1="197.000000" y1="24.000000" x2="265.500000" y2="24.000000"  style="stroke:black; stroke-linecap:round; stroke-width:0.25;"/>
<line x1="197.000000" y1="64.000000" x2="265.500000" y2="64.000000"  style="stroke:black; stroke-linecap:round; stroke-width:0.25;"/>
<line x1="197.000000" y1="104.000000" x2="217.000000" y2="104.000000"  style="stroke:black; stroke-linecap:round; stroke-width:0.25;"/>
<line x1="197.000000" y1="144.000000" x2="237.000000" y2="144.000000"  style="stroke:black; stroke-linecap:round; stroke-width:0.25;"/>
<line x1="197.000000" y1="184.000000" x2="257.000000" y2="184.000000"  style="stroke:black; stroke-linecap:round; stroke-width:0.25;"/>
<line x1="197.000000" y1="192.000000" x2="197.000000" y2="224.000000"  style="stroke:black; stroke-linecap:round; stroke-width:0.25;"/>
<line x1="197.000000" y1="224.000000" x2="197.000000" y2="224.000000"  style="stroke:black; stroke-linecap:round; stroke-width:0.25;"/>
<line x1="197.000000" y1="224.000000" x2="277.000000" y2="224.000000"  style="stroke:black; stroke-linecap:round; stroke-width:0.25;"/>
<line x1="197.000000" y1="264.000000" x2="297.000000" y2="264.000000"  style="stroke:black; stroke-linecap:round; stroke-width:0.25;"/>
<line x1="197.000000" y1="304.000000" x2="317.000000" y2="304.000000"  style="stroke:black; stroke-linecap:round; stroke-width:0.25;"/>
<line x1="217.000000" y1="104.000000" x2="285.500000" y2="104.000000"  style="stroke:black; stroke-linecap:round; stroke-width:0.25;"/>
<line x1="237.000000" y1="144.000000" x2="305.500000" y2="144.000000"  style="stroke:black; stroke-linecap:round; stroke-width:0.25;"/>
<line x1="257.000000" y1="184.000000" x2="325.500000" y2="184.000000"  style="stroke:black; stroke-linecap:round; stroke-width:0.25;"/>
<line x1="265.500000" y1="24.000000" x2="334.000000" y2="24.000000"  style="stroke:black; stroke-linecap:round; stroke-width:0.25;"/>
<line x1="265.500000" y1="64.000000" x2="334.000000" y2="64.000000"  style="stroke:black; stroke-linecap:round; stroke-width:0.25;"/>
<line x1="277.000000" y1="224.000000" x2="345.500000" y2="224.000000"  style="stroke:black; stroke-linecap:round; stroke-width:0.25;"/>
<line x1="285.500000" y1="104.000000" x2="354.000000" y2="104.000000"  style="stroke:black; stroke-linecap:round; stroke-width:0.25;"/>
<line x1="297.000000" y1="264.000000" x2="365.500000" y2="264.000000"  style="stroke:black; stroke-linecap:round; stroke-width:0.25;"/>
<line x1="305.500000" y1="144.000000" x2="374.000000" y2="144.000000"  style="stroke:black; stroke-linecap:round; stroke-width:0.25;"/>
<line x1="317.000000" y1="304.000000" x2="385.500000" y2="304.000000"  style="stroke:black; stroke-linecap:round; stroke-width:0.25;"/>
<line x1="325.500000" y1="184.000000" x2="394.000000" y2="184.000000"  style="stroke:black; stroke-linecap:round; stroke-width:0.25;"/>
<line x1="330.000000" y1="44.000000" x2="334.000000" y2="44.000000"  style="stroke:black; stroke-linecap:round; stroke-width:0.25;"/>
<line x1="330.000000" y1="84.000000" x2="334.000000" y2="84.000000"  style="stroke:black; stroke-linecap:round; stroke-width:0.25;"/>
<line x1="334.000000" y1="24.000000" x2="342.000000" y2="24.000000"  style="stroke:black; stroke-linecap:round; stroke-width:0.25;"/>
<line x1="334.000000" y1="44.000000" x2="342.000000" y2="44.000000"  style="stroke:black; stroke-linecap:round; stroke-width:0.25;"/>
<line x1="334.000000" y1="64.000000" x2="342.000000" y2="64.000000"  style="stroke:black; stroke-linecap:round; stroke-width:0.25;"/>
<line x1="334.000000" y1="84.000000" x2="342.000000" y2="84.000000"  style="stroke:black; stroke-linecap:round; stroke-width:0.25;"/>
<line x1="342.000000" y1="24.000000" x2="342.000000" y2="36.000000"  style="stroke:black; stroke-linecap:round; stroke-width:0.25;"/>
<line x1="342.000000" y1="36.000000" x2="342.000000" y2="36.000000"  style="stroke:black; stroke-linecap:round; stroke-width:0.25;"/>
<line x1="342.000000" y1="36.000000" x2="346.000000" y2="36.000000"  style="stroke:black; stroke-linecap:round; stroke-width:0.25;"/>
<line x1="342.000000" y1="44.000000" x2="346.000000" y2="44.000000"  style="stroke:black; stroke-linecap:round; stroke-width:0.25;"/>
<line x1="342.000000" y1="64.000000" x2="342.000000" y2="76.000000"  style="stroke:black; stroke-linecap:round; stroke-width:0.25;"/>
<line x1="342.000000" y1="76.000000" x2="342.000000" y2="76.000000"  style="stroke:black; stroke-linecap:round; stroke-width:0.25;"/>
<line x1="342.000000" y1="76.000000" x2="346.000000" y2="76.000000"  style="stroke:black; stroke-linecap:round; stroke-width:0.25;"/>
<line x1="342.000000" y1="84.000000" x2="346.000000" y2="84.000000"  style="stroke:black; stroke-linecap:round; stroke-width:0.25;"/>
<line x1="345.500000" y1="224.000000" x2="414.000000" y2="224.000000"  style="stroke:black; stroke-linecap:round; stroke-width:0.25;"/>
<line x1="350.000000" y1="124.000000" x2="354.000000" y2="124.000000"  style="stroke:black; stroke-linecap:round; stroke-width:0.25;"/>
<line x1="354.000000" y1="104.000000" x2="362.000000" y2="104.000000"  style="stroke:black; stroke-linecap:round; stroke-width:0.25;"/>
<line x1="354.000000" y1="124.000000" x2="362.000000" y2="124.000000"  style="stroke:black; stroke-linecap:round; stroke-width:0.25;"/>
<line x1="362.000000" y1="104.000000" x2="362.000000" y2="116.000000"  style="stroke:black; stroke-linecap:round; stroke-width:0.25;"/>
<line x1="362.000000" y1="116.000000" x2="362.000000" y2="116.000000"  style="stroke:black; stroke-linecap:round; stroke-width:0.25;"/>
<line x1="362.000000" y1="116.000000" x2="366.000000" y2="116.000000"  style="stroke:black; stroke-linecap:round; stroke-width:0.25;"/>
<line x1="362.000000" y1="124.000000" x2="366.000000" y2="124.000000"  style="stroke:black; stroke-linecap:round; stroke-width:0.25;"/>
<line x1="365.500000" y1="264.000000" x2="434.000000" y2="264.000000"  style="stroke:black; stroke-linecap:round; stroke-width:0.25;"/>
<line x1="370.000000" y1="40.000000" x2="374.000000" y2="40.000000"  style="stroke:black; stroke-linecap:round; stroke-width:0.25;"/>
<line x1="370.000000" y1="80.000000" x2="374.000000" y2="80.000000"  style="stroke:black; stroke-linecap:round; stroke-width:0.25;"/>
<line x1="370.000000" y1="164.000000" x2="374.000000" y2="164.000000"  style="stroke:black; stroke-linecap:round; stroke-width:0.25;"/>
<line x1="374.000000" y1="40.000000" x2="382.000000" y2="40.000000"  style="stroke:black; stroke-linecap:round; stroke-width:0.25;"/>
<line x1="374.000000" y1="64.000000" x2="382.000000" y2="64.000000"  style="stroke:black; stroke-linecap:round; stroke-width:0.25;"/>
<line x1="374.000000" y1="80.000000" x2="374.000000" y2="64.000000"  style="stroke:black; stroke-linecap:round; stroke-width:0.25;"/>
<line x1="374.000000" y1="80.000000" x2="374.000000" y2="80.000000"  style="stroke:black; stroke-linecap:round; stroke-width:0.25;"/>
<line x1="374.000000" y1="144.000000" x2="382.000000" y2="144.000000"  style="stroke:black; stroke-linecap:round; stroke-width:0.25;"/>
<line x1="374.000000" y1="164.000000" x2="382.000000" y2="164.000000"  style="stroke:black; stroke-linecap:round; stroke-width:0.25;"/>
<line x1="382.000000" y1="40.000000" x2="382.000000" y2="56.000000"  style="stroke:black; stroke-linecap:round; stroke-width:0.25;"/>
<line x1="382.000000" y1="56.000000" x2="382.000000" y2="56.000000"  style="stroke:black; stroke-linecap:round; stroke-width:0.25;"/>
<line x1="382.000000" y1="56.000000" x2="386.000000" y2="56.000000"  style="stroke:black; stroke-linecap:round; stroke-width:0.25;"/>
<line x1="382.000000" y1="64.000000" x2="386.000000" y2="64.000000"  style="stroke:black; stroke-linecap:round; stroke-width:0.25;"/>
<line x1="382.000000" y1="144.000000" x2="382.000000" y2="156.000000"  style="stroke:black; stroke-linecap:round; stroke-width:0.25;"/>
<line x1="382.000000" y1="156.000000" x2="382.000000" y2="156.000000"  style="stroke:black; stroke-linecap:round; stroke-width:0.25;"/>
<line x1="382.000000" y1="156.000000" x2="386.000000" y2="156.000000"  style="stroke:black; stroke-linecap:round; stroke-width:0.25;"/>
<line x1="382.000000" y1="164.000000" x2="386.000000" y2="164.000000"  style="stroke:black; stroke-linecap:round; stroke-width:0.25;"/>
<line x1="385.500000" y1="304.000000" x2="454.000000" y2="304.000000"  style="stroke:black; stroke-linecap:round; stroke-width:0.25;"/>
<line x1="390.000000" y1="120.000000" x2="394.000000" y2="120.000000"  style="stroke:black; stroke-linecap:round; stroke-width:0.25;"/>
<line x1="390.000000" y1="204.000000" x2="394.000000" y2="204.000000"  style="stroke:black; stroke-linecap:round; stroke-width:0.25;"/>
<line x1="394.000000" y1="120.000000" x2="414.000000" y2="120.000000"  style="stroke:black; stroke-linecap:round; stroke-width:0.25;"/>
<line x1="394.000000" y1="184.000000" x2="402.000000" y2="184.000000"  style="stroke:black; stroke-linecap:round; stroke-width:0.25;"/>
<line x1="394.000000" y1="204.000000" x2="402.000000" y2="204.000000"  style="stroke:black; stroke-linecap:round; stroke-width:0.25;"/>
<line x1="402.000000" y1="184.000000" x2="402.000000" y2="196.000000"  style="stroke:black; stroke-linecap:round; stroke-width:0.25;"/>
<line x1="402.000000" y1="196.000000" x2="402.000000" y2="196.000000"  style="stroke:black; stroke-linecap:round; stroke-width:0.25;"/>
<line x1="402.000000" y1="196.000000" x2="406.000000" y2="196.000000"  style="stroke:black; stroke-linecap:round; stroke-width:0.25;"/>
<line x1="402.000000" y1="204.000000" x2="406.000000" y2="204.000000"  style="stroke:black; stroke-linecap:round; stroke-width:0.25;"/>
<line x1="410.000000" y1="60.000000" x2="414.000000" y2="60.000000"  style="stroke:black; stroke-linecap:round; stroke-width:0.25;"/>
<line x1="410.000000" y1="160.000000" x2="414.000000" y2="160.000000"  style="stroke:black; stroke-linecap:round; stroke-width:0.25;"/>
<line x1="410.000000" y1="244.000000" x2="414.000000" y2="244.000000"  style="stroke:black; stroke-linecap:round; stroke-width:0.25;"/>
<line x1="414.000000" y1="60.000000" x2="422.000000" y2="60.000000"  style="stroke:black; stroke-linecap:round; stroke-width:0.25;"/>
<line x1="414.000000" y1="84.000000" x2="422.000000" y2="84.000000"  style="stroke:black; stroke-linecap:round; stroke-width:0.25;"/>
<line x1="414.000000" y1="120.000000" x2="414.000000" y2="84.000000"  style="stroke:black; stroke-linecap:round; stroke-width:0.25;"/>
<line x1="414.000000" y1="120.000000" x2="414.000000" y2="120.000000"  style="stroke:black; stroke-linecap:round; stroke-width:0.25;"/>
<line x1="414.000000" y1="160.000000" x2="454.000000" y2="160.000000"  style="stroke:black; stroke-linecap:round; stroke-width:0.25;"/>
<line x1="414.000000" y1="224.000000" x2="422.000000" y2="224.000000"  style="stroke:black; stroke-linecap:round; stroke-width:0.25;"/>
<line x1="414.000000" y1="244.000000" x2="422.000000" y2="244.000000"  style="stroke:black; stroke-linecap:round; stroke-width:0.25;"/>
<line x1="422.000000" y1="60.000000" x2="422.000000" y2="76.000000"  style="stroke:black; stroke-linecap:round; stroke-width:0.25;"/>
<line x1="422.000000" y1="76.000000" x2="422.000000" y2="76.000000"  style="stroke:black; stroke-linecap:round; stroke-width:0.25;"/>
<line x1="422.000000" y1="76.000000" x2="426.000000" y2="76.000000"  style="stroke:black; stroke-linecap:round; stroke-width:0.25;"/>
<line x1="422.000000" y1="84.000000" x2="426.000000" y2="84.000000"  style="stroke:black; stroke-linecap:round; stroke-width:0.25;"/>
<line x1="422.000000" y1="224.000000" x2="422.000000" y2="236.000000"  style="stroke:black; stroke-linecap:round; stroke-width:0.25;"/>
<line x1="422.000000" y1="236.000000" x2="422.000000" y2="236.000000"  style="stroke:black; stroke-linecap:round; stroke-width:0.25;"/>
<line x1="422.000000" y1="236.000000" x2="426.000000" y2="236.000000"  style="stroke:black; stroke-linecap:round; stroke-width:0.25;"/>
<line x1="422.000000" y1="244.000000" x2="426.000000" y2="244.000000"  style="stroke:black; stroke-linecap:round; stroke-width:0.25;"/>
<line x1="430.000000" y1="200.000000" x2="434.000000" y2="200.000000"  style="stroke:black; stroke-linecap:round; stroke-width:0.25;"/>
<line x1="430.000000" y1="284.000000" x2="434.000000" y2="284.000000"  style="stroke:black; stroke-linecap:round; stroke-width:0.25;"/>
<line x1="434.000000" y1="200.000000" x2="494.000000" y2="200.000000"  style="stroke:black; stroke-linecap:round; stroke-width:0.25;"/>
<line x1="434.000000" y1="264.000000" x2="442.000000" y2="264.000000"  style="stroke:black; stroke-linecap:round; stroke-width:0.25;"/>
<line x1="434.000000" y1="284.000000" x2="442.000000" y2="284.000000"  style="stroke:black; stroke-linecap:round; stroke-width:0.25;"/>
<line x1="442.000000" y1="264.000000" x2="442.000000" y2="276.000000"  style="stroke:black; stroke-linecap:round; stroke-width:0.25;"/>
<line x1="442.000000" y1="276.000000" x2="442.000000" y2="276.000000"  style="stroke:black; stroke-linecap:round; stroke-width:0.25;"/>
<line x1="442.000000" y1="276.000000" x2="446.000000" y2="276.000000"  style="stroke:black; stroke-linecap:round; stroke-width:0.25;"/>
<line x1="442.000000" y1="284.000000" x2="446.000000" y2="284.000000"  style="stroke:black; stroke-linecap:round; stroke-width:0.25;"/>
<line x1="450.000000" y1="80.000000" x2="454.000000" y2="80.000000"  style="stroke:black; stroke-linecap:round; stroke-width:0.25;"/>
<line x1="450.000000" y1="240.000000" x2="454.000000" y2="240.000000"  style="stroke:black; stroke-linecap:round; stroke-width:0.25;"/>
<line x1="450.000000" y1="324.000000" x2="454.000000" y2="324.000000"  style="stroke:black; stroke-linecap:round; stroke-width:0.25;"/>
<line x1="454.000000" y1="80.000000" x2="462.000000" y2="80.000000"  style="stroke:black; stroke-linecap:round; stroke-width:0.25;"/>
<line x1="454.000000" y1="104.000000" x2="462.000000" y2="104.000000"  style="stroke:black; stroke-linecap:round; stroke-width:0.25;"/>
<line x1="454.000000" y1="160.000000" x2="454.000000" y2="104.000000"  style="stroke:black; stroke-linecap:round; stroke-width:0.25;"/>
<line x1="454.000000" y1="160.000000" x2="454.000000" y2="160.000000"  style="stroke:black; stroke-linecap:round; stroke-width:0.25;"/>
<line x1="454.000000" y1="240.000000" x2="534.000000" y2="240.000000"  style="stroke:black; stroke-linecap:round; stroke-width:0.25;"/>
<line x1="454.000000" y1="304.000000" x2="462.000000" y2="304.000000"  style="stroke:black; stroke-linecap:round; stroke-width:0.25;"/>
<line x1="454.000000" y1="324.000000" x2="462.000000" y2="324.000000"  style="stroke:black; stroke-linecap:round; stroke-width:0.25;"/>
<line x1="462.000000" y1="80.000000" x2="462.000000" y2="96.000000"  style="stroke:black; stroke-linecap:round; stroke-width:0.25;"/>
<line x1="462.000000" y1="96.000000" x2="462.000000" y2="96.000000"  style="stroke:black; stroke-linecap:round; stroke-width:0.25;"/>
<line x1="462.000000" y1="96.000000" x2="466.000000" y2="96.000000"  style="stroke:black; stroke-linecap:round; stroke-width:0.25;"/>
<line x1="462.000000" y1="104.000000" x2="466.000000" y2="104.000000"  style="stroke:black; stroke-linecap:round; stroke-width:0.25;"/>
<line x1="462.000000" y1="304.000000" x2="462.000000" y2="316.000000"  style="stroke:black; stroke-linecap:round; stroke-width:0.25;"/>
<line x1="462.000000" y1="316.000000" x2="462.000000" y2="316.000000"  style="stroke:black; stroke-linecap:round; stroke-width:0.25;"/>
<line x1="462.000000" y1="316.000000" x2="466.000000" y2="316.000000"  style="stroke:black; stroke-linecap:round; stroke-width:0.25;"/>
<line x1="462.000000" y1="324.000000" x2="466.000000" y2="324.000000"  style="stroke:black; stroke-linecap:round; stroke-width:0.25;"/>
<line x1="470.000000" y1="280.000000" x2="474.000000" y2="280.000000"  style="stroke:black; stroke-linecap:round; stroke-width:0.25;"/>
<line x1="474.000000" y1="280.000000" x2="574.000000" y2="280.000000"  style="stroke:black; stroke-linecap:round; stroke-width:0.25;"/>
<line x1="490.000000" y1="100.000000" x2="494.000000" y2="100.000000"  style="stroke:black; stroke-linecap:round; stroke-width:0.25;"/>
<line x1="490.000000" y1="320.000000" x2="494.000000" y2="320.000000"  style="stroke:black; stroke-linecap:round; stroke-width:0.25;"/>
<line x1="494.000000" y1="100.000000" x2="502.000000" y2="100.000000"  style="stroke:black; stroke-linecap:round; stroke-width:0.25;"/>
<line x1="494.000000" y1="124.000000" x2="502.000000" y2="124.000000"  style="stroke:black; stroke-linecap:round; stroke-width:0.25;"/>
<line x1="494.000000" y1="200.000000" x2="494.000000" y2="124.000000"  style="stroke:black; stroke-linecap:round; stroke-width:0.25;"/>
<line x1="494.000000" y1="200.000000" x2="494.000000" y2="200.000000"  style="stroke:black; stroke-linecap:round; stroke-width:0.25;"/>
<line x1="494.000000" y1="320.000000" x2="614.000000" y2="320.000000"  style="stroke:black; stroke-linecap:round; stroke-width:0.25;"/>
<line x1="502.000000" y1="100.000000" x2="502.000000" y2="116.000000"  style="stroke:black; stroke-linecap:round; stroke-width:0.25;"/>
<line x1="502.000000" y1="116.000000" x2="502.000000" y2="116.000000"  style="stroke:black; stroke-linecap:round; stroke-width:0.25;"/>
<line x1="502.000000" y1="116.000000" x2="506.000000" y2="116.000000"  style="stroke:black; stroke-linecap:round; stroke-width:0.25;"/>
<line x1="502.000000" y1="124.000000" x2="506.000000" y2="124.000000"  style="stroke:black; stroke-linecap:round; stroke-width:0.25;"/>
<line x1="530.000000" y1="120.000000" x2="534.000000" y2="120.000000"  style="stroke:black; stroke-linecap:round; stroke-width:0.25;"/>
<line x1="534.000000" y1="120.000000" x2="542.000000" y2="120.000000"  style="stroke:black; stroke-linecap:round; stroke-width:0.25;"/>
<line x1="534.000000" y1="144.000000" x2="542.000000" y2="144.000000"  style="stroke:black; stroke-linecap:round; stroke-width:0.25;"/>
<line x1="534.000000" y1="240.000000" x2="534.000000" y2="144.000000"  style="stroke:black; stroke-linecap:round; stroke-width:0.25;"/>
<line x1="534.000000" y1="240.000000" x2="534.000000" y2="240.000000"  style="stroke:black; stroke-linecap:round; stroke-width:0.25;"/>
<line x1="542.000000" y1="120.000000" x2="542.000000" y2="136.000000"  style="stroke:black; stroke-linecap:round; stroke-width:0.25;"/>
<line x1="542.000000" y1="136.000000" x2="542.000000" y2="136.000000"  style="stroke:black; stroke-linecap:round; stroke-width:0.25;"/>
<line x1="542.000000" y1="136.000000" x2="546.000000" y2="136.000000"  style="stroke:black; stroke-linecap:round; stroke-width:0.25;"/>
<line x1="542.000000" y1="144.000000" x2="546.000000" y2="144.000000"  style="stroke:black; stroke-linecap:round; stroke-width:0.25;"/>
<line x1="570.000000" y1="140.000000" x2="574.000000" y2="140.000000"  style="stroke:black; stroke-linecap:round; stroke-width:0.25;"/>
<line x1="574.000000" y1="140.000000" x2="582.000000" y2="140.000000"  style="stroke:black; stroke-linecap:round; stroke-width:0.25;"/>
<line x1="574.000000" y1="164.000000" x2="582.000000" y2="164.000000"  style="stroke:black; stroke-linecap:round; stroke-width:0.25;"/>
<line x1="574.000000" y1="280.000000" x2="574.000000" y2="164.000000"  style="stroke:black; stroke-linecap:round; stroke-width:0.25;"/>
<line x1="574.000000" y1="280.000000" x2="574.000000" y2="280.000000"  style="stroke:black; stroke-linecap:round; stroke-width:0.25;"/>
<line x1="582.000000" y1="140.000000" x2="582.000000" y2="156.000000"  style="stroke:black; stroke-linecap:round; stroke-width:0.25;"/>
<line x1="582.000000" y1="156.000000" x2="582.000000" y2="156.000000"  style="stroke:black; stroke-linecap:round; stroke-width:0.25;"/>
<line x1="582.000000" y1="156.000000" x2="586.000000" y2="156.000000"  style="stroke:black; stroke-linecap:round; stroke-width:0.25;"/>
<line x1="582.000000" y1="164.000000" x2="586.000000" y2="164.000000"  style="stroke:black; stroke-linecap:round; stroke-width:0.25;"/>
<line x1="610.000000" y1="160.000000" x2="614.000000" y2="160.000000"  style="stroke:black; stroke-linecap:round; stroke-width:0.25;"/>
<line x1="614.000000" y1="160.000000" x2="622.000000" y2="160.000000"  style="stroke:black; stroke-linecap:round; stroke-width:0.25;"/>
<line x1="614.000000" y1="184.000000" x2="622.000000" y2="184.000000"  style="stroke:black; stroke-linecap:round; stroke-width:0.25;"/>
<line x1="614.000000" y1="320.000000" x2="614.000000" y2="184.000000"  style="stroke:black; stroke-linecap:round; stroke-width:0.25;"/>
<line x1="614.000000" y1="320.000000" x2="614.000000" y2="320.000000"  style="stroke:black; stroke-linecap:round; stroke-width:0.25;"/>
<line x1="622.000000" y1="160.000000" x2="622.000000" y2="176.000000"  style="stroke:black; stroke-linecap:round; stroke-width:0.25;"/>
<line x1="622.000000" y1="176.000000" x2="622.000000" y2="176.000000"  style="stroke:black; stroke-linecap:round; stroke-width:0.25;"/>
<line x1="622.000000" y1="176.000000" x2="626.000000" y2="176.000000"  style="stroke:black; stroke-linecap:round; stroke-width:0.25;"/>
<line x1="622.000000" y1="184.000000" x2="626.000000" y2="184.000000"  style="stroke:black; stroke-linecap:round; stroke-width:0.25;"/>
<line x1="650.000000" y1="180.000000" x2="654.000000" y2="180.000000"  style="stroke:black; stroke-linecap:round; stroke-width:0.25;"/>
<line x1="654.000000" y1="180.000000" x2="654.000000" y2="180.000000"  style="stroke:black; stroke-linecap:round; stroke-width:0.25;"/>
<line x1="654.000000" y1="180.000000" x2="658.000000" y2="180.000000"  style="stroke:black; stroke-linecap:round; stroke-width:0.25;"/>
<line x1="658.000000" y1="180.000000" x2="662.000000" y2="180.000000"  style="stroke:black; stroke-linecap:round; stroke-width:0.25;"/>
<line x1="662.000000" y1="180.000000" x2="672.000000" y2="180.000000"  style="stroke:black; stroke-linecap:round; stroke-width:0.25;"/>
</svg>
