<?xml version="1.0"?>
<svg xmlns="http://www.w3.org/2000/svg" xmlns:xlink="http://www.w3.org/1999/xlink" viewBox="0 0 305.000000 112.000000" width="152.500000mm" height="56.000000mm" version="1.1">
<a xlink:href="outs-0x7ffc4dabc100.svg">
<rect x="1.000000" y="1.000000" width="304.000000" height="111.000000" rx="0" ry="0" style="stroke:none;fill:#cccccc;"/>
<rect x="0.000000" y="0.000000" width="304.000000" height="111.000000" rx="0" ry="0" style="stroke:none;fill:#ffffff;"/>
</a>
<text x="10.000000" y="7.000000" font-family="Arial" font-size="7"></text>
<a xlink:href="outdel-0x7ffc4dabb270.svg">
<rect x="53.000000" y="45.000000" width="25.800000" height="24.000000" rx="0" ry="0" style="stroke:none;fill:#cccccc;"/>
<rect x="52.000000" y="44.000000" width="25.800000" height="24.000000" rx="0" ry="0" style="stroke:none;fill:#003366;"/>
</a>
<a xlink:href="outdel-0x7ffc4dabb270.svg">
<text x="64.900000" y="58.000000" font-family="Arial" font-size="7" text-anchor="middle" fill="#FFFFFF">outdel</text>
</a>
<circle cx="54.000000" cy="46.000000" r="1"/>
<line x1="49.000000" y1="55.000000" x2="52.000000" y2="56.000000"  transform="rotate(0.000000,52.000000,56.000000)" style="stroke: black; stroke-width:0.25;"/>
<line x1="49.000000" y1="57.000000" x2="52.000000" y2="56.000000"  transform="rotate(0.000000,52.000000,56.000000)" style="stroke: black; stroke-width:0.25;"/>
<a xlink:href="outfbank-0x7ffc4dab9f60.svg">
<rect x="86.800000" y="45.000000" width="38.700000" height="24.000000" rx="0" ry="0" style="stroke:none;fill:#cccccc;"/>
<rect x="85.800000" y="44.000000" width="38.700000" height="24.000000" rx="0" ry="0" style="stroke:none;fill:#003366;"/>
</a>
<a xlink:href="outfbank-0x7ffc4dab9f60.svg">
<text x="105.150000" y="58.000000" font-family="Arial" font-size="7" text-anchor="middle" fill="#FFFFFF">outfbank</text>
</a>
<circle cx="87.800000" cy="46.000000" r="1"/>
<line x1="82.800000" y1="55.000000" x2="85.800000" y2="56.000000"  transform="rotate(0.000000,85.800000,56.000000)" style="stroke: black; stroke-width:0.25;"/>
<line x1="82.800000" y1="57.000000" x2="85.800000" y2="56.000000"  transform="rotate(0.000000,85.800000,56.000000)" style="stroke: black; stroke-width:0.25;"/>
<line x1="43.000000" y1="35.000000" x2="43.000000" y2="77.000000"  style="stroke: black; stroke-linecap:round; stroke-width:0.25; stroke-dasharray:3,3;"/>
<line x1="43.000000" y1="77.000000" x2="133.500000" y2="77.000000"  style="stroke: black; stroke-linecap:round; stroke-width:0.25; stroke-dasharray:3,3;"/>
<line x1="133.500000" y1="77.000000" x2="133.500000" y2="35.000000"  style="stroke: black; stroke-linecap:round; stroke-width:0.25; stroke-dasharray:3,3;"/>
<line x1="43.000000" y1="35.000000" x2="48.000000" y2="35.000000"  style="stroke: black; stroke-linecap:round; stroke-width:0.25; stroke-dasharray:3,3;"/>
<line x1="80.250000" y1="35.000000" x2="133.500000" y2="35.000000"  style="stroke: black; stroke-linecap:round; stroke-width:0.25; stroke-dasharray:3,3;"/>
<text x="48.000000" y="37.000000" font-family="Arial" font-size="7">vgroup()</text>
<a xlink:href="gain-0x7ffc4a71ab40.svg">
<rect x="151.500000" y="49.000000" width="25.800000" height="24.000000" rx="0" ry="0" style="stroke:none;fill:#cccccc;"/>
<rect x="150.500000" y="48.000000" width="25.800000" height="24.000000" rx="0" ry="0" style="stroke:none;fill:#003366;"/>
</a>
<a xlink:href="gain-0x7ffc4a71ab40.svg">
<text x="163.400000" y="62.000000" font-family="Arial" font-size="7" text-anchor="middle" fill="#FFFFFF">gain</text>
</a>
<circle cx="152.500000" cy="50.000000" r="1"/>
<rect x="193.300000" y="45.000000" width="24.000000" height="24.000000" rx="0" ry="0" style="stroke:none;fill:#cccccc;"/>
<rect x="192.300000" y="44.000000" width="24.000000" height="24.000000" rx="0" ry="0" style="stroke:none;fill:#4B71A1;"/>
<text x="204.300000" y="58.000000" font-family="Arial" font-size="7" text-anchor="middle" fill="#FFFFFF">*</text>
<circle cx="194.300000" cy="46.000000" r="1"/>
<line x1="189.300000" y1="51.000000" x2="192.300000" y2="52.000000"  transform="rotate(0.000000,192.300000,52.000000)" style="stroke: black; stroke-width:0.25;"/>
<line x1="189.300000" y1="53.000000" x2="192.300000" y2="52.000000"  transform="rotate(0.000000,192.300000,52.000000)" style="stroke: black; stroke-width:0.25;"/>
<line x1="189.300000" y1="59.000000" x2="192.300000" y2="60.000000"  transform="rotate(0.000000,192.300000,60.000000)" style="stroke: black; stroke-width:0.25;"/>
<line x1="189.300000" y1="61.000000" x2="192.300000" y2="60.000000"  transform="rotate(0.000000,192.300000,60.000000)" style="stroke: black; stroke-width:0.25;"/>
<a xlink:href="svmeter-0x7ffc4d8be120.svg">
<rect x="225.300000" y="45.000000" width="38.700000" height="24.000000" rx="0" ry="0" style="stroke:none;fill:#cccccc;"/>
<rect x="224.300000" y="44.000000" width="38.700000" height="24.000000" rx="0" ry="0" style="stroke:none;fill:#003366;"/>
</a>
<a xlink:href="svmeter-0x7ffc4d8be120.svg">
<text x="243.650000" y="58.000000" font-family="Arial" font-size="7" text-anchor="middle" fill="#FFFFFF">svmeter</text>
</a>
<circle cx="226.300000" cy="46.000000" r="1"/>
<line x1="221.300000" y1="55.000000" x2="224.300000" y2="56.000000"  transform="rotate(0.000000,224.300000,56.000000)" style="stroke: black; stroke-width:0.25;"/>
<line x1="221.300000" y1="57.000000" x2="224.300000" y2="56.000000"  transform="rotate(0.000000,224.300000,56.000000)" style="stroke: black; stroke-width:0.25;"/>
<line x1="33.000000" y1="25.000000" x2="33.000000" y2="87.000000"  style="stroke: black; stroke-linecap:round; stroke-width:0.25; stroke-dasharray:3,3;"/>
<line x1="33.000000" y1="87.000000" x2="272.000000" y2="87.000000"  style="stroke: black; stroke-linecap:round; stroke-width:0.25; stroke-dasharray:3,3;"/>
<line x1="272.000000" y1="87.000000" x2="272.000000" y2="25.000000"  style="stroke: black; stroke-linecap:round; stroke-width:0.25; stroke-dasharray:3,3;"/>
<line x1="33.000000" y1="25.000000" x2="38.000000" y2="25.000000"  style="stroke: black; stroke-linecap:round; stroke-width:0.25; stroke-dasharray:3,3;"/>
<line x1="83.150000" y1="25.000000" x2="272.000000" y2="25.000000"  style="stroke: black; stroke-linecap:round; stroke-width:0.25; stroke-dasharray:3,3;"/>
<text x="38.000000" y="27.000000" font-family="Arial" font-size="7">hgroup(OUT3)</text>
<line x1="15.000000" y1="15.000000" x2="15.000000" y2="97.000000"  style="stroke: black; stroke-linecap:round; stroke-width:0.25; stroke-dasharray:3,3;"/>
<line x1="15.000000" y1="97.000000" x2="290.000000" y2="97.000000"  style="stroke: black; stroke-linecap:round; stroke-width:0.25; stroke-dasharray:3,3;"/>
<line x1="290.000000" y1="97.000000" x2="290.000000" y2="15.000000"  style="stroke: black; stroke-linecap:round; stroke-width:0.25; stroke-dasharray:3,3;"/>
<line x1="15.000000" y1="15.000000" x2="20.000000" y2="15.000000"  style="stroke: black; stroke-linecap:round; stroke-width:0.25; stroke-dasharray:3,3;"/>
<line x1="45.800000" y1="15.000000" x2="290.000000" y2="15.000000"  style="stroke: black; stroke-linecap:round; stroke-width:0.25; stroke-dasharray:3,3;"/>
<text x="20.000000" y="17.000000" font-family="Arial" font-size="7">out(2)</text>
<line x1="292.000000" y1="55.000000" x2="295.000000" y2="56.000000"  transform="rotate(0.000000,295.000000,56.000000)" style="stroke: black; stroke-width:0.25;"/>
<line x1="292.000000" y1="57.000000" x2="295.000000" y2="56.000000"  transform="rotate(0.000000,295.000000,56.000000)" style="stroke: black; stroke-width:0.25;"/>
<line x1="10.000000" y1="56.000000" x2="20.000000" y2="56.000000"  style="stroke:black; stroke-linecap:round; stroke-width:0.25;"/>
<line x1="20.000000" y1="56.000000" x2="24.000000" y2="56.000000"  style="stroke:black; stroke-linecap:round; stroke-width:0.25;"/>
<line x1="24.000000" y1="56.000000" x2="28.000000" y2="56.000000"  style="stroke:black; stroke-linecap:round; stroke-width:0.25;"/>
<line x1="28.000000" y1="56.000000" x2="28.000000" y2="56.000000"  style="stroke:black; stroke-linecap:round; stroke-width:0.25;"/>
<line x1="28.000000" y1="56.000000" x2="38.000000" y2="56.000000"  style="stroke:black; stroke-linecap:round; stroke-width:0.25;"/>
<line x1="38.000000" y1="56.000000" x2="48.000000" y2="56.000000"  style="stroke:black; stroke-linecap:round; stroke-width:0.25;"/>
<line x1="48.000000" y1="56.000000" x2="52.000000" y2="56.000000"  style="stroke:black; stroke-linecap:round; stroke-width:0.25;"/>
<line x1="77.800000" y1="56.000000" x2="81.800000" y2="56.000000"  style="stroke:black; stroke-linecap:round; stroke-width:0.25;"/>
<line x1="81.800000" y1="56.000000" x2="81.800000" y2="56.000000"  style="stroke:black; stroke-linecap:round; stroke-width:0.25;"/>
<line x1="81.800000" y1="56.000000" x2="85.800000" y2="56.000000"  style="stroke:black; stroke-linecap:round; stroke-width:0.25;"/>
<line x1="124.500000" y1="56.000000" x2="128.500000" y2="56.000000"  style="stroke:black; stroke-linecap:round; stroke-width:0.25;"/>
<line x1="128.500000" y1="56.000000" x2="138.500000" y2="56.000000"  style="stroke:black; stroke-linecap:round; stroke-width:0.25;"/>
<line x1="138.500000" y1="40.000000" x2="146.500000" y2="40.000000"  style="stroke:black; stroke-linecap:round; stroke-width:0.25;"/>
<line x1="138.500000" y1="56.000000" x2="138.500000" y2="40.000000"  style="stroke:black; stroke-linecap:round; stroke-width:0.25;"/>
<line x1="138.500000" y1="56.000000" x2="138.500000" y2="56.000000"  style="stroke:black; stroke-linecap:round; stroke-width:0.25;"/>
<line x1="146.500000" y1="40.000000" x2="163.400000" y2="40.000000"  style="stroke:black; stroke-linecap:round; stroke-width:0.25;"/>
<line x1="163.400000" y1="40.000000" x2="180.300000" y2="40.000000"  style="stroke:black; stroke-linecap:round; stroke-width:0.25;"/>
<line x1="176.300000" y1="60.000000" x2="180.300000" y2="60.000000"  style="stroke:black; stroke-linecap:round; stroke-width:0.25;"/>
<line x1="180.300000" y1="40.000000" x2="188.300000" y2="40.000000"  style="stroke:black; stroke-linecap:round; stroke-width:0.25;"/>
<line x1="180.300000" y1="60.000000" x2="188.300000" y2="60.000000"  style="stroke:black; stroke-linecap:round; stroke-width:0.25;"/>
<line x1="188.300000" y1="40.000000" x2="188.300000" y2="52.000000"  style="stroke:black; stroke-linecap:round; stroke-width:0.25;"/>
<line x1="188.300000" y1="52.000000" x2="188.300000" y2="52.000000"  style="stroke:black; stroke-linecap:round; stroke-width:0.25;"/>
<line x1="188.300000" y1="52.000000" x2="192.300000" y2="52.000000"  style="stroke:black; stroke-linecap:round; stroke-width:0.25;"/>
<line x1="188.300000" y1="60.000000" x2="192.300000" y2="60.000000"  style="stroke:black; stroke-linecap:round; stroke-width:0.25;"/>
<line x1="216.300000" y1="56.000000" x2="220.300000" y2="56.000000"  style="stroke:black; stroke-linecap:round; stroke-width:0.25;"/>
<line x1="220.300000" y1="56.000000" x2="220.300000" y2="56.000000"  style="stroke:black; stroke-linecap:round; stroke-width:0.25;"/>
<line x1="220.300000" y1="56.000000" x2="224.300000" y2="56.000000"  style="stroke:black; stroke-linecap:round; stroke-width:0.25;"/>
<line x1="263.000000" y1="56.000000" x2="267.000000" y2="56.000000"  style="stroke:black; stroke-linecap:round; stroke-width:0.25;"/>
<line x1="267.000000" y1="56.000000" x2="277.000000" y2="56.000000"  style="stroke:black; stroke-linecap:round; stroke-width:0.25;"/>
<line x1="277.000000" y1="56.000000" x2="277.000000" y2="56.000000"  style="stroke:black; stroke-linecap:round; stroke-width:0.25;"/>
<line x1="277.000000" y1="56.000000" x2="281.000000" y2="56.000000"  style="stroke:black; stroke-linecap:round; stroke-width:0.25;"/>
<line x1="281.000000" y1="56.000000" x2="285.000000" y2="56.000000"  style="stroke:black; stroke-linecap:round; stroke-width:0.25;"/>
<line x1="285.000000" y1="56.000000" x2="295.000000" y2="56.000000"  style="stroke:black; stroke-linecap:round; stroke-width:0.25;"/>
</svg>
