<?xml version="1.0"?>
<svg xmlns="http://www.w3.org/2000/svg" xmlns:xlink="http://www.w3.org/1999/xlink" viewBox="0 0 304.600000 112.000000" width="152.300000mm" height="56.000000mm" version="1.1">
<a xlink:href="out-0x7ffc4dabbe30.svg">
<rect x="1.000000" y="1.000000" width="303.600000" height="111.000000" rx="0" ry="0" style="stroke:none;fill:#cccccc;"/>
<rect x="0.000000" y="0.000000" width="303.600000" height="111.000000" rx="0" ry="0" style="stroke:none;fill:#ffffff;"/>
</a>
<text x="10.000000" y="7.000000" font-family="Arial" font-size="7"></text>
<a xlink:href="fon-0x7ffc4a6402b0.svg">
<rect x="123.950000" y="25.000000" width="24.000000" height="24.000000" rx="0" ry="0" style="stroke:none;fill:#cccccc;"/>
<rect x="122.950000" y="24.000000" width="24.000000" height="24.000000" rx="0" ry="0" style="stroke:none;fill:#003366;"/>
</a>
<a xlink:href="fon-0x7ffc4a6402b0.svg">
<text x="134.950000" y="38.000000" font-family="Arial" font-size="7" text-anchor="middle" fill="#FFFFFF">fon</text>
</a>
<circle cx="124.950000" cy="26.000000" r="1"/>
<a xlink:href="inswitch-0x7ffc4a6d1810.svg">
<rect x="61.000000" y="57.000000" width="38.700000" height="24.000000" rx="0" ry="0" style="stroke:none;fill:#cccccc;"/>
<rect x="60.000000" y="56.000000" width="38.700000" height="24.000000" rx="0" ry="0" style="stroke:none;fill:#003366;"/>
</a>
<a xlink:href="inswitch-0x7ffc4a6d1810.svg">
<text x="79.350000" y="70.000000" font-family="Arial" font-size="7" text-anchor="middle" fill="#FFFFFF">inswitch</text>
</a>
<circle cx="62.000000" cy="58.000000" r="1"/>
<line x1="57.000000" y1="67.000000" x2="60.000000" y2="68.000000"  transform="rotate(0.000000,60.000000,68.000000)" style="stroke: black; stroke-width:0.25;"/>
<line x1="57.000000" y1="69.000000" x2="60.000000" y2="68.000000"  transform="rotate(0.000000,60.000000,68.000000)" style="stroke: black; stroke-width:0.25;"/>
<a xlink:href="mthoctavefilterb-0x7ffc4a716b60.svg">
<rect x="107.700000" y="57.000000" width="103.200000" height="24.000000" rx="0" ry="0" style="stroke:none;fill:#cccccc;"/>
<rect x="106.700000" y="56.000000" width="103.200000" height="24.000000" rx="0" ry="0" style="stroke:none;fill:#003366;"/>
</a>
<a xlink:href="mthoctavefilterb-0x7ffc4a716b60.svg">
<text x="158.300000" y="70.000000" font-family="Arial" font-size="7" text-anchor="middle" fill="#FFFFFF">mthoctavefilterbankdemo</text>
</a>
<circle cx="108.700000" cy="58.000000" r="1"/>
<line x1="103.700000" y1="67.000000" x2="106.700000" y2="68.000000"  transform="rotate(0.000000,106.700000,68.000000)" style="stroke: black; stroke-width:0.25;"/>
<line x1="103.700000" y1="69.000000" x2="106.700000" y2="68.000000"  transform="rotate(0.000000,106.700000,68.000000)" style="stroke: black; stroke-width:0.25;"/>
<rect x="234.900000" y="45.000000" width="38.700000" height="24.000000" rx="0" ry="0" style="stroke:none;fill:#cccccc;"/>
<rect x="233.900000" y="44.000000" width="38.700000" height="24.000000" rx="0" ry="0" style="stroke:none;fill:#4B71A1;"/>
<text x="253.250000" y="58.000000" font-family="Arial" font-size="7" text-anchor="middle" fill="#FFFFFF">select2</text>
<circle cx="235.900000" cy="46.000000" r="1"/>
<line x1="230.900000" y1="47.000000" x2="233.900000" y2="48.000000"  transform="rotate(0.000000,233.900000,48.000000)" style="stroke: black; stroke-width:0.25;"/>
<line x1="230.900000" y1="49.000000" x2="233.900000" y2="48.000000"  transform="rotate(0.000000,233.900000,48.000000)" style="stroke: black; stroke-width:0.25;"/>
<line x1="230.900000" y1="55.000000" x2="233.900000" y2="56.000000"  transform="rotate(0.000000,233.900000,56.000000)" style="stroke: black; stroke-width:0.25;"/>
<line x1="230.900000" y1="57.000000" x2="233.900000" y2="56.000000"  transform="rotate(0.000000,233.900000,56.000000)" style="stroke: black; stroke-width:0.25;"/>
<line x1="230.900000" y1="63.000000" x2="233.900000" y2="64.000000"  transform="rotate(0.000000,233.900000,64.000000)" style="stroke: black; stroke-width:0.25;"/>
<line x1="230.900000" y1="65.000000" x2="233.900000" y2="64.000000"  transform="rotate(0.000000,233.900000,64.000000)" style="stroke: black; stroke-width:0.25;"/>
<line x1="15.000000" y1="15.000000" x2="15.000000" y2="97.000000"  style="stroke: black; stroke-linecap:round; stroke-width:0.25; stroke-dasharray:3,3;"/>
<line x1="15.000000" y1="97.000000" x2="289.600000" y2="97.000000"  style="stroke: black; stroke-linecap:round; stroke-width:0.25; stroke-dasharray:3,3;"/>
<line x1="289.600000" y1="97.000000" x2="289.600000" y2="15.000000"  style="stroke: black; stroke-linecap:round; stroke-width:0.25; stroke-dasharray:3,3;"/>
<line x1="15.000000" y1="15.000000" x2="20.000000" y2="15.000000"  style="stroke: black; stroke-linecap:round; stroke-width:0.25; stroke-dasharray:3,3;"/>
<line x1="52.250000" y1="15.000000" x2="289.600000" y2="15.000000"  style="stroke: black; stroke-linecap:round; stroke-width:0.25; stroke-dasharray:3,3;"/>
<text x="20.000000" y="17.000000" font-family="Arial" font-size="7">outfbank</text>
<line x1="291.600000" y1="55.000000" x2="294.600000" y2="56.000000"  transform="rotate(0.000000,294.600000,56.000000)" style="stroke: black; stroke-width:0.25;"/>
<line x1="291.600000" y1="57.000000" x2="294.600000" y2="56.000000"  transform="rotate(0.000000,294.600000,56.000000)" style="stroke: black; stroke-width:0.25;"/>
<line x1="10.000000" y1="56.000000" x2="20.000000" y2="56.000000"  style="stroke:black; stroke-linecap:round; stroke-width:0.25;"/>
<line x1="20.000000" y1="56.000000" x2="24.000000" y2="56.000000"  style="stroke:black; stroke-linecap:round; stroke-width:0.25;"/>
<line x1="24.000000" y1="56.000000" x2="28.000000" y2="56.000000"  style="stroke:black; stroke-linecap:round; stroke-width:0.25;"/>
<line x1="28.000000" y1="56.000000" x2="28.000000" y2="56.000000"  style="stroke:black; stroke-linecap:round; stroke-width:0.25;"/>
<line x1="28.000000" y1="56.000000" x2="32.000000" y2="56.000000"  style="stroke:black; stroke-linecap:round; stroke-width:0.25;"/>
<line x1="32.000000" y1="56.000000" x2="36.000000" y2="56.000000"  style="stroke:black; stroke-linecap:round; stroke-width:0.25;"/>
<line x1="36.000000" y1="56.000000" x2="56.000000" y2="68.000000"  style="stroke:black; stroke-linecap:round; stroke-width:0.25;"/>
<line x1="36.000000" y1="56.000000" x2="56.000000" y2="88.000000"  style="stroke:black; stroke-linecap:round; stroke-width:0.25;"/>
<line x1="56.000000" y1="68.000000" x2="60.000000" y2="68.000000"  style="stroke:black; stroke-linecap:round; stroke-width:0.25;"/>
<line x1="56.000000" y1="88.000000" x2="134.950000" y2="88.000000"  style="stroke:black; stroke-linecap:round; stroke-width:0.25;"/>
<line x1="98.700000" y1="68.000000" x2="102.700000" y2="68.000000"  style="stroke:black; stroke-linecap:round; stroke-width:0.25;"/>
<line x1="102.700000" y1="68.000000" x2="102.700000" y2="68.000000"  style="stroke:black; stroke-linecap:round; stroke-width:0.25;"/>
<line x1="102.700000" y1="68.000000" x2="106.700000" y2="68.000000"  style="stroke:black; stroke-linecap:round; stroke-width:0.25;"/>
<line x1="134.950000" y1="88.000000" x2="213.900000" y2="88.000000"  style="stroke:black; stroke-linecap:round; stroke-width:0.25;"/>
<line x1="146.950000" y1="36.000000" x2="150.950000" y2="36.000000"  style="stroke:black; stroke-linecap:round; stroke-width:0.25;"/>
<line x1="150.950000" y1="36.000000" x2="213.900000" y2="36.000000"  style="stroke:black; stroke-linecap:round; stroke-width:0.25;"/>
<line x1="209.900000" y1="68.000000" x2="213.900000" y2="68.000000"  style="stroke:black; stroke-linecap:round; stroke-width:0.25;"/>
<line x1="213.900000" y1="36.000000" x2="229.900000" y2="36.000000"  style="stroke:black; stroke-linecap:round; stroke-width:0.25;"/>
<line x1="213.900000" y1="56.000000" x2="229.900000" y2="56.000000"  style="stroke:black; stroke-linecap:round; stroke-width:0.25;"/>
<line x1="213.900000" y1="68.000000" x2="213.900000" y2="56.000000"  style="stroke:black; stroke-linecap:round; stroke-width:0.25;"/>
<line x1="213.900000" y1="68.000000" x2="213.900000" y2="68.000000"  style="stroke:black; stroke-linecap:round; stroke-width:0.25;"/>
<line x1="213.900000" y1="88.000000" x2="221.900000" y2="88.000000"  style="stroke:black; stroke-linecap:round; stroke-width:0.25;"/>
<line x1="221.900000" y1="64.000000" x2="229.900000" y2="64.000000"  style="stroke:black; stroke-linecap:round; stroke-width:0.25;"/>
<line x1="221.900000" y1="88.000000" x2="221.900000" y2="64.000000"  style="stroke:black; stroke-linecap:round; stroke-width:0.25;"/>
<line x1="229.900000" y1="36.000000" x2="229.900000" y2="48.000000"  style="stroke:black; stroke-linecap:round; stroke-width:0.25;"/>
<line x1="229.900000" y1="48.000000" x2="229.900000" y2="48.000000"  style="stroke:black; stroke-linecap:round; stroke-width:0.25;"/>
<line x1="229.900000" y1="48.000000" x2="233.900000" y2="48.000000"  style="stroke:black; stroke-linecap:round; stroke-width:0.25;"/>
<line x1="229.900000" y1="56.000000" x2="233.900000" y2="56.000000"  style="stroke:black; stroke-linecap:round; stroke-width:0.25;"/>
<line x1="229.900000" y1="64.000000" x2="233.900000" y2="64.000000"  style="stroke:black; stroke-linecap:round; stroke-width:0.25;"/>
<line x1="272.600000" y1="56.000000" x2="276.600000" y2="56.000000"  style="stroke:black; stroke-linecap:round; stroke-width:0.25;"/>
<line x1="276.600000" y1="56.000000" x2="276.600000" y2="56.000000"  style="stroke:black; stroke-linecap:round; stroke-width:0.25;"/>
<line x1="276.600000" y1="56.000000" x2="280.600000" y2="56.000000"  style="stroke:black; stroke-linecap:round; stroke-width:0.25;"/>
<line x1="280.600000" y1="56.000000" x2="284.600000" y2="56.000000"  style="stroke:black; stroke-linecap:round; stroke-width:0.25;"/>
<line x1="284.600000" y1="56.000000" x2="294.600000" y2="56.000000"  style="stroke:black; stroke-linecap:round; stroke-width:0.25;"/>
</svg>
