<?xml version="1.0"?>
<svg xmlns="http://www.w3.org/2000/svg" xmlns:xlink="http://www.w3.org/1999/xlink" viewBox="0 0 121.800000 168.000000" width="60.900000mm" height="84.000000mm" version="1.1">
<a xlink:href="process.svg">
<rect x="1.000000" y="1.000000" width="120.800000" height="167.000000" rx="0" ry="0" style="stroke:none;fill:#cccccc;"/>
<rect x="0.000000" y="0.000000" width="120.800000" height="167.000000" rx="0" ry="0" style="stroke:none;fill:#ffffff;"/>
</a>
<text x="10.000000" y="7.000000" font-family="Arial" font-size="7"></text>
<a xlink:href="out-0x7fa139aeb6c0.svg">
<rect x="49.000000" y="25.000000" width="25.800000" height="24.000000" rx="0" ry="0" style="stroke:none;fill:#cccccc;"/>
<rect x="48.000000" y="24.000000" width="25.800000" height="24.000000" rx="0" ry="0" style="stroke:none;fill:#003366;"/>
</a>
<a xlink:href="out-0x7fa139aeb6c0.svg">
<text x="60.900000" y="38.000000" font-family="Arial" font-size="7" text-anchor="middle" fill="#FFFFFF">out(0)</text>
</a>
<circle cx="50.000000" cy="26.000000" r="1"/>
<line x1="45.000000" y1="35.000000" x2="48.000000" y2="36.000000"  transform="rotate(0.000000,48.000000,36.000000)" style="stroke: black; stroke-width:0.25;"/>
<line x1="45.000000" y1="37.000000" x2="48.000000" y2="36.000000"  transform="rotate(0.000000,48.000000,36.000000)" style="stroke: black; stroke-width:0.25;"/>
<a xlink:href="out-0x7fa139aebee0.svg">
<rect x="49.000000" y="57.000000" width="25.800000" height="24.000000" rx="0" ry="0" style="stroke:none;fill:#cccccc;"/>
<rect x="48.000000" y="56.000000" width="25.800000" height="24.000000" rx="0" ry="0" style="stroke:none;fill:#003366;"/>
</a>
<a xlink:href="out-0x7fa139aebee0.svg">
<text x="60.900000" y="70.000000" font-family="Arial" font-size="7" text-anchor="middle" fill="#FFFFFF">out(1)</text>
</a>
<circle cx="50.000000" cy="58.000000" r="1"/>
<line x1="45.000000" y1="67.000000" x2="48.000000" y2="68.000000"  transform="rotate(0.000000,48.000000,68.000000)" style="stroke: black; stroke-width:0.25;"/>
<line x1="45.000000" y1="69.000000" x2="48.000000" y2="68.000000"  transform="rotate(0.000000,48.000000,68.000000)" style="stroke: black; stroke-width:0.25;"/>
<a xlink:href="out-0x7fa139aec700.svg">
<rect x="49.000000" y="89.000000" width="25.800000" height="24.000000" rx="0" ry="0" style="stroke:none;fill:#cccccc;"/>
<rect x="48.000000" y="88.000000" width="25.800000" height="24.000000" rx="0" ry="0" style="stroke:none;fill:#003366;"/>
</a>
<a xlink:href="out-0x7fa139aec700.svg">
<text x="60.900000" y="102.000000" font-family="Arial" font-size="7" text-anchor="middle" fill="#FFFFFF">out(2)</text>
</a>
<circle cx="50.000000" cy="90.000000" r="1"/>
<line x1="45.000000" y1="99.000000" x2="48.000000" y2="100.000000"  transform="rotate(0.000000,48.000000,100.000000)" style="stroke: black; stroke-width:0.25;"/>
<line x1="45.000000" y1="101.000000" x2="48.000000" y2="100.000000"  transform="rotate(0.000000,48.000000,100.000000)" style="stroke: black; stroke-width:0.25;"/>
<a xlink:href="out-0x7fa139aecf10.svg">
<rect x="49.000000" y="121.000000" width="25.800000" height="24.000000" rx="0" ry="0" style="stroke:none;fill:#cccccc;"/>
<rect x="48.000000" y="120.000000" width="25.800000" height="24.000000" rx="0" ry="0" style="stroke:none;fill:#003366;"/>
</a>
<a xlink:href="out-0x7fa139aecf10.svg">
<text x="60.900000" y="134.000000" font-family="Arial" font-size="7" text-anchor="middle" fill="#FFFFFF">out(3)</text>
</a>
<circle cx="50.000000" cy="122.000000" r="1"/>
<line x1="45.000000" y1="131.000000" x2="48.000000" y2="132.000000"  transform="rotate(0.000000,48.000000,132.000000)" style="stroke: black; stroke-width:0.25;"/>
<line x1="45.000000" y1="133.000000" x2="48.000000" y2="132.000000"  transform="rotate(0.000000,48.000000,132.000000)" style="stroke: black; stroke-width:0.25;"/>
<line x1="15.000000" y1="15.000000" x2="15.000000" y2="153.000000"  style="stroke: black; stroke-linecap:round; stroke-width:0.25; stroke-dasharray:3,3;"/>
<line x1="15.000000" y1="153.000000" x2="106.800000" y2="153.000000"  style="stroke: black; stroke-linecap:round; stroke-width:0.25; stroke-dasharray:3,3;"/>
<line x1="106.800000" y1="153.000000" x2="106.800000" y2="15.000000"  style="stroke: black; stroke-linecap:round; stroke-width:0.25; stroke-dasharray:3,3;"/>
<line x1="15.000000" y1="15.000000" x2="20.000000" y2="15.000000"  style="stroke: black; stroke-linecap:round; stroke-width:0.25; stroke-dasharray:3,3;"/>
<line x1="39.350000" y1="15.000000" x2="106.800000" y2="15.000000"  style="stroke: black; stroke-linecap:round; stroke-width:0.25; stroke-dasharray:3,3;"/>
<text x="20.000000" y="17.000000" font-family="Arial" font-size="7">outs</text>
<line x1="108.800000" y1="71.000000" x2="111.800000" y2="72.000000"  transform="rotate(0.000000,111.800000,72.000000)" style="stroke: black; stroke-width:0.25;"/>
<line x1="108.800000" y1="73.000000" x2="111.800000" y2="72.000000"  transform="rotate(0.000000,111.800000,72.000000)" style="stroke: black; stroke-width:0.25;"/>
<line x1="108.800000" y1="79.000000" x2="111.800000" y2="80.000000"  transform="rotate(0.000000,111.800000,80.000000)" style="stroke: black; stroke-width:0.25;"/>
<line x1="108.800000" y1="81.000000" x2="111.800000" y2="80.000000"  transform="rotate(0.000000,111.800000,80.000000)" style="stroke: black; stroke-width:0.25;"/>
<line x1="108.800000" y1="87.000000" x2="111.800000" y2="88.000000"  transform="rotate(0.000000,111.800000,88.000000)" style="stroke: black; stroke-width:0.25;"/>
<line x1="108.800000" y1="89.000000" x2="111.800000" y2="88.000000"  transform="rotate(0.000000,111.800000,88.000000)" style="stroke: black; stroke-width:0.25;"/>
<line x1="108.800000" y1="95.000000" x2="111.800000" y2="96.000000"  transform="rotate(0.000000,111.800000,96.000000)" style="stroke: black; stroke-width:0.25;"/>
<line x1="108.800000" y1="97.000000" x2="111.800000" y2="96.000000"  transform="rotate(0.000000,111.800000,96.000000)" style="stroke: black; stroke-width:0.25;"/>
<line x1="10.000000" y1="72.000000" x2="20.000000" y2="72.000000"  style="stroke:black; stroke-linecap:round; stroke-width:0.25;"/>
<line x1="10.000000" y1="80.000000" x2="20.000000" y2="80.000000"  style="stroke:black; stroke-linecap:round; stroke-width:0.25;"/>
<line x1="10.000000" y1="88.000000" x2="20.000000" y2="88.000000"  style="stroke:black; stroke-linecap:round; stroke-width:0.25;"/>
<line x1="10.000000" y1="96.000000" x2="20.000000" y2="96.000000"  style="stroke:black; stroke-linecap:round; stroke-width:0.25;"/>
<line x1="20.000000" y1="72.000000" x2="24.000000" y2="72.000000"  style="stroke:black; stroke-linecap:round; stroke-width:0.25;"/>
<line x1="20.000000" y1="80.000000" x2="24.000000" y2="80.000000"  style="stroke:black; stroke-linecap:round; stroke-width:0.25;"/>
<line x1="20.000000" y1="88.000000" x2="24.000000" y2="88.000000"  style="stroke:black; stroke-linecap:round; stroke-width:0.25;"/>
<line x1="20.000000" y1="96.000000" x2="24.000000" y2="96.000000"  style="stroke:black; stroke-linecap:round; stroke-width:0.25;"/>
<line x1="24.000000" y1="72.000000" x2="28.000000" y2="72.000000"  style="stroke:black; stroke-linecap:round; stroke-width:0.25;"/>
<line x1="24.000000" y1="80.000000" x2="28.000000" y2="80.000000"  style="stroke:black; stroke-linecap:round; stroke-width:0.25;"/>
<line x1="24.000000" y1="88.000000" x2="28.000000" y2="88.000000"  style="stroke:black; stroke-linecap:round; stroke-width:0.25;"/>
<line x1="24.000000" y1="96.000000" x2="28.000000" y2="96.000000"  style="stroke:black; stroke-linecap:round; stroke-width:0.25;"/>
<line x1="28.000000" y1="36.000000" x2="44.000000" y2="36.000000"  style="stroke:black; stroke-linecap:round; stroke-width:0.25;"/>
<line x1="28.000000" y1="72.000000" x2="28.000000" y2="36.000000"  style="stroke:black; stroke-linecap:round; stroke-width:0.25;"/>
<line x1="28.000000" y1="72.000000" x2="28.000000" y2="72.000000"  style="stroke:black; stroke-linecap:round; stroke-width:0.25;"/>
<line x1="28.000000" y1="80.000000" x2="36.000000" y2="80.000000"  style="stroke:black; stroke-linecap:round; stroke-width:0.25;"/>
<line x1="28.000000" y1="88.000000" x2="44.000000" y2="88.000000"  style="stroke:black; stroke-linecap:round; stroke-width:0.25;"/>
<line x1="28.000000" y1="96.000000" x2="36.000000" y2="96.000000"  style="stroke:black; stroke-linecap:round; stroke-width:0.25;"/>
<line x1="36.000000" y1="68.000000" x2="44.000000" y2="68.000000"  style="stroke:black; stroke-linecap:round; stroke-width:0.25;"/>
<line x1="36.000000" y1="80.000000" x2="36.000000" y2="68.000000"  style="stroke:black; stroke-linecap:round; stroke-width:0.25;"/>
<line x1="36.000000" y1="96.000000" x2="36.000000" y2="132.000000"  style="stroke:black; stroke-linecap:round; stroke-width:0.25;"/>
<line x1="36.000000" y1="132.000000" x2="44.000000" y2="132.000000"  style="stroke:black; stroke-linecap:round; stroke-width:0.25;"/>
<line x1="44.000000" y1="36.000000" x2="48.000000" y2="36.000000"  style="stroke:black; stroke-linecap:round; stroke-width:0.25;"/>
<line x1="44.000000" y1="68.000000" x2="48.000000" y2="68.000000"  style="stroke:black; stroke-linecap:round; stroke-width:0.25;"/>
<line x1="44.000000" y1="88.000000" x2="44.000000" y2="100.000000"  style="stroke:black; stroke-linecap:round; stroke-width:0.25;"/>
<line x1="44.000000" y1="100.000000" x2="44.000000" y2="100.000000"  style="stroke:black; stroke-linecap:round; stroke-width:0.25;"/>
<line x1="44.000000" y1="100.000000" x2="48.000000" y2="100.000000"  style="stroke:black; stroke-linecap:round; stroke-width:0.25;"/>
<line x1="44.000000" y1="132.000000" x2="48.000000" y2="132.000000"  style="stroke:black; stroke-linecap:round; stroke-width:0.25;"/>
<line x1="73.800000" y1="36.000000" x2="77.800000" y2="36.000000"  style="stroke:black; stroke-linecap:round; stroke-width:0.25;"/>
<line x1="73.800000" y1="68.000000" x2="77.800000" y2="68.000000"  style="stroke:black; stroke-linecap:round; stroke-width:0.25;"/>
<line x1="73.800000" y1="100.000000" x2="77.800000" y2="100.000000"  style="stroke:black; stroke-linecap:round; stroke-width:0.25;"/>
<line x1="73.800000" y1="132.000000" x2="77.800000" y2="132.000000"  style="stroke:black; stroke-linecap:round; stroke-width:0.25;"/>
<line x1="77.800000" y1="36.000000" x2="93.800000" y2="36.000000"  style="stroke:black; stroke-linecap:round; stroke-width:0.25;"/>
<line x1="77.800000" y1="68.000000" x2="85.800000" y2="68.000000"  style="stroke:black; stroke-linecap:round; stroke-width:0.25;"/>
<line x1="77.800000" y1="88.000000" x2="93.800000" y2="88.000000"  style="stroke:black; stroke-linecap:round; stroke-width:0.25;"/>
<line x1="77.800000" y1="100.000000" x2="77.800000" y2="88.000000"  style="stroke:black; stroke-linecap:round; stroke-width:0.25;"/>
<line x1="77.800000" y1="100.000000" x2="77.800000" y2="100.000000"  style="stroke:black; stroke-linecap:round; stroke-width:0.25;"/>
<line x1="77.800000" y1="132.000000" x2="85.800000" y2="132.000000"  style="stroke:black; stroke-linecap:round; stroke-width:0.25;"/>
<line x1="85.800000" y1="68.000000" x2="85.800000" y2="80.000000"  style="stroke:black; stroke-linecap:round; stroke-width:0.25;"/>
<line x1="85.800000" y1="80.000000" x2="93.800000" y2="80.000000"  style="stroke:black; stroke-linecap:round; stroke-width:0.25;"/>
<line x1="85.800000" y1="96.000000" x2="93.800000" y2="96.000000"  style="stroke:black; stroke-linecap:round; stroke-width:0.25;"/>
<line x1="85.800000" y1="132.000000" x2="85.800000" y2="96.000000"  style="stroke:black; stroke-linecap:round; stroke-width:0.25;"/>
<line x1="93.800000" y1="36.000000" x2="93.800000" y2="72.000000"  style="stroke:black; stroke-linecap:round; stroke-width:0.25;"/>
<line x1="93.800000" y1="72.000000" x2="93.800000" y2="72.000000"  style="stroke:black; stroke-linecap:round; stroke-width:0.25;"/>
<line x1="93.800000" y1="72.000000" x2="97.800000" y2="72.000000"  style="stroke:black; stroke-linecap:round; stroke-width:0.25;"/>
<line x1="93.800000" y1="80.000000" x2="97.800000" y2="80.000000"  style="stroke:black; stroke-linecap:round; stroke-width:0.25;"/>
<line x1="93.800000" y1="88.000000" x2="97.800000" y2="88.000000"  style="stroke:black; stroke-linecap:round; stroke-width:0.25;"/>
<line x1="93.800000" y1="96.000000" x2="97.800000" y2="96.000000"  style="stroke:black; stroke-linecap:round; stroke-width:0.25;"/>
<line x1="97.800000" y1="72.000000" x2="101.800000" y2="72.000000"  style="stroke:black; stroke-linecap:round; stroke-width:0.25;"/>
<line x1="97.800000" y1="80.000000" x2="101.800000" y2="80.000000"  style="stroke:black; stroke-linecap:round; stroke-width:0.25;"/>
<line x1="97.800000" y1="88.000000" x2="101.800000" y2="88.000000"  style="stroke:black; stroke-linecap:round; stroke-width:0.25;"/>
<line x1="97.800000" y1="96.000000" x2="101.800000" y2="96.000000"  style="stroke:black; stroke-linecap:round; stroke-width:0.25;"/>
<line x1="101.800000" y1="72.000000" x2="111.800000" y2="72.000000"  style="stroke:black; stroke-linecap:round; stroke-width:0.25;"/>
<line x1="101.800000" y1="80.000000" x2="111.800000" y2="80.000000"  style="stroke:black; stroke-linecap:round; stroke-width:0.25;"/>
<line x1="101.800000" y1="88.000000" x2="111.800000" y2="88.000000"  style="stroke:black; stroke-linecap:round; stroke-width:0.25;"/>
<line x1="101.800000" y1="96.000000" x2="111.800000" y2="96.000000"  style="stroke:black; stroke-linecap:round; stroke-width:0.25;"/>
</svg>
