<?xml version="1.0"?>
<svg xmlns="http://www.w3.org/2000/svg" xmlns:xlink="http://www.w3.org/1999/xlink" viewBox="0 0 154.700000 188.000000" width="77.350000mm" height="94.000000mm" version="1.1">
<a xlink:href="process.svg">
<rect x="1.000000" y="1.000000" width="153.700000" height="187.000000" rx="0" ry="0" style="stroke:none;fill:#cccccc;"/>
<rect x="0.000000" y="0.000000" width="153.700000" height="187.000000" rx="0" ry="0" style="stroke:none;fill:#ffffff;"/>
</a>
<text x="10.000000" y="7.000000" font-family="Arial" font-size="7"></text>
<a xlink:href="ch1meter-0x7fc73f395cc0.svg">
<rect x="59.000000" y="35.000000" width="38.700000" height="24.000000" rx="0" ry="0" style="stroke:none;fill:#cccccc;"/>
<rect x="58.000000" y="34.000000" width="38.700000" height="24.000000" rx="0" ry="0" style="stroke:none;fill:#003366;"/>
</a>
<a xlink:href="ch1meter-0x7fc73f395cc0.svg">
<text x="77.350000" y="48.000000" font-family="Arial" font-size="7" text-anchor="middle" fill="#FFFFFF">ch1meter</text>
</a>
<circle cx="60.000000" cy="36.000000" r="1"/>
<line x1="55.000000" y1="45.000000" x2="58.000000" y2="46.000000"  transform="rotate(0.000000,58.000000,46.000000)" style="stroke: black; stroke-width:0.25;"/>
<line x1="55.000000" y1="47.000000" x2="58.000000" y2="46.000000"  transform="rotate(0.000000,58.000000,46.000000)" style="stroke: black; stroke-width:0.25;"/>
<a xlink:href="ch2meter-0x7fc73f39e380.svg">
<rect x="59.000000" y="67.000000" width="38.700000" height="24.000000" rx="0" ry="0" style="stroke:none;fill:#cccccc;"/>
<rect x="58.000000" y="66.000000" width="38.700000" height="24.000000" rx="0" ry="0" style="stroke:none;fill:#003366;"/>
</a>
<a xlink:href="ch2meter-0x7fc73f39e380.svg">
<text x="77.350000" y="80.000000" font-family="Arial" font-size="7" text-anchor="middle" fill="#FFFFFF">ch2meter</text>
</a>
<circle cx="60.000000" cy="68.000000" r="1"/>
<line x1="55.000000" y1="77.000000" x2="58.000000" y2="78.000000"  transform="rotate(0.000000,58.000000,78.000000)" style="stroke: black; stroke-width:0.25;"/>
<line x1="55.000000" y1="79.000000" x2="58.000000" y2="78.000000"  transform="rotate(0.000000,58.000000,78.000000)" style="stroke: black; stroke-width:0.25;"/>
<a xlink:href="ch3meter-0x7fc73f3a68e0.svg">
<rect x="59.000000" y="99.000000" width="38.700000" height="24.000000" rx="0" ry="0" style="stroke:none;fill:#cccccc;"/>
<rect x="58.000000" y="98.000000" width="38.700000" height="24.000000" rx="0" ry="0" style="stroke:none;fill:#003366;"/>
</a>
<a xlink:href="ch3meter-0x7fc73f3a68e0.svg">
<text x="77.350000" y="112.000000" font-family="Arial" font-size="7" text-anchor="middle" fill="#FFFFFF">ch3meter</text>
</a>
<circle cx="60.000000" cy="100.000000" r="1"/>
<line x1="55.000000" y1="109.000000" x2="58.000000" y2="110.000000"  transform="rotate(0.000000,58.000000,110.000000)" style="stroke: black; stroke-width:0.25;"/>
<line x1="55.000000" y1="111.000000" x2="58.000000" y2="110.000000"  transform="rotate(0.000000,58.000000,110.000000)" style="stroke: black; stroke-width:0.25;"/>
<a xlink:href="ch4meter-0x7fc73f3aee30.svg">
<rect x="59.000000" y="131.000000" width="38.700000" height="24.000000" rx="0" ry="0" style="stroke:none;fill:#cccccc;"/>
<rect x="58.000000" y="130.000000" width="38.700000" height="24.000000" rx="0" ry="0" style="stroke:none;fill:#003366;"/>
</a>
<a xlink:href="ch4meter-0x7fc73f3aee30.svg">
<text x="77.350000" y="144.000000" font-family="Arial" font-size="7" text-anchor="middle" fill="#FFFFFF">ch4meter</text>
</a>
<circle cx="60.000000" cy="132.000000" r="1"/>
<line x1="55.000000" y1="141.000000" x2="58.000000" y2="142.000000"  transform="rotate(0.000000,58.000000,142.000000)" style="stroke: black; stroke-width:0.25;"/>
<line x1="55.000000" y1="143.000000" x2="58.000000" y2="142.000000"  transform="rotate(0.000000,58.000000,142.000000)" style="stroke: black; stroke-width:0.25;"/>
<line x1="49.000000" y1="25.000000" x2="49.000000" y2="163.000000"  style="stroke: black; stroke-linecap:round; stroke-width:0.25; stroke-dasharray:3,3;"/>
<line x1="49.000000" y1="163.000000" x2="105.700000" y2="163.000000"  style="stroke: black; stroke-linecap:round; stroke-width:0.25; stroke-dasharray:3,3;"/>
<line x1="105.700000" y1="163.000000" x2="105.700000" y2="25.000000"  style="stroke: black; stroke-linecap:round; stroke-width:0.25; stroke-dasharray:3,3;"/>
<line x1="49.000000" y1="25.000000" x2="54.000000" y2="25.000000"  style="stroke: black; stroke-linecap:round; stroke-width:0.25; stroke-dasharray:3,3;"/>
<line x1="105.700000" y1="25.000000" x2="105.700000" y2="25.000000"  style="stroke: black; stroke-linecap:round; stroke-width:0.25; stroke-dasharray:3,3;"/>
<text x="54.000000" y="27.000000" font-family="Arial" font-size="7">vgroup(OUTPUT METERS)</text>
<line x1="15.000000" y1="15.000000" x2="15.000000" y2="173.000000"  style="stroke: black; stroke-linecap:round; stroke-width:0.25; stroke-dasharray:3,3;"/>
<line x1="15.000000" y1="173.000000" x2="139.700000" y2="173.000000"  style="stroke: black; stroke-linecap:round; stroke-width:0.25; stroke-dasharray:3,3;"/>
<line x1="139.700000" y1="173.000000" x2="139.700000" y2="15.000000"  style="stroke: black; stroke-linecap:round; stroke-width:0.25; stroke-dasharray:3,3;"/>
<line x1="15.000000" y1="15.000000" x2="20.000000" y2="15.000000"  style="stroke: black; stroke-linecap:round; stroke-width:0.25; stroke-dasharray:3,3;"/>
<line x1="39.350000" y1="15.000000" x2="139.700000" y2="15.000000"  style="stroke: black; stroke-linecap:round; stroke-width:0.25; stroke-dasharray:3,3;"/>
<text x="20.000000" y="17.000000" font-family="Arial" font-size="7">outs</text>
<line x1="141.700000" y1="81.000000" x2="144.700000" y2="82.000000"  transform="rotate(0.000000,144.700000,82.000000)" style="stroke: black; stroke-width:0.25;"/>
<line x1="141.700000" y1="83.000000" x2="144.700000" y2="82.000000"  transform="rotate(0.000000,144.700000,82.000000)" style="stroke: black; stroke-width:0.25;"/>
<line x1="141.700000" y1="89.000000" x2="144.700000" y2="90.000000"  transform="rotate(0.000000,144.700000,90.000000)" style="stroke: black; stroke-width:0.25;"/>
<line x1="141.700000" y1="91.000000" x2="144.700000" y2="90.000000"  transform="rotate(0.000000,144.700000,90.000000)" style="stroke: black; stroke-width:0.25;"/>
<line x1="141.700000" y1="97.000000" x2="144.700000" y2="98.000000"  transform="rotate(0.000000,144.700000,98.000000)" style="stroke: black; stroke-width:0.25;"/>
<line x1="141.700000" y1="99.000000" x2="144.700000" y2="98.000000"  transform="rotate(0.000000,144.700000,98.000000)" style="stroke: black; stroke-width:0.25;"/>
<line x1="141.700000" y1="105.000000" x2="144.700000" y2="106.000000"  transform="rotate(0.000000,144.700000,106.000000)" style="stroke: black; stroke-width:0.25;"/>
<line x1="141.700000" y1="107.000000" x2="144.700000" y2="106.000000"  transform="rotate(0.000000,144.700000,106.000000)" style="stroke: black; stroke-width:0.25;"/>
<line x1="10.000000" y1="82.000000" x2="20.000000" y2="82.000000"  style="stroke:black; stroke-linecap:round; stroke-width:0.25;"/>
<line x1="10.000000" y1="90.000000" x2="20.000000" y2="90.000000"  style="stroke:black; stroke-linecap:round; stroke-width:0.25;"/>
<line x1="10.000000" y1="98.000000" x2="20.000000" y2="98.000000"  style="stroke:black; stroke-linecap:round; stroke-width:0.25;"/>
<line x1="10.000000" y1="106.000000" x2="20.000000" y2="106.000000"  style="stroke:black; stroke-linecap:round; stroke-width:0.25;"/>
<line x1="20.000000" y1="82.000000" x2="24.000000" y2="82.000000"  style="stroke:black; stroke-linecap:round; stroke-width:0.25;"/>
<line x1="20.000000" y1="90.000000" x2="24.000000" y2="90.000000"  style="stroke:black; stroke-linecap:round; stroke-width:0.25;"/>
<line x1="20.000000" y1="98.000000" x2="24.000000" y2="98.000000"  style="stroke:black; stroke-linecap:round; stroke-width:0.25;"/>
<line x1="20.000000" y1="106.000000" x2="24.000000" y2="106.000000"  style="stroke:black; stroke-linecap:round; stroke-width:0.25;"/>
<line x1="24.000000" y1="82.000000" x2="28.000000" y2="82.000000"  style="stroke:black; stroke-linecap:round; stroke-width:0.25;"/>
<line x1="24.000000" y1="90.000000" x2="28.000000" y2="90.000000"  style="stroke:black; stroke-linecap:round; stroke-width:0.25;"/>
<line x1="24.000000" y1="98.000000" x2="28.000000" y2="98.000000"  style="stroke:black; stroke-linecap:round; stroke-width:0.25;"/>
<line x1="24.000000" y1="106.000000" x2="28.000000" y2="106.000000"  style="stroke:black; stroke-linecap:round; stroke-width:0.25;"/>
<line x1="28.000000" y1="46.000000" x2="44.000000" y2="46.000000"  style="stroke:black; stroke-linecap:round; stroke-width:0.25;"/>
<line x1="28.000000" y1="82.000000" x2="28.000000" y2="46.000000"  style="stroke:black; stroke-linecap:round; stroke-width:0.25;"/>
<line x1="28.000000" y1="82.000000" x2="28.000000" y2="82.000000"  style="stroke:black; stroke-linecap:round; stroke-width:0.25;"/>
<line x1="28.000000" y1="90.000000" x2="36.000000" y2="90.000000"  style="stroke:black; stroke-linecap:round; stroke-width:0.25;"/>
<line x1="28.000000" y1="98.000000" x2="44.000000" y2="98.000000"  style="stroke:black; stroke-linecap:round; stroke-width:0.25;"/>
<line x1="28.000000" y1="106.000000" x2="36.000000" y2="106.000000"  style="stroke:black; stroke-linecap:round; stroke-width:0.25;"/>
<line x1="36.000000" y1="78.000000" x2="44.000000" y2="78.000000"  style="stroke:black; stroke-linecap:round; stroke-width:0.25;"/>
<line x1="36.000000" y1="90.000000" x2="36.000000" y2="78.000000"  style="stroke:black; stroke-linecap:round; stroke-width:0.25;"/>
<line x1="36.000000" y1="106.000000" x2="36.000000" y2="142.000000"  style="stroke:black; stroke-linecap:round; stroke-width:0.25;"/>
<line x1="36.000000" y1="142.000000" x2="44.000000" y2="142.000000"  style="stroke:black; stroke-linecap:round; stroke-width:0.25;"/>
<line x1="44.000000" y1="46.000000" x2="54.000000" y2="46.000000"  style="stroke:black; stroke-linecap:round; stroke-width:0.25;"/>
<line x1="44.000000" y1="78.000000" x2="54.000000" y2="78.000000"  style="stroke:black; stroke-linecap:round; stroke-width:0.25;"/>
<line x1="44.000000" y1="98.000000" x2="44.000000" y2="110.000000"  style="stroke:black; stroke-linecap:round; stroke-width:0.25;"/>
<line x1="44.000000" y1="110.000000" x2="44.000000" y2="110.000000"  style="stroke:black; stroke-linecap:round; stroke-width:0.25;"/>
<line x1="44.000000" y1="110.000000" x2="54.000000" y2="110.000000"  style="stroke:black; stroke-linecap:round; stroke-width:0.25;"/>
<line x1="44.000000" y1="142.000000" x2="54.000000" y2="142.000000"  style="stroke:black; stroke-linecap:round; stroke-width:0.25;"/>
<line x1="54.000000" y1="46.000000" x2="58.000000" y2="46.000000"  style="stroke:black; stroke-linecap:round; stroke-width:0.25;"/>
<line x1="54.000000" y1="78.000000" x2="58.000000" y2="78.000000"  style="stroke:black; stroke-linecap:round; stroke-width:0.25;"/>
<line x1="54.000000" y1="110.000000" x2="58.000000" y2="110.000000"  style="stroke:black; stroke-linecap:round; stroke-width:0.25;"/>
<line x1="54.000000" y1="142.000000" x2="58.000000" y2="142.000000"  style="stroke:black; stroke-linecap:round; stroke-width:0.25;"/>
<line x1="96.700000" y1="46.000000" x2="100.700000" y2="46.000000"  style="stroke:black; stroke-linecap:round; stroke-width:0.25;"/>
<line x1="96.700000" y1="78.000000" x2="100.700000" y2="78.000000"  style="stroke:black; stroke-linecap:round; stroke-width:0.25;"/>
<line x1="96.700000" y1="110.000000" x2="100.700000" y2="110.000000"  style="stroke:black; stroke-linecap:round; stroke-width:0.25;"/>
<line x1="96.700000" y1="142.000000" x2="100.700000" y2="142.000000"  style="stroke:black; stroke-linecap:round; stroke-width:0.25;"/>
<line x1="100.700000" y1="46.000000" x2="110.700000" y2="46.000000"  style="stroke:black; stroke-linecap:round; stroke-width:0.25;"/>
<line x1="100.700000" y1="78.000000" x2="110.700000" y2="78.000000"  style="stroke:black; stroke-linecap:round; stroke-width:0.25;"/>
<line x1="100.700000" y1="110.000000" x2="110.700000" y2="110.000000"  style="stroke:black; stroke-linecap:round; stroke-width:0.25;"/>
<line x1="100.700000" y1="142.000000" x2="110.700000" y2="142.000000"  style="stroke:black; stroke-linecap:round; stroke-width:0.25;"/>
<line x1="110.700000" y1="46.000000" x2="126.700000" y2="46.000000"  style="stroke:black; stroke-linecap:round; stroke-width:0.25;"/>
<line x1="110.700000" y1="78.000000" x2="118.700000" y2="78.000000"  style="stroke:black; stroke-linecap:round; stroke-width:0.25;"/>
<line x1="110.700000" y1="98.000000" x2="126.700000" y2="98.000000"  style="stroke:black; stroke-linecap:round; stroke-width:0.25;"/>
<line x1="110.700000" y1="110.000000" x2="110.700000" y2="98.000000"  style="stroke:black; stroke-linecap:round; stroke-width:0.25;"/>
<line x1="110.700000" y1="110.000000" x2="110.700000" y2="110.000000"  style="stroke:black; stroke-linecap:round; stroke-width:0.25;"/>
<line x1="110.700000" y1="142.000000" x2="118.700000" y2="142.000000"  style="stroke:black; stroke-linecap:round; stroke-width:0.25;"/>
<line x1="118.700000" y1="78.000000" x2="118.700000" y2="90.000000"  style="stroke:black; stroke-linecap:round; stroke-width:0.25;"/>
<line x1="118.700000" y1="90.000000" x2="126.700000" y2="90.000000"  style="stroke:black; stroke-linecap:round; stroke-width:0.25;"/>
<line x1="118.700000" y1="106.000000" x2="126.700000" y2="106.000000"  style="stroke:black; stroke-linecap:round; stroke-width:0.25;"/>
<line x1="118.700000" y1="142.000000" x2="118.700000" y2="106.000000"  style="stroke:black; stroke-linecap:round; stroke-width:0.25;"/>
<line x1="126.700000" y1="46.000000" x2="126.700000" y2="82.000000"  style="stroke:black; stroke-linecap:round; stroke-width:0.25;"/>
<line x1="126.700000" y1="82.000000" x2="126.700000" y2="82.000000"  style="stroke:black; stroke-linecap:round; stroke-width:0.25;"/>
<line x1="126.700000" y1="82.000000" x2="130.700000" y2="82.000000"  style="stroke:black; stroke-linecap:round; stroke-width:0.25;"/>
<line x1="126.700000" y1="90.000000" x2="130.700000" y2="90.000000"  style="stroke:black; stroke-linecap:round; stroke-width:0.25;"/>
<line x1="126.700000" y1="98.000000" x2="130.700000" y2="98.000000"  style="stroke:black; stroke-linecap:round; stroke-width:0.25;"/>
<line x1="126.700000" y1="106.000000" x2="130.700000" y2="106.000000"  style="stroke:black; stroke-linecap:round; stroke-width:0.25;"/>
<line x1="130.700000" y1="82.000000" x2="134.700000" y2="82.000000"  style="stroke:black; stroke-linecap:round; stroke-width:0.25;"/>
<line x1="130.700000" y1="90.000000" x2="134.700000" y2="90.000000"  style="stroke:black; stroke-linecap:round; stroke-width:0.25;"/>
<line x1="130.700000" y1="98.000000" x2="134.700000" y2="98.000000"  style="stroke:black; stroke-linecap:round; stroke-width:0.25;"/>
<line x1="130.700000" y1="106.000000" x2="134.700000" y2="106.000000"  style="stroke:black; stroke-linecap:round; stroke-width:0.25;"/>
<line x1="134.700000" y1="82.000000" x2="144.700000" y2="82.000000"  style="stroke:black; stroke-linecap:round; stroke-width:0.25;"/>
<line x1="134.700000" y1="90.000000" x2="144.700000" y2="90.000000"  style="stroke:black; stroke-linecap:round; stroke-width:0.25;"/>
<line x1="134.700000" y1="98.000000" x2="144.700000" y2="98.000000"  style="stroke:black; stroke-linecap:round; stroke-width:0.25;"/>
<line x1="134.700000" y1="106.000000" x2="144.700000" y2="106.000000"  style="stroke:black; stroke-linecap:round; stroke-width:0.25;"/>
</svg>
