<?xml version="1.0"?>
<svg xmlns="http://www.w3.org/2000/svg" xmlns:xlink="http://www.w3.org/1999/xlink" viewBox="0 0 603.800000 140.000000" width="301.900000mm" height="70.000000mm" version="1.1">
<a xlink:href="readindex-0x7ffb4db16000.svg">
<rect x="1.000000" y="1.000000" width="602.800000" height="139.000000" rx="0" ry="0" style="stroke:none;fill:#cccccc;"/>
<rect x="0.000000" y="0.000000" width="602.800000" height="139.000000" rx="0" ry="0" style="stroke:none;fill:#ffffff;"/>
</a>
<text x="10.000000" y="7.000000" font-family="Arial" font-size="7"></text>
<a xlink:href="osc-0x7ffb4db15980.svg">
<rect x="55.000000" y="59.000000" width="129.000000" height="24.000000" rx="0" ry="0" style="stroke:none;fill:#cccccc;"/>
<rect x="54.000000" y="58.000000" width="129.000000" height="24.000000" rx="0" ry="0" style="stroke:none;fill:#003366;"/>
</a>
<a xlink:href="osc-0x7ffb4db15980.svg">
<text x="118.500000" y="72.000000" font-family="Arial" font-size="7" text-anchor="middle" fill="#FFFFFF">osc(vgroup(&quot;[...,0.999f : *))</text>
</a>
<circle cx="56.000000" cy="60.000000" r="1"/>
<a xlink:href="amp-0x7ffb4dc8ea80.svg">
<rect x="200.000000" y="63.000000" width="24.000000" height="24.000000" rx="0" ry="0" style="stroke:none;fill:#cccccc;"/>
<rect x="199.000000" y="62.000000" width="24.000000" height="24.000000" rx="0" ry="0" style="stroke:none;fill:#003366;"/>
</a>
<a xlink:href="amp-0x7ffb4dc8ea80.svg">
<text x="211.000000" y="76.000000" font-family="Arial" font-size="7" text-anchor="middle" fill="#FFFFFF">amp</text>
</a>
<circle cx="201.000000" cy="64.000000" r="1"/>
<rect x="240.000000" y="59.000000" width="24.000000" height="24.000000" rx="0" ry="0" style="stroke:none;fill:#cccccc;"/>
<rect x="239.000000" y="58.000000" width="24.000000" height="24.000000" rx="0" ry="0" style="stroke:none;fill:#4B71A1;"/>
<text x="251.000000" y="72.000000" font-family="Arial" font-size="7" text-anchor="middle" fill="#FFFFFF">*</text>
<circle cx="241.000000" cy="60.000000" r="1"/>
<line x1="236.000000" y1="65.000000" x2="239.000000" y2="66.000000"  transform="rotate(0.000000,239.000000,66.000000)" style="stroke: black; stroke-width:0.25;"/>
<line x1="236.000000" y1="67.000000" x2="239.000000" y2="66.000000"  transform="rotate(0.000000,239.000000,66.000000)" style="stroke: black; stroke-width:0.25;"/>
<line x1="236.000000" y1="73.000000" x2="239.000000" y2="74.000000"  transform="rotate(0.000000,239.000000,74.000000)" style="stroke: black; stroke-width:0.25;"/>
<line x1="236.000000" y1="75.000000" x2="239.000000" y2="74.000000"  transform="rotate(0.000000,239.000000,74.000000)" style="stroke: black; stroke-width:0.25;"/>
<a xlink:href="amp-0x7ffb4dc8ea80.svg">
<rect x="280.000000" y="63.000000" width="24.000000" height="24.000000" rx="0" ry="0" style="stroke:none;fill:#cccccc;"/>
<rect x="279.000000" y="62.000000" width="24.000000" height="24.000000" rx="0" ry="0" style="stroke:none;fill:#003366;"/>
</a>
<a xlink:href="amp-0x7ffb4dc8ea80.svg">
<text x="291.000000" y="76.000000" font-family="Arial" font-size="7" text-anchor="middle" fill="#FFFFFF">amp</text>
</a>
<circle cx="281.000000" cy="64.000000" r="1"/>
<rect x="320.000000" y="59.000000" width="24.000000" height="24.000000" rx="0" ry="0" style="stroke:none;fill:#cccccc;"/>
<rect x="319.000000" y="58.000000" width="24.000000" height="24.000000" rx="0" ry="0" style="stroke:none;fill:#4B71A1;"/>
<text x="331.000000" y="72.000000" font-family="Arial" font-size="7" text-anchor="middle" fill="#FFFFFF">+</text>
<circle cx="321.000000" cy="60.000000" r="1"/>
<line x1="316.000000" y1="65.000000" x2="319.000000" y2="66.000000"  transform="rotate(0.000000,319.000000,66.000000)" style="stroke: black; stroke-width:0.25;"/>
<line x1="316.000000" y1="67.000000" x2="319.000000" y2="66.000000"  transform="rotate(0.000000,319.000000,66.000000)" style="stroke: black; stroke-width:0.25;"/>
<line x1="316.000000" y1="73.000000" x2="319.000000" y2="74.000000"  transform="rotate(0.000000,319.000000,74.000000)" style="stroke: black; stroke-width:0.25;"/>
<line x1="316.000000" y1="75.000000" x2="319.000000" y2="74.000000"  transform="rotate(0.000000,319.000000,74.000000)" style="stroke: black; stroke-width:0.25;"/>
<rect x="372.000000" y="63.000000" width="129.000000" height="24.000000" rx="0" ry="0" style="stroke:none;fill:#cccccc;"/>
<rect x="371.000000" y="62.000000" width="129.000000" height="24.000000" rx="0" ry="0" style="stroke:none;fill:#477881;"/>
<text x="435.500000" y="76.000000" font-family="Arial" font-size="7" text-anchor="middle" fill="#FFFFFF">vbargraph(INDEX, 0.0f, 1.0f)</text>
<circle cx="373.000000" cy="64.000000" r="1"/>
<line x1="368.000000" y1="73.000000" x2="371.000000" y2="74.000000"  transform="rotate(0.000000,371.000000,74.000000)" style="stroke: black; stroke-width:0.25;"/>
<line x1="368.000000" y1="75.000000" x2="371.000000" y2="74.000000"  transform="rotate(0.000000,371.000000,74.000000)" style="stroke: black; stroke-width:0.25;"/>
<rect x="517.000000" y="59.000000" width="25.800000" height="24.000000" rx="0" ry="0" style="stroke:none;fill:#cccccc;"/>
<rect x="516.000000" y="58.000000" width="25.800000" height="24.000000" rx="0" ry="0" style="stroke:none;fill:#4B71A1;"/>
<text x="528.900000" y="72.000000" font-family="Arial" font-size="7" text-anchor="middle" fill="#FFFFFF">attach</text>
<circle cx="518.000000" cy="60.000000" r="1"/>
<line x1="513.000000" y1="65.000000" x2="516.000000" y2="66.000000"  transform="rotate(0.000000,516.000000,66.000000)" style="stroke: black; stroke-width:0.25;"/>
<line x1="513.000000" y1="67.000000" x2="516.000000" y2="66.000000"  transform="rotate(0.000000,516.000000,66.000000)" style="stroke: black; stroke-width:0.25;"/>
<line x1="513.000000" y1="73.000000" x2="516.000000" y2="74.000000"  transform="rotate(0.000000,516.000000,74.000000)" style="stroke: black; stroke-width:0.25;"/>
<line x1="513.000000" y1="75.000000" x2="516.000000" y2="74.000000"  transform="rotate(0.000000,516.000000,74.000000)" style="stroke: black; stroke-width:0.25;"/>
<line x1="45.000000" y1="45.000000" x2="45.000000" y2="95.000000"  style="stroke: black; stroke-linecap:round; stroke-width:0.25; stroke-dasharray:3,3;"/>
<line x1="45.000000" y1="95.000000" x2="550.800000" y2="95.000000"  style="stroke: black; stroke-linecap:round; stroke-width:0.25; stroke-dasharray:3,3;"/>
<line x1="550.800000" y1="95.000000" x2="550.800000" y2="45.000000"  style="stroke: black; stroke-linecap:round; stroke-width:0.25; stroke-dasharray:3,3;"/>
<line x1="45.000000" y1="45.000000" x2="50.000000" y2="45.000000"  style="stroke: black; stroke-linecap:round; stroke-width:0.25; stroke-dasharray:3,3;"/>
<line x1="114.500000" y1="45.000000" x2="550.800000" y2="45.000000"  style="stroke: black; stroke-linecap:round; stroke-width:0.25; stroke-dasharray:3,3;"/>
<text x="50.000000" y="47.000000" font-family="Arial" font-size="7">hgroup(OSCILLATOR)</text>
<line x1="35.000000" y1="35.000000" x2="35.000000" y2="105.000000"  style="stroke: black; stroke-linecap:round; stroke-width:0.25; stroke-dasharray:3,3;"/>
<line x1="35.000000" y1="105.000000" x2="560.800000" y2="105.000000"  style="stroke: black; stroke-linecap:round; stroke-width:0.25; stroke-dasharray:3,3;"/>
<line x1="560.800000" y1="105.000000" x2="560.800000" y2="35.000000"  style="stroke: black; stroke-linecap:round; stroke-width:0.25; stroke-dasharray:3,3;"/>
<line x1="35.000000" y1="35.000000" x2="40.000000" y2="35.000000"  style="stroke: black; stroke-linecap:round; stroke-width:0.25; stroke-dasharray:3,3;"/>
<line x1="101.275000" y1="35.000000" x2="560.800000" y2="35.000000"  style="stroke: black; stroke-linecap:round; stroke-width:0.25; stroke-dasharray:3,3;"/>
<text x="40.000000" y="37.000000" font-family="Arial" font-size="7">hgroup(QA and QF)</text>
<line x1="25.000000" y1="25.000000" x2="25.000000" y2="115.000000"  style="stroke: black; stroke-linecap:round; stroke-width:0.25; stroke-dasharray:3,3;"/>
<line x1="25.000000" y1="115.000000" x2="570.800000" y2="115.000000"  style="stroke: black; stroke-linecap:round; stroke-width:0.25; stroke-dasharray:3,3;"/>
<line x1="570.800000" y1="115.000000" x2="570.800000" y2="25.000000"  style="stroke: black; stroke-linecap:round; stroke-width:0.25; stroke-dasharray:3,3;"/>
<line x1="25.000000" y1="25.000000" x2="30.000000" y2="25.000000"  style="stroke: black; stroke-linecap:round; stroke-width:0.25; stroke-dasharray:3,3;"/>
<line x1="75.150000" y1="25.000000" x2="570.800000" y2="25.000000"  style="stroke: black; stroke-linecap:round; stroke-width:0.25; stroke-dasharray:3,3;"/>
<text x="30.000000" y="27.000000" font-family="Arial" font-size="7">hgroup(MAIN)</text>
<line x1="15.000000" y1="15.000000" x2="15.000000" y2="125.000000"  style="stroke: black; stroke-linecap:round; stroke-width:0.25; stroke-dasharray:3,3;"/>
<line x1="15.000000" y1="125.000000" x2="588.800000" y2="125.000000"  style="stroke: black; stroke-linecap:round; stroke-width:0.25; stroke-dasharray:3,3;"/>
<line x1="588.800000" y1="125.000000" x2="588.800000" y2="15.000000"  style="stroke: black; stroke-linecap:round; stroke-width:0.25; stroke-dasharray:3,3;"/>
<line x1="15.000000" y1="15.000000" x2="20.000000" y2="15.000000"  style="stroke: black; stroke-linecap:round; stroke-width:0.25; stroke-dasharray:3,3;"/>
<line x1="45.800000" y1="15.000000" x2="588.800000" y2="15.000000"  style="stroke: black; stroke-linecap:round; stroke-width:0.25; stroke-dasharray:3,3;"/>
<text x="20.000000" y="17.000000" font-family="Arial" font-size="7">poscil</text>
<line x1="590.800000" y1="69.000000" x2="593.800000" y2="70.000000"  transform="rotate(0.000000,593.800000,70.000000)" style="stroke: black; stroke-width:0.25;"/>
<line x1="590.800000" y1="71.000000" x2="593.800000" y2="70.000000"  transform="rotate(0.000000,593.800000,70.000000)" style="stroke: black; stroke-width:0.25;"/>
<line x1="183.000000" y1="70.000000" x2="187.000000" y2="70.000000"  style="stroke:black; stroke-linecap:round; stroke-width:0.25;"/>
<line x1="187.000000" y1="54.000000" x2="195.000000" y2="54.000000"  style="stroke:black; stroke-linecap:round; stroke-width:0.25;"/>
<line x1="187.000000" y1="70.000000" x2="187.000000" y2="54.000000"  style="stroke:black; stroke-linecap:round; stroke-width:0.25;"/>
<line x1="187.000000" y1="70.000000" x2="187.000000" y2="70.000000"  style="stroke:black; stroke-linecap:round; stroke-width:0.25;"/>
<line x1="195.000000" y1="54.000000" x2="211.000000" y2="54.000000"  style="stroke:black; stroke-linecap:round; stroke-width:0.25;"/>
<line x1="211.000000" y1="54.000000" x2="227.000000" y2="54.000000"  style="stroke:black; stroke-linecap:round; stroke-width:0.25;"/>
<line x1="223.000000" y1="74.000000" x2="227.000000" y2="74.000000"  style="stroke:black; stroke-linecap:round; stroke-width:0.25;"/>
<line x1="227.000000" y1="54.000000" x2="235.000000" y2="54.000000"  style="stroke:black; stroke-linecap:round; stroke-width:0.25;"/>
<line x1="227.000000" y1="74.000000" x2="235.000000" y2="74.000000"  style="stroke:black; stroke-linecap:round; stroke-width:0.25;"/>
<line x1="235.000000" y1="54.000000" x2="235.000000" y2="66.000000"  style="stroke:black; stroke-linecap:round; stroke-width:0.25;"/>
<line x1="235.000000" y1="66.000000" x2="235.000000" y2="66.000000"  style="stroke:black; stroke-linecap:round; stroke-width:0.25;"/>
<line x1="235.000000" y1="66.000000" x2="239.000000" y2="66.000000"  style="stroke:black; stroke-linecap:round; stroke-width:0.25;"/>
<line x1="235.000000" y1="74.000000" x2="239.000000" y2="74.000000"  style="stroke:black; stroke-linecap:round; stroke-width:0.25;"/>
<line x1="263.000000" y1="70.000000" x2="267.000000" y2="70.000000"  style="stroke:black; stroke-linecap:round; stroke-width:0.25;"/>
<line x1="267.000000" y1="54.000000" x2="275.000000" y2="54.000000"  style="stroke:black; stroke-linecap:round; stroke-width:0.25;"/>
<line x1="267.000000" y1="70.000000" x2="267.000000" y2="54.000000"  style="stroke:black; stroke-linecap:round; stroke-width:0.25;"/>
<line x1="267.000000" y1="70.000000" x2="267.000000" y2="70.000000"  style="stroke:black; stroke-linecap:round; stroke-width:0.25;"/>
<line x1="275.000000" y1="54.000000" x2="291.000000" y2="54.000000"  style="stroke:black; stroke-linecap:round; stroke-width:0.25;"/>
<line x1="291.000000" y1="54.000000" x2="307.000000" y2="54.000000"  style="stroke:black; stroke-linecap:round; stroke-width:0.25;"/>
<line x1="303.000000" y1="74.000000" x2="307.000000" y2="74.000000"  style="stroke:black; stroke-linecap:round; stroke-width:0.25;"/>
<line x1="307.000000" y1="54.000000" x2="315.000000" y2="54.000000"  style="stroke:black; stroke-linecap:round; stroke-width:0.25;"/>
<line x1="307.000000" y1="74.000000" x2="315.000000" y2="74.000000"  style="stroke:black; stroke-linecap:round; stroke-width:0.25;"/>
<line x1="315.000000" y1="54.000000" x2="315.000000" y2="66.000000"  style="stroke:black; stroke-linecap:round; stroke-width:0.25;"/>
<line x1="315.000000" y1="66.000000" x2="315.000000" y2="66.000000"  style="stroke:black; stroke-linecap:round; stroke-width:0.25;"/>
<line x1="315.000000" y1="66.000000" x2="319.000000" y2="66.000000"  style="stroke:black; stroke-linecap:round; stroke-width:0.25;"/>
<line x1="315.000000" y1="74.000000" x2="319.000000" y2="74.000000"  style="stroke:black; stroke-linecap:round; stroke-width:0.25;"/>
<line x1="343.000000" y1="70.000000" x2="347.000000" y2="70.000000"  style="stroke:black; stroke-linecap:round; stroke-width:0.25;"/>
<line x1="347.000000" y1="70.000000" x2="367.000000" y2="54.000000"  style="stroke:black; stroke-linecap:round; stroke-width:0.25;"/>
<line x1="347.000000" y1="70.000000" x2="367.000000" y2="74.000000"  style="stroke:black; stroke-linecap:round; stroke-width:0.25;"/>
<line x1="367.000000" y1="54.000000" x2="435.500000" y2="54.000000"  style="stroke:black; stroke-linecap:round; stroke-width:0.25;"/>
<line x1="367.000000" y1="74.000000" x2="371.000000" y2="74.000000"  style="stroke:black; stroke-linecap:round; stroke-width:0.25;"/>
<line x1="435.500000" y1="54.000000" x2="504.000000" y2="54.000000"  style="stroke:black; stroke-linecap:round; stroke-width:0.25;"/>
<line x1="500.000000" y1="74.000000" x2="504.000000" y2="74.000000"  style="stroke:black; stroke-linecap:round; stroke-width:0.25;"/>
<line x1="504.000000" y1="54.000000" x2="512.000000" y2="54.000000"  style="stroke:black; stroke-linecap:round; stroke-width:0.25;"/>
<line x1="504.000000" y1="74.000000" x2="512.000000" y2="74.000000"  style="stroke:black; stroke-linecap:round; stroke-width:0.25;"/>
<line x1="512.000000" y1="54.000000" x2="512.000000" y2="66.000000"  style="stroke:black; stroke-linecap:round; stroke-width:0.25;"/>
<line x1="512.000000" y1="66.000000" x2="512.000000" y2="66.000000"  style="stroke:black; stroke-linecap:round; stroke-width:0.25;"/>
<line x1="512.000000" y1="66.000000" x2="516.000000" y2="66.000000"  style="stroke:black; stroke-linecap:round; stroke-width:0.25;"/>
<line x1="512.000000" y1="74.000000" x2="516.000000" y2="74.000000"  style="stroke:black; stroke-linecap:round; stroke-width:0.25;"/>
<line x1="541.800000" y1="70.000000" x2="545.800000" y2="70.000000"  style="stroke:black; stroke-linecap:round; stroke-width:0.25;"/>
<line x1="545.800000" y1="70.000000" x2="555.800000" y2="70.000000"  style="stroke:black; stroke-linecap:round; stroke-width:0.25;"/>
<line x1="555.800000" y1="70.000000" x2="565.800000" y2="70.000000"  style="stroke:black; stroke-linecap:round; stroke-width:0.25;"/>
<line x1="565.800000" y1="70.000000" x2="575.800000" y2="70.000000"  style="stroke:black; stroke-linecap:round; stroke-width:0.25;"/>
<line x1="575.800000" y1="70.000000" x2="575.800000" y2="70.000000"  style="stroke:black; stroke-linecap:round; stroke-width:0.25;"/>
<line x1="575.800000" y1="70.000000" x2="579.800000" y2="70.000000"  style="stroke:black; stroke-linecap:round; stroke-width:0.25;"/>
<line x1="579.800000" y1="70.000000" x2="583.800000" y2="70.000000"  style="stroke:black; stroke-linecap:round; stroke-width:0.25;"/>
<line x1="583.800000" y1="70.000000" x2="593.800000" y2="70.000000"  style="stroke:black; stroke-linecap:round; stroke-width:0.25;"/>
</svg>
