<?xml version="1.0"?>
<svg xmlns="http://www.w3.org/2000/svg" xmlns:xlink="http://www.w3.org/1999/xlink" viewBox="0 0 424.800000 188.000000" width="212.400000mm" height="94.000000mm" version="1.1">
<rect x="1.000000" y="1.000000" width="423.800000" height="187.000000" rx="0" ry="0" style="stroke:none;fill:#cccccc;"/>
<rect x="0.000000" y="0.000000" width="423.800000" height="187.000000" rx="0" ry="0" style="stroke:none;fill:#ffffff;"/>
<text x="10.000000" y="7.000000" font-family="Arial" font-size="7"></text>
<a xlink:href="input-0x7fc9350b0300.svg">
<rect x="33.000000" y="83.000000" width="25.800000" height="24.000000" rx="0" ry="0" style="stroke:none;fill:#cccccc;"/>
<rect x="32.000000" y="82.000000" width="25.800000" height="24.000000" rx="0" ry="0" style="stroke:none;fill:#003366;"/>
</a>
<a xlink:href="input-0x7fc9350b0300.svg">
<text x="44.900000" y="96.000000" font-family="Arial" font-size="7" text-anchor="middle" fill="#FFFFFF">input</text>
</a>
<circle cx="34.000000" cy="84.000000" r="1"/>
<line x1="29.000000" y1="93.000000" x2="32.000000" y2="94.000000"  transform="rotate(0.000000,32.000000,94.000000)" style="stroke: black; stroke-width:0.25;"/>
<line x1="29.000000" y1="95.000000" x2="32.000000" y2="94.000000"  transform="rotate(0.000000,32.000000,94.000000)" style="stroke: black; stroke-width:0.25;"/>
<a xlink:href="qaqf-0x7fc93537cfd0.svg">
<rect x="166.050000" y="43.000000" width="25.800000" height="32.000000" rx="0" ry="0" style="stroke:none;fill:#cccccc;"/>
<rect x="165.050000" y="42.000000" width="25.800000" height="32.000000" rx="0" ry="0" style="stroke:none;fill:#003366;"/>
</a>
<a xlink:href="qaqf-0x7fc93537cfd0.svg">
<text x="177.950000" y="60.000000" font-family="Arial" font-size="7" text-anchor="middle" fill="#FFFFFF">qaqf</text>
</a>
<circle cx="167.050000" cy="44.000000" r="1"/>
<line x1="162.050000" y1="57.000000" x2="165.050000" y2="58.000000"  transform="rotate(0.000000,165.050000,58.000000)" style="stroke: black; stroke-width:0.25;"/>
<line x1="162.050000" y1="59.000000" x2="165.050000" y2="58.000000"  transform="rotate(0.000000,165.050000,58.000000)" style="stroke: black; stroke-width:0.25;"/>
<a xlink:href="er8comb-0x7fc935394880.svg">
<rect x="111.800000" y="99.000000" width="38.700000" height="32.000000" rx="0" ry="0" style="stroke:none;fill:#cccccc;"/>
<rect x="110.800000" y="98.000000" width="38.700000" height="32.000000" rx="0" ry="0" style="stroke:none;fill:#003366;"/>
</a>
<a xlink:href="er8comb-0x7fc935394880.svg">
<text x="130.150000" y="116.000000" font-family="Arial" font-size="7" text-anchor="middle" fill="#FFFFFF">er8comb</text>
</a>
<circle cx="112.800000" cy="100.000000" r="1"/>
<line x1="107.800000" y1="113.000000" x2="110.800000" y2="114.000000"  transform="rotate(0.000000,110.800000,114.000000)" style="stroke: black; stroke-width:0.25;"/>
<line x1="107.800000" y1="115.000000" x2="110.800000" y2="114.000000"  transform="rotate(0.000000,110.800000,114.000000)" style="stroke: black; stroke-width:0.25;"/>
<a xlink:href="ermix-0x7fc9350776d0.svg">
<rect x="186.500000" y="115.000000" width="25.800000" height="32.000000" rx="0" ry="0" style="stroke:none;fill:#cccccc;"/>
<rect x="185.500000" y="114.000000" width="25.800000" height="32.000000" rx="0" ry="0" style="stroke:none;fill:#003366;"/>
</a>
<a xlink:href="ermix-0x7fc9350776d0.svg">
<text x="198.400000" y="132.000000" font-family="Arial" font-size="7" text-anchor="middle" fill="#FFFFFF">ermix</text>
</a>
<circle cx="187.500000" cy="116.000000" r="1"/>
<line x1="182.500000" y1="117.000000" x2="185.500000" y2="118.000000"  transform="rotate(0.000000,185.500000,118.000000)" style="stroke: black; stroke-width:0.25;"/>
<line x1="182.500000" y1="119.000000" x2="185.500000" y2="118.000000"  transform="rotate(0.000000,185.500000,118.000000)" style="stroke: black; stroke-width:0.25;"/>
<line x1="182.500000" y1="125.000000" x2="185.500000" y2="126.000000"  transform="rotate(0.000000,185.500000,126.000000)" style="stroke: black; stroke-width:0.25;"/>
<line x1="182.500000" y1="127.000000" x2="185.500000" y2="126.000000"  transform="rotate(0.000000,185.500000,126.000000)" style="stroke: black; stroke-width:0.25;"/>
<line x1="182.500000" y1="133.000000" x2="185.500000" y2="134.000000"  transform="rotate(0.000000,185.500000,134.000000)" style="stroke: black; stroke-width:0.25;"/>
<line x1="182.500000" y1="135.000000" x2="185.500000" y2="134.000000"  transform="rotate(0.000000,185.500000,134.000000)" style="stroke: black; stroke-width:0.25;"/>
<line x1="182.500000" y1="141.000000" x2="185.500000" y2="142.000000"  transform="rotate(0.000000,185.500000,142.000000)" style="stroke: black; stroke-width:0.25;"/>
<line x1="182.500000" y1="143.000000" x2="185.500000" y2="142.000000"  transform="rotate(0.000000,185.500000,142.000000)" style="stroke: black; stroke-width:0.25;"/>
<a xlink:href="waza-0x7fc9353960e0.svg">
<rect x="220.300000" y="115.000000" width="25.800000" height="32.000000" rx="0" ry="0" style="stroke:none;fill:#cccccc;"/>
<rect x="219.300000" y="114.000000" width="25.800000" height="32.000000" rx="0" ry="0" style="stroke:none;fill:#003366;"/>
</a>
<a xlink:href="waza-0x7fc9353960e0.svg">
<text x="232.200000" y="132.000000" font-family="Arial" font-size="7" text-anchor="middle" fill="#FFFFFF">waza</text>
</a>
<circle cx="221.300000" cy="116.000000" r="1"/>
<line x1="216.300000" y1="129.000000" x2="219.300000" y2="130.000000"  transform="rotate(0.000000,219.300000,130.000000)" style="stroke: black; stroke-width:0.25;"/>
<line x1="216.300000" y1="131.000000" x2="219.300000" y2="130.000000"  transform="rotate(0.000000,219.300000,130.000000)" style="stroke: black; stroke-width:0.25;"/>
<a xlink:href="h1meter-0x7fc935398130.svg">
<rect x="329.100000" y="35.000000" width="38.700000" height="24.000000" rx="0" ry="0" style="stroke:none;fill:#cccccc;"/>
<rect x="328.100000" y="34.000000" width="38.700000" height="24.000000" rx="0" ry="0" style="stroke:none;fill:#003366;"/>
</a>
<a xlink:href="h1meter-0x7fc935398130.svg">
<text x="347.450000" y="48.000000" font-family="Arial" font-size="7" text-anchor="middle" fill="#FFFFFF">h1meter</text>
</a>
<circle cx="330.100000" cy="36.000000" r="1"/>
<line x1="325.100000" y1="45.000000" x2="328.100000" y2="46.000000"  transform="rotate(0.000000,328.100000,46.000000)" style="stroke: black; stroke-width:0.25;"/>
<line x1="325.100000" y1="47.000000" x2="328.100000" y2="46.000000"  transform="rotate(0.000000,328.100000,46.000000)" style="stroke: black; stroke-width:0.25;"/>
<a xlink:href="h2meter-0x7fc935399e90.svg">
<rect x="329.100000" y="67.000000" width="38.700000" height="24.000000" rx="0" ry="0" style="stroke:none;fill:#cccccc;"/>
<rect x="328.100000" y="66.000000" width="38.700000" height="24.000000" rx="0" ry="0" style="stroke:none;fill:#003366;"/>
</a>
<a xlink:href="h2meter-0x7fc935399e90.svg">
<text x="347.450000" y="80.000000" font-family="Arial" font-size="7" text-anchor="middle" fill="#FFFFFF">h2meter</text>
</a>
<circle cx="330.100000" cy="68.000000" r="1"/>
<line x1="325.100000" y1="77.000000" x2="328.100000" y2="78.000000"  transform="rotate(0.000000,328.100000,78.000000)" style="stroke: black; stroke-width:0.25;"/>
<line x1="325.100000" y1="79.000000" x2="328.100000" y2="78.000000"  transform="rotate(0.000000,328.100000,78.000000)" style="stroke: black; stroke-width:0.25;"/>
<a xlink:href="h3meter-0x7fc93539bb40.svg">
<rect x="329.100000" y="99.000000" width="38.700000" height="24.000000" rx="0" ry="0" style="stroke:none;fill:#cccccc;"/>
<rect x="328.100000" y="98.000000" width="38.700000" height="24.000000" rx="0" ry="0" style="stroke:none;fill:#003366;"/>
</a>
<a xlink:href="h3meter-0x7fc93539bb40.svg">
<text x="347.450000" y="112.000000" font-family="Arial" font-size="7" text-anchor="middle" fill="#FFFFFF">h3meter</text>
</a>
<circle cx="330.100000" cy="100.000000" r="1"/>
<line x1="325.100000" y1="109.000000" x2="328.100000" y2="110.000000"  transform="rotate(0.000000,328.100000,110.000000)" style="stroke: black; stroke-width:0.25;"/>
<line x1="325.100000" y1="111.000000" x2="328.100000" y2="110.000000"  transform="rotate(0.000000,328.100000,110.000000)" style="stroke: black; stroke-width:0.25;"/>
<a xlink:href="h4meter-0x7fc93539d890.svg">
<rect x="329.100000" y="131.000000" width="38.700000" height="24.000000" rx="0" ry="0" style="stroke:none;fill:#cccccc;"/>
<rect x="328.100000" y="130.000000" width="38.700000" height="24.000000" rx="0" ry="0" style="stroke:none;fill:#003366;"/>
</a>
<a xlink:href="h4meter-0x7fc93539d890.svg">
<text x="347.450000" y="144.000000" font-family="Arial" font-size="7" text-anchor="middle" fill="#FFFFFF">h4meter</text>
</a>
<circle cx="330.100000" cy="132.000000" r="1"/>
<line x1="325.100000" y1="141.000000" x2="328.100000" y2="142.000000"  transform="rotate(0.000000,328.100000,142.000000)" style="stroke: black; stroke-width:0.25;"/>
<line x1="325.100000" y1="143.000000" x2="328.100000" y2="142.000000"  transform="rotate(0.000000,328.100000,142.000000)" style="stroke: black; stroke-width:0.25;"/>
<line x1="319.100000" y1="25.000000" x2="319.100000" y2="163.000000"  style="stroke: black; stroke-linecap:round; stroke-width:0.25; stroke-dasharray:3,3;"/>
<line x1="319.100000" y1="163.000000" x2="375.800000" y2="163.000000"  style="stroke: black; stroke-linecap:round; stroke-width:0.25; stroke-dasharray:3,3;"/>
<line x1="375.800000" y1="163.000000" x2="375.800000" y2="25.000000"  style="stroke: black; stroke-linecap:round; stroke-width:0.25; stroke-dasharray:3,3;"/>
<line x1="319.100000" y1="25.000000" x2="324.100000" y2="25.000000"  style="stroke: black; stroke-linecap:round; stroke-width:0.25; stroke-dasharray:3,3;"/>
<line x1="375.800000" y1="25.000000" x2="375.800000" y2="25.000000"  style="stroke: black; stroke-linecap:round; stroke-width:0.25; stroke-dasharray:3,3;"/>
<text x="324.100000" y="27.000000" font-family="Arial" font-size="7">vgroup(OUTPUT METERS)</text>
<line x1="15.000000" y1="15.000000" x2="15.000000" y2="173.000000"  style="stroke: black; stroke-linecap:round; stroke-width:0.25; stroke-dasharray:3,3;"/>
<line x1="15.000000" y1="173.000000" x2="409.800000" y2="173.000000"  style="stroke: black; stroke-linecap:round; stroke-width:0.25; stroke-dasharray:3,3;"/>
<line x1="409.800000" y1="173.000000" x2="409.800000" y2="15.000000"  style="stroke: black; stroke-linecap:round; stroke-width:0.25; stroke-dasharray:3,3;"/>
<line x1="15.000000" y1="15.000000" x2="20.000000" y2="15.000000"  style="stroke: black; stroke-linecap:round; stroke-width:0.25; stroke-dasharray:3,3;"/>
<line x1="49.025000" y1="15.000000" x2="409.800000" y2="15.000000"  style="stroke: black; stroke-linecap:round; stroke-width:0.25; stroke-dasharray:3,3;"/>
<text x="20.000000" y="17.000000" font-family="Arial" font-size="7">process</text>
<line x1="411.800000" y1="81.000000" x2="414.800000" y2="82.000000"  transform="rotate(0.000000,414.800000,82.000000)" style="stroke: black; stroke-width:0.25;"/>
<line x1="411.800000" y1="83.000000" x2="414.800000" y2="82.000000"  transform="rotate(0.000000,414.800000,82.000000)" style="stroke: black; stroke-width:0.25;"/>
<line x1="411.800000" y1="89.000000" x2="414.800000" y2="90.000000"  transform="rotate(0.000000,414.800000,90.000000)" style="stroke: black; stroke-width:0.25;"/>
<line x1="411.800000" y1="91.000000" x2="414.800000" y2="90.000000"  transform="rotate(0.000000,414.800000,90.000000)" style="stroke: black; stroke-width:0.25;"/>
<line x1="411.800000" y1="97.000000" x2="414.800000" y2="98.000000"  transform="rotate(0.000000,414.800000,98.000000)" style="stroke: black; stroke-width:0.25;"/>
<line x1="411.800000" y1="99.000000" x2="414.800000" y2="98.000000"  transform="rotate(0.000000,414.800000,98.000000)" style="stroke: black; stroke-width:0.25;"/>
<line x1="411.800000" y1="105.000000" x2="414.800000" y2="106.000000"  transform="rotate(0.000000,414.800000,106.000000)" style="stroke: black; stroke-width:0.25;"/>
<line x1="411.800000" y1="107.000000" x2="414.800000" y2="106.000000"  transform="rotate(0.000000,414.800000,106.000000)" style="stroke: black; stroke-width:0.25;"/>
<line x1="10.000000" y1="94.000000" x2="20.000000" y2="94.000000"  style="stroke:black; stroke-linecap:round; stroke-width:0.25;"/>
<line x1="20.000000" y1="94.000000" x2="24.000000" y2="94.000000"  style="stroke:black; stroke-linecap:round; stroke-width:0.25;"/>
<line x1="24.000000" y1="94.000000" x2="28.000000" y2="94.000000"  style="stroke:black; stroke-linecap:round; stroke-width:0.25;"/>
<line x1="28.000000" y1="94.000000" x2="28.000000" y2="94.000000"  style="stroke:black; stroke-linecap:round; stroke-width:0.25;"/>
<line x1="28.000000" y1="94.000000" x2="32.000000" y2="94.000000"  style="stroke:black; stroke-linecap:round; stroke-width:0.25;"/>
<line x1="57.800000" y1="94.000000" x2="61.800000" y2="94.000000"  style="stroke:black; stroke-linecap:round; stroke-width:0.25;"/>
<line x1="61.800000" y1="94.000000" x2="106.800000" y2="58.000000"  style="stroke:black; stroke-linecap:round; stroke-width:0.25;"/>
<line x1="61.800000" y1="94.000000" x2="106.800000" y2="114.000000"  style="stroke:black; stroke-linecap:round; stroke-width:0.25;"/>
<line x1="106.800000" y1="58.000000" x2="161.050000" y2="58.000000"  style="stroke:black; stroke-linecap:round; stroke-width:0.25;"/>
<line x1="106.800000" y1="114.000000" x2="110.800000" y2="114.000000"  style="stroke:black; stroke-linecap:round; stroke-width:0.25;"/>
<line x1="149.500000" y1="102.000000" x2="153.500000" y2="102.000000"  style="stroke:black; stroke-linecap:round; stroke-width:0.25;"/>
<line x1="149.500000" y1="110.000000" x2="153.500000" y2="110.000000"  style="stroke:black; stroke-linecap:round; stroke-width:0.25;"/>
<line x1="149.500000" y1="118.000000" x2="153.500000" y2="118.000000"  style="stroke:black; stroke-linecap:round; stroke-width:0.25;"/>
<line x1="149.500000" y1="126.000000" x2="153.500000" y2="126.000000"  style="stroke:black; stroke-linecap:round; stroke-width:0.25;"/>
<line x1="153.500000" y1="102.000000" x2="181.500000" y2="82.000000"  style="stroke:black; stroke-linecap:round; stroke-width:0.25;"/>
<line x1="153.500000" y1="102.000000" x2="181.500000" y2="118.000000"  style="stroke:black; stroke-linecap:round; stroke-width:0.25;"/>
<line x1="153.500000" y1="110.000000" x2="181.500000" y2="90.000000"  style="stroke:black; stroke-linecap:round; stroke-width:0.25;"/>
<line x1="153.500000" y1="110.000000" x2="181.500000" y2="126.000000"  style="stroke:black; stroke-linecap:round; stroke-width:0.25;"/>
<line x1="153.500000" y1="118.000000" x2="181.500000" y2="98.000000"  style="stroke:black; stroke-linecap:round; stroke-width:0.25;"/>
<line x1="153.500000" y1="118.000000" x2="181.500000" y2="134.000000"  style="stroke:black; stroke-linecap:round; stroke-width:0.25;"/>
<line x1="153.500000" y1="126.000000" x2="181.500000" y2="106.000000"  style="stroke:black; stroke-linecap:round; stroke-width:0.25;"/>
<line x1="153.500000" y1="126.000000" x2="181.500000" y2="142.000000"  style="stroke:black; stroke-linecap:round; stroke-width:0.25;"/>
<line x1="161.050000" y1="58.000000" x2="165.050000" y2="58.000000"  style="stroke:black; stroke-linecap:round; stroke-width:0.25;"/>
<line x1="181.500000" y1="82.000000" x2="215.300000" y2="82.000000"  style="stroke:black; stroke-linecap:round; stroke-width:0.25;"/>
<line x1="181.500000" y1="90.000000" x2="215.300000" y2="90.000000"  style="stroke:black; stroke-linecap:round; stroke-width:0.25;"/>
<line x1="181.500000" y1="98.000000" x2="215.300000" y2="98.000000"  style="stroke:black; stroke-linecap:round; stroke-width:0.25;"/>
<line x1="181.500000" y1="106.000000" x2="215.300000" y2="106.000000"  style="stroke:black; stroke-linecap:round; stroke-width:0.25;"/>
<line x1="181.500000" y1="118.000000" x2="185.500000" y2="118.000000"  style="stroke:black; stroke-linecap:round; stroke-width:0.25;"/>
<line x1="181.500000" y1="126.000000" x2="185.500000" y2="126.000000"  style="stroke:black; stroke-linecap:round; stroke-width:0.25;"/>
<line x1="181.500000" y1="134.000000" x2="185.500000" y2="134.000000"  style="stroke:black; stroke-linecap:round; stroke-width:0.25;"/>
<line x1="181.500000" y1="142.000000" x2="185.500000" y2="142.000000"  style="stroke:black; stroke-linecap:round; stroke-width:0.25;"/>
<line x1="190.850000" y1="46.000000" x2="194.850000" y2="46.000000"  style="stroke:black; stroke-linecap:round; stroke-width:0.25;"/>
<line x1="190.850000" y1="54.000000" x2="194.850000" y2="54.000000"  style="stroke:black; stroke-linecap:round; stroke-width:0.25;"/>
<line x1="190.850000" y1="62.000000" x2="194.850000" y2="62.000000"  style="stroke:black; stroke-linecap:round; stroke-width:0.25;"/>
<line x1="190.850000" y1="70.000000" x2="194.850000" y2="70.000000"  style="stroke:black; stroke-linecap:round; stroke-width:0.25;"/>
<line x1="194.850000" y1="46.000000" x2="249.100000" y2="46.000000"  style="stroke:black; stroke-linecap:round; stroke-width:0.25;"/>
<line x1="194.850000" y1="54.000000" x2="249.100000" y2="54.000000"  style="stroke:black; stroke-linecap:round; stroke-width:0.25;"/>
<line x1="194.850000" y1="62.000000" x2="249.100000" y2="62.000000"  style="stroke:black; stroke-linecap:round; stroke-width:0.25;"/>
<line x1="194.850000" y1="70.000000" x2="249.100000" y2="70.000000"  style="stroke:black; stroke-linecap:round; stroke-width:0.25;"/>
<line x1="211.300000" y1="130.000000" x2="215.300000" y2="130.000000"  style="stroke:black; stroke-linecap:round; stroke-width:0.25;"/>
<line x1="215.300000" y1="82.000000" x2="249.100000" y2="82.000000"  style="stroke:black; stroke-linecap:round; stroke-width:0.25;"/>
<line x1="215.300000" y1="90.000000" x2="249.100000" y2="90.000000"  style="stroke:black; stroke-linecap:round; stroke-width:0.25;"/>
<line x1="215.300000" y1="98.000000" x2="249.100000" y2="98.000000"  style="stroke:black; stroke-linecap:round; stroke-width:0.25;"/>
<line x1="215.300000" y1="106.000000" x2="249.100000" y2="106.000000"  style="stroke:black; stroke-linecap:round; stroke-width:0.25;"/>
<line x1="215.300000" y1="130.000000" x2="215.300000" y2="130.000000"  style="stroke:black; stroke-linecap:round; stroke-width:0.25;"/>
<line x1="215.300000" y1="130.000000" x2="219.300000" y2="130.000000"  style="stroke:black; stroke-linecap:round; stroke-width:0.25;"/>
<line x1="245.100000" y1="118.000000" x2="249.100000" y2="118.000000"  style="stroke:black; stroke-linecap:round; stroke-width:0.25;"/>
<line x1="245.100000" y1="126.000000" x2="249.100000" y2="126.000000"  style="stroke:black; stroke-linecap:round; stroke-width:0.25;"/>
<line x1="245.100000" y1="134.000000" x2="249.100000" y2="134.000000"  style="stroke:black; stroke-linecap:round; stroke-width:0.25;"/>
<line x1="245.100000" y1="142.000000" x2="249.100000" y2="142.000000"  style="stroke:black; stroke-linecap:round; stroke-width:0.25;"/>
<line x1="249.100000" y1="46.000000" x2="314.100000" y2="46.000000"  style="stroke:black; stroke-linecap:round; stroke-width:0.25;"/>
<line x1="249.100000" y1="54.000000" x2="314.100000" y2="78.000000"  style="stroke:black; stroke-linecap:round; stroke-width:0.25;"/>
<line x1="249.100000" y1="62.000000" x2="314.100000" y2="110.000000"  style="stroke:black; stroke-linecap:round; stroke-width:0.25;"/>
<line x1="249.100000" y1="70.000000" x2="314.100000" y2="142.000000"  style="stroke:black; stroke-linecap:round; stroke-width:0.25;"/>
<line x1="249.100000" y1="82.000000" x2="314.100000" y2="46.000000"  style="stroke:black; stroke-linecap:round; stroke-width:0.25;"/>
<line x1="249.100000" y1="90.000000" x2="314.100000" y2="78.000000"  style="stroke:black; stroke-linecap:round; stroke-width:0.25;"/>
<line x1="249.100000" y1="98.000000" x2="314.100000" y2="110.000000"  style="stroke:black; stroke-linecap:round; stroke-width:0.25;"/>
<line x1="249.100000" y1="106.000000" x2="314.100000" y2="142.000000"  style="stroke:black; stroke-linecap:round; stroke-width:0.25;"/>
<line x1="249.100000" y1="118.000000" x2="314.100000" y2="46.000000"  style="stroke:black; stroke-linecap:round; stroke-width:0.25;"/>
<line x1="249.100000" y1="126.000000" x2="314.100000" y2="78.000000"  style="stroke:black; stroke-linecap:round; stroke-width:0.25;"/>
<line x1="249.100000" y1="134.000000" x2="314.100000" y2="110.000000"  style="stroke:black; stroke-linecap:round; stroke-width:0.25;"/>
<line x1="249.100000" y1="142.000000" x2="314.100000" y2="142.000000"  style="stroke:black; stroke-linecap:round; stroke-width:0.25;"/>
<line x1="314.100000" y1="46.000000" x2="324.100000" y2="46.000000"  style="stroke:black; stroke-linecap:round; stroke-width:0.25;"/>
<line x1="314.100000" y1="78.000000" x2="324.100000" y2="78.000000"  style="stroke:black; stroke-linecap:round; stroke-width:0.25;"/>
<line x1="314.100000" y1="110.000000" x2="324.100000" y2="110.000000"  style="stroke:black; stroke-linecap:round; stroke-width:0.25;"/>
<line x1="314.100000" y1="142.000000" x2="324.100000" y2="142.000000"  style="stroke:black; stroke-linecap:round; stroke-width:0.25;"/>
<line x1="324.100000" y1="46.000000" x2="328.100000" y2="46.000000"  style="stroke:black; stroke-linecap:round; stroke-width:0.25;"/>
<line x1="324.100000" y1="78.000000" x2="328.100000" y2="78.000000"  style="stroke:black; stroke-linecap:round; stroke-width:0.25;"/>
<line x1="324.100000" y1="110.000000" x2="328.100000" y2="110.000000"  style="stroke:black; stroke-linecap:round; stroke-width:0.25;"/>
<line x1="324.100000" y1="142.000000" x2="328.100000" y2="142.000000"  style="stroke:black; stroke-linecap:round; stroke-width:0.25;"/>
<line x1="366.800000" y1="46.000000" x2="370.800000" y2="46.000000"  style="stroke:black; stroke-linecap:round; stroke-width:0.25;"/>
<line x1="366.800000" y1="78.000000" x2="370.800000" y2="78.000000"  style="stroke:black; stroke-linecap:round; stroke-width:0.25;"/>
<line x1="366.800000" y1="110.000000" x2="370.800000" y2="110.000000"  style="stroke:black; stroke-linecap:round; stroke-width:0.25;"/>
<line x1="366.800000" y1="142.000000" x2="370.800000" y2="142.000000"  style="stroke:black; stroke-linecap:round; stroke-width:0.25;"/>
<line x1="370.800000" y1="46.000000" x2="380.800000" y2="46.000000"  style="stroke:black; stroke-linecap:round; stroke-width:0.25;"/>
<line x1="370.800000" y1="78.000000" x2="380.800000" y2="78.000000"  style="stroke:black; stroke-linecap:round; stroke-width:0.25;"/>
<line x1="370.800000" y1="110.000000" x2="380.800000" y2="110.000000"  style="stroke:black; stroke-linecap:round; stroke-width:0.25;"/>
<line x1="370.800000" y1="142.000000" x2="380.800000" y2="142.000000"  style="stroke:black; stroke-linecap:round; stroke-width:0.25;"/>
<line x1="380.800000" y1="46.000000" x2="396.800000" y2="46.000000"  style="stroke:black; stroke-linecap:round; stroke-width:0.25;"/>
<line x1="380.800000" y1="78.000000" x2="388.800000" y2="78.000000"  style="stroke:black; stroke-linecap:round; stroke-width:0.25;"/>
<line x1="380.800000" y1="98.000000" x2="396.800000" y2="98.000000"  style="stroke:black; stroke-linecap:round; stroke-width:0.25;"/>
<line x1="380.800000" y1="110.000000" x2="380.800000" y2="98.000000"  style="stroke:black; stroke-linecap:round; stroke-width:0.25;"/>
<line x1="380.800000" y1="110.000000" x2="380.800000" y2="110.000000"  style="stroke:black; stroke-linecap:round; stroke-width:0.25;"/>
<line x1="380.800000" y1="142.000000" x2="388.800000" y2="142.000000"  style="stroke:black; stroke-linecap:round; stroke-width:0.25;"/>
<line x1="388.800000" y1="78.000000" x2="388.800000" y2="90.000000"  style="stroke:black; stroke-linecap:round; stroke-width:0.25;"/>
<line x1="388.800000" y1="90.000000" x2="396.800000" y2="90.000000"  style="stroke:black; stroke-linecap:round; stroke-width:0.25;"/>
<line x1="388.800000" y1="106.000000" x2="396.800000" y2="106.000000"  style="stroke:black; stroke-linecap:round; stroke-width:0.25;"/>
<line x1="388.800000" y1="142.000000" x2="388.800000" y2="106.000000"  style="stroke:black; stroke-linecap:round; stroke-width:0.25;"/>
<line x1="396.800000" y1="46.000000" x2="396.800000" y2="82.000000"  style="stroke:black; stroke-linecap:round; stroke-width:0.25;"/>
<line x1="396.800000" y1="82.000000" x2="396.800000" y2="82.000000"  style="stroke:black; stroke-linecap:round; stroke-width:0.25;"/>
<line x1="396.800000" y1="82.000000" x2="400.800000" y2="82.000000"  style="stroke:black; stroke-linecap:round; stroke-width:0.25;"/>
<line x1="396.800000" y1="90.000000" x2="400.800000" y2="90.000000"  style="stroke:black; stroke-linecap:round; stroke-width:0.25;"/>
<line x1="396.800000" y1="98.000000" x2="400.800000" y2="98.000000"  style="stroke:black; stroke-linecap:round; stroke-width:0.25;"/>
<line x1="396.800000" y1="106.000000" x2="400.800000" y2="106.000000"  style="stroke:black; stroke-linecap:round; stroke-width:0.25;"/>
<line x1="400.800000" y1="82.000000" x2="404.800000" y2="82.000000"  style="stroke:black; stroke-linecap:round; stroke-width:0.25;"/>
<line x1="400.800000" y1="90.000000" x2="404.800000" y2="90.000000"  style="stroke:black; stroke-linecap:round; stroke-width:0.25;"/>
<line x1="400.800000" y1="98.000000" x2="404.800000" y2="98.000000"  style="stroke:black; stroke-linecap:round; stroke-width:0.25;"/>
<line x1="400.800000" y1="106.000000" x2="404.800000" y2="106.000000"  style="stroke:black; stroke-linecap:round; stroke-width:0.25;"/>
<line x1="404.800000" y1="82.000000" x2="414.800000" y2="82.000000"  style="stroke:black; stroke-linecap:round; stroke-width:0.25;"/>
<line x1="404.800000" y1="90.000000" x2="414.800000" y2="90.000000"  style="stroke:black; stroke-linecap:round; stroke-width:0.25;"/>
<line x1="404.800000" y1="98.000000" x2="414.800000" y2="98.000000"  style="stroke:black; stroke-linecap:round; stroke-width:0.25;"/>
<line x1="404.800000" y1="106.000000" x2="414.800000" y2="106.000000"  style="stroke:black; stroke-linecap:round; stroke-width:0.25;"/>
</svg>
