<?xml version="1.0"?>
<svg xmlns="http://www.w3.org/2000/svg" xmlns:xlink="http://www.w3.org/1999/xlink" viewBox="0 0 581.700000 188.000000" width="290.850000mm" height="94.000000mm" version="1.1">
<rect x="1.000000" y="1.000000" width="580.700000" height="187.000000" rx="0" ry="0" style="stroke:none;fill:#cccccc;"/>
<rect x="0.000000" y="0.000000" width="580.700000" height="187.000000" rx="0" ry="0" style="stroke:none;fill:#ffffff;"/>
<text x="10.000000" y="7.000000" font-family="Arial" font-size="7"></text>
<a xlink:href="ingain-0x7fb39a5ae9a0.svg">
<rect x="41.000000" y="87.000000" width="25.800000" height="24.000000" rx="0" ry="0" style="stroke:none;fill:#cccccc;"/>
<rect x="40.000000" y="86.000000" width="25.800000" height="24.000000" rx="0" ry="0" style="stroke:none;fill:#003366;"/>
</a>
<a xlink:href="ingain-0x7fb39a5ae9a0.svg">
<text x="52.900000" y="100.000000" font-family="Arial" font-size="7" text-anchor="middle" fill="#FFFFFF">ingain</text>
</a>
<circle cx="42.000000" cy="88.000000" r="1"/>
<rect x="82.800000" y="83.000000" width="24.000000" height="24.000000" rx="0" ry="0" style="stroke:none;fill:#cccccc;"/>
<rect x="81.800000" y="82.000000" width="24.000000" height="24.000000" rx="0" ry="0" style="stroke:none;fill:#4B71A1;"/>
<text x="93.800000" y="96.000000" font-family="Arial" font-size="7" text-anchor="middle" fill="#FFFFFF">*</text>
<circle cx="83.800000" cy="84.000000" r="1"/>
<line x1="78.800000" y1="89.000000" x2="81.800000" y2="90.000000"  transform="rotate(0.000000,81.800000,90.000000)" style="stroke: black; stroke-width:0.25;"/>
<line x1="78.800000" y1="91.000000" x2="81.800000" y2="90.000000"  transform="rotate(0.000000,81.800000,90.000000)" style="stroke: black; stroke-width:0.25;"/>
<line x1="78.800000" y1="97.000000" x2="81.800000" y2="98.000000"  transform="rotate(0.000000,81.800000,98.000000)" style="stroke: black; stroke-width:0.25;"/>
<line x1="78.800000" y1="99.000000" x2="81.800000" y2="98.000000"  transform="rotate(0.000000,81.800000,98.000000)" style="stroke: black; stroke-width:0.25;"/>
<a xlink:href="inhmeter-0x7fb39a5b5270.svg">
<rect x="114.800000" y="83.000000" width="38.700000" height="24.000000" rx="0" ry="0" style="stroke:none;fill:#cccccc;"/>
<rect x="113.800000" y="82.000000" width="38.700000" height="24.000000" rx="0" ry="0" style="stroke:none;fill:#003366;"/>
</a>
<a xlink:href="inhmeter-0x7fb39a5b5270.svg">
<text x="133.150000" y="96.000000" font-family="Arial" font-size="7" text-anchor="middle" fill="#FFFFFF">inhmeter</text>
</a>
<circle cx="115.800000" cy="84.000000" r="1"/>
<line x1="110.800000" y1="93.000000" x2="113.800000" y2="94.000000"  transform="rotate(0.000000,113.800000,94.000000)" style="stroke: black; stroke-width:0.25;"/>
<line x1="110.800000" y1="95.000000" x2="113.800000" y2="94.000000"  transform="rotate(0.000000,113.800000,94.000000)" style="stroke: black; stroke-width:0.25;"/>
<a xlink:href="qaqf-0x7fb39a6161a0.svg">
<rect x="224.950000" y="43.000000" width="25.800000" height="32.000000" rx="0" ry="0" style="stroke:none;fill:#cccccc;"/>
<rect x="223.950000" y="42.000000" width="25.800000" height="32.000000" rx="0" ry="0" style="stroke:none;fill:#003366;"/>
</a>
<a xlink:href="qaqf-0x7fb39a6161a0.svg">
<text x="236.850000" y="60.000000" font-family="Arial" font-size="7" text-anchor="middle" fill="#FFFFFF">qaqf</text>
</a>
<circle cx="225.950000" cy="44.000000" r="1"/>
<line x1="220.950000" y1="57.000000" x2="223.950000" y2="58.000000"  transform="rotate(0.000000,223.950000,58.000000)" style="stroke: black; stroke-width:0.25;"/>
<line x1="220.950000" y1="59.000000" x2="223.950000" y2="58.000000"  transform="rotate(0.000000,223.950000,58.000000)" style="stroke: black; stroke-width:0.25;"/>
<a xlink:href="er8comb-0x7fb39a629920.svg">
<rect x="218.500000" y="83.000000" width="38.700000" height="64.000000" rx="0" ry="0" style="stroke:none;fill:#cccccc;"/>
<rect x="217.500000" y="82.000000" width="38.700000" height="64.000000" rx="0" ry="0" style="stroke:none;fill:#003366;"/>
</a>
<a xlink:href="er8comb-0x7fb39a629920.svg">
<text x="236.850000" y="116.000000" font-family="Arial" font-size="7" text-anchor="middle" fill="#FFFFFF">er8comb</text>
</a>
<circle cx="219.500000" cy="84.000000" r="1"/>
<line x1="214.500000" y1="113.000000" x2="217.500000" y2="114.000000"  transform="rotate(0.000000,217.500000,114.000000)" style="stroke: black; stroke-width:0.25;"/>
<line x1="214.500000" y1="115.000000" x2="217.500000" y2="114.000000"  transform="rotate(0.000000,217.500000,114.000000)" style="stroke: black; stroke-width:0.25;"/>
<a xlink:href="fbdel-0x7fb39a62af60.svg">
<rect x="329.200000" y="111.000000" width="25.800000" height="32.000000" rx="0" ry="0" style="stroke:none;fill:#cccccc;"/>
<rect x="328.200000" y="110.000000" width="25.800000" height="32.000000" rx="0" ry="0" style="stroke:none;fill:#003366;"/>
</a>
<a xlink:href="fbdel-0x7fb39a62af60.svg">
<text x="341.100000" y="128.000000" font-family="Arial" font-size="7" text-anchor="middle" fill="#FFFFFF">fbdel</text>
</a>
<circle cx="330.200000" cy="112.000000" r="1"/>
<line x1="325.200000" y1="113.000000" x2="328.200000" y2="114.000000"  transform="rotate(0.000000,328.200000,114.000000)" style="stroke: black; stroke-width:0.25;"/>
<line x1="325.200000" y1="115.000000" x2="328.200000" y2="114.000000"  transform="rotate(0.000000,328.200000,114.000000)" style="stroke: black; stroke-width:0.25;"/>
<line x1="325.200000" y1="121.000000" x2="328.200000" y2="122.000000"  transform="rotate(0.000000,328.200000,122.000000)" style="stroke: black; stroke-width:0.25;"/>
<line x1="325.200000" y1="123.000000" x2="328.200000" y2="122.000000"  transform="rotate(0.000000,328.200000,122.000000)" style="stroke: black; stroke-width:0.25;"/>
<line x1="325.200000" y1="129.000000" x2="328.200000" y2="130.000000"  transform="rotate(0.000000,328.200000,130.000000)" style="stroke: black; stroke-width:0.25;"/>
<line x1="325.200000" y1="131.000000" x2="328.200000" y2="130.000000"  transform="rotate(0.000000,328.200000,130.000000)" style="stroke: black; stroke-width:0.25;"/>
<line x1="325.200000" y1="137.000000" x2="328.200000" y2="138.000000"  transform="rotate(0.000000,328.200000,138.000000)" style="stroke: black; stroke-width:0.25;"/>
<line x1="325.200000" y1="139.000000" x2="328.200000" y2="138.000000"  transform="rotate(0.000000,328.200000,138.000000)" style="stroke: black; stroke-width:0.25;"/>
<line x1="208.500000" y1="33.000000" x2="208.500000" y2="155.000000"  style="stroke: black; stroke-linecap:round; stroke-width:0.25; stroke-dasharray:3,3;"/>
<line x1="208.500000" y1="155.000000" x2="363.000000" y2="155.000000"  style="stroke: black; stroke-linecap:round; stroke-width:0.25; stroke-dasharray:3,3;"/>
<line x1="363.000000" y1="155.000000" x2="363.000000" y2="33.000000"  style="stroke: black; stroke-linecap:round; stroke-width:0.25; stroke-dasharray:3,3;"/>
<line x1="208.500000" y1="33.000000" x2="213.500000" y2="33.000000"  style="stroke: black; stroke-linecap:round; stroke-width:0.25; stroke-dasharray:3,3;"/>
<line x1="258.650000" y1="33.000000" x2="363.000000" y2="33.000000"  style="stroke: black; stroke-linecap:round; stroke-width:0.25; stroke-dasharray:3,3;"/>
<text x="213.500000" y="35.000000" font-family="Arial" font-size="7">hgroup(MAIN)</text>
<a xlink:href="h1meter-0x7fb39a62cc30.svg">
<rect x="453.000000" y="35.000000" width="38.700000" height="24.000000" rx="0" ry="0" style="stroke:none;fill:#cccccc;"/>
<rect x="452.000000" y="34.000000" width="38.700000" height="24.000000" rx="0" ry="0" style="stroke:none;fill:#003366;"/>
</a>
<a xlink:href="h1meter-0x7fb39a62cc30.svg">
<text x="471.350000" y="48.000000" font-family="Arial" font-size="7" text-anchor="middle" fill="#FFFFFF">h1meter</text>
</a>
<circle cx="454.000000" cy="36.000000" r="1"/>
<line x1="449.000000" y1="45.000000" x2="452.000000" y2="46.000000"  transform="rotate(0.000000,452.000000,46.000000)" style="stroke: black; stroke-width:0.25;"/>
<line x1="449.000000" y1="47.000000" x2="452.000000" y2="46.000000"  transform="rotate(0.000000,452.000000,46.000000)" style="stroke: black; stroke-width:0.25;"/>
<a xlink:href="h2meter-0x7fb39a62e590.svg">
<rect x="453.000000" y="67.000000" width="38.700000" height="24.000000" rx="0" ry="0" style="stroke:none;fill:#cccccc;"/>
<rect x="452.000000" y="66.000000" width="38.700000" height="24.000000" rx="0" ry="0" style="stroke:none;fill:#003366;"/>
</a>
<a xlink:href="h2meter-0x7fb39a62e590.svg">
<text x="471.350000" y="80.000000" font-family="Arial" font-size="7" text-anchor="middle" fill="#FFFFFF">h2meter</text>
</a>
<circle cx="454.000000" cy="68.000000" r="1"/>
<line x1="449.000000" y1="77.000000" x2="452.000000" y2="78.000000"  transform="rotate(0.000000,452.000000,78.000000)" style="stroke: black; stroke-width:0.25;"/>
<line x1="449.000000" y1="79.000000" x2="452.000000" y2="78.000000"  transform="rotate(0.000000,452.000000,78.000000)" style="stroke: black; stroke-width:0.25;"/>
<a xlink:href="h3meter-0x7fb39a62fef0.svg">
<rect x="453.000000" y="99.000000" width="38.700000" height="24.000000" rx="0" ry="0" style="stroke:none;fill:#cccccc;"/>
<rect x="452.000000" y="98.000000" width="38.700000" height="24.000000" rx="0" ry="0" style="stroke:none;fill:#003366;"/>
</a>
<a xlink:href="h3meter-0x7fb39a62fef0.svg">
<text x="471.350000" y="112.000000" font-family="Arial" font-size="7" text-anchor="middle" fill="#FFFFFF">h3meter</text>
</a>
<circle cx="454.000000" cy="100.000000" r="1"/>
<line x1="449.000000" y1="109.000000" x2="452.000000" y2="110.000000"  transform="rotate(0.000000,452.000000,110.000000)" style="stroke: black; stroke-width:0.25;"/>
<line x1="449.000000" y1="111.000000" x2="452.000000" y2="110.000000"  transform="rotate(0.000000,452.000000,110.000000)" style="stroke: black; stroke-width:0.25;"/>
<a xlink:href="h4meter-0x7fb39a631840.svg">
<rect x="453.000000" y="131.000000" width="38.700000" height="24.000000" rx="0" ry="0" style="stroke:none;fill:#cccccc;"/>
<rect x="452.000000" y="130.000000" width="38.700000" height="24.000000" rx="0" ry="0" style="stroke:none;fill:#003366;"/>
</a>
<a xlink:href="h4meter-0x7fb39a631840.svg">
<text x="471.350000" y="144.000000" font-family="Arial" font-size="7" text-anchor="middle" fill="#FFFFFF">h4meter</text>
</a>
<circle cx="454.000000" cy="132.000000" r="1"/>
<line x1="449.000000" y1="141.000000" x2="452.000000" y2="142.000000"  transform="rotate(0.000000,452.000000,142.000000)" style="stroke: black; stroke-width:0.25;"/>
<line x1="449.000000" y1="143.000000" x2="452.000000" y2="142.000000"  transform="rotate(0.000000,452.000000,142.000000)" style="stroke: black; stroke-width:0.25;"/>
<line x1="443.000000" y1="25.000000" x2="443.000000" y2="163.000000"  style="stroke: black; stroke-linecap:round; stroke-width:0.25; stroke-dasharray:3,3;"/>
<line x1="443.000000" y1="163.000000" x2="499.700000" y2="163.000000"  style="stroke: black; stroke-linecap:round; stroke-width:0.25; stroke-dasharray:3,3;"/>
<line x1="499.700000" y1="163.000000" x2="499.700000" y2="25.000000"  style="stroke: black; stroke-linecap:round; stroke-width:0.25; stroke-dasharray:3,3;"/>
<line x1="443.000000" y1="25.000000" x2="448.000000" y2="25.000000"  style="stroke: black; stroke-linecap:round; stroke-width:0.25; stroke-dasharray:3,3;"/>
<line x1="499.700000" y1="25.000000" x2="499.700000" y2="25.000000"  style="stroke: black; stroke-linecap:round; stroke-width:0.25; stroke-dasharray:3,3;"/>
<text x="448.000000" y="27.000000" font-family="Arial" font-size="7">vgroup(OUTPUT METERS)</text>
<line x1="15.000000" y1="15.000000" x2="15.000000" y2="173.000000"  style="stroke: black; stroke-linecap:round; stroke-width:0.25; stroke-dasharray:3,3;"/>
<line x1="15.000000" y1="173.000000" x2="566.700000" y2="173.000000"  style="stroke: black; stroke-linecap:round; stroke-width:0.25; stroke-dasharray:3,3;"/>
<line x1="566.700000" y1="173.000000" x2="566.700000" y2="15.000000"  style="stroke: black; stroke-linecap:round; stroke-width:0.25; stroke-dasharray:3,3;"/>
<line x1="15.000000" y1="15.000000" x2="20.000000" y2="15.000000"  style="stroke: black; stroke-linecap:round; stroke-width:0.25; stroke-dasharray:3,3;"/>
<line x1="49.025000" y1="15.000000" x2="566.700000" y2="15.000000"  style="stroke: black; stroke-linecap:round; stroke-width:0.25; stroke-dasharray:3,3;"/>
<text x="20.000000" y="17.000000" font-family="Arial" font-size="7">process</text>
<line x1="568.700000" y1="89.000000" x2="571.700000" y2="90.000000"  transform="rotate(0.000000,571.700000,90.000000)" style="stroke: black; stroke-width:0.25;"/>
<line x1="568.700000" y1="91.000000" x2="571.700000" y2="90.000000"  transform="rotate(0.000000,571.700000,90.000000)" style="stroke: black; stroke-width:0.25;"/>
<line x1="568.700000" y1="97.000000" x2="571.700000" y2="98.000000"  transform="rotate(0.000000,571.700000,98.000000)" style="stroke: black; stroke-width:0.25;"/>
<line x1="568.700000" y1="99.000000" x2="571.700000" y2="98.000000"  transform="rotate(0.000000,571.700000,98.000000)" style="stroke: black; stroke-width:0.25;"/>
<line x1="10.000000" y1="94.000000" x2="20.000000" y2="94.000000"  style="stroke:black; stroke-linecap:round; stroke-width:0.25;"/>
<line x1="20.000000" y1="94.000000" x2="24.000000" y2="94.000000"  style="stroke:black; stroke-linecap:round; stroke-width:0.25;"/>
<line x1="24.000000" y1="94.000000" x2="28.000000" y2="94.000000"  style="stroke:black; stroke-linecap:round; stroke-width:0.25;"/>
<line x1="28.000000" y1="78.000000" x2="36.000000" y2="78.000000"  style="stroke:black; stroke-linecap:round; stroke-width:0.25;"/>
<line x1="28.000000" y1="94.000000" x2="28.000000" y2="78.000000"  style="stroke:black; stroke-linecap:round; stroke-width:0.25;"/>
<line x1="28.000000" y1="94.000000" x2="28.000000" y2="94.000000"  style="stroke:black; stroke-linecap:round; stroke-width:0.25;"/>
<line x1="36.000000" y1="78.000000" x2="52.900000" y2="78.000000"  style="stroke:black; stroke-linecap:round; stroke-width:0.25;"/>
<line x1="52.900000" y1="78.000000" x2="69.800000" y2="78.000000"  style="stroke:black; stroke-linecap:round; stroke-width:0.25;"/>
<line x1="65.800000" y1="98.000000" x2="69.800000" y2="98.000000"  style="stroke:black; stroke-linecap:round; stroke-width:0.25;"/>
<line x1="69.800000" y1="78.000000" x2="77.800000" y2="78.000000"  style="stroke:black; stroke-linecap:round; stroke-width:0.25;"/>
<line x1="69.800000" y1="98.000000" x2="77.800000" y2="98.000000"  style="stroke:black; stroke-linecap:round; stroke-width:0.25;"/>
<line x1="77.800000" y1="78.000000" x2="77.800000" y2="90.000000"  style="stroke:black; stroke-linecap:round; stroke-width:0.25;"/>
<line x1="77.800000" y1="90.000000" x2="77.800000" y2="90.000000"  style="stroke:black; stroke-linecap:round; stroke-width:0.25;"/>
<line x1="77.800000" y1="90.000000" x2="81.800000" y2="90.000000"  style="stroke:black; stroke-linecap:round; stroke-width:0.25;"/>
<line x1="77.800000" y1="98.000000" x2="81.800000" y2="98.000000"  style="stroke:black; stroke-linecap:round; stroke-width:0.25;"/>
<line x1="105.800000" y1="94.000000" x2="109.800000" y2="94.000000"  style="stroke:black; stroke-linecap:round; stroke-width:0.25;"/>
<line x1="109.800000" y1="94.000000" x2="109.800000" y2="94.000000"  style="stroke:black; stroke-linecap:round; stroke-width:0.25;"/>
<line x1="109.800000" y1="94.000000" x2="113.800000" y2="94.000000"  style="stroke:black; stroke-linecap:round; stroke-width:0.25;"/>
<line x1="152.500000" y1="94.000000" x2="156.500000" y2="94.000000"  style="stroke:black; stroke-linecap:round; stroke-width:0.25;"/>
<line x1="156.500000" y1="94.000000" x2="203.500000" y2="58.000000"  style="stroke:black; stroke-linecap:round; stroke-width:0.25;"/>
<line x1="156.500000" y1="94.000000" x2="203.500000" y2="114.000000"  style="stroke:black; stroke-linecap:round; stroke-width:0.25;"/>
<line x1="203.500000" y1="58.000000" x2="213.500000" y2="58.000000"  style="stroke:black; stroke-linecap:round; stroke-width:0.25;"/>
<line x1="203.500000" y1="114.000000" x2="213.500000" y2="114.000000"  style="stroke:black; stroke-linecap:round; stroke-width:0.25;"/>
<line x1="213.500000" y1="58.000000" x2="219.950000" y2="58.000000"  style="stroke:black; stroke-linecap:round; stroke-width:0.25;"/>
<line x1="213.500000" y1="114.000000" x2="217.500000" y2="114.000000"  style="stroke:black; stroke-linecap:round; stroke-width:0.25;"/>
<line x1="219.950000" y1="58.000000" x2="223.950000" y2="58.000000"  style="stroke:black; stroke-linecap:round; stroke-width:0.25;"/>
<line x1="249.750000" y1="46.000000" x2="253.750000" y2="46.000000"  style="stroke:black; stroke-linecap:round; stroke-width:0.25;"/>
<line x1="249.750000" y1="54.000000" x2="253.750000" y2="54.000000"  style="stroke:black; stroke-linecap:round; stroke-width:0.25;"/>
<line x1="249.750000" y1="62.000000" x2="253.750000" y2="62.000000"  style="stroke:black; stroke-linecap:round; stroke-width:0.25;"/>
<line x1="249.750000" y1="70.000000" x2="253.750000" y2="70.000000"  style="stroke:black; stroke-linecap:round; stroke-width:0.25;"/>
<line x1="253.750000" y1="46.000000" x2="260.200000" y2="46.000000"  style="stroke:black; stroke-linecap:round; stroke-width:0.25;"/>
<line x1="253.750000" y1="54.000000" x2="260.200000" y2="54.000000"  style="stroke:black; stroke-linecap:round; stroke-width:0.25;"/>
<line x1="253.750000" y1="62.000000" x2="260.200000" y2="62.000000"  style="stroke:black; stroke-linecap:round; stroke-width:0.25;"/>
<line x1="253.750000" y1="70.000000" x2="260.200000" y2="70.000000"  style="stroke:black; stroke-linecap:round; stroke-width:0.25;"/>
<line x1="256.200000" y1="86.000000" x2="260.200000" y2="86.000000"  style="stroke:black; stroke-linecap:round; stroke-width:0.25;"/>
<line x1="256.200000" y1="94.000000" x2="260.200000" y2="94.000000"  style="stroke:black; stroke-linecap:round; stroke-width:0.25;"/>
<line x1="256.200000" y1="102.000000" x2="260.200000" y2="102.000000"  style="stroke:black; stroke-linecap:round; stroke-width:0.25;"/>
<line x1="256.200000" y1="110.000000" x2="260.200000" y2="110.000000"  style="stroke:black; stroke-linecap:round; stroke-width:0.25;"/>
<line x1="256.200000" y1="118.000000" x2="260.200000" y2="118.000000"  style="stroke:black; stroke-linecap:round; stroke-width:0.25;"/>
<line x1="256.200000" y1="126.000000" x2="260.200000" y2="126.000000"  style="stroke:black; stroke-linecap:round; stroke-width:0.25;"/>
<line x1="256.200000" y1="134.000000" x2="260.200000" y2="134.000000"  style="stroke:black; stroke-linecap:round; stroke-width:0.25;"/>
<line x1="256.200000" y1="142.000000" x2="260.200000" y2="142.000000"  style="stroke:black; stroke-linecap:round; stroke-width:0.25;"/>
<line x1="260.200000" y1="46.000000" x2="324.200000" y2="46.000000"  style="stroke:black; stroke-linecap:round; stroke-width:0.25;"/>
<line x1="260.200000" y1="54.000000" x2="324.200000" y2="54.000000"  style="stroke:black; stroke-linecap:round; stroke-width:0.25;"/>
<line x1="260.200000" y1="62.000000" x2="324.200000" y2="62.000000"  style="stroke:black; stroke-linecap:round; stroke-width:0.25;"/>
<line x1="260.200000" y1="70.000000" x2="324.200000" y2="70.000000"  style="stroke:black; stroke-linecap:round; stroke-width:0.25;"/>
<line x1="260.200000" y1="78.000000" x2="324.200000" y2="78.000000"  style="stroke:black; stroke-linecap:round; stroke-width:0.25;"/>
<line x1="260.200000" y1="86.000000" x2="260.200000" y2="78.000000"  style="stroke:black; stroke-linecap:round; stroke-width:0.25;"/>
<line x1="260.200000" y1="86.000000" x2="260.200000" y2="86.000000"  style="stroke:black; stroke-linecap:round; stroke-width:0.25;"/>
<line x1="260.200000" y1="94.000000" x2="268.200000" y2="94.000000"  style="stroke:black; stroke-linecap:round; stroke-width:0.25;"/>
<line x1="260.200000" y1="102.000000" x2="276.200000" y2="102.000000"  style="stroke:black; stroke-linecap:round; stroke-width:0.25;"/>
<line x1="260.200000" y1="110.000000" x2="284.200000" y2="110.000000"  style="stroke:black; stroke-linecap:round; stroke-width:0.25;"/>
<line x1="260.200000" y1="118.000000" x2="292.200000" y2="118.000000"  style="stroke:black; stroke-linecap:round; stroke-width:0.25;"/>
<line x1="260.200000" y1="126.000000" x2="300.200000" y2="126.000000"  style="stroke:black; stroke-linecap:round; stroke-width:0.25;"/>
<line x1="260.200000" y1="134.000000" x2="308.200000" y2="134.000000"  style="stroke:black; stroke-linecap:round; stroke-width:0.25;"/>
<line x1="260.200000" y1="142.000000" x2="316.200000" y2="142.000000"  style="stroke:black; stroke-linecap:round; stroke-width:0.25;"/>
<line x1="268.200000" y1="86.000000" x2="324.200000" y2="86.000000"  style="stroke:black; stroke-linecap:round; stroke-width:0.25;"/>
<line x1="268.200000" y1="94.000000" x2="268.200000" y2="86.000000"  style="stroke:black; stroke-linecap:round; stroke-width:0.25;"/>
<line x1="276.200000" y1="94.000000" x2="324.200000" y2="94.000000"  style="stroke:black; stroke-linecap:round; stroke-width:0.25;"/>
<line x1="276.200000" y1="102.000000" x2="276.200000" y2="94.000000"  style="stroke:black; stroke-linecap:round; stroke-width:0.25;"/>
<line x1="284.200000" y1="102.000000" x2="324.200000" y2="102.000000"  style="stroke:black; stroke-linecap:round; stroke-width:0.25;"/>
<line x1="284.200000" y1="110.000000" x2="284.200000" y2="102.000000"  style="stroke:black; stroke-linecap:round; stroke-width:0.25;"/>
<line x1="292.200000" y1="114.000000" x2="324.200000" y2="114.000000"  style="stroke:black; stroke-linecap:round; stroke-width:0.25;"/>
<line x1="292.200000" y1="118.000000" x2="292.200000" y2="114.000000"  style="stroke:black; stroke-linecap:round; stroke-width:0.25;"/>
<line x1="300.200000" y1="122.000000" x2="324.200000" y2="122.000000"  style="stroke:black; stroke-linecap:round; stroke-width:0.25;"/>
<line x1="300.200000" y1="126.000000" x2="300.200000" y2="122.000000"  style="stroke:black; stroke-linecap:round; stroke-width:0.25;"/>
<line x1="308.200000" y1="130.000000" x2="324.200000" y2="130.000000"  style="stroke:black; stroke-linecap:round; stroke-width:0.25;"/>
<line x1="308.200000" y1="134.000000" x2="308.200000" y2="130.000000"  style="stroke:black; stroke-linecap:round; stroke-width:0.25;"/>
<line x1="316.200000" y1="138.000000" x2="324.200000" y2="138.000000"  style="stroke:black; stroke-linecap:round; stroke-width:0.25;"/>
<line x1="316.200000" y1="142.000000" x2="316.200000" y2="138.000000"  style="stroke:black; stroke-linecap:round; stroke-width:0.25;"/>
<line x1="324.200000" y1="46.000000" x2="341.100000" y2="46.000000"  style="stroke:black; stroke-linecap:round; stroke-width:0.25;"/>
<line x1="324.200000" y1="54.000000" x2="341.100000" y2="54.000000"  style="stroke:black; stroke-linecap:round; stroke-width:0.25;"/>
<line x1="324.200000" y1="62.000000" x2="341.100000" y2="62.000000"  style="stroke:black; stroke-linecap:round; stroke-width:0.25;"/>
<line x1="324.200000" y1="70.000000" x2="341.100000" y2="70.000000"  style="stroke:black; stroke-linecap:round; stroke-width:0.25;"/>
<line x1="324.200000" y1="78.000000" x2="341.100000" y2="78.000000"  style="stroke:black; stroke-linecap:round; stroke-width:0.25;"/>
<line x1="324.200000" y1="86.000000" x2="341.100000" y2="86.000000"  style="stroke:black; stroke-linecap:round; stroke-width:0.25;"/>
<line x1="324.200000" y1="94.000000" x2="341.100000" y2="94.000000"  style="stroke:black; stroke-linecap:round; stroke-width:0.25;"/>
<line x1="324.200000" y1="102.000000" x2="341.100000" y2="102.000000"  style="stroke:black; stroke-linecap:round; stroke-width:0.25;"/>
<line x1="324.200000" y1="114.000000" x2="328.200000" y2="114.000000"  style="stroke:black; stroke-linecap:round; stroke-width:0.25;"/>
<line x1="324.200000" y1="122.000000" x2="328.200000" y2="122.000000"  style="stroke:black; stroke-linecap:round; stroke-width:0.25;"/>
<line x1="324.200000" y1="130.000000" x2="328.200000" y2="130.000000"  style="stroke:black; stroke-linecap:round; stroke-width:0.25;"/>
<line x1="324.200000" y1="138.000000" x2="328.200000" y2="138.000000"  style="stroke:black; stroke-linecap:round; stroke-width:0.25;"/>
<line x1="341.100000" y1="46.000000" x2="358.000000" y2="46.000000"  style="stroke:black; stroke-linecap:round; stroke-width:0.25;"/>
<line x1="341.100000" y1="54.000000" x2="358.000000" y2="54.000000"  style="stroke:black; stroke-linecap:round; stroke-width:0.25;"/>
<line x1="341.100000" y1="62.000000" x2="358.000000" y2="62.000000"  style="stroke:black; stroke-linecap:round; stroke-width:0.25;"/>
<line x1="341.100000" y1="70.000000" x2="358.000000" y2="70.000000"  style="stroke:black; stroke-linecap:round; stroke-width:0.25;"/>
<line x1="341.100000" y1="78.000000" x2="358.000000" y2="78.000000"  style="stroke:black; stroke-linecap:round; stroke-width:0.25;"/>
<line x1="341.100000" y1="86.000000" x2="358.000000" y2="86.000000"  style="stroke:black; stroke-linecap:round; stroke-width:0.25;"/>
<line x1="341.100000" y1="94.000000" x2="358.000000" y2="94.000000"  style="stroke:black; stroke-linecap:round; stroke-width:0.25;"/>
<line x1="341.100000" y1="102.000000" x2="358.000000" y2="102.000000"  style="stroke:black; stroke-linecap:round; stroke-width:0.25;"/>
<line x1="354.000000" y1="114.000000" x2="358.000000" y2="114.000000"  style="stroke:black; stroke-linecap:round; stroke-width:0.25;"/>
<line x1="354.000000" y1="122.000000" x2="358.000000" y2="122.000000"  style="stroke:black; stroke-linecap:round; stroke-width:0.25;"/>
<line x1="354.000000" y1="130.000000" x2="358.000000" y2="130.000000"  style="stroke:black; stroke-linecap:round; stroke-width:0.25;"/>
<line x1="354.000000" y1="138.000000" x2="358.000000" y2="138.000000"  style="stroke:black; stroke-linecap:round; stroke-width:0.25;"/>
<line x1="358.000000" y1="46.000000" x2="368.000000" y2="46.000000"  style="stroke:black; stroke-linecap:round; stroke-width:0.25;"/>
<line x1="358.000000" y1="54.000000" x2="368.000000" y2="54.000000"  style="stroke:black; stroke-linecap:round; stroke-width:0.25;"/>
<line x1="358.000000" y1="62.000000" x2="368.000000" y2="62.000000"  style="stroke:black; stroke-linecap:round; stroke-width:0.25;"/>
<line x1="358.000000" y1="70.000000" x2="368.000000" y2="70.000000"  style="stroke:black; stroke-linecap:round; stroke-width:0.25;"/>
<line x1="358.000000" y1="78.000000" x2="368.000000" y2="78.000000"  style="stroke:black; stroke-linecap:round; stroke-width:0.25;"/>
<line x1="358.000000" y1="86.000000" x2="368.000000" y2="86.000000"  style="stroke:black; stroke-linecap:round; stroke-width:0.25;"/>
<line x1="358.000000" y1="94.000000" x2="368.000000" y2="94.000000"  style="stroke:black; stroke-linecap:round; stroke-width:0.25;"/>
<line x1="358.000000" y1="102.000000" x2="368.000000" y2="102.000000"  style="stroke:black; stroke-linecap:round; stroke-width:0.25;"/>
<line x1="358.000000" y1="114.000000" x2="368.000000" y2="114.000000"  style="stroke:black; stroke-linecap:round; stroke-width:0.25;"/>
<line x1="358.000000" y1="122.000000" x2="368.000000" y2="122.000000"  style="stroke:black; stroke-linecap:round; stroke-width:0.25;"/>
<line x1="358.000000" y1="130.000000" x2="368.000000" y2="130.000000"  style="stroke:black; stroke-linecap:round; stroke-width:0.25;"/>
<line x1="358.000000" y1="138.000000" x2="368.000000" y2="138.000000"  style="stroke:black; stroke-linecap:round; stroke-width:0.25;"/>
<line x1="368.000000" y1="46.000000" x2="438.000000" y2="46.000000"  style="stroke:black; stroke-linecap:round; stroke-width:0.25;"/>
<line x1="368.000000" y1="54.000000" x2="438.000000" y2="78.000000"  style="stroke:black; stroke-linecap:round; stroke-width:0.25;"/>
<line x1="368.000000" y1="62.000000" x2="438.000000" y2="110.000000"  style="stroke:black; stroke-linecap:round; stroke-width:0.25;"/>
<line x1="368.000000" y1="70.000000" x2="438.000000" y2="142.000000"  style="stroke:black; stroke-linecap:round; stroke-width:0.25;"/>
<line x1="368.000000" y1="78.000000" x2="438.000000" y2="46.000000"  style="stroke:black; stroke-linecap:round; stroke-width:0.25;"/>
<line x1="368.000000" y1="86.000000" x2="438.000000" y2="78.000000"  style="stroke:black; stroke-linecap:round; stroke-width:0.25;"/>
<line x1="368.000000" y1="94.000000" x2="438.000000" y2="110.000000"  style="stroke:black; stroke-linecap:round; stroke-width:0.25;"/>
<line x1="368.000000" y1="102.000000" x2="438.000000" y2="142.000000"  style="stroke:black; stroke-linecap:round; stroke-width:0.25;"/>
<line x1="368.000000" y1="114.000000" x2="438.000000" y2="46.000000"  style="stroke:black; stroke-linecap:round; stroke-width:0.25;"/>
<line x1="368.000000" y1="122.000000" x2="438.000000" y2="78.000000"  style="stroke:black; stroke-linecap:round; stroke-width:0.25;"/>
<line x1="368.000000" y1="130.000000" x2="438.000000" y2="110.000000"  style="stroke:black; stroke-linecap:round; stroke-width:0.25;"/>
<line x1="368.000000" y1="138.000000" x2="438.000000" y2="142.000000"  style="stroke:black; stroke-linecap:round; stroke-width:0.25;"/>
<line x1="438.000000" y1="46.000000" x2="448.000000" y2="46.000000"  style="stroke:black; stroke-linecap:round; stroke-width:0.25;"/>
<line x1="438.000000" y1="78.000000" x2="448.000000" y2="78.000000"  style="stroke:black; stroke-linecap:round; stroke-width:0.25;"/>
<line x1="438.000000" y1="110.000000" x2="448.000000" y2="110.000000"  style="stroke:black; stroke-linecap:round; stroke-width:0.25;"/>
<line x1="438.000000" y1="142.000000" x2="448.000000" y2="142.000000"  style="stroke:black; stroke-linecap:round; stroke-width:0.25;"/>
<line x1="448.000000" y1="46.000000" x2="452.000000" y2="46.000000"  style="stroke:black; stroke-linecap:round; stroke-width:0.25;"/>
<line x1="448.000000" y1="78.000000" x2="452.000000" y2="78.000000"  style="stroke:black; stroke-linecap:round; stroke-width:0.25;"/>
<line x1="448.000000" y1="110.000000" x2="452.000000" y2="110.000000"  style="stroke:black; stroke-linecap:round; stroke-width:0.25;"/>
<line x1="448.000000" y1="142.000000" x2="452.000000" y2="142.000000"  style="stroke:black; stroke-linecap:round; stroke-width:0.25;"/>
<line x1="490.700000" y1="46.000000" x2="494.700000" y2="46.000000"  style="stroke:black; stroke-linecap:round; stroke-width:0.25;"/>
<line x1="490.700000" y1="78.000000" x2="494.700000" y2="78.000000"  style="stroke:black; stroke-linecap:round; stroke-width:0.25;"/>
<line x1="490.700000" y1="110.000000" x2="494.700000" y2="110.000000"  style="stroke:black; stroke-linecap:round; stroke-width:0.25;"/>
<line x1="490.700000" y1="142.000000" x2="494.700000" y2="142.000000"  style="stroke:black; stroke-linecap:round; stroke-width:0.25;"/>
<line x1="494.700000" y1="46.000000" x2="504.700000" y2="46.000000"  style="stroke:black; stroke-linecap:round; stroke-width:0.25;"/>
<line x1="494.700000" y1="78.000000" x2="504.700000" y2="78.000000"  style="stroke:black; stroke-linecap:round; stroke-width:0.25;"/>
<line x1="494.700000" y1="110.000000" x2="504.700000" y2="110.000000"  style="stroke:black; stroke-linecap:round; stroke-width:0.25;"/>
<line x1="494.700000" y1="142.000000" x2="504.700000" y2="142.000000"  style="stroke:black; stroke-linecap:round; stroke-width:0.25;"/>
<line x1="504.700000" y1="46.000000" x2="545.700000" y2="90.000000"  style="stroke:black; stroke-linecap:round; stroke-width:0.25;"/>
<line x1="504.700000" y1="78.000000" x2="545.700000" y2="98.000000"  style="stroke:black; stroke-linecap:round; stroke-width:0.25;"/>
<line x1="504.700000" y1="110.000000" x2="545.700000" y2="90.000000"  style="stroke:black; stroke-linecap:round; stroke-width:0.25;"/>
<line x1="504.700000" y1="142.000000" x2="545.700000" y2="98.000000"  style="stroke:black; stroke-linecap:round; stroke-width:0.25;"/>
<line x1="545.700000" y1="90.000000" x2="549.700000" y2="90.000000"  style="stroke:black; stroke-linecap:round; stroke-width:0.25;"/>
<line x1="545.700000" y1="98.000000" x2="549.700000" y2="98.000000"  style="stroke:black; stroke-linecap:round; stroke-width:0.25;"/>
<line x1="549.700000" y1="90.000000" x2="553.700000" y2="90.000000"  style="stroke:black; stroke-linecap:round; stroke-width:0.25;"/>
<line x1="549.700000" y1="98.000000" x2="553.700000" y2="98.000000"  style="stroke:black; stroke-linecap:round; stroke-width:0.25;"/>
<line x1="553.700000" y1="90.000000" x2="553.700000" y2="90.000000"  style="stroke:black; stroke-linecap:round; stroke-width:0.25;"/>
<line x1="553.700000" y1="90.000000" x2="557.700000" y2="90.000000"  style="stroke:black; stroke-linecap:round; stroke-width:0.25;"/>
<line x1="553.700000" y1="98.000000" x2="553.700000" y2="98.000000"  style="stroke:black; stroke-linecap:round; stroke-width:0.25;"/>
<line x1="553.700000" y1="98.000000" x2="557.700000" y2="98.000000"  style="stroke:black; stroke-linecap:round; stroke-width:0.25;"/>
<line x1="557.700000" y1="90.000000" x2="561.700000" y2="90.000000"  style="stroke:black; stroke-linecap:round; stroke-width:0.25;"/>
<line x1="557.700000" y1="98.000000" x2="561.700000" y2="98.000000"  style="stroke:black; stroke-linecap:round; stroke-width:0.25;"/>
<line x1="561.700000" y1="90.000000" x2="571.700000" y2="90.000000"  style="stroke:black; stroke-linecap:round; stroke-width:0.25;"/>
<line x1="561.700000" y1="98.000000" x2="571.700000" y2="98.000000"  style="stroke:black; stroke-linecap:round; stroke-width:0.25;"/>
</svg>
