<?xml version="1.0"?>
<svg xmlns="http://www.w3.org/2000/svg" xmlns:xlink="http://www.w3.org/1999/xlink" viewBox="0 0 157.400000 80.000000" width="78.700000mm" height="40.000000mm" version="1.1">
<rect x="1.000000" y="1.000000" width="156.400000" height="79.000000" rx="0" ry="0" style="stroke:none;fill:#cccccc;"/>
<rect x="0.000000" y="0.000000" width="156.400000" height="79.000000" rx="0" ry="0" style="stroke:none;fill:#ffffff;"/>
<text x="10.000000" y="7.000000" font-family="Arial" font-size="7"></text>
<a xlink:href="input-0x7fc73cdb80f0.svg">
<rect x="33.000000" y="29.000000" width="25.800000" height="24.000000" rx="0" ry="0" style="stroke:none;fill:#cccccc;"/>
<rect x="32.000000" y="28.000000" width="25.800000" height="24.000000" rx="0" ry="0" style="stroke:none;fill:#003366;"/>
</a>
<a xlink:href="input-0x7fc73cdb80f0.svg">
<text x="44.900000" y="42.000000" font-family="Arial" font-size="7" text-anchor="middle" fill="#FFFFFF">input</text>
</a>
<circle cx="34.000000" cy="30.000000" r="1"/>
<line x1="29.000000" y1="39.000000" x2="32.000000" y2="40.000000"  transform="rotate(0.000000,32.000000,40.000000)" style="stroke: black; stroke-width:0.25;"/>
<line x1="29.000000" y1="41.000000" x2="32.000000" y2="40.000000"  transform="rotate(0.000000,32.000000,40.000000)" style="stroke: black; stroke-width:0.25;"/>
<a xlink:href="main-0x7fc73f38d660.svg">
<rect x="66.800000" y="25.000000" width="25.800000" height="32.000000" rx="0" ry="0" style="stroke:none;fill:#cccccc;"/>
<rect x="65.800000" y="24.000000" width="25.800000" height="32.000000" rx="0" ry="0" style="stroke:none;fill:#003366;"/>
</a>
<a xlink:href="main-0x7fc73f38d660.svg">
<text x="78.700000" y="42.000000" font-family="Arial" font-size="7" text-anchor="middle" fill="#FFFFFF">main</text>
</a>
<circle cx="67.800000" cy="26.000000" r="1"/>
<line x1="62.800000" y1="39.000000" x2="65.800000" y2="40.000000"  transform="rotate(0.000000,65.800000,40.000000)" style="stroke: black; stroke-width:0.25;"/>
<line x1="62.800000" y1="41.000000" x2="65.800000" y2="40.000000"  transform="rotate(0.000000,65.800000,40.000000)" style="stroke: black; stroke-width:0.25;"/>
<a xlink:href="outs-0x7fc73f3af1f0.svg">
<rect x="100.600000" y="25.000000" width="25.800000" height="32.000000" rx="0" ry="0" style="stroke:none;fill:#cccccc;"/>
<rect x="99.600000" y="24.000000" width="25.800000" height="32.000000" rx="0" ry="0" style="stroke:none;fill:#003366;"/>
</a>
<a xlink:href="outs-0x7fc73f3af1f0.svg">
<text x="112.500000" y="42.000000" font-family="Arial" font-size="7" text-anchor="middle" fill="#FFFFFF">outs</text>
</a>
<circle cx="101.600000" cy="26.000000" r="1"/>
<line x1="96.600000" y1="27.000000" x2="99.600000" y2="28.000000"  transform="rotate(0.000000,99.600000,28.000000)" style="stroke: black; stroke-width:0.25;"/>
<line x1="96.600000" y1="29.000000" x2="99.600000" y2="28.000000"  transform="rotate(0.000000,99.600000,28.000000)" style="stroke: black; stroke-width:0.25;"/>
<line x1="96.600000" y1="35.000000" x2="99.600000" y2="36.000000"  transform="rotate(0.000000,99.600000,36.000000)" style="stroke: black; stroke-width:0.25;"/>
<line x1="96.600000" y1="37.000000" x2="99.600000" y2="36.000000"  transform="rotate(0.000000,99.600000,36.000000)" style="stroke: black; stroke-width:0.25;"/>
<line x1="96.600000" y1="43.000000" x2="99.600000" y2="44.000000"  transform="rotate(0.000000,99.600000,44.000000)" style="stroke: black; stroke-width:0.25;"/>
<line x1="96.600000" y1="45.000000" x2="99.600000" y2="44.000000"  transform="rotate(0.000000,99.600000,44.000000)" style="stroke: black; stroke-width:0.25;"/>
<line x1="96.600000" y1="51.000000" x2="99.600000" y2="52.000000"  transform="rotate(0.000000,99.600000,52.000000)" style="stroke: black; stroke-width:0.25;"/>
<line x1="96.600000" y1="53.000000" x2="99.600000" y2="52.000000"  transform="rotate(0.000000,99.600000,52.000000)" style="stroke: black; stroke-width:0.25;"/>
<line x1="15.000000" y1="15.000000" x2="15.000000" y2="65.000000"  style="stroke: black; stroke-linecap:round; stroke-width:0.25; stroke-dasharray:3,3;"/>
<line x1="15.000000" y1="65.000000" x2="142.400000" y2="65.000000"  style="stroke: black; stroke-linecap:round; stroke-width:0.25; stroke-dasharray:3,3;"/>
<line x1="142.400000" y1="65.000000" x2="142.400000" y2="15.000000"  style="stroke: black; stroke-linecap:round; stroke-width:0.25; stroke-dasharray:3,3;"/>
<line x1="15.000000" y1="15.000000" x2="20.000000" y2="15.000000"  style="stroke: black; stroke-linecap:round; stroke-width:0.25; stroke-dasharray:3,3;"/>
<line x1="49.025000" y1="15.000000" x2="142.400000" y2="15.000000"  style="stroke: black; stroke-linecap:round; stroke-width:0.25; stroke-dasharray:3,3;"/>
<text x="20.000000" y="17.000000" font-family="Arial" font-size="7">process</text>
<line x1="144.400000" y1="27.000000" x2="147.400000" y2="28.000000"  transform="rotate(0.000000,147.400000,28.000000)" style="stroke: black; stroke-width:0.25;"/>
<line x1="144.400000" y1="29.000000" x2="147.400000" y2="28.000000"  transform="rotate(0.000000,147.400000,28.000000)" style="stroke: black; stroke-width:0.25;"/>
<line x1="144.400000" y1="35.000000" x2="147.400000" y2="36.000000"  transform="rotate(0.000000,147.400000,36.000000)" style="stroke: black; stroke-width:0.25;"/>
<line x1="144.400000" y1="37.000000" x2="147.400000" y2="36.000000"  transform="rotate(0.000000,147.400000,36.000000)" style="stroke: black; stroke-width:0.25;"/>
<line x1="144.400000" y1="43.000000" x2="147.400000" y2="44.000000"  transform="rotate(0.000000,147.400000,44.000000)" style="stroke: black; stroke-width:0.25;"/>
<line x1="144.400000" y1="45.000000" x2="147.400000" y2="44.000000"  transform="rotate(0.000000,147.400000,44.000000)" style="stroke: black; stroke-width:0.25;"/>
<line x1="144.400000" y1="51.000000" x2="147.400000" y2="52.000000"  transform="rotate(0.000000,147.400000,52.000000)" style="stroke: black; stroke-width:0.25;"/>
<line x1="144.400000" y1="53.000000" x2="147.400000" y2="52.000000"  transform="rotate(0.000000,147.400000,52.000000)" style="stroke: black; stroke-width:0.25;"/>
<line x1="10.000000" y1="40.000000" x2="20.000000" y2="40.000000"  style="stroke:black; stroke-linecap:round; stroke-width:0.25;"/>
<line x1="20.000000" y1="40.000000" x2="24.000000" y2="40.000000"  style="stroke:black; stroke-linecap:round; stroke-width:0.25;"/>
<line x1="24.000000" y1="40.000000" x2="28.000000" y2="40.000000"  style="stroke:black; stroke-linecap:round; stroke-width:0.25;"/>
<line x1="28.000000" y1="40.000000" x2="28.000000" y2="40.000000"  style="stroke:black; stroke-linecap:round; stroke-width:0.25;"/>
<line x1="28.000000" y1="40.000000" x2="32.000000" y2="40.000000"  style="stroke:black; stroke-linecap:round; stroke-width:0.25;"/>
<line x1="57.800000" y1="40.000000" x2="61.800000" y2="40.000000"  style="stroke:black; stroke-linecap:round; stroke-width:0.25;"/>
<line x1="61.800000" y1="40.000000" x2="61.800000" y2="40.000000"  style="stroke:black; stroke-linecap:round; stroke-width:0.25;"/>
<line x1="61.800000" y1="40.000000" x2="65.800000" y2="40.000000"  style="stroke:black; stroke-linecap:round; stroke-width:0.25;"/>
<line x1="91.600000" y1="28.000000" x2="95.600000" y2="28.000000"  style="stroke:black; stroke-linecap:round; stroke-width:0.25;"/>
<line x1="91.600000" y1="36.000000" x2="95.600000" y2="36.000000"  style="stroke:black; stroke-linecap:round; stroke-width:0.25;"/>
<line x1="91.600000" y1="44.000000" x2="95.600000" y2="44.000000"  style="stroke:black; stroke-linecap:round; stroke-width:0.25;"/>
<line x1="91.600000" y1="52.000000" x2="95.600000" y2="52.000000"  style="stroke:black; stroke-linecap:round; stroke-width:0.25;"/>
<line x1="95.600000" y1="28.000000" x2="95.600000" y2="28.000000"  style="stroke:black; stroke-linecap:round; stroke-width:0.25;"/>
<line x1="95.600000" y1="28.000000" x2="99.600000" y2="28.000000"  style="stroke:black; stroke-linecap:round; stroke-width:0.25;"/>
<line x1="95.600000" y1="36.000000" x2="95.600000" y2="36.000000"  style="stroke:black; stroke-linecap:round; stroke-width:0.25;"/>
<line x1="95.600000" y1="36.000000" x2="99.600000" y2="36.000000"  style="stroke:black; stroke-linecap:round; stroke-width:0.25;"/>
<line x1="95.600000" y1="44.000000" x2="95.600000" y2="44.000000"  style="stroke:black; stroke-linecap:round; stroke-width:0.25;"/>
<line x1="95.600000" y1="44.000000" x2="99.600000" y2="44.000000"  style="stroke:black; stroke-linecap:round; stroke-width:0.25;"/>
<line x1="95.600000" y1="52.000000" x2="95.600000" y2="52.000000"  style="stroke:black; stroke-linecap:round; stroke-width:0.25;"/>
<line x1="95.600000" y1="52.000000" x2="99.600000" y2="52.000000"  style="stroke:black; stroke-linecap:round; stroke-width:0.25;"/>
<line x1="125.400000" y1="28.000000" x2="129.400000" y2="28.000000"  style="stroke:black; stroke-linecap:round; stroke-width:0.25;"/>
<line x1="125.400000" y1="36.000000" x2="129.400000" y2="36.000000"  style="stroke:black; stroke-linecap:round; stroke-width:0.25;"/>
<line x1="125.400000" y1="44.000000" x2="129.400000" y2="44.000000"  style="stroke:black; stroke-linecap:round; stroke-width:0.25;"/>
<line x1="125.400000" y1="52.000000" x2="129.400000" y2="52.000000"  style="stroke:black; stroke-linecap:round; stroke-width:0.25;"/>
<line x1="129.400000" y1="28.000000" x2="129.400000" y2="28.000000"  style="stroke:black; stroke-linecap:round; stroke-width:0.25;"/>
<line x1="129.400000" y1="28.000000" x2="133.400000" y2="28.000000"  style="stroke:black; stroke-linecap:round; stroke-width:0.25;"/>
<line x1="129.400000" y1="36.000000" x2="129.400000" y2="36.000000"  style="stroke:black; stroke-linecap:round; stroke-width:0.25;"/>
<line x1="129.400000" y1="36.000000" x2="133.400000" y2="36.000000"  style="stroke:black; stroke-linecap:round; stroke-width:0.25;"/>
<line x1="129.400000" y1="44.000000" x2="129.400000" y2="44.000000"  style="stroke:black; stroke-linecap:round; stroke-width:0.25;"/>
<line x1="129.400000" y1="44.000000" x2="133.400000" y2="44.000000"  style="stroke:black; stroke-linecap:round; stroke-width:0.25;"/>
<line x1="129.400000" y1="52.000000" x2="129.400000" y2="52.000000"  style="stroke:black; stroke-linecap:round; stroke-width:0.25;"/>
<line x1="129.400000" y1="52.000000" x2="133.400000" y2="52.000000"  style="stroke:black; stroke-linecap:round; stroke-width:0.25;"/>
<line x1="133.400000" y1="28.000000" x2="137.400000" y2="28.000000"  style="stroke:black; stroke-linecap:round; stroke-width:0.25;"/>
<line x1="133.400000" y1="36.000000" x2="137.400000" y2="36.000000"  style="stroke:black; stroke-linecap:round; stroke-width:0.25;"/>
<line x1="133.400000" y1="44.000000" x2="137.400000" y2="44.000000"  style="stroke:black; stroke-linecap:round; stroke-width:0.25;"/>
<line x1="133.400000" y1="52.000000" x2="137.400000" y2="52.000000"  style="stroke:black; stroke-linecap:round; stroke-width:0.25;"/>
<line x1="137.400000" y1="28.000000" x2="147.400000" y2="28.000000"  style="stroke:black; stroke-linecap:round; stroke-width:0.25;"/>
<line x1="137.400000" y1="36.000000" x2="147.400000" y2="36.000000"  style="stroke:black; stroke-linecap:round; stroke-width:0.25;"/>
<line x1="137.400000" y1="44.000000" x2="147.400000" y2="44.000000"  style="stroke:black; stroke-linecap:round; stroke-width:0.25;"/>
<line x1="137.400000" y1="52.000000" x2="147.400000" y2="52.000000"  style="stroke:black; stroke-linecap:round; stroke-width:0.25;"/>
</svg>
