<?xml version="1.0"?>
<svg xmlns="http://www.w3.org/2000/svg" xmlns:xlink="http://www.w3.org/1999/xlink" viewBox="0 0 484.600000 176.000000" width="242.300000mm" height="88.000000mm" version="1.1">
<a xlink:href="main-0x7f84353447b0.svg">
<rect x="1.000000" y="1.000000" width="483.600000" height="175.000000" rx="0" ry="0" style="stroke:none;fill:#cccccc;"/>
<rect x="0.000000" y="0.000000" width="483.600000" height="175.000000" rx="0" ry="0" style="stroke:none;fill:#ffffff;"/>
</a>
<text x="10.000000" y="7.000000" font-family="Arial" font-size="7"></text>
<rect x="33.000000" y="77.000000" width="24.000000" height="24.000000" rx="0" ry="0" style="stroke:none;fill:#cccccc;"/>
<rect x="32.000000" y="76.000000" width="24.000000" height="24.000000" rx="0" ry="0" style="stroke:none;fill:#47945E;"/>
<text x="44.000000" y="90.000000" font-family="Arial" font-size="7" text-anchor="middle" fill="#FFFFFF">x</text>
<circle cx="34.000000" cy="78.000000" r="1"/>
<line x1="29.000000" y1="87.000000" x2="32.000000" y2="88.000000"  transform="rotate(0.000000,32.000000,88.000000)" style="stroke: black; stroke-width:0.25;"/>
<line x1="29.000000" y1="89.000000" x2="32.000000" y2="88.000000"  transform="rotate(0.000000,32.000000,88.000000)" style="stroke: black; stroke-width:0.25;"/>
<a xlink:href="fdelayltv-0x7f8435329c20.svg">
<rect x="65.000000" y="77.000000" width="154.800000" height="24.000000" rx="0" ry="0" style="stroke:none;fill:#cccccc;"/>
<rect x="64.000000" y="76.000000" width="154.800000" height="24.000000" rx="0" ry="0" style="stroke:none;fill:#003366;"/>
</a>
<a xlink:href="fdelayltv-0x7f8435329c20.svg">
<text x="141.400000" y="90.000000" font-family="Arial" font-size="7" text-anchor="middle" fill="#FFFFFF">fdelayltv(1)(...in) : *) : *)(x48)</text>
</a>
<circle cx="66.000000" cy="78.000000" r="1"/>
<a xlink:href="gain-0x7f8435326bf0.svg">
<rect x="235.800000" y="81.000000" width="25.800000" height="24.000000" rx="0" ry="0" style="stroke:none;fill:#cccccc;"/>
<rect x="234.800000" y="80.000000" width="25.800000" height="24.000000" rx="0" ry="0" style="stroke:none;fill:#003366;"/>
</a>
<a xlink:href="gain-0x7f8435326bf0.svg">
<text x="247.700000" y="94.000000" font-family="Arial" font-size="7" text-anchor="middle" fill="#FFFFFF">gain</text>
</a>
<circle cx="236.800000" cy="82.000000" r="1"/>
<rect x="277.600000" y="77.000000" width="24.000000" height="24.000000" rx="0" ry="0" style="stroke:none;fill:#cccccc;"/>
<rect x="276.600000" y="76.000000" width="24.000000" height="24.000000" rx="0" ry="0" style="stroke:none;fill:#4B71A1;"/>
<text x="288.600000" y="90.000000" font-family="Arial" font-size="7" text-anchor="middle" fill="#FFFFFF">*</text>
<circle cx="278.600000" cy="78.000000" r="1"/>
<line x1="273.600000" y1="83.000000" x2="276.600000" y2="84.000000"  transform="rotate(0.000000,276.600000,84.000000)" style="stroke: black; stroke-width:0.25;"/>
<line x1="273.600000" y1="85.000000" x2="276.600000" y2="84.000000"  transform="rotate(0.000000,276.600000,84.000000)" style="stroke: black; stroke-width:0.25;"/>
<line x1="273.600000" y1="91.000000" x2="276.600000" y2="92.000000"  transform="rotate(0.000000,276.600000,92.000000)" style="stroke: black; stroke-width:0.25;"/>
<line x1="273.600000" y1="93.000000" x2="276.600000" y2="92.000000"  transform="rotate(0.000000,276.600000,92.000000)" style="stroke: black; stroke-width:0.25;"/>
<rect x="363.600000" y="51.000000" width="24.000000" height="24.000000" rx="0" ry="0" style="stroke:none;fill:#cccccc;"/>
<rect x="362.600000" y="50.000000" width="24.000000" height="24.000000" rx="0" ry="0" style="stroke:none;fill:#f44800;"/>
<text x="374.600000" y="64.000000" font-family="Arial" font-size="7" text-anchor="middle" fill="#FFFFFF">0</text>
<circle cx="364.600000" cy="52.000000" r="1"/>
<line x1="353.600000" y1="41.000000" x2="353.600000" y2="83.000000"  style="stroke: black; stroke-linecap:round; stroke-width:0.25; stroke-dasharray:3,3;"/>
<line x1="353.600000" y1="83.000000" x2="395.600000" y2="83.000000"  style="stroke: black; stroke-linecap:round; stroke-width:0.25; stroke-dasharray:3,3;"/>
<line x1="395.600000" y1="83.000000" x2="395.600000" y2="41.000000"  style="stroke: black; stroke-linecap:round; stroke-width:0.25; stroke-dasharray:3,3;"/>
<line x1="353.600000" y1="41.000000" x2="358.600000" y2="41.000000"  style="stroke: black; stroke-linecap:round; stroke-width:0.25; stroke-dasharray:3,3;"/>
<line x1="384.400000" y1="41.000000" x2="395.600000" y2="41.000000"  style="stroke: black; stroke-linecap:round; stroke-width:0.25; stroke-dasharray:3,3;"/>
<text x="358.600000" y="43.000000" font-family="Arial" font-size="7">parity</text>
<rect x="413.600000" y="47.000000" width="24.000000" height="24.000000" rx="0" ry="0" style="stroke:none;fill:#cccccc;"/>
<rect x="412.600000" y="46.000000" width="24.000000" height="24.000000" rx="0" ry="0" style="stroke:none;fill:#4B71A1;"/>
<text x="424.600000" y="60.000000" font-family="Arial" font-size="7" text-anchor="middle" fill="#FFFFFF">*</text>
<circle cx="414.600000" cy="48.000000" r="1"/>
<line x1="409.600000" y1="53.000000" x2="412.600000" y2="54.000000"  transform="rotate(0.000000,412.600000,54.000000)" style="stroke: black; stroke-width:0.25;"/>
<line x1="409.600000" y1="55.000000" x2="412.600000" y2="54.000000"  transform="rotate(0.000000,412.600000,54.000000)" style="stroke: black; stroke-width:0.25;"/>
<line x1="409.600000" y1="61.000000" x2="412.600000" y2="62.000000"  transform="rotate(0.000000,412.600000,62.000000)" style="stroke: black; stroke-width:0.25;"/>
<line x1="409.600000" y1="63.000000" x2="412.600000" y2="62.000000"  transform="rotate(0.000000,412.600000,62.000000)" style="stroke: black; stroke-width:0.25;"/>
<rect x="363.600000" y="119.000000" width="24.000000" height="24.000000" rx="0" ry="0" style="stroke:none;fill:#cccccc;"/>
<rect x="362.600000" y="118.000000" width="24.000000" height="24.000000" rx="0" ry="0" style="stroke:none;fill:#f44800;"/>
<text x="374.600000" y="132.000000" font-family="Arial" font-size="7" text-anchor="middle" fill="#FFFFFF">0</text>
<circle cx="364.600000" cy="120.000000" r="1"/>
<line x1="353.600000" y1="109.000000" x2="353.600000" y2="151.000000"  style="stroke: black; stroke-linecap:round; stroke-width:0.25; stroke-dasharray:3,3;"/>
<line x1="353.600000" y1="151.000000" x2="395.600000" y2="151.000000"  style="stroke: black; stroke-linecap:round; stroke-width:0.25; stroke-dasharray:3,3;"/>
<line x1="395.600000" y1="151.000000" x2="395.600000" y2="109.000000"  style="stroke: black; stroke-linecap:round; stroke-width:0.25; stroke-dasharray:3,3;"/>
<line x1="353.600000" y1="109.000000" x2="358.600000" y2="109.000000"  style="stroke: black; stroke-linecap:round; stroke-width:0.25; stroke-dasharray:3,3;"/>
<line x1="384.400000" y1="109.000000" x2="395.600000" y2="109.000000"  style="stroke: black; stroke-linecap:round; stroke-width:0.25; stroke-dasharray:3,3;"/>
<text x="358.600000" y="111.000000" font-family="Arial" font-size="7">parity</text>
<rect x="413.600000" y="115.000000" width="24.000000" height="24.000000" rx="0" ry="0" style="stroke:none;fill:#cccccc;"/>
<rect x="412.600000" y="114.000000" width="24.000000" height="24.000000" rx="0" ry="0" style="stroke:none;fill:#4B71A1;"/>
<text x="424.600000" y="128.000000" font-family="Arial" font-size="7" text-anchor="middle" fill="#FFFFFF">*</text>
<circle cx="414.600000" cy="116.000000" r="1"/>
<line x1="409.600000" y1="121.000000" x2="412.600000" y2="122.000000"  transform="rotate(0.000000,412.600000,122.000000)" style="stroke: black; stroke-width:0.25;"/>
<line x1="409.600000" y1="123.000000" x2="412.600000" y2="122.000000"  transform="rotate(0.000000,412.600000,122.000000)" style="stroke: black; stroke-width:0.25;"/>
<line x1="409.600000" y1="129.000000" x2="412.600000" y2="130.000000"  transform="rotate(0.000000,412.600000,130.000000)" style="stroke: black; stroke-width:0.25;"/>
<line x1="409.600000" y1="131.000000" x2="412.600000" y2="130.000000"  transform="rotate(0.000000,412.600000,130.000000)" style="stroke: black; stroke-width:0.25;"/>
<line x1="15.000000" y1="15.000000" x2="15.000000" y2="161.000000"  style="stroke: black; stroke-linecap:round; stroke-width:0.25; stroke-dasharray:3,3;"/>
<line x1="15.000000" y1="161.000000" x2="469.600000" y2="161.000000"  style="stroke: black; stroke-linecap:round; stroke-width:0.25; stroke-dasharray:3,3;"/>
<line x1="469.600000" y1="161.000000" x2="469.600000" y2="15.000000"  style="stroke: black; stroke-linecap:round; stroke-width:0.25; stroke-dasharray:3,3;"/>
<line x1="15.000000" y1="15.000000" x2="20.000000" y2="15.000000"  style="stroke: black; stroke-linecap:round; stroke-width:0.25; stroke-dasharray:3,3;"/>
<line x1="39.350000" y1="15.000000" x2="469.600000" y2="15.000000"  style="stroke: black; stroke-linecap:round; stroke-width:0.25; stroke-dasharray:3,3;"/>
<text x="20.000000" y="17.000000" font-family="Arial" font-size="7">qaqf</text>
<line x1="471.600000" y1="75.000000" x2="474.600000" y2="76.000000"  transform="rotate(0.000000,474.600000,76.000000)" style="stroke: black; stroke-width:0.25;"/>
<line x1="471.600000" y1="77.000000" x2="474.600000" y2="76.000000"  transform="rotate(0.000000,474.600000,76.000000)" style="stroke: black; stroke-width:0.25;"/>
<line x1="471.600000" y1="83.000000" x2="474.600000" y2="84.000000"  transform="rotate(0.000000,474.600000,84.000000)" style="stroke: black; stroke-width:0.25;"/>
<line x1="471.600000" y1="85.000000" x2="474.600000" y2="84.000000"  transform="rotate(0.000000,474.600000,84.000000)" style="stroke: black; stroke-width:0.25;"/>
<line x1="471.600000" y1="91.000000" x2="474.600000" y2="92.000000"  transform="rotate(0.000000,474.600000,92.000000)" style="stroke: black; stroke-width:0.25;"/>
<line x1="471.600000" y1="93.000000" x2="474.600000" y2="92.000000"  transform="rotate(0.000000,474.600000,92.000000)" style="stroke: black; stroke-width:0.25;"/>
<line x1="471.600000" y1="99.000000" x2="474.600000" y2="100.000000"  transform="rotate(0.000000,474.600000,100.000000)" style="stroke: black; stroke-width:0.25;"/>
<line x1="471.600000" y1="101.000000" x2="474.600000" y2="100.000000"  transform="rotate(0.000000,474.600000,100.000000)" style="stroke: black; stroke-width:0.25;"/>
<line x1="10.000000" y1="88.000000" x2="20.000000" y2="88.000000"  style="stroke:black; stroke-linecap:round; stroke-width:0.25;"/>
<line x1="20.000000" y1="88.000000" x2="24.000000" y2="88.000000"  style="stroke:black; stroke-linecap:round; stroke-width:0.25;"/>
<line x1="24.000000" y1="88.000000" x2="28.000000" y2="88.000000"  style="stroke:black; stroke-linecap:round; stroke-width:0.25;"/>
<line x1="28.000000" y1="88.000000" x2="28.000000" y2="88.000000"  style="stroke:black; stroke-linecap:round; stroke-width:0.25;"/>
<line x1="28.000000" y1="88.000000" x2="32.000000" y2="88.000000"  style="stroke:black; stroke-linecap:round; stroke-width:0.25;"/>
<line x1="218.800000" y1="88.000000" x2="222.800000" y2="88.000000"  style="stroke:black; stroke-linecap:round; stroke-width:0.25;"/>
<line x1="222.800000" y1="72.000000" x2="230.800000" y2="72.000000"  style="stroke:black; stroke-linecap:round; stroke-width:0.25;"/>
<line x1="222.800000" y1="88.000000" x2="222.800000" y2="72.000000"  style="stroke:black; stroke-linecap:round; stroke-width:0.25;"/>
<line x1="222.800000" y1="88.000000" x2="222.800000" y2="88.000000"  style="stroke:black; stroke-linecap:round; stroke-width:0.25;"/>
<line x1="230.800000" y1="72.000000" x2="247.700000" y2="72.000000"  style="stroke:black; stroke-linecap:round; stroke-width:0.25;"/>
<line x1="247.700000" y1="72.000000" x2="264.600000" y2="72.000000"  style="stroke:black; stroke-linecap:round; stroke-width:0.25;"/>
<line x1="260.600000" y1="92.000000" x2="264.600000" y2="92.000000"  style="stroke:black; stroke-linecap:round; stroke-width:0.25;"/>
<line x1="264.600000" y1="72.000000" x2="272.600000" y2="72.000000"  style="stroke:black; stroke-linecap:round; stroke-width:0.25;"/>
<line x1="264.600000" y1="92.000000" x2="272.600000" y2="92.000000"  style="stroke:black; stroke-linecap:round; stroke-width:0.25;"/>
<line x1="272.600000" y1="72.000000" x2="272.600000" y2="84.000000"  style="stroke:black; stroke-linecap:round; stroke-width:0.25;"/>
<line x1="272.600000" y1="84.000000" x2="272.600000" y2="84.000000"  style="stroke:black; stroke-linecap:round; stroke-width:0.25;"/>
<line x1="272.600000" y1="84.000000" x2="276.600000" y2="84.000000"  style="stroke:black; stroke-linecap:round; stroke-width:0.25;"/>
<line x1="272.600000" y1="92.000000" x2="276.600000" y2="92.000000"  style="stroke:black; stroke-linecap:round; stroke-width:0.25;"/>
<line x1="300.600000" y1="88.000000" x2="304.600000" y2="88.000000"  style="stroke:black; stroke-linecap:round; stroke-width:0.25;"/>
<line x1="304.600000" y1="88.000000" x2="348.600000" y2="24.000000"  style="stroke:black; stroke-linecap:round; stroke-width:0.25;"/>
<line x1="304.600000" y1="88.000000" x2="348.600000" y2="32.000000"  style="stroke:black; stroke-linecap:round; stroke-width:0.25;"/>
<line x1="304.600000" y1="88.000000" x2="348.600000" y2="92.000000"  style="stroke:black; stroke-linecap:round; stroke-width:0.25;"/>
<line x1="304.600000" y1="88.000000" x2="348.600000" y2="100.000000"  style="stroke:black; stroke-linecap:round; stroke-width:0.25;"/>
<line x1="348.600000" y1="24.000000" x2="394.600000" y2="24.000000"  style="stroke:black; stroke-linecap:round; stroke-width:0.25;"/>
<line x1="348.600000" y1="32.000000" x2="374.600000" y2="32.000000"  style="stroke:black; stroke-linecap:round; stroke-width:0.25;"/>
<line x1="348.600000" y1="92.000000" x2="394.600000" y2="92.000000"  style="stroke:black; stroke-linecap:round; stroke-width:0.25;"/>
<line x1="348.600000" y1="100.000000" x2="374.600000" y2="100.000000"  style="stroke:black; stroke-linecap:round; stroke-width:0.25;"/>
<line x1="374.600000" y1="32.000000" x2="400.600000" y2="32.000000"  style="stroke:black; stroke-linecap:round; stroke-width:0.25;"/>
<line x1="374.600000" y1="100.000000" x2="400.600000" y2="100.000000"  style="stroke:black; stroke-linecap:round; stroke-width:0.25;"/>
<line x1="386.600000" y1="62.000000" x2="390.600000" y2="62.000000"  style="stroke:black; stroke-linecap:round; stroke-width:0.25;"/>
<line x1="386.600000" y1="130.000000" x2="390.600000" y2="130.000000"  style="stroke:black; stroke-linecap:round; stroke-width:0.25;"/>
<line x1="390.600000" y1="62.000000" x2="400.600000" y2="62.000000"  style="stroke:black; stroke-linecap:round; stroke-width:0.25;"/>
<line x1="390.600000" y1="130.000000" x2="400.600000" y2="130.000000"  style="stroke:black; stroke-linecap:round; stroke-width:0.25;"/>
<line x1="394.600000" y1="24.000000" x2="440.600000" y2="24.000000"  style="stroke:black; stroke-linecap:round; stroke-width:0.25;"/>
<line x1="394.600000" y1="92.000000" x2="440.600000" y2="92.000000"  style="stroke:black; stroke-linecap:round; stroke-width:0.25;"/>
<line x1="400.600000" y1="32.000000" x2="408.600000" y2="32.000000"  style="stroke:black; stroke-linecap:round; stroke-width:0.25;"/>
<line x1="400.600000" y1="62.000000" x2="408.600000" y2="62.000000"  style="stroke:black; stroke-linecap:round; stroke-width:0.25;"/>
<line x1="400.600000" y1="100.000000" x2="408.600000" y2="100.000000"  style="stroke:black; stroke-linecap:round; stroke-width:0.25;"/>
<line x1="400.600000" y1="130.000000" x2="408.600000" y2="130.000000"  style="stroke:black; stroke-linecap:round; stroke-width:0.25;"/>
<line x1="408.600000" y1="32.000000" x2="408.600000" y2="54.000000"  style="stroke:black; stroke-linecap:round; stroke-width:0.25;"/>
<line x1="408.600000" y1="54.000000" x2="408.600000" y2="54.000000"  style="stroke:black; stroke-linecap:round; stroke-width:0.25;"/>
<line x1="408.600000" y1="54.000000" x2="412.600000" y2="54.000000"  style="stroke:black; stroke-linecap:round; stroke-width:0.25;"/>
<line x1="408.600000" y1="62.000000" x2="412.600000" y2="62.000000"  style="stroke:black; stroke-linecap:round; stroke-width:0.25;"/>
<line x1="408.600000" y1="100.000000" x2="408.600000" y2="122.000000"  style="stroke:black; stroke-linecap:round; stroke-width:0.25;"/>
<line x1="408.600000" y1="122.000000" x2="408.600000" y2="122.000000"  style="stroke:black; stroke-linecap:round; stroke-width:0.25;"/>
<line x1="408.600000" y1="122.000000" x2="412.600000" y2="122.000000"  style="stroke:black; stroke-linecap:round; stroke-width:0.25;"/>
<line x1="408.600000" y1="130.000000" x2="412.600000" y2="130.000000"  style="stroke:black; stroke-linecap:round; stroke-width:0.25;"/>
<line x1="436.600000" y1="58.000000" x2="440.600000" y2="58.000000"  style="stroke:black; stroke-linecap:round; stroke-width:0.25;"/>
<line x1="436.600000" y1="126.000000" x2="440.600000" y2="126.000000"  style="stroke:black; stroke-linecap:round; stroke-width:0.25;"/>
<line x1="440.600000" y1="24.000000" x2="456.600000" y2="24.000000"  style="stroke:black; stroke-linecap:round; stroke-width:0.25;"/>
<line x1="440.600000" y1="58.000000" x2="448.600000" y2="58.000000"  style="stroke:black; stroke-linecap:round; stroke-width:0.25;"/>
<line x1="440.600000" y1="92.000000" x2="456.600000" y2="92.000000"  style="stroke:black; stroke-linecap:round; stroke-width:0.25;"/>
<line x1="440.600000" y1="100.000000" x2="456.600000" y2="100.000000"  style="stroke:black; stroke-linecap:round; stroke-width:0.25;"/>
<line x1="440.600000" y1="126.000000" x2="440.600000" y2="100.000000"  style="stroke:black; stroke-linecap:round; stroke-width:0.25;"/>
<line x1="440.600000" y1="126.000000" x2="440.600000" y2="126.000000"  style="stroke:black; stroke-linecap:round; stroke-width:0.25;"/>
<line x1="448.600000" y1="58.000000" x2="448.600000" y2="84.000000"  style="stroke:black; stroke-linecap:round; stroke-width:0.25;"/>
<line x1="448.600000" y1="84.000000" x2="456.600000" y2="84.000000"  style="stroke:black; stroke-linecap:round; stroke-width:0.25;"/>
<line x1="456.600000" y1="24.000000" x2="456.600000" y2="76.000000"  style="stroke:black; stroke-linecap:round; stroke-width:0.25;"/>
<line x1="456.600000" y1="76.000000" x2="456.600000" y2="76.000000"  style="stroke:black; stroke-linecap:round; stroke-width:0.25;"/>
<line x1="456.600000" y1="76.000000" x2="460.600000" y2="76.000000"  style="stroke:black; stroke-linecap:round; stroke-width:0.25;"/>
<line x1="456.600000" y1="84.000000" x2="460.600000" y2="84.000000"  style="stroke:black; stroke-linecap:round; stroke-width:0.25;"/>
<line x1="456.600000" y1="92.000000" x2="460.600000" y2="92.000000"  style="stroke:black; stroke-linecap:round; stroke-width:0.25;"/>
<line x1="456.600000" y1="100.000000" x2="460.600000" y2="100.000000"  style="stroke:black; stroke-linecap:round; stroke-width:0.25;"/>
<line x1="460.600000" y1="76.000000" x2="464.600000" y2="76.000000"  style="stroke:black; stroke-linecap:round; stroke-width:0.25;"/>
<line x1="460.600000" y1="84.000000" x2="464.600000" y2="84.000000"  style="stroke:black; stroke-linecap:round; stroke-width:0.25;"/>
<line x1="460.600000" y1="92.000000" x2="464.600000" y2="92.000000"  style="stroke:black; stroke-linecap:round; stroke-width:0.25;"/>
<line x1="460.600000" y1="100.000000" x2="464.600000" y2="100.000000"  style="stroke:black; stroke-linecap:round; stroke-width:0.25;"/>
<line x1="464.600000" y1="76.000000" x2="474.600000" y2="76.000000"  style="stroke:black; stroke-linecap:round; stroke-width:0.25;"/>
<line x1="464.600000" y1="84.000000" x2="474.600000" y2="84.000000"  style="stroke:black; stroke-linecap:round; stroke-width:0.25;"/>
<line x1="464.600000" y1="92.000000" x2="474.600000" y2="92.000000"  style="stroke:black; stroke-linecap:round; stroke-width:0.25;"/>
<line x1="464.600000" y1="100.000000" x2="474.600000" y2="100.000000"  style="stroke:black; stroke-linecap:round; stroke-width:0.25;"/>
</svg>
