<?xml version="1.0"?>
<svg xmlns="http://www.w3.org/2000/svg" xmlns:xlink="http://www.w3.org/1999/xlink" viewBox="0 0 431.700000 104.000000" width="215.850000mm" height="52.000000mm" version="1.1">
<a xlink:href="fdel1-0x7fa139ae91a0.svg">
<rect x="1.000000" y="1.000000" width="430.700000" height="103.000000" rx="0" ry="0" style="stroke:none;fill:#cccccc;"/>
<rect x="0.000000" y="0.000000" width="430.700000" height="103.000000" rx="0" ry="0" style="stroke:none;fill:#ffffff;"/>
</a>
<text x="10.000000" y="7.000000" font-family="Arial" font-size="7"></text>
<rect x="41.900000" y="25.000000" width="38.700000" height="24.000000" rx="0" ry="0" style="stroke:none;fill:#cccccc;"/>
<rect x="40.900000" y="24.000000" width="38.700000" height="24.000000" rx="0" ry="0" style="stroke:none;fill:#f44800;"/>
<text x="60.250000" y="38.000000" font-family="Arial" font-size="7" text-anchor="middle" fill="#FFFFFF">1.02246</text>
<circle cx="42.900000" cy="26.000000" r="1"/>
<a xlink:href="delsize1-0x7fa134fb66c0.svg">
<rect x="25.000000" y="57.000000" width="38.700000" height="24.000000" rx="0" ry="0" style="stroke:none;fill:#cccccc;"/>
<rect x="24.000000" y="56.000000" width="38.700000" height="24.000000" rx="0" ry="0" style="stroke:none;fill:#003366;"/>
</a>
<a xlink:href="delsize1-0x7fa134fb66c0.svg">
<text x="43.350000" y="70.000000" font-family="Arial" font-size="7" text-anchor="middle" fill="#FFFFFF">delsize1</text>
</a>
<circle cx="26.000000" cy="58.000000" r="1"/>
<rect x="71.700000" y="57.000000" width="25.800000" height="24.000000" rx="0" ry="0" style="stroke:none;fill:#cccccc;"/>
<rect x="70.700000" y="56.000000" width="25.800000" height="24.000000" rx="0" ry="0" style="stroke:none;fill:#4B71A1;"/>
<text x="83.600000" y="70.000000" font-family="Arial" font-size="7" text-anchor="middle" fill="#FFFFFF">float</text>
<circle cx="72.700000" cy="58.000000" r="1"/>
<line x1="67.700000" y1="67.000000" x2="70.700000" y2="68.000000"  transform="rotate(0.000000,70.700000,68.000000)" style="stroke: black; stroke-width:0.25;"/>
<line x1="67.700000" y1="69.000000" x2="70.700000" y2="68.000000"  transform="rotate(0.000000,70.700000,68.000000)" style="stroke: black; stroke-width:0.25;"/>
<rect x="113.500000" y="41.000000" width="24.000000" height="24.000000" rx="0" ry="0" style="stroke:none;fill:#cccccc;"/>
<rect x="112.500000" y="40.000000" width="24.000000" height="24.000000" rx="0" ry="0" style="stroke:none;fill:#4B71A1;"/>
<text x="124.500000" y="54.000000" font-family="Arial" font-size="7" text-anchor="middle" fill="#FFFFFF">/</text>
<circle cx="114.500000" cy="42.000000" r="1"/>
<line x1="109.500000" y1="47.000000" x2="112.500000" y2="48.000000"  transform="rotate(0.000000,112.500000,48.000000)" style="stroke: black; stroke-width:0.25;"/>
<line x1="109.500000" y1="49.000000" x2="112.500000" y2="48.000000"  transform="rotate(0.000000,112.500000,48.000000)" style="stroke: black; stroke-width:0.25;"/>
<line x1="109.500000" y1="55.000000" x2="112.500000" y2="56.000000"  transform="rotate(0.000000,112.500000,56.000000)" style="stroke: black; stroke-width:0.25;"/>
<line x1="109.500000" y1="57.000000" x2="112.500000" y2="56.000000"  transform="rotate(0.000000,112.500000,56.000000)" style="stroke: black; stroke-width:0.25;"/>
<rect x="161.500000" y="45.000000" width="24.000000" height="24.000000" rx="0" ry="0" style="stroke:none;fill:#cccccc;"/>
<rect x="160.500000" y="44.000000" width="24.000000" height="24.000000" rx="0" ry="0" style="stroke:none;fill:#4B71A1;"/>
<text x="172.500000" y="58.000000" font-family="Arial" font-size="7" text-anchor="middle" fill="#FFFFFF">+</text>
<circle cx="162.500000" cy="46.000000" r="1"/>
<line x1="157.500000" y1="51.000000" x2="160.500000" y2="52.000000"  transform="rotate(0.000000,160.500000,52.000000)" style="stroke: black; stroke-width:0.25;"/>
<line x1="157.500000" y1="53.000000" x2="160.500000" y2="52.000000"  transform="rotate(0.000000,160.500000,52.000000)" style="stroke: black; stroke-width:0.25;"/>
<line x1="157.500000" y1="59.000000" x2="160.500000" y2="60.000000"  transform="rotate(0.000000,160.500000,60.000000)" style="stroke: black; stroke-width:0.25;"/>
<line x1="157.500000" y1="61.000000" x2="160.500000" y2="60.000000"  transform="rotate(0.000000,160.500000,60.000000)" style="stroke: black; stroke-width:0.25;"/>
<a xlink:href="decimal-0x7fa134fbc7b0.svg">
<rect x="193.500000" y="45.000000" width="38.700000" height="24.000000" rx="0" ry="0" style="stroke:none;fill:#cccccc;"/>
<rect x="192.500000" y="44.000000" width="38.700000" height="24.000000" rx="0" ry="0" style="stroke:none;fill:#003366;"/>
</a>
<a xlink:href="decimal-0x7fa134fbc7b0.svg">
<text x="211.850000" y="58.000000" font-family="Arial" font-size="7" text-anchor="middle" fill="#FFFFFF">decimal</text>
</a>
<circle cx="194.500000" cy="46.000000" r="1"/>
<line x1="189.500000" y1="55.000000" x2="192.500000" y2="56.000000"  transform="rotate(0.000000,192.500000,56.000000)" style="stroke: black; stroke-width:0.25;"/>
<line x1="189.500000" y1="57.000000" x2="192.500000" y2="56.000000"  transform="rotate(0.000000,192.500000,56.000000)" style="stroke: black; stroke-width:0.25;"/>
<line x1="233.200000" y1="56.000000" x2="233.200000" y2="52.000000"  style="stroke:black; stroke-linecap:round; stroke-width:0.25;"/>
<line x1="233.200000" y1="52.000000" x2="237.200000" y2="52.000000"  style="stroke:black; stroke-linecap:round; stroke-width:0.25;"/>
<line x1="237.200000" y1="52.000000" x2="237.200000" y2="56.000000"  style="stroke:black; stroke-linecap:round; stroke-width:0.25;"/>
<a xlink:href="delsize1-0x7fa134fb66c0.svg">
<rect x="256.200000" y="45.000000" width="38.700000" height="24.000000" rx="0" ry="0" style="stroke:none;fill:#cccccc;"/>
<rect x="255.200000" y="44.000000" width="38.700000" height="24.000000" rx="0" ry="0" style="stroke:none;fill:#003366;"/>
</a>
<a xlink:href="delsize1-0x7fa134fb66c0.svg">
<text x="274.550000" y="58.000000" font-family="Arial" font-size="7" text-anchor="middle" fill="#FFFFFF">delsize1</text>
</a>
<circle cx="257.200000" cy="46.000000" r="1"/>
<rect x="302.900000" y="45.000000" width="25.800000" height="24.000000" rx="0" ry="0" style="stroke:none;fill:#cccccc;"/>
<rect x="301.900000" y="44.000000" width="25.800000" height="24.000000" rx="0" ry="0" style="stroke:none;fill:#4B71A1;"/>
<text x="314.800000" y="58.000000" font-family="Arial" font-size="7" text-anchor="middle" fill="#FFFFFF">float</text>
<circle cx="303.900000" cy="46.000000" r="1"/>
<line x1="298.900000" y1="55.000000" x2="301.900000" y2="56.000000"  transform="rotate(0.000000,301.900000,56.000000)" style="stroke: black; stroke-width:0.25;"/>
<line x1="298.900000" y1="57.000000" x2="301.900000" y2="56.000000"  transform="rotate(0.000000,301.900000,56.000000)" style="stroke: black; stroke-width:0.25;"/>
<rect x="344.700000" y="41.000000" width="24.000000" height="24.000000" rx="0" ry="0" style="stroke:none;fill:#cccccc;"/>
<rect x="343.700000" y="40.000000" width="24.000000" height="24.000000" rx="0" ry="0" style="stroke:none;fill:#4B71A1;"/>
<text x="355.700000" y="54.000000" font-family="Arial" font-size="7" text-anchor="middle" fill="#FFFFFF">*</text>
<circle cx="345.700000" cy="42.000000" r="1"/>
<line x1="340.700000" y1="47.000000" x2="343.700000" y2="48.000000"  transform="rotate(0.000000,343.700000,48.000000)" style="stroke: black; stroke-width:0.25;"/>
<line x1="340.700000" y1="49.000000" x2="343.700000" y2="48.000000"  transform="rotate(0.000000,343.700000,48.000000)" style="stroke: black; stroke-width:0.25;"/>
<line x1="340.700000" y1="55.000000" x2="343.700000" y2="56.000000"  transform="rotate(0.000000,343.700000,56.000000)" style="stroke: black; stroke-width:0.25;"/>
<line x1="340.700000" y1="57.000000" x2="343.700000" y2="56.000000"  transform="rotate(0.000000,343.700000,56.000000)" style="stroke: black; stroke-width:0.25;"/>
<rect x="376.700000" y="41.000000" width="24.000000" height="24.000000" rx="0" ry="0" style="stroke:none;fill:#cccccc;"/>
<rect x="375.700000" y="40.000000" width="24.000000" height="24.000000" rx="0" ry="0" style="stroke:none;fill:#4B71A1;"/>
<text x="387.700000" y="54.000000" font-family="Arial" font-size="7" text-anchor="middle" fill="#FFFFFF">int</text>
<circle cx="377.700000" cy="42.000000" r="1"/>
<line x1="372.700000" y1="51.000000" x2="375.700000" y2="52.000000"  transform="rotate(0.000000,375.700000,52.000000)" style="stroke: black; stroke-width:0.25;"/>
<line x1="372.700000" y1="53.000000" x2="375.700000" y2="52.000000"  transform="rotate(0.000000,375.700000,52.000000)" style="stroke: black; stroke-width:0.25;"/>
<line x1="15.000000" y1="15.000000" x2="15.000000" y2="89.000000"  style="stroke: black; stroke-linecap:round; stroke-width:0.25; stroke-dasharray:3,3;"/>
<line x1="15.000000" y1="89.000000" x2="416.700000" y2="89.000000"  style="stroke: black; stroke-linecap:round; stroke-width:0.25; stroke-dasharray:3,3;"/>
<line x1="416.700000" y1="89.000000" x2="416.700000" y2="15.000000"  style="stroke: black; stroke-linecap:round; stroke-width:0.25; stroke-dasharray:3,3;"/>
<line x1="15.000000" y1="15.000000" x2="20.000000" y2="15.000000"  style="stroke: black; stroke-linecap:round; stroke-width:0.25; stroke-dasharray:3,3;"/>
<line x1="58.700000" y1="15.000000" x2="416.700000" y2="15.000000"  style="stroke: black; stroke-linecap:round; stroke-width:0.25; stroke-dasharray:3,3;"/>
<text x="20.000000" y="17.000000" font-family="Arial" font-size="7">readIndex1</text>
<line x1="418.700000" y1="51.000000" x2="421.700000" y2="52.000000"  transform="rotate(0.000000,421.700000,52.000000)" style="stroke: black; stroke-width:0.25;"/>
<line x1="418.700000" y1="53.000000" x2="421.700000" y2="52.000000"  transform="rotate(0.000000,421.700000,52.000000)" style="stroke: black; stroke-width:0.25;"/>
<line x1="62.700000" y1="68.000000" x2="66.700000" y2="68.000000"  style="stroke:black; stroke-linecap:round; stroke-width:0.25;"/>
<line x1="66.700000" y1="68.000000" x2="66.700000" y2="68.000000"  style="stroke:black; stroke-linecap:round; stroke-width:0.25;"/>
<line x1="66.700000" y1="68.000000" x2="70.700000" y2="68.000000"  style="stroke:black; stroke-linecap:round; stroke-width:0.25;"/>
<line x1="79.600000" y1="36.000000" x2="83.600000" y2="36.000000"  style="stroke:black; stroke-linecap:round; stroke-width:0.25;"/>
<line x1="83.600000" y1="36.000000" x2="100.500000" y2="36.000000"  style="stroke:black; stroke-linecap:round; stroke-width:0.25;"/>
<line x1="96.500000" y1="68.000000" x2="100.500000" y2="68.000000"  style="stroke:black; stroke-linecap:round; stroke-width:0.25;"/>
<line x1="100.500000" y1="56.000000" x2="108.500000" y2="56.000000"  style="stroke:black; stroke-linecap:round; stroke-width:0.25;"/>
<line x1="100.500000" y1="68.000000" x2="100.500000" y2="56.000000"  style="stroke:black; stroke-linecap:round; stroke-width:0.25;"/>
<line x1="100.500000" y1="68.000000" x2="100.500000" y2="68.000000"  style="stroke:black; stroke-linecap:round; stroke-width:0.25;"/>
<line x1="100.500000" y1="36.000000" x2="108.500000" y2="36.000000"  style="stroke:black; stroke-linecap:round; stroke-width:0.25;"/>
<line x1="108.500000" y1="36.000000" x2="108.500000" y2="48.000000"  style="stroke:black; stroke-linecap:round; stroke-width:0.25;"/>
<line x1="108.500000" y1="48.000000" x2="108.500000" y2="48.000000"  style="stroke:black; stroke-linecap:round; stroke-width:0.25;"/>
<line x1="108.500000" y1="48.000000" x2="112.500000" y2="48.000000"  style="stroke:black; stroke-linecap:round; stroke-width:0.25;"/>
<line x1="108.500000" y1="56.000000" x2="112.500000" y2="56.000000"  style="stroke:black; stroke-linecap:round; stroke-width:0.25;"/>
<line x1="136.500000" y1="52.000000" x2="140.500000" y2="52.000000"  style="stroke:black; stroke-linecap:round; stroke-width:0.25;"/>
<line x1="140.500000" y1="52.000000" x2="148.500000" y2="52.000000"  style="stroke:black; stroke-linecap:round; stroke-width:0.25;"/>
<line x1="148.500000" y1="52.000000" x2="148.500000" y2="60.000000"  style="stroke:black; stroke-linecap:round; stroke-width:0.25;"/>
<line x1="148.500000" y1="60.000000" x2="148.500000" y2="60.000000"  style="stroke:black; stroke-linecap:round; stroke-width:0.25;"/>
<line x1="148.500000" y1="60.000000" x2="156.500000" y2="60.000000"  style="stroke:black; stroke-linecap:round; stroke-width:0.25;"/>
<line x1="156.500000" y1="36.000000" x2="156.500000" y2="36.000000"  style="stroke:black; stroke-linecap:round; stroke-width:0.25;"/>
<line x1="156.500000" y1="36.000000" x2="156.500000" y2="52.000000"  style="stroke:black; stroke-linecap:round; stroke-width:0.25;"/>
<line x1="156.500000" y1="52.000000" x2="156.500000" y2="52.000000"  style="stroke:black; stroke-linecap:round; stroke-width:0.25;"/>
<line x1="156.500000" y1="52.000000" x2="160.500000" y2="52.000000"  style="stroke:black; stroke-linecap:round; stroke-width:0.25;"/>
<line x1="156.500000" y1="60.000000" x2="160.500000" y2="60.000000"  style="stroke:black; stroke-linecap:round; stroke-width:0.25;"/>
<line x1="184.500000" y1="56.000000" x2="188.500000" y2="56.000000"  style="stroke:black; stroke-linecap:round; stroke-width:0.25;"/>
<line x1="188.500000" y1="56.000000" x2="188.500000" y2="56.000000"  style="stroke:black; stroke-linecap:round; stroke-width:0.25;"/>
<line x1="188.500000" y1="56.000000" x2="192.500000" y2="56.000000"  style="stroke:black; stroke-linecap:round; stroke-width:0.25;"/>
<line x1="195.850000" y1="36.000000" x2="156.500000" y2="36.000000"  style="stroke:black; stroke-linecap:round; stroke-width:0.25;"/>
<line x1="231.200000" y1="56.000000" x2="235.200000" y2="56.000000"  style="stroke:black; stroke-linecap:round; stroke-width:0.25;"/>
<line x1="235.200000" y1="36.000000" x2="195.850000" y2="36.000000"  style="stroke:black; stroke-linecap:round; stroke-width:0.25;"/>
<line x1="235.200000" y1="36.000000" x2="235.200000" y2="36.000000"  style="stroke:black; stroke-linecap:round; stroke-width:0.25;"/>
<line x1="235.200000" y1="52.000000" x2="235.200000" y2="36.000000"  style="stroke:black; stroke-linecap:round; stroke-width:0.25;"/>
<line x1="235.200000" y1="56.000000" x2="237.200000" y2="56.000000"  style="stroke:black; stroke-linecap:round; stroke-width:0.25;"/>
<line x1="237.200000" y1="56.000000" x2="243.200000" y2="56.000000"  style="stroke:black; stroke-linecap:round; stroke-width:0.25;"/>
<line x1="243.200000" y1="36.000000" x2="251.200000" y2="36.000000"  style="stroke:black; stroke-linecap:round; stroke-width:0.25;"/>
<line x1="243.200000" y1="56.000000" x2="243.200000" y2="36.000000"  style="stroke:black; stroke-linecap:round; stroke-width:0.25;"/>
<line x1="243.200000" y1="56.000000" x2="243.200000" y2="56.000000"  style="stroke:black; stroke-linecap:round; stroke-width:0.25;"/>
<line x1="251.200000" y1="36.000000" x2="291.450000" y2="36.000000"  style="stroke:black; stroke-linecap:round; stroke-width:0.25;"/>
<line x1="291.450000" y1="36.000000" x2="331.700000" y2="36.000000"  style="stroke:black; stroke-linecap:round; stroke-width:0.25;"/>
<line x1="293.900000" y1="56.000000" x2="297.900000" y2="56.000000"  style="stroke:black; stroke-linecap:round; stroke-width:0.25;"/>
<line x1="297.900000" y1="56.000000" x2="297.900000" y2="56.000000"  style="stroke:black; stroke-linecap:round; stroke-width:0.25;"/>
<line x1="297.900000" y1="56.000000" x2="301.900000" y2="56.000000"  style="stroke:black; stroke-linecap:round; stroke-width:0.25;"/>
<line x1="327.700000" y1="56.000000" x2="331.700000" y2="56.000000"  style="stroke:black; stroke-linecap:round; stroke-width:0.25;"/>
<line x1="331.700000" y1="36.000000" x2="339.700000" y2="36.000000"  style="stroke:black; stroke-linecap:round; stroke-width:0.25;"/>
<line x1="331.700000" y1="56.000000" x2="339.700000" y2="56.000000"  style="stroke:black; stroke-linecap:round; stroke-width:0.25;"/>
<line x1="339.700000" y1="36.000000" x2="339.700000" y2="48.000000"  style="stroke:black; stroke-linecap:round; stroke-width:0.25;"/>
<line x1="339.700000" y1="48.000000" x2="339.700000" y2="48.000000"  style="stroke:black; stroke-linecap:round; stroke-width:0.25;"/>
<line x1="339.700000" y1="48.000000" x2="343.700000" y2="48.000000"  style="stroke:black; stroke-linecap:round; stroke-width:0.25;"/>
<line x1="339.700000" y1="56.000000" x2="343.700000" y2="56.000000"  style="stroke:black; stroke-linecap:round; stroke-width:0.25;"/>
<line x1="367.700000" y1="52.000000" x2="371.700000" y2="52.000000"  style="stroke:black; stroke-linecap:round; stroke-width:0.25;"/>
<line x1="371.700000" y1="52.000000" x2="371.700000" y2="52.000000"  style="stroke:black; stroke-linecap:round; stroke-width:0.25;"/>
<line x1="371.700000" y1="52.000000" x2="375.700000" y2="52.000000"  style="stroke:black; stroke-linecap:round; stroke-width:0.25;"/>
<line x1="399.700000" y1="52.000000" x2="403.700000" y2="52.000000"  style="stroke:black; stroke-linecap:round; stroke-width:0.25;"/>
<line x1="403.700000" y1="52.000000" x2="403.700000" y2="52.000000"  style="stroke:black; stroke-linecap:round; stroke-width:0.25;"/>
<line x1="403.700000" y1="52.000000" x2="407.700000" y2="52.000000"  style="stroke:black; stroke-linecap:round; stroke-width:0.25;"/>
<line x1="407.700000" y1="52.000000" x2="411.700000" y2="52.000000"  style="stroke:black; stroke-linecap:round; stroke-width:0.25;"/>
<line x1="411.700000" y1="52.000000" x2="421.700000" y2="52.000000"  style="stroke:black; stroke-linecap:round; stroke-width:0.25;"/>
</svg>
