<?xml version="1.0"?>
<svg xmlns="http://www.w3.org/2000/svg" xmlns:xlink="http://www.w3.org/1999/xlink" viewBox="0 0 445.900000 124.000000" width="222.950000mm" height="62.000000mm" version="1.1">
<a xlink:href="fdel1-0x7fa56f5be690.svg">
<rect x="1.000000" y="1.000000" width="444.900000" height="123.000000" rx="0" ry="0" style="stroke:none;fill:#cccccc;"/>
<rect x="0.000000" y="0.000000" width="444.900000" height="123.000000" rx="0" ry="0" style="stroke:none;fill:#ffffff;"/>
</a>
<text x="10.000000" y="7.000000" font-family="Arial" font-size="7"></text>
<rect x="45.450000" y="25.000000" width="38.700000" height="24.000000" rx="0" ry="0" style="stroke:none;fill:#cccccc;"/>
<rect x="44.450000" y="24.000000" width="38.700000" height="24.000000" rx="0" ry="0" style="stroke:none;fill:#f44800;"/>
<text x="63.800000" y="38.000000" font-family="Arial" font-size="7" text-anchor="middle" fill="#FFFFFF">1.02246</text>
<circle cx="46.450000" cy="26.000000" r="1"/>
<rect x="35.000000" y="67.000000" width="25.800000" height="24.000000" rx="0" ry="0" style="stroke:none;fill:#cccccc;"/>
<rect x="34.000000" y="66.000000" width="25.800000" height="24.000000" rx="0" ry="0" style="stroke:none;fill:#f44800;"/>
<text x="46.900000" y="80.000000" font-family="Arial" font-size="7" text-anchor="middle" fill="#FFFFFF">48000</text>
<circle cx="36.000000" cy="68.000000" r="1"/>
<line x1="25.000000" y1="57.000000" x2="25.000000" y2="99.000000"  style="stroke: black; stroke-linecap:round; stroke-width:0.25; stroke-dasharray:3,3;"/>
<line x1="25.000000" y1="99.000000" x2="68.800000" y2="99.000000"  style="stroke: black; stroke-linecap:round; stroke-width:0.25; stroke-dasharray:3,3;"/>
<line x1="68.800000" y1="99.000000" x2="68.800000" y2="57.000000"  style="stroke: black; stroke-linecap:round; stroke-width:0.25; stroke-dasharray:3,3;"/>
<line x1="25.000000" y1="57.000000" x2="30.000000" y2="57.000000"  style="stroke: black; stroke-linecap:round; stroke-width:0.25; stroke-dasharray:3,3;"/>
<line x1="65.475000" y1="57.000000" x2="68.800000" y2="57.000000"  style="stroke: black; stroke-linecap:round; stroke-width:0.25; stroke-dasharray:3,3;"/>
<text x="30.000000" y="59.000000" font-family="Arial" font-size="7">tableSize</text>
<rect x="78.800000" y="67.000000" width="25.800000" height="24.000000" rx="0" ry="0" style="stroke:none;fill:#cccccc;"/>
<rect x="77.800000" y="66.000000" width="25.800000" height="24.000000" rx="0" ry="0" style="stroke:none;fill:#4B71A1;"/>
<text x="90.700000" y="80.000000" font-family="Arial" font-size="7" text-anchor="middle" fill="#FFFFFF">float</text>
<circle cx="79.800000" cy="68.000000" r="1"/>
<line x1="74.800000" y1="77.000000" x2="77.800000" y2="78.000000"  transform="rotate(0.000000,77.800000,78.000000)" style="stroke: black; stroke-width:0.25;"/>
<line x1="74.800000" y1="79.000000" x2="77.800000" y2="78.000000"  transform="rotate(0.000000,77.800000,78.000000)" style="stroke: black; stroke-width:0.25;"/>
<rect x="120.600000" y="51.000000" width="24.000000" height="24.000000" rx="0" ry="0" style="stroke:none;fill:#cccccc;"/>
<rect x="119.600000" y="50.000000" width="24.000000" height="24.000000" rx="0" ry="0" style="stroke:none;fill:#4B71A1;"/>
<text x="131.600000" y="64.000000" font-family="Arial" font-size="7" text-anchor="middle" fill="#FFFFFF">/</text>
<circle cx="121.600000" cy="52.000000" r="1"/>
<line x1="116.600000" y1="57.000000" x2="119.600000" y2="58.000000"  transform="rotate(0.000000,119.600000,58.000000)" style="stroke: black; stroke-width:0.25;"/>
<line x1="116.600000" y1="59.000000" x2="119.600000" y2="58.000000"  transform="rotate(0.000000,119.600000,58.000000)" style="stroke: black; stroke-width:0.25;"/>
<line x1="116.600000" y1="65.000000" x2="119.600000" y2="66.000000"  transform="rotate(0.000000,119.600000,66.000000)" style="stroke: black; stroke-width:0.25;"/>
<line x1="116.600000" y1="67.000000" x2="119.600000" y2="66.000000"  transform="rotate(0.000000,119.600000,66.000000)" style="stroke: black; stroke-width:0.25;"/>
<rect x="168.600000" y="55.000000" width="24.000000" height="24.000000" rx="0" ry="0" style="stroke:none;fill:#cccccc;"/>
<rect x="167.600000" y="54.000000" width="24.000000" height="24.000000" rx="0" ry="0" style="stroke:none;fill:#4B71A1;"/>
<text x="179.600000" y="68.000000" font-family="Arial" font-size="7" text-anchor="middle" fill="#FFFFFF">+</text>
<circle cx="169.600000" cy="56.000000" r="1"/>
<line x1="164.600000" y1="61.000000" x2="167.600000" y2="62.000000"  transform="rotate(0.000000,167.600000,62.000000)" style="stroke: black; stroke-width:0.25;"/>
<line x1="164.600000" y1="63.000000" x2="167.600000" y2="62.000000"  transform="rotate(0.000000,167.600000,62.000000)" style="stroke: black; stroke-width:0.25;"/>
<line x1="164.600000" y1="69.000000" x2="167.600000" y2="70.000000"  transform="rotate(0.000000,167.600000,70.000000)" style="stroke: black; stroke-width:0.25;"/>
<line x1="164.600000" y1="71.000000" x2="167.600000" y2="70.000000"  transform="rotate(0.000000,167.600000,70.000000)" style="stroke: black; stroke-width:0.25;"/>
<a xlink:href="decimal-0x7fa56f329530.svg">
<rect x="200.600000" y="55.000000" width="38.700000" height="24.000000" rx="0" ry="0" style="stroke:none;fill:#cccccc;"/>
<rect x="199.600000" y="54.000000" width="38.700000" height="24.000000" rx="0" ry="0" style="stroke:none;fill:#003366;"/>
</a>
<a xlink:href="decimal-0x7fa56f329530.svg">
<text x="218.950000" y="68.000000" font-family="Arial" font-size="7" text-anchor="middle" fill="#FFFFFF">decimal</text>
</a>
<circle cx="201.600000" cy="56.000000" r="1"/>
<line x1="196.600000" y1="65.000000" x2="199.600000" y2="66.000000"  transform="rotate(0.000000,199.600000,66.000000)" style="stroke: black; stroke-width:0.25;"/>
<line x1="196.600000" y1="67.000000" x2="199.600000" y2="66.000000"  transform="rotate(0.000000,199.600000,66.000000)" style="stroke: black; stroke-width:0.25;"/>
<line x1="240.300000" y1="66.000000" x2="240.300000" y2="62.000000"  style="stroke:black; stroke-linecap:round; stroke-width:0.25;"/>
<line x1="240.300000" y1="62.000000" x2="244.300000" y2="62.000000"  style="stroke:black; stroke-linecap:round; stroke-width:0.25;"/>
<line x1="244.300000" y1="62.000000" x2="244.300000" y2="66.000000"  style="stroke:black; stroke-linecap:round; stroke-width:0.25;"/>
<rect x="273.300000" y="55.000000" width="25.800000" height="24.000000" rx="0" ry="0" style="stroke:none;fill:#cccccc;"/>
<rect x="272.300000" y="54.000000" width="25.800000" height="24.000000" rx="0" ry="0" style="stroke:none;fill:#f44800;"/>
<text x="285.200000" y="68.000000" font-family="Arial" font-size="7" text-anchor="middle" fill="#FFFFFF">48000</text>
<circle cx="274.300000" cy="56.000000" r="1"/>
<line x1="263.300000" y1="45.000000" x2="263.300000" y2="87.000000"  style="stroke: black; stroke-linecap:round; stroke-width:0.25; stroke-dasharray:3,3;"/>
<line x1="263.300000" y1="87.000000" x2="307.100000" y2="87.000000"  style="stroke: black; stroke-linecap:round; stroke-width:0.25; stroke-dasharray:3,3;"/>
<line x1="307.100000" y1="87.000000" x2="307.100000" y2="45.000000"  style="stroke: black; stroke-linecap:round; stroke-width:0.25; stroke-dasharray:3,3;"/>
<line x1="263.300000" y1="45.000000" x2="268.300000" y2="45.000000"  style="stroke: black; stroke-linecap:round; stroke-width:0.25; stroke-dasharray:3,3;"/>
<line x1="303.775000" y1="45.000000" x2="307.100000" y2="45.000000"  style="stroke: black; stroke-linecap:round; stroke-width:0.25; stroke-dasharray:3,3;"/>
<text x="268.300000" y="47.000000" font-family="Arial" font-size="7">tableSize</text>
<rect x="317.100000" y="55.000000" width="25.800000" height="24.000000" rx="0" ry="0" style="stroke:none;fill:#cccccc;"/>
<rect x="316.100000" y="54.000000" width="25.800000" height="24.000000" rx="0" ry="0" style="stroke:none;fill:#4B71A1;"/>
<text x="329.000000" y="68.000000" font-family="Arial" font-size="7" text-anchor="middle" fill="#FFFFFF">float</text>
<circle cx="318.100000" cy="56.000000" r="1"/>
<line x1="313.100000" y1="65.000000" x2="316.100000" y2="66.000000"  transform="rotate(0.000000,316.100000,66.000000)" style="stroke: black; stroke-width:0.25;"/>
<line x1="313.100000" y1="67.000000" x2="316.100000" y2="66.000000"  transform="rotate(0.000000,316.100000,66.000000)" style="stroke: black; stroke-width:0.25;"/>
<rect x="358.900000" y="51.000000" width="24.000000" height="24.000000" rx="0" ry="0" style="stroke:none;fill:#cccccc;"/>
<rect x="357.900000" y="50.000000" width="24.000000" height="24.000000" rx="0" ry="0" style="stroke:none;fill:#4B71A1;"/>
<text x="369.900000" y="64.000000" font-family="Arial" font-size="7" text-anchor="middle" fill="#FFFFFF">*</text>
<circle cx="359.900000" cy="52.000000" r="1"/>
<line x1="354.900000" y1="57.000000" x2="357.900000" y2="58.000000"  transform="rotate(0.000000,357.900000,58.000000)" style="stroke: black; stroke-width:0.25;"/>
<line x1="354.900000" y1="59.000000" x2="357.900000" y2="58.000000"  transform="rotate(0.000000,357.900000,58.000000)" style="stroke: black; stroke-width:0.25;"/>
<line x1="354.900000" y1="65.000000" x2="357.900000" y2="66.000000"  transform="rotate(0.000000,357.900000,66.000000)" style="stroke: black; stroke-width:0.25;"/>
<line x1="354.900000" y1="67.000000" x2="357.900000" y2="66.000000"  transform="rotate(0.000000,357.900000,66.000000)" style="stroke: black; stroke-width:0.25;"/>
<rect x="390.900000" y="51.000000" width="24.000000" height="24.000000" rx="0" ry="0" style="stroke:none;fill:#cccccc;"/>
<rect x="389.900000" y="50.000000" width="24.000000" height="24.000000" rx="0" ry="0" style="stroke:none;fill:#4B71A1;"/>
<text x="401.900000" y="64.000000" font-family="Arial" font-size="7" text-anchor="middle" fill="#FFFFFF">int</text>
<circle cx="391.900000" cy="52.000000" r="1"/>
<line x1="386.900000" y1="61.000000" x2="389.900000" y2="62.000000"  transform="rotate(0.000000,389.900000,62.000000)" style="stroke: black; stroke-width:0.25;"/>
<line x1="386.900000" y1="63.000000" x2="389.900000" y2="62.000000"  transform="rotate(0.000000,389.900000,62.000000)" style="stroke: black; stroke-width:0.25;"/>
<line x1="15.000000" y1="15.000000" x2="15.000000" y2="109.000000"  style="stroke: black; stroke-linecap:round; stroke-width:0.25; stroke-dasharray:3,3;"/>
<line x1="15.000000" y1="109.000000" x2="430.900000" y2="109.000000"  style="stroke: black; stroke-linecap:round; stroke-width:0.25; stroke-dasharray:3,3;"/>
<line x1="430.900000" y1="109.000000" x2="430.900000" y2="15.000000"  style="stroke: black; stroke-linecap:round; stroke-width:0.25; stroke-dasharray:3,3;"/>
<line x1="15.000000" y1="15.000000" x2="20.000000" y2="15.000000"  style="stroke: black; stroke-linecap:round; stroke-width:0.25; stroke-dasharray:3,3;"/>
<line x1="58.700000" y1="15.000000" x2="430.900000" y2="15.000000"  style="stroke: black; stroke-linecap:round; stroke-width:0.25; stroke-dasharray:3,3;"/>
<text x="20.000000" y="17.000000" font-family="Arial" font-size="7">readIndex1</text>
<line x1="432.900000" y1="61.000000" x2="435.900000" y2="62.000000"  transform="rotate(0.000000,435.900000,62.000000)" style="stroke: black; stroke-width:0.25;"/>
<line x1="432.900000" y1="63.000000" x2="435.900000" y2="62.000000"  transform="rotate(0.000000,435.900000,62.000000)" style="stroke: black; stroke-width:0.25;"/>
<line x1="59.800000" y1="78.000000" x2="63.800000" y2="78.000000"  style="stroke:black; stroke-linecap:round; stroke-width:0.25;"/>
<line x1="63.800000" y1="78.000000" x2="73.800000" y2="78.000000"  style="stroke:black; stroke-linecap:round; stroke-width:0.25;"/>
<line x1="73.800000" y1="78.000000" x2="73.800000" y2="78.000000"  style="stroke:black; stroke-linecap:round; stroke-width:0.25;"/>
<line x1="73.800000" y1="78.000000" x2="77.800000" y2="78.000000"  style="stroke:black; stroke-linecap:round; stroke-width:0.25;"/>
<line x1="83.150000" y1="36.000000" x2="87.150000" y2="36.000000"  style="stroke:black; stroke-linecap:round; stroke-width:0.25;"/>
<line x1="87.150000" y1="36.000000" x2="107.600000" y2="36.000000"  style="stroke:black; stroke-linecap:round; stroke-width:0.25;"/>
<line x1="103.600000" y1="78.000000" x2="107.600000" y2="78.000000"  style="stroke:black; stroke-linecap:round; stroke-width:0.25;"/>
<line x1="107.600000" y1="66.000000" x2="115.600000" y2="66.000000"  style="stroke:black; stroke-linecap:round; stroke-width:0.25;"/>
<line x1="107.600000" y1="78.000000" x2="107.600000" y2="66.000000"  style="stroke:black; stroke-linecap:round; stroke-width:0.25;"/>
<line x1="107.600000" y1="78.000000" x2="107.600000" y2="78.000000"  style="stroke:black; stroke-linecap:round; stroke-width:0.25;"/>
<line x1="107.600000" y1="36.000000" x2="115.600000" y2="36.000000"  style="stroke:black; stroke-linecap:round; stroke-width:0.25;"/>
<line x1="115.600000" y1="58.000000" x2="119.600000" y2="58.000000"  style="stroke:black; stroke-linecap:round; stroke-width:0.25;"/>
<line x1="115.600000" y1="66.000000" x2="119.600000" y2="66.000000"  style="stroke:black; stroke-linecap:round; stroke-width:0.25;"/>
<line x1="115.600000" y1="36.000000" x2="115.600000" y2="58.000000"  style="stroke:black; stroke-linecap:round; stroke-width:0.25;"/>
<line x1="115.600000" y1="58.000000" x2="115.600000" y2="58.000000"  style="stroke:black; stroke-linecap:round; stroke-width:0.25;"/>
<line x1="143.600000" y1="62.000000" x2="147.600000" y2="62.000000"  style="stroke:black; stroke-linecap:round; stroke-width:0.25;"/>
<line x1="147.600000" y1="62.000000" x2="155.600000" y2="62.000000"  style="stroke:black; stroke-linecap:round; stroke-width:0.25;"/>
<line x1="155.600000" y1="62.000000" x2="155.600000" y2="70.000000"  style="stroke:black; stroke-linecap:round; stroke-width:0.25;"/>
<line x1="155.600000" y1="70.000000" x2="155.600000" y2="70.000000"  style="stroke:black; stroke-linecap:round; stroke-width:0.25;"/>
<line x1="155.600000" y1="70.000000" x2="163.600000" y2="70.000000"  style="stroke:black; stroke-linecap:round; stroke-width:0.25;"/>
<line x1="163.600000" y1="46.000000" x2="163.600000" y2="46.000000"  style="stroke:black; stroke-linecap:round; stroke-width:0.25;"/>
<line x1="163.600000" y1="46.000000" x2="163.600000" y2="62.000000"  style="stroke:black; stroke-linecap:round; stroke-width:0.25;"/>
<line x1="163.600000" y1="62.000000" x2="163.600000" y2="62.000000"  style="stroke:black; stroke-linecap:round; stroke-width:0.25;"/>
<line x1="163.600000" y1="62.000000" x2="167.600000" y2="62.000000"  style="stroke:black; stroke-linecap:round; stroke-width:0.25;"/>
<line x1="163.600000" y1="70.000000" x2="167.600000" y2="70.000000"  style="stroke:black; stroke-linecap:round; stroke-width:0.25;"/>
<line x1="191.600000" y1="66.000000" x2="195.600000" y2="66.000000"  style="stroke:black; stroke-linecap:round; stroke-width:0.25;"/>
<line x1="195.600000" y1="66.000000" x2="195.600000" y2="66.000000"  style="stroke:black; stroke-linecap:round; stroke-width:0.25;"/>
<line x1="195.600000" y1="66.000000" x2="199.600000" y2="66.000000"  style="stroke:black; stroke-linecap:round; stroke-width:0.25;"/>
<line x1="202.950000" y1="46.000000" x2="163.600000" y2="46.000000"  style="stroke:black; stroke-linecap:round; stroke-width:0.25;"/>
<line x1="238.300000" y1="66.000000" x2="242.300000" y2="66.000000"  style="stroke:black; stroke-linecap:round; stroke-width:0.25;"/>
<line x1="242.300000" y1="46.000000" x2="202.950000" y2="46.000000"  style="stroke:black; stroke-linecap:round; stroke-width:0.25;"/>
<line x1="242.300000" y1="46.000000" x2="242.300000" y2="46.000000"  style="stroke:black; stroke-linecap:round; stroke-width:0.25;"/>
<line x1="242.300000" y1="62.000000" x2="242.300000" y2="46.000000"  style="stroke:black; stroke-linecap:round; stroke-width:0.25;"/>
<line x1="242.300000" y1="66.000000" x2="244.300000" y2="66.000000"  style="stroke:black; stroke-linecap:round; stroke-width:0.25;"/>
<line x1="244.300000" y1="66.000000" x2="250.300000" y2="66.000000"  style="stroke:black; stroke-linecap:round; stroke-width:0.25;"/>
<line x1="250.300000" y1="36.000000" x2="258.300000" y2="36.000000"  style="stroke:black; stroke-linecap:round; stroke-width:0.25;"/>
<line x1="250.300000" y1="66.000000" x2="250.300000" y2="36.000000"  style="stroke:black; stroke-linecap:round; stroke-width:0.25;"/>
<line x1="250.300000" y1="66.000000" x2="250.300000" y2="66.000000"  style="stroke:black; stroke-linecap:round; stroke-width:0.25;"/>
<line x1="258.300000" y1="36.000000" x2="302.100000" y2="36.000000"  style="stroke:black; stroke-linecap:round; stroke-width:0.25;"/>
<line x1="298.100000" y1="66.000000" x2="302.100000" y2="66.000000"  style="stroke:black; stroke-linecap:round; stroke-width:0.25;"/>
<line x1="302.100000" y1="36.000000" x2="345.900000" y2="36.000000"  style="stroke:black; stroke-linecap:round; stroke-width:0.25;"/>
<line x1="302.100000" y1="66.000000" x2="312.100000" y2="66.000000"  style="stroke:black; stroke-linecap:round; stroke-width:0.25;"/>
<line x1="312.100000" y1="66.000000" x2="312.100000" y2="66.000000"  style="stroke:black; stroke-linecap:round; stroke-width:0.25;"/>
<line x1="312.100000" y1="66.000000" x2="316.100000" y2="66.000000"  style="stroke:black; stroke-linecap:round; stroke-width:0.25;"/>
<line x1="341.900000" y1="66.000000" x2="345.900000" y2="66.000000"  style="stroke:black; stroke-linecap:round; stroke-width:0.25;"/>
<line x1="345.900000" y1="36.000000" x2="353.900000" y2="36.000000"  style="stroke:black; stroke-linecap:round; stroke-width:0.25;"/>
<line x1="345.900000" y1="66.000000" x2="353.900000" y2="66.000000"  style="stroke:black; stroke-linecap:round; stroke-width:0.25;"/>
<line x1="353.900000" y1="36.000000" x2="353.900000" y2="58.000000"  style="stroke:black; stroke-linecap:round; stroke-width:0.25;"/>
<line x1="353.900000" y1="58.000000" x2="353.900000" y2="58.000000"  style="stroke:black; stroke-linecap:round; stroke-width:0.25;"/>
<line x1="353.900000" y1="58.000000" x2="357.900000" y2="58.000000"  style="stroke:black; stroke-linecap:round; stroke-width:0.25;"/>
<line x1="353.900000" y1="66.000000" x2="357.900000" y2="66.000000"  style="stroke:black; stroke-linecap:round; stroke-width:0.25;"/>
<line x1="381.900000" y1="62.000000" x2="385.900000" y2="62.000000"  style="stroke:black; stroke-linecap:round; stroke-width:0.25;"/>
<line x1="385.900000" y1="62.000000" x2="385.900000" y2="62.000000"  style="stroke:black; stroke-linecap:round; stroke-width:0.25;"/>
<line x1="385.900000" y1="62.000000" x2="389.900000" y2="62.000000"  style="stroke:black; stroke-linecap:round; stroke-width:0.25;"/>
<line x1="413.900000" y1="62.000000" x2="417.900000" y2="62.000000"  style="stroke:black; stroke-linecap:round; stroke-width:0.25;"/>
<line x1="417.900000" y1="62.000000" x2="417.900000" y2="62.000000"  style="stroke:black; stroke-linecap:round; stroke-width:0.25;"/>
<line x1="417.900000" y1="62.000000" x2="421.900000" y2="62.000000"  style="stroke:black; stroke-linecap:round; stroke-width:0.25;"/>
<line x1="421.900000" y1="62.000000" x2="425.900000" y2="62.000000"  style="stroke:black; stroke-linecap:round; stroke-width:0.25;"/>
<line x1="425.900000" y1="62.000000" x2="435.900000" y2="62.000000"  style="stroke:black; stroke-linecap:round; stroke-width:0.25;"/>
</svg>
