<?xml version="1.0"?>
<svg xmlns="http://www.w3.org/2000/svg" xmlns:xlink="http://www.w3.org/1999/xlink" viewBox="0 0 417.900000 124.000000" width="208.950000mm" height="62.000000mm" version="1.1">
<a xlink:href="rw-0x7f92eaa221f0.svg">
<rect x="1.000000" y="1.000000" width="416.900000" height="123.000000" rx="0" ry="0" style="stroke:none;fill:#cccccc;"/>
<rect x="0.000000" y="0.000000" width="416.900000" height="123.000000" rx="0" ry="0" style="stroke:none;fill:#ffffff;"/>
</a>
<text x="10.000000" y="7.000000" font-family="Arial" font-size="7"></text>
<rect x="35.000000" y="35.000000" width="38.700000" height="24.000000" rx="0" ry="0" style="stroke:none;fill:#cccccc;"/>
<rect x="34.000000" y="34.000000" width="38.700000" height="24.000000" rx="0" ry="0" style="stroke:none;fill:#f44800;"/>
<text x="53.350000" y="48.000000" font-family="Arial" font-size="7" text-anchor="middle" fill="#FFFFFF">1.02246</text>
<circle cx="36.000000" cy="36.000000" r="1"/>
<line x1="25.000000" y1="25.000000" x2="25.000000" y2="67.000000"  style="stroke: black; stroke-linecap:round; stroke-width:0.25; stroke-dasharray:3,3;"/>
<line x1="25.000000" y1="67.000000" x2="81.700000" y2="67.000000"  style="stroke: black; stroke-linecap:round; stroke-width:0.25; stroke-dasharray:3,3;"/>
<line x1="81.700000" y1="67.000000" x2="81.700000" y2="25.000000"  style="stroke: black; stroke-linecap:round; stroke-width:0.25; stroke-dasharray:3,3;"/>
<line x1="25.000000" y1="25.000000" x2="30.000000" y2="25.000000"  style="stroke: black; stroke-linecap:round; stroke-width:0.25; stroke-dasharray:3,3;"/>
<line x1="52.575000" y1="25.000000" x2="81.700000" y2="25.000000"  style="stroke: black; stroke-linecap:round; stroke-width:0.25; stroke-dasharray:3,3;"/>
<text x="30.000000" y="27.000000" font-family="Arial" font-size="7">step1</text>
<a xlink:href="SR-0x7f92e866b030.svg">
<rect x="25.450000" y="77.000000" width="24.000000" height="24.000000" rx="0" ry="0" style="stroke:none;fill:#cccccc;"/>
<rect x="24.450000" y="76.000000" width="24.000000" height="24.000000" rx="0" ry="0" style="stroke:none;fill:#003366;"/>
</a>
<a xlink:href="SR-0x7f92e866b030.svg">
<text x="36.450000" y="90.000000" font-family="Arial" font-size="7" text-anchor="middle" fill="#FFFFFF">SR</text>
</a>
<circle cx="26.450000" cy="78.000000" r="1"/>
<rect x="57.450000" y="77.000000" width="25.800000" height="24.000000" rx="0" ry="0" style="stroke:none;fill:#cccccc;"/>
<rect x="56.450000" y="76.000000" width="25.800000" height="24.000000" rx="0" ry="0" style="stroke:none;fill:#4B71A1;"/>
<text x="69.350000" y="90.000000" font-family="Arial" font-size="7" text-anchor="middle" fill="#FFFFFF">float</text>
<circle cx="58.450000" cy="78.000000" r="1"/>
<line x1="53.450000" y1="87.000000" x2="56.450000" y2="88.000000"  transform="rotate(0.000000,56.450000,88.000000)" style="stroke: black; stroke-width:0.25;"/>
<line x1="53.450000" y1="89.000000" x2="56.450000" y2="88.000000"  transform="rotate(0.000000,56.450000,88.000000)" style="stroke: black; stroke-width:0.25;"/>
<rect x="99.700000" y="51.000000" width="24.000000" height="24.000000" rx="0" ry="0" style="stroke:none;fill:#cccccc;"/>
<rect x="98.700000" y="50.000000" width="24.000000" height="24.000000" rx="0" ry="0" style="stroke:none;fill:#4B71A1;"/>
<text x="110.700000" y="64.000000" font-family="Arial" font-size="7" text-anchor="middle" fill="#FFFFFF">/</text>
<circle cx="100.700000" cy="52.000000" r="1"/>
<line x1="95.700000" y1="57.000000" x2="98.700000" y2="58.000000"  transform="rotate(0.000000,98.700000,58.000000)" style="stroke: black; stroke-width:0.25;"/>
<line x1="95.700000" y1="59.000000" x2="98.700000" y2="58.000000"  transform="rotate(0.000000,98.700000,58.000000)" style="stroke: black; stroke-width:0.25;"/>
<line x1="95.700000" y1="65.000000" x2="98.700000" y2="66.000000"  transform="rotate(0.000000,98.700000,66.000000)" style="stroke: black; stroke-width:0.25;"/>
<line x1="95.700000" y1="67.000000" x2="98.700000" y2="66.000000"  transform="rotate(0.000000,98.700000,66.000000)" style="stroke: black; stroke-width:0.25;"/>
<rect x="147.700000" y="55.000000" width="24.000000" height="24.000000" rx="0" ry="0" style="stroke:none;fill:#cccccc;"/>
<rect x="146.700000" y="54.000000" width="24.000000" height="24.000000" rx="0" ry="0" style="stroke:none;fill:#4B71A1;"/>
<text x="158.700000" y="68.000000" font-family="Arial" font-size="7" text-anchor="middle" fill="#FFFFFF">+</text>
<circle cx="148.700000" cy="56.000000" r="1"/>
<line x1="143.700000" y1="61.000000" x2="146.700000" y2="62.000000"  transform="rotate(0.000000,146.700000,62.000000)" style="stroke: black; stroke-width:0.25;"/>
<line x1="143.700000" y1="63.000000" x2="146.700000" y2="62.000000"  transform="rotate(0.000000,146.700000,62.000000)" style="stroke: black; stroke-width:0.25;"/>
<line x1="143.700000" y1="69.000000" x2="146.700000" y2="70.000000"  transform="rotate(0.000000,146.700000,70.000000)" style="stroke: black; stroke-width:0.25;"/>
<line x1="143.700000" y1="71.000000" x2="146.700000" y2="70.000000"  transform="rotate(0.000000,146.700000,70.000000)" style="stroke: black; stroke-width:0.25;"/>
<a xlink:href="decimal-0x7f92e85e7ea0.svg">
<rect x="179.700000" y="55.000000" width="38.700000" height="24.000000" rx="0" ry="0" style="stroke:none;fill:#cccccc;"/>
<rect x="178.700000" y="54.000000" width="38.700000" height="24.000000" rx="0" ry="0" style="stroke:none;fill:#003366;"/>
</a>
<a xlink:href="decimal-0x7f92e85e7ea0.svg">
<text x="198.050000" y="68.000000" font-family="Arial" font-size="7" text-anchor="middle" fill="#FFFFFF">decimal</text>
</a>
<circle cx="180.700000" cy="56.000000" r="1"/>
<line x1="175.700000" y1="65.000000" x2="178.700000" y2="66.000000"  transform="rotate(0.000000,178.700000,66.000000)" style="stroke: black; stroke-width:0.25;"/>
<line x1="175.700000" y1="67.000000" x2="178.700000" y2="66.000000"  transform="rotate(0.000000,178.700000,66.000000)" style="stroke: black; stroke-width:0.25;"/>
<line x1="219.400000" y1="66.000000" x2="219.400000" y2="62.000000"  style="stroke:black; stroke-linecap:round; stroke-width:0.25;"/>
<line x1="219.400000" y1="62.000000" x2="223.400000" y2="62.000000"  style="stroke:black; stroke-linecap:round; stroke-width:0.25;"/>
<line x1="223.400000" y1="62.000000" x2="223.400000" y2="66.000000"  style="stroke:black; stroke-linecap:round; stroke-width:0.25;"/>
<a xlink:href="maxdel1-0x7f92e85e4140.svg">
<rect x="242.400000" y="55.000000" width="38.700000" height="24.000000" rx="0" ry="0" style="stroke:none;fill:#cccccc;"/>
<rect x="241.400000" y="54.000000" width="38.700000" height="24.000000" rx="0" ry="0" style="stroke:none;fill:#003366;"/>
</a>
<a xlink:href="maxdel1-0x7f92e85e4140.svg">
<text x="260.750000" y="68.000000" font-family="Arial" font-size="7" text-anchor="middle" fill="#FFFFFF">maxdel1</text>
</a>
<circle cx="243.400000" cy="56.000000" r="1"/>
<rect x="289.100000" y="55.000000" width="25.800000" height="24.000000" rx="0" ry="0" style="stroke:none;fill:#cccccc;"/>
<rect x="288.100000" y="54.000000" width="25.800000" height="24.000000" rx="0" ry="0" style="stroke:none;fill:#4B71A1;"/>
<text x="301.000000" y="68.000000" font-family="Arial" font-size="7" text-anchor="middle" fill="#FFFFFF">float</text>
<circle cx="290.100000" cy="56.000000" r="1"/>
<line x1="285.100000" y1="65.000000" x2="288.100000" y2="66.000000"  transform="rotate(0.000000,288.100000,66.000000)" style="stroke: black; stroke-width:0.25;"/>
<line x1="285.100000" y1="67.000000" x2="288.100000" y2="66.000000"  transform="rotate(0.000000,288.100000,66.000000)" style="stroke: black; stroke-width:0.25;"/>
<rect x="330.900000" y="51.000000" width="24.000000" height="24.000000" rx="0" ry="0" style="stroke:none;fill:#cccccc;"/>
<rect x="329.900000" y="50.000000" width="24.000000" height="24.000000" rx="0" ry="0" style="stroke:none;fill:#4B71A1;"/>
<text x="341.900000" y="64.000000" font-family="Arial" font-size="7" text-anchor="middle" fill="#FFFFFF">*</text>
<circle cx="331.900000" cy="52.000000" r="1"/>
<line x1="326.900000" y1="57.000000" x2="329.900000" y2="58.000000"  transform="rotate(0.000000,329.900000,58.000000)" style="stroke: black; stroke-width:0.25;"/>
<line x1="326.900000" y1="59.000000" x2="329.900000" y2="58.000000"  transform="rotate(0.000000,329.900000,58.000000)" style="stroke: black; stroke-width:0.25;"/>
<line x1="326.900000" y1="65.000000" x2="329.900000" y2="66.000000"  transform="rotate(0.000000,329.900000,66.000000)" style="stroke: black; stroke-width:0.25;"/>
<line x1="326.900000" y1="67.000000" x2="329.900000" y2="66.000000"  transform="rotate(0.000000,329.900000,66.000000)" style="stroke: black; stroke-width:0.25;"/>
<rect x="362.900000" y="51.000000" width="24.000000" height="24.000000" rx="0" ry="0" style="stroke:none;fill:#cccccc;"/>
<rect x="361.900000" y="50.000000" width="24.000000" height="24.000000" rx="0" ry="0" style="stroke:none;fill:#4B71A1;"/>
<text x="373.900000" y="64.000000" font-family="Arial" font-size="7" text-anchor="middle" fill="#FFFFFF">int</text>
<circle cx="363.900000" cy="52.000000" r="1"/>
<line x1="358.900000" y1="61.000000" x2="361.900000" y2="62.000000"  transform="rotate(0.000000,361.900000,62.000000)" style="stroke: black; stroke-width:0.25;"/>
<line x1="358.900000" y1="63.000000" x2="361.900000" y2="62.000000"  transform="rotate(0.000000,361.900000,62.000000)" style="stroke: black; stroke-width:0.25;"/>
<line x1="15.000000" y1="15.000000" x2="15.000000" y2="109.000000"  style="stroke: black; stroke-linecap:round; stroke-width:0.25; stroke-dasharray:3,3;"/>
<line x1="15.000000" y1="109.000000" x2="402.900000" y2="109.000000"  style="stroke: black; stroke-linecap:round; stroke-width:0.25; stroke-dasharray:3,3;"/>
<line x1="402.900000" y1="109.000000" x2="402.900000" y2="15.000000"  style="stroke: black; stroke-linecap:round; stroke-width:0.25; stroke-dasharray:3,3;"/>
<line x1="15.000000" y1="15.000000" x2="20.000000" y2="15.000000"  style="stroke: black; stroke-linecap:round; stroke-width:0.25; stroke-dasharray:3,3;"/>
<line x1="58.700000" y1="15.000000" x2="402.900000" y2="15.000000"  style="stroke: black; stroke-linecap:round; stroke-width:0.25; stroke-dasharray:3,3;"/>
<text x="20.000000" y="17.000000" font-family="Arial" font-size="7">readIndex1</text>
<line x1="404.900000" y1="61.000000" x2="407.900000" y2="62.000000"  transform="rotate(0.000000,407.900000,62.000000)" style="stroke: black; stroke-width:0.25;"/>
<line x1="404.900000" y1="63.000000" x2="407.900000" y2="62.000000"  transform="rotate(0.000000,407.900000,62.000000)" style="stroke: black; stroke-width:0.25;"/>
<line x1="48.450000" y1="88.000000" x2="52.450000" y2="88.000000"  style="stroke:black; stroke-linecap:round; stroke-width:0.25;"/>
<line x1="52.450000" y1="88.000000" x2="52.450000" y2="88.000000"  style="stroke:black; stroke-linecap:round; stroke-width:0.25;"/>
<line x1="52.450000" y1="88.000000" x2="56.450000" y2="88.000000"  style="stroke:black; stroke-linecap:round; stroke-width:0.25;"/>
<line x1="72.700000" y1="46.000000" x2="76.700000" y2="46.000000"  style="stroke:black; stroke-linecap:round; stroke-width:0.25;"/>
<line x1="76.700000" y1="46.000000" x2="86.700000" y2="46.000000"  style="stroke:black; stroke-linecap:round; stroke-width:0.25;"/>
<line x1="82.250000" y1="88.000000" x2="86.250000" y2="88.000000"  style="stroke:black; stroke-linecap:round; stroke-width:0.25;"/>
<line x1="86.250000" y1="88.000000" x2="86.700000" y2="88.000000"  style="stroke:black; stroke-linecap:round; stroke-width:0.25;"/>
<line x1="86.700000" y1="46.000000" x2="94.700000" y2="46.000000"  style="stroke:black; stroke-linecap:round; stroke-width:0.25;"/>
<line x1="86.700000" y1="66.000000" x2="94.700000" y2="66.000000"  style="stroke:black; stroke-linecap:round; stroke-width:0.25;"/>
<line x1="86.700000" y1="88.000000" x2="86.700000" y2="66.000000"  style="stroke:black; stroke-linecap:round; stroke-width:0.25;"/>
<line x1="86.700000" y1="88.000000" x2="86.700000" y2="88.000000"  style="stroke:black; stroke-linecap:round; stroke-width:0.25;"/>
<line x1="94.700000" y1="46.000000" x2="94.700000" y2="58.000000"  style="stroke:black; stroke-linecap:round; stroke-width:0.25;"/>
<line x1="94.700000" y1="58.000000" x2="94.700000" y2="58.000000"  style="stroke:black; stroke-linecap:round; stroke-width:0.25;"/>
<line x1="94.700000" y1="58.000000" x2="98.700000" y2="58.000000"  style="stroke:black; stroke-linecap:round; stroke-width:0.25;"/>
<line x1="94.700000" y1="66.000000" x2="98.700000" y2="66.000000"  style="stroke:black; stroke-linecap:round; stroke-width:0.25;"/>
<line x1="122.700000" y1="62.000000" x2="126.700000" y2="62.000000"  style="stroke:black; stroke-linecap:round; stroke-width:0.25;"/>
<line x1="126.700000" y1="62.000000" x2="134.700000" y2="62.000000"  style="stroke:black; stroke-linecap:round; stroke-width:0.25;"/>
<line x1="134.700000" y1="62.000000" x2="134.700000" y2="70.000000"  style="stroke:black; stroke-linecap:round; stroke-width:0.25;"/>
<line x1="134.700000" y1="70.000000" x2="134.700000" y2="70.000000"  style="stroke:black; stroke-linecap:round; stroke-width:0.25;"/>
<line x1="134.700000" y1="70.000000" x2="142.700000" y2="70.000000"  style="stroke:black; stroke-linecap:round; stroke-width:0.25;"/>
<line x1="142.700000" y1="46.000000" x2="142.700000" y2="46.000000"  style="stroke:black; stroke-linecap:round; stroke-width:0.25;"/>
<line x1="142.700000" y1="46.000000" x2="142.700000" y2="62.000000"  style="stroke:black; stroke-linecap:round; stroke-width:0.25;"/>
<line x1="142.700000" y1="62.000000" x2="142.700000" y2="62.000000"  style="stroke:black; stroke-linecap:round; stroke-width:0.25;"/>
<line x1="142.700000" y1="62.000000" x2="146.700000" y2="62.000000"  style="stroke:black; stroke-linecap:round; stroke-width:0.25;"/>
<line x1="142.700000" y1="70.000000" x2="146.700000" y2="70.000000"  style="stroke:black; stroke-linecap:round; stroke-width:0.25;"/>
<line x1="170.700000" y1="66.000000" x2="174.700000" y2="66.000000"  style="stroke:black; stroke-linecap:round; stroke-width:0.25;"/>
<line x1="174.700000" y1="66.000000" x2="174.700000" y2="66.000000"  style="stroke:black; stroke-linecap:round; stroke-width:0.25;"/>
<line x1="174.700000" y1="66.000000" x2="178.700000" y2="66.000000"  style="stroke:black; stroke-linecap:round; stroke-width:0.25;"/>
<line x1="182.050000" y1="46.000000" x2="142.700000" y2="46.000000"  style="stroke:black; stroke-linecap:round; stroke-width:0.25;"/>
<line x1="217.400000" y1="66.000000" x2="221.400000" y2="66.000000"  style="stroke:black; stroke-linecap:round; stroke-width:0.25;"/>
<line x1="221.400000" y1="46.000000" x2="182.050000" y2="46.000000"  style="stroke:black; stroke-linecap:round; stroke-width:0.25;"/>
<line x1="221.400000" y1="46.000000" x2="221.400000" y2="46.000000"  style="stroke:black; stroke-linecap:round; stroke-width:0.25;"/>
<line x1="221.400000" y1="62.000000" x2="221.400000" y2="46.000000"  style="stroke:black; stroke-linecap:round; stroke-width:0.25;"/>
<line x1="221.400000" y1="66.000000" x2="223.400000" y2="66.000000"  style="stroke:black; stroke-linecap:round; stroke-width:0.25;"/>
<line x1="223.400000" y1="66.000000" x2="229.400000" y2="66.000000"  style="stroke:black; stroke-linecap:round; stroke-width:0.25;"/>
<line x1="229.400000" y1="46.000000" x2="237.400000" y2="46.000000"  style="stroke:black; stroke-linecap:round; stroke-width:0.25;"/>
<line x1="229.400000" y1="66.000000" x2="229.400000" y2="46.000000"  style="stroke:black; stroke-linecap:round; stroke-width:0.25;"/>
<line x1="229.400000" y1="66.000000" x2="229.400000" y2="66.000000"  style="stroke:black; stroke-linecap:round; stroke-width:0.25;"/>
<line x1="237.400000" y1="46.000000" x2="277.650000" y2="46.000000"  style="stroke:black; stroke-linecap:round; stroke-width:0.25;"/>
<line x1="277.650000" y1="46.000000" x2="317.900000" y2="46.000000"  style="stroke:black; stroke-linecap:round; stroke-width:0.25;"/>
<line x1="280.100000" y1="66.000000" x2="284.100000" y2="66.000000"  style="stroke:black; stroke-linecap:round; stroke-width:0.25;"/>
<line x1="284.100000" y1="66.000000" x2="284.100000" y2="66.000000"  style="stroke:black; stroke-linecap:round; stroke-width:0.25;"/>
<line x1="284.100000" y1="66.000000" x2="288.100000" y2="66.000000"  style="stroke:black; stroke-linecap:round; stroke-width:0.25;"/>
<line x1="313.900000" y1="66.000000" x2="317.900000" y2="66.000000"  style="stroke:black; stroke-linecap:round; stroke-width:0.25;"/>
<line x1="317.900000" y1="46.000000" x2="325.900000" y2="46.000000"  style="stroke:black; stroke-linecap:round; stroke-width:0.25;"/>
<line x1="317.900000" y1="66.000000" x2="325.900000" y2="66.000000"  style="stroke:black; stroke-linecap:round; stroke-width:0.25;"/>
<line x1="325.900000" y1="46.000000" x2="325.900000" y2="58.000000"  style="stroke:black; stroke-linecap:round; stroke-width:0.25;"/>
<line x1="325.900000" y1="58.000000" x2="325.900000" y2="58.000000"  style="stroke:black; stroke-linecap:round; stroke-width:0.25;"/>
<line x1="325.900000" y1="58.000000" x2="329.900000" y2="58.000000"  style="stroke:black; stroke-linecap:round; stroke-width:0.25;"/>
<line x1="325.900000" y1="66.000000" x2="329.900000" y2="66.000000"  style="stroke:black; stroke-linecap:round; stroke-width:0.25;"/>
<line x1="353.900000" y1="62.000000" x2="357.900000" y2="62.000000"  style="stroke:black; stroke-linecap:round; stroke-width:0.25;"/>
<line x1="357.900000" y1="62.000000" x2="357.900000" y2="62.000000"  style="stroke:black; stroke-linecap:round; stroke-width:0.25;"/>
<line x1="357.900000" y1="62.000000" x2="361.900000" y2="62.000000"  style="stroke:black; stroke-linecap:round; stroke-width:0.25;"/>
<line x1="385.900000" y1="62.000000" x2="389.900000" y2="62.000000"  style="stroke:black; stroke-linecap:round; stroke-width:0.25;"/>
<line x1="389.900000" y1="62.000000" x2="389.900000" y2="62.000000"  style="stroke:black; stroke-linecap:round; stroke-width:0.25;"/>
<line x1="389.900000" y1="62.000000" x2="393.900000" y2="62.000000"  style="stroke:black; stroke-linecap:round; stroke-width:0.25;"/>
<line x1="393.900000" y1="62.000000" x2="397.900000" y2="62.000000"  style="stroke:black; stroke-linecap:round; stroke-width:0.25;"/>
<line x1="397.900000" y1="62.000000" x2="407.900000" y2="62.000000"  style="stroke:black; stroke-linecap:round; stroke-width:0.25;"/>
</svg>
