<?xml version="1.0"?>
<svg xmlns="http://www.w3.org/2000/svg" xmlns:xlink="http://www.w3.org/1999/xlink" viewBox="0 0 258.700000 160.000000" width="129.350000mm" height="80.000000mm" version="1.1">
<a xlink:href="fdel2-0x7feb5146e180.svg">
<rect x="1.000000" y="1.000000" width="257.700000" height="159.000000" rx="0" ry="0" style="stroke:none;fill:#cccccc;"/>
<rect x="0.000000" y="0.000000" width="257.700000" height="159.000000" rx="0" ry="0" style="stroke:none;fill:#ffffff;"/>
</a>
<text x="10.000000" y="7.000000" font-family="Arial" font-size="7"></text>
<rect x="43.000000" y="103.000000" width="24.000000" height="24.000000" rx="0" ry="0" style="stroke:none;fill:#cccccc;"/>
<rect x="42.000000" y="102.000000" width="24.000000" height="24.000000" rx="0" ry="0" style="stroke:none;fill:#f44800;"/>
<text x="54.000000" y="116.000000" font-family="Arial" font-size="7" text-anchor="middle" fill="#FFFFFF">1</text>
<circle cx="44.000000" cy="104.000000" r="1"/>
<line x1="33.000000" y1="93.000000" x2="33.000000" y2="135.000000"  style="stroke: black; stroke-linecap:round; stroke-width:0.25; stroke-dasharray:3,3;"/>
<line x1="33.000000" y1="135.000000" x2="75.000000" y2="135.000000"  style="stroke: black; stroke-linecap:round; stroke-width:0.25; stroke-dasharray:3,3;"/>
<line x1="75.000000" y1="135.000000" x2="75.000000" y2="93.000000"  style="stroke: black; stroke-linecap:round; stroke-width:0.25; stroke-dasharray:3,3;"/>
<line x1="33.000000" y1="93.000000" x2="38.000000" y2="93.000000"  style="stroke: black; stroke-linecap:round; stroke-width:0.25; stroke-dasharray:3,3;"/>
<line x1="63.800000" y1="93.000000" x2="75.000000" y2="93.000000"  style="stroke: black; stroke-linecap:round; stroke-width:0.25; stroke-dasharray:3,3;"/>
<text x="38.000000" y="95.000000" font-family="Arial" font-size="7">parity</text>
<rect x="93.000000" y="99.000000" width="24.000000" height="24.000000" rx="0" ry="0" style="stroke:none;fill:#cccccc;"/>
<rect x="92.000000" y="98.000000" width="24.000000" height="24.000000" rx="0" ry="0" style="stroke:none;fill:#4B71A1;"/>
<text x="104.000000" y="112.000000" font-family="Arial" font-size="7" text-anchor="middle" fill="#FFFFFF">+</text>
<circle cx="94.000000" cy="100.000000" r="1"/>
<line x1="89.000000" y1="105.000000" x2="92.000000" y2="106.000000"  transform="rotate(0.000000,92.000000,106.000000)" style="stroke: black; stroke-width:0.25;"/>
<line x1="89.000000" y1="107.000000" x2="92.000000" y2="106.000000"  transform="rotate(0.000000,92.000000,106.000000)" style="stroke: black; stroke-width:0.25;"/>
<line x1="89.000000" y1="113.000000" x2="92.000000" y2="114.000000"  transform="rotate(0.000000,92.000000,114.000000)" style="stroke: black; stroke-width:0.25;"/>
<line x1="89.000000" y1="115.000000" x2="92.000000" y2="114.000000"  transform="rotate(0.000000,92.000000,114.000000)" style="stroke: black; stroke-width:0.25;"/>
<a xlink:href="delsize2-0x7feb4ac28ed0.svg">
<rect x="133.000000" y="103.000000" width="38.700000" height="24.000000" rx="0" ry="0" style="stroke:none;fill:#cccccc;"/>
<rect x="132.000000" y="102.000000" width="38.700000" height="24.000000" rx="0" ry="0" style="stroke:none;fill:#003366;"/>
</a>
<a xlink:href="delsize2-0x7feb4ac28ed0.svg">
<text x="151.350000" y="116.000000" font-family="Arial" font-size="7" text-anchor="middle" fill="#FFFFFF">delsize2</text>
</a>
<circle cx="134.000000" cy="104.000000" r="1"/>
<rect x="187.700000" y="99.000000" width="24.000000" height="24.000000" rx="0" ry="0" style="stroke:none;fill:#cccccc;"/>
<rect x="186.700000" y="98.000000" width="24.000000" height="24.000000" rx="0" ry="0" style="stroke:none;fill:#4B71A1;"/>
<text x="198.700000" y="112.000000" font-family="Arial" font-size="7" text-anchor="middle" fill="#FFFFFF">%</text>
<circle cx="188.700000" cy="100.000000" r="1"/>
<line x1="183.700000" y1="105.000000" x2="186.700000" y2="106.000000"  transform="rotate(0.000000,186.700000,106.000000)" style="stroke: black; stroke-width:0.25;"/>
<line x1="183.700000" y1="107.000000" x2="186.700000" y2="106.000000"  transform="rotate(0.000000,186.700000,106.000000)" style="stroke: black; stroke-width:0.25;"/>
<line x1="183.700000" y1="113.000000" x2="186.700000" y2="114.000000"  transform="rotate(0.000000,186.700000,114.000000)" style="stroke: black; stroke-width:0.25;"/>
<line x1="183.700000" y1="115.000000" x2="186.700000" y2="114.000000"  transform="rotate(0.000000,186.700000,114.000000)" style="stroke: black; stroke-width:0.25;"/>
<rect x="130.350000" y="35.000000" width="24.000000" height="24.000000" rx="0" ry="0" style="stroke:none;fill:#cccccc;"/>
<rect x="129.350000" y="34.000000" width="24.000000" height="24.000000" rx="0" ry="0" style="stroke:none;fill:#f44800;"/>
<text x="141.350000" y="48.000000" font-family="Arial" font-size="7" text-anchor="middle" fill="#FFFFFF">1</text>
<circle cx="151.350000" cy="56.000000" r="1"/>
<line x1="120.350000" y1="25.000000" x2="120.350000" y2="67.000000"  style="stroke: black; stroke-linecap:round; stroke-width:0.25; stroke-dasharray:3,3;"/>
<line x1="120.350000" y1="67.000000" x2="162.350000" y2="67.000000"  style="stroke: black; stroke-linecap:round; stroke-width:0.25; stroke-dasharray:3,3;"/>
<line x1="162.350000" y1="67.000000" x2="162.350000" y2="25.000000"  style="stroke: black; stroke-linecap:round; stroke-width:0.25; stroke-dasharray:3,3;"/>
<line x1="120.350000" y1="25.000000" x2="125.350000" y2="25.000000"  style="stroke: black; stroke-linecap:round; stroke-width:0.25; stroke-dasharray:3,3;"/>
<line x1="151.150000" y1="25.000000" x2="162.350000" y2="25.000000"  style="stroke: black; stroke-linecap:round; stroke-width:0.25; stroke-dasharray:3,3;"/>
<text x="125.350000" y="27.000000" font-family="Arial" font-size="7">parity</text>
<rect x="80.350000" y="39.000000" width="24.000000" height="24.000000" rx="0" ry="0" style="stroke:none;fill:#cccccc;"/>
<rect x="79.350000" y="38.000000" width="24.000000" height="24.000000" rx="0" ry="0" style="stroke:none;fill:#4B71A1;"/>
<text x="91.350000" y="52.000000" font-family="Arial" font-size="7" text-anchor="middle" fill="#FFFFFF">*</text>
<circle cx="101.350000" cy="60.000000" r="1"/>
<line x1="106.350000" y1="53.000000" x2="103.350000" y2="54.000000"  transform="rotate(0.000000,103.350000,54.000000)" style="stroke: black; stroke-width:0.25;"/>
<line x1="106.350000" y1="55.000000" x2="103.350000" y2="54.000000"  transform="rotate(0.000000,103.350000,54.000000)" style="stroke: black; stroke-width:0.25;"/>
<line x1="106.350000" y1="45.000000" x2="103.350000" y2="46.000000"  transform="rotate(0.000000,103.350000,46.000000)" style="stroke: black; stroke-width:0.25;"/>
<line x1="106.350000" y1="47.000000" x2="103.350000" y2="46.000000"  transform="rotate(0.000000,103.350000,46.000000)" style="stroke: black; stroke-width:0.25;"/>
<line x1="212.700000" y1="110.000000" x2="212.700000" y2="106.000000"  style="stroke:black; stroke-linecap:round; stroke-width:0.25;"/>
<line x1="212.700000" y1="106.000000" x2="216.700000" y2="106.000000"  style="stroke:black; stroke-linecap:round; stroke-width:0.25;"/>
<line x1="216.700000" y1="106.000000" x2="216.700000" y2="110.000000"  style="stroke:black; stroke-linecap:round; stroke-width:0.25;"/>
<line x1="15.000000" y1="15.000000" x2="15.000000" y2="145.000000"  style="stroke: black; stroke-linecap:round; stroke-width:0.25; stroke-dasharray:3,3;"/>
<line x1="15.000000" y1="145.000000" x2="243.700000" y2="145.000000"  style="stroke: black; stroke-linecap:round; stroke-width:0.25; stroke-dasharray:3,3;"/>
<line x1="243.700000" y1="145.000000" x2="243.700000" y2="15.000000"  style="stroke: black; stroke-linecap:round; stroke-width:0.25; stroke-dasharray:3,3;"/>
<line x1="15.000000" y1="15.000000" x2="20.000000" y2="15.000000"  style="stroke: black; stroke-linecap:round; stroke-width:0.25; stroke-dasharray:3,3;"/>
<line x1="55.475000" y1="15.000000" x2="243.700000" y2="15.000000"  style="stroke: black; stroke-linecap:round; stroke-width:0.25; stroke-dasharray:3,3;"/>
<text x="20.000000" y="17.000000" font-family="Arial" font-size="7">recIndex2</text>
<line x1="245.700000" y1="79.000000" x2="248.700000" y2="80.000000"  transform="rotate(0.000000,248.700000,80.000000)" style="stroke: black; stroke-width:0.25;"/>
<line x1="245.700000" y1="81.000000" x2="248.700000" y2="80.000000"  transform="rotate(0.000000,248.700000,80.000000)" style="stroke: black; stroke-width:0.25;"/>
<line x1="28.000000" y1="50.000000" x2="28.000000" y2="50.000000"  style="stroke:black; stroke-linecap:round; stroke-width:0.25;"/>
<line x1="28.000000" y1="50.000000" x2="28.000000" y2="84.000000"  style="stroke:black; stroke-linecap:round; stroke-width:0.25;"/>
<line x1="28.000000" y1="84.000000" x2="28.000000" y2="84.000000"  style="stroke:black; stroke-linecap:round; stroke-width:0.25;"/>
<line x1="28.000000" y1="84.000000" x2="54.000000" y2="84.000000"  style="stroke:black; stroke-linecap:round; stroke-width:0.25;"/>
<line x1="54.000000" y1="84.000000" x2="80.000000" y2="84.000000"  style="stroke:black; stroke-linecap:round; stroke-width:0.25;"/>
<line x1="66.000000" y1="114.000000" x2="70.000000" y2="114.000000"  style="stroke:black; stroke-linecap:round; stroke-width:0.25;"/>
<line x1="70.000000" y1="114.000000" x2="80.000000" y2="114.000000"  style="stroke:black; stroke-linecap:round; stroke-width:0.25;"/>
<line x1="75.350000" y1="50.000000" x2="28.000000" y2="50.000000"  style="stroke:black; stroke-linecap:round; stroke-width:0.25;"/>
<line x1="79.350000" y1="50.000000" x2="75.350000" y2="50.000000"  style="stroke:black; stroke-linecap:round; stroke-width:0.25;"/>
<line x1="80.000000" y1="84.000000" x2="88.000000" y2="84.000000"  style="stroke:black; stroke-linecap:round; stroke-width:0.25;"/>
<line x1="80.000000" y1="114.000000" x2="88.000000" y2="114.000000"  style="stroke:black; stroke-linecap:round; stroke-width:0.25;"/>
<line x1="88.000000" y1="84.000000" x2="88.000000" y2="106.000000"  style="stroke:black; stroke-linecap:round; stroke-width:0.25;"/>
<line x1="88.000000" y1="106.000000" x2="88.000000" y2="106.000000"  style="stroke:black; stroke-linecap:round; stroke-width:0.25;"/>
<line x1="88.000000" y1="106.000000" x2="92.000000" y2="106.000000"  style="stroke:black; stroke-linecap:round; stroke-width:0.25;"/>
<line x1="88.000000" y1="114.000000" x2="92.000000" y2="114.000000"  style="stroke:black; stroke-linecap:round; stroke-width:0.25;"/>
<line x1="107.350000" y1="46.000000" x2="103.350000" y2="46.000000"  style="stroke:black; stroke-linecap:round; stroke-width:0.25;"/>
<line x1="107.350000" y1="54.000000" x2="103.350000" y2="54.000000"  style="stroke:black; stroke-linecap:round; stroke-width:0.25;"/>
<line x1="107.350000" y1="54.000000" x2="107.350000" y2="54.000000"  style="stroke:black; stroke-linecap:round; stroke-width:0.25;"/>
<line x1="107.350000" y1="76.000000" x2="107.350000" y2="54.000000"  style="stroke:black; stroke-linecap:round; stroke-width:0.25;"/>
<line x1="115.350000" y1="46.000000" x2="107.350000" y2="46.000000"  style="stroke:black; stroke-linecap:round; stroke-width:0.25;"/>
<line x1="115.350000" y1="76.000000" x2="107.350000" y2="76.000000"  style="stroke:black; stroke-linecap:round; stroke-width:0.25;"/>
<line x1="116.000000" y1="110.000000" x2="120.000000" y2="110.000000"  style="stroke:black; stroke-linecap:round; stroke-width:0.25;"/>
<line x1="120.000000" y1="94.000000" x2="128.000000" y2="94.000000"  style="stroke:black; stroke-linecap:round; stroke-width:0.25;"/>
<line x1="120.000000" y1="110.000000" x2="120.000000" y2="94.000000"  style="stroke:black; stroke-linecap:round; stroke-width:0.25;"/>
<line x1="120.000000" y1="110.000000" x2="120.000000" y2="110.000000"  style="stroke:black; stroke-linecap:round; stroke-width:0.25;"/>
<line x1="125.350000" y1="46.000000" x2="115.350000" y2="46.000000"  style="stroke:black; stroke-linecap:round; stroke-width:0.25;"/>
<line x1="128.000000" y1="94.000000" x2="151.350000" y2="94.000000"  style="stroke:black; stroke-linecap:round; stroke-width:0.25;"/>
<line x1="129.350000" y1="46.000000" x2="125.350000" y2="46.000000"  style="stroke:black; stroke-linecap:round; stroke-width:0.25;"/>
<line x1="141.350000" y1="76.000000" x2="115.350000" y2="76.000000"  style="stroke:black; stroke-linecap:round; stroke-width:0.25;"/>
<line x1="151.350000" y1="94.000000" x2="174.700000" y2="94.000000"  style="stroke:black; stroke-linecap:round; stroke-width:0.25;"/>
<line x1="167.350000" y1="76.000000" x2="141.350000" y2="76.000000"  style="stroke:black; stroke-linecap:round; stroke-width:0.25;"/>
<line x1="170.700000" y1="114.000000" x2="174.700000" y2="114.000000"  style="stroke:black; stroke-linecap:round; stroke-width:0.25;"/>
<line x1="174.700000" y1="94.000000" x2="182.700000" y2="94.000000"  style="stroke:black; stroke-linecap:round; stroke-width:0.25;"/>
<line x1="174.700000" y1="114.000000" x2="182.700000" y2="114.000000"  style="stroke:black; stroke-linecap:round; stroke-width:0.25;"/>
<line x1="182.700000" y1="94.000000" x2="182.700000" y2="106.000000"  style="stroke:black; stroke-linecap:round; stroke-width:0.25;"/>
<line x1="182.700000" y1="106.000000" x2="182.700000" y2="106.000000"  style="stroke:black; stroke-linecap:round; stroke-width:0.25;"/>
<line x1="182.700000" y1="106.000000" x2="186.700000" y2="106.000000"  style="stroke:black; stroke-linecap:round; stroke-width:0.25;"/>
<line x1="182.700000" y1="114.000000" x2="186.700000" y2="114.000000"  style="stroke:black; stroke-linecap:round; stroke-width:0.25;"/>
<line x1="210.700000" y1="110.000000" x2="214.700000" y2="110.000000"  style="stroke:black; stroke-linecap:round; stroke-width:0.25;"/>
<line x1="214.700000" y1="76.000000" x2="167.350000" y2="76.000000"  style="stroke:black; stroke-linecap:round; stroke-width:0.25;"/>
<line x1="214.700000" y1="76.000000" x2="214.700000" y2="76.000000"  style="stroke:black; stroke-linecap:round; stroke-width:0.25;"/>
<line x1="214.700000" y1="106.000000" x2="214.700000" y2="76.000000"  style="stroke:black; stroke-linecap:round; stroke-width:0.25;"/>
<line x1="214.700000" y1="110.000000" x2="216.700000" y2="110.000000"  style="stroke:black; stroke-linecap:round; stroke-width:0.25;"/>
<line x1="216.700000" y1="110.000000" x2="222.700000" y2="110.000000"  style="stroke:black; stroke-linecap:round; stroke-width:0.25;"/>
<line x1="222.700000" y1="80.000000" x2="230.700000" y2="80.000000"  style="stroke:black; stroke-linecap:round; stroke-width:0.25;"/>
<line x1="222.700000" y1="110.000000" x2="222.700000" y2="80.000000"  style="stroke:black; stroke-linecap:round; stroke-width:0.25;"/>
<line x1="222.700000" y1="110.000000" x2="222.700000" y2="110.000000"  style="stroke:black; stroke-linecap:round; stroke-width:0.25;"/>
<line x1="230.700000" y1="80.000000" x2="234.700000" y2="80.000000"  style="stroke:black; stroke-linecap:round; stroke-width:0.25;"/>
<line x1="234.700000" y1="80.000000" x2="238.700000" y2="80.000000"  style="stroke:black; stroke-linecap:round; stroke-width:0.25;"/>
<line x1="238.700000" y1="80.000000" x2="248.700000" y2="80.000000"  style="stroke:black; stroke-linecap:round; stroke-width:0.25;"/>
</svg>
