<?xml version="1.0"?>
<svg xmlns="http://www.w3.org/2000/svg" xmlns:xlink="http://www.w3.org/1999/xlink" viewBox="0 0 253.400000 216.000000" width="126.700000mm" height="108.000000mm" version="1.1">
<a xlink:href="inpeq-0x7ffb4d9c89c0.svg">
<rect x="1.000000" y="1.000000" width="252.400000" height="215.000000" rx="0" ry="0" style="stroke:none;fill:#cccccc;"/>
<rect x="0.000000" y="0.000000" width="252.400000" height="215.000000" rx="0" ry="0" style="stroke:none;fill:#ffffff;"/>
</a>
<text x="10.000000" y="7.000000" font-family="Arial" font-size="7"></text>
<rect x="91.700000" y="55.000000" width="24.000000" height="24.000000" rx="0" ry="0" style="stroke:none;fill:#cccccc;"/>
<rect x="90.700000" y="54.000000" width="24.000000" height="24.000000" rx="0" ry="0" style="stroke:none;fill:#f44800;"/>
<text x="102.700000" y="68.000000" font-family="Arial" font-size="7" text-anchor="middle" fill="#FFFFFF">1</text>
<circle cx="92.700000" cy="56.000000" r="1"/>
<line x1="81.700000" y1="45.000000" x2="81.700000" y2="87.000000"  style="stroke: black; stroke-linecap:round; stroke-width:0.25; stroke-dasharray:3,3;"/>
<line x1="81.700000" y1="87.000000" x2="123.700000" y2="87.000000"  style="stroke: black; stroke-linecap:round; stroke-width:0.25; stroke-dasharray:3,3;"/>
<line x1="123.700000" y1="87.000000" x2="123.700000" y2="45.000000"  style="stroke: black; stroke-linecap:round; stroke-width:0.25; stroke-dasharray:3,3;"/>
<line x1="81.700000" y1="45.000000" x2="86.700000" y2="45.000000"  style="stroke: black; stroke-linecap:round; stroke-width:0.25; stroke-dasharray:3,3;"/>
<line x1="96.375000" y1="45.000000" x2="123.700000" y2="45.000000"  style="stroke: black; stroke-linecap:round; stroke-width:0.25; stroke-dasharray:3,3;"/>
<text x="86.700000" y="47.000000" font-family="Arial" font-size="7">o</text>
<rect x="45.000000" y="97.000000" width="77.400000" height="24.000000" rx="0" ry="0" style="stroke:none;fill:#cccccc;"/>
<rect x="44.000000" y="96.000000" width="77.400000" height="24.000000" rx="0" ry="0" style="stroke:none;fill:#477881;"/>
<text x="82.700000" y="110.000000" font-family="Arial" font-size="7" text-anchor="middle" fill="#FFFFFF">checkbox(InvPhase)</text>
<circle cx="46.000000" cy="98.000000" r="1"/>
<rect x="71.700000" y="139.000000" width="24.000000" height="24.000000" rx="0" ry="0" style="stroke:none;fill:#cccccc;"/>
<rect x="70.700000" y="138.000000" width="24.000000" height="24.000000" rx="0" ry="0" style="stroke:none;fill:#f44800;"/>
<text x="82.700000" y="152.000000" font-family="Arial" font-size="7" text-anchor="middle" fill="#FFFFFF">2</text>
<circle cx="72.700000" cy="140.000000" r="1"/>
<line x1="61.700000" y1="129.000000" x2="61.700000" y2="171.000000"  style="stroke: black; stroke-linecap:round; stroke-width:0.25; stroke-dasharray:3,3;"/>
<line x1="61.700000" y1="171.000000" x2="103.700000" y2="171.000000"  style="stroke: black; stroke-linecap:round; stroke-width:0.25; stroke-dasharray:3,3;"/>
<line x1="103.700000" y1="171.000000" x2="103.700000" y2="129.000000"  style="stroke: black; stroke-linecap:round; stroke-width:0.25; stroke-dasharray:3,3;"/>
<line x1="61.700000" y1="129.000000" x2="66.700000" y2="129.000000"  style="stroke: black; stroke-linecap:round; stroke-width:0.25; stroke-dasharray:3,3;"/>
<line x1="76.375000" y1="129.000000" x2="103.700000" y2="129.000000"  style="stroke: black; stroke-linecap:round; stroke-width:0.25; stroke-dasharray:3,3;"/>
<text x="66.700000" y="131.000000" font-family="Arial" font-size="7">o</text>
<rect x="138.400000" y="123.000000" width="24.000000" height="24.000000" rx="0" ry="0" style="stroke:none;fill:#cccccc;"/>
<rect x="137.400000" y="122.000000" width="24.000000" height="24.000000" rx="0" ry="0" style="stroke:none;fill:#4B71A1;"/>
<text x="149.400000" y="136.000000" font-family="Arial" font-size="7" text-anchor="middle" fill="#FFFFFF">*</text>
<circle cx="139.400000" cy="124.000000" r="1"/>
<line x1="134.400000" y1="129.000000" x2="137.400000" y2="130.000000"  transform="rotate(0.000000,137.400000,130.000000)" style="stroke: black; stroke-width:0.25;"/>
<line x1="134.400000" y1="131.000000" x2="137.400000" y2="130.000000"  transform="rotate(0.000000,137.400000,130.000000)" style="stroke: black; stroke-width:0.25;"/>
<line x1="134.400000" y1="137.000000" x2="137.400000" y2="138.000000"  transform="rotate(0.000000,137.400000,138.000000)" style="stroke: black; stroke-width:0.25;"/>
<line x1="134.400000" y1="139.000000" x2="137.400000" y2="138.000000"  transform="rotate(0.000000,137.400000,138.000000)" style="stroke: black; stroke-width:0.25;"/>
<rect x="178.400000" y="97.000000" width="24.000000" height="24.000000" rx="0" ry="0" style="stroke:none;fill:#cccccc;"/>
<rect x="177.400000" y="96.000000" width="24.000000" height="24.000000" rx="0" ry="0" style="stroke:none;fill:#4B71A1;"/>
<text x="189.400000" y="110.000000" font-family="Arial" font-size="7" text-anchor="middle" fill="#FFFFFF">-</text>
<circle cx="179.400000" cy="98.000000" r="1"/>
<line x1="174.400000" y1="103.000000" x2="177.400000" y2="104.000000"  transform="rotate(0.000000,177.400000,104.000000)" style="stroke: black; stroke-width:0.25;"/>
<line x1="174.400000" y1="105.000000" x2="177.400000" y2="104.000000"  transform="rotate(0.000000,177.400000,104.000000)" style="stroke: black; stroke-width:0.25;"/>
<line x1="174.400000" y1="111.000000" x2="177.400000" y2="112.000000"  transform="rotate(0.000000,177.400000,112.000000)" style="stroke: black; stroke-width:0.25;"/>
<line x1="174.400000" y1="113.000000" x2="177.400000" y2="112.000000"  transform="rotate(0.000000,177.400000,112.000000)" style="stroke: black; stroke-width:0.25;"/>
<line x1="35.000000" y1="35.000000" x2="35.000000" y2="181.000000"  style="stroke: black; stroke-linecap:round; stroke-width:0.25; stroke-dasharray:3,3;"/>
<line x1="35.000000" y1="181.000000" x2="210.400000" y2="181.000000"  style="stroke: black; stroke-linecap:round; stroke-width:0.25; stroke-dasharray:3,3;"/>
<line x1="210.400000" y1="181.000000" x2="210.400000" y2="35.000000"  style="stroke: black; stroke-linecap:round; stroke-width:0.25; stroke-dasharray:3,3;"/>
<line x1="35.000000" y1="35.000000" x2="40.000000" y2="35.000000"  style="stroke: black; stroke-linecap:round; stroke-width:0.25; stroke-dasharray:3,3;"/>
<line x1="104.500000" y1="35.000000" x2="210.400000" y2="35.000000"  style="stroke: black; stroke-linecap:round; stroke-width:0.25; stroke-dasharray:3,3;"/>
<text x="40.000000" y="37.000000" font-family="Arial" font-size="7">vgroup(PHASE GAIN)</text>
<line x1="25.000000" y1="25.000000" x2="25.000000" y2="191.000000"  style="stroke: black; stroke-linecap:round; stroke-width:0.25; stroke-dasharray:3,3;"/>
<line x1="25.000000" y1="191.000000" x2="220.400000" y2="191.000000"  style="stroke: black; stroke-linecap:round; stroke-width:0.25; stroke-dasharray:3,3;"/>
<line x1="220.400000" y1="191.000000" x2="220.400000" y2="25.000000"  style="stroke: black; stroke-linecap:round; stroke-width:0.25; stroke-dasharray:3,3;"/>
<line x1="25.000000" y1="25.000000" x2="30.000000" y2="25.000000"  style="stroke: black; stroke-linecap:round; stroke-width:0.25; stroke-dasharray:3,3;"/>
<line x1="97.725000" y1="25.000000" x2="220.400000" y2="25.000000"  style="stroke: black; stroke-linecap:round; stroke-width:0.25; stroke-dasharray:3,3;"/>
<text x="30.000000" y="27.000000" font-family="Arial" font-size="7">hgroup(PRE SECTION)</text>
<line x1="15.000000" y1="15.000000" x2="15.000000" y2="201.000000"  style="stroke: black; stroke-linecap:round; stroke-width:0.25; stroke-dasharray:3,3;"/>
<line x1="15.000000" y1="201.000000" x2="238.400000" y2="201.000000"  style="stroke: black; stroke-linecap:round; stroke-width:0.25; stroke-dasharray:3,3;"/>
<line x1="238.400000" y1="201.000000" x2="238.400000" y2="15.000000"  style="stroke: black; stroke-linecap:round; stroke-width:0.25; stroke-dasharray:3,3;"/>
<line x1="15.000000" y1="15.000000" x2="20.000000" y2="15.000000"  style="stroke: black; stroke-linecap:round; stroke-width:0.25; stroke-dasharray:3,3;"/>
<line x1="39.350000" y1="15.000000" x2="238.400000" y2="15.000000"  style="stroke: black; stroke-linecap:round; stroke-width:0.25; stroke-dasharray:3,3;"/>
<text x="20.000000" y="17.000000" font-family="Arial" font-size="7">rpol</text>
<line x1="240.400000" y1="107.000000" x2="243.400000" y2="108.000000"  transform="rotate(0.000000,243.400000,108.000000)" style="stroke: black; stroke-width:0.25;"/>
<line x1="240.400000" y1="109.000000" x2="243.400000" y2="108.000000"  transform="rotate(0.000000,243.400000,108.000000)" style="stroke: black; stroke-width:0.25;"/>
<line x1="94.700000" y1="150.000000" x2="98.700000" y2="150.000000"  style="stroke:black; stroke-linecap:round; stroke-width:0.25;"/>
<line x1="98.700000" y1="150.000000" x2="108.700000" y2="150.000000"  style="stroke:black; stroke-linecap:round; stroke-width:0.25;"/>
<line x1="108.700000" y1="150.000000" x2="125.400000" y2="150.000000"  style="stroke:black; stroke-linecap:round; stroke-width:0.25;"/>
<line x1="114.700000" y1="66.000000" x2="118.700000" y2="66.000000"  style="stroke:black; stroke-linecap:round; stroke-width:0.25;"/>
<line x1="118.700000" y1="66.000000" x2="128.700000" y2="66.000000"  style="stroke:black; stroke-linecap:round; stroke-width:0.25;"/>
<line x1="121.400000" y1="108.000000" x2="125.400000" y2="108.000000"  style="stroke:black; stroke-linecap:round; stroke-width:0.25;"/>
<line x1="125.400000" y1="138.000000" x2="133.400000" y2="138.000000"  style="stroke:black; stroke-linecap:round; stroke-width:0.25;"/>
<line x1="125.400000" y1="150.000000" x2="125.400000" y2="138.000000"  style="stroke:black; stroke-linecap:round; stroke-width:0.25;"/>
<line x1="125.400000" y1="150.000000" x2="125.400000" y2="150.000000"  style="stroke:black; stroke-linecap:round; stroke-width:0.25;"/>
<line x1="125.400000" y1="108.000000" x2="133.400000" y2="108.000000"  style="stroke:black; stroke-linecap:round; stroke-width:0.25;"/>
<line x1="128.700000" y1="66.000000" x2="165.400000" y2="66.000000"  style="stroke:black; stroke-linecap:round; stroke-width:0.25;"/>
<line x1="133.400000" y1="108.000000" x2="133.400000" y2="130.000000"  style="stroke:black; stroke-linecap:round; stroke-width:0.25;"/>
<line x1="133.400000" y1="130.000000" x2="133.400000" y2="130.000000"  style="stroke:black; stroke-linecap:round; stroke-width:0.25;"/>
<line x1="133.400000" y1="130.000000" x2="137.400000" y2="130.000000"  style="stroke:black; stroke-linecap:round; stroke-width:0.25;"/>
<line x1="133.400000" y1="138.000000" x2="137.400000" y2="138.000000"  style="stroke:black; stroke-linecap:round; stroke-width:0.25;"/>
<line x1="161.400000" y1="134.000000" x2="165.400000" y2="134.000000"  style="stroke:black; stroke-linecap:round; stroke-width:0.25;"/>
<line x1="165.400000" y1="66.000000" x2="173.400000" y2="66.000000"  style="stroke:black; stroke-linecap:round; stroke-width:0.25;"/>
<line x1="165.400000" y1="112.000000" x2="173.400000" y2="112.000000"  style="stroke:black; stroke-linecap:round; stroke-width:0.25;"/>
<line x1="165.400000" y1="134.000000" x2="165.400000" y2="112.000000"  style="stroke:black; stroke-linecap:round; stroke-width:0.25;"/>
<line x1="165.400000" y1="134.000000" x2="165.400000" y2="134.000000"  style="stroke:black; stroke-linecap:round; stroke-width:0.25;"/>
<line x1="173.400000" y1="66.000000" x2="173.400000" y2="104.000000"  style="stroke:black; stroke-linecap:round; stroke-width:0.25;"/>
<line x1="173.400000" y1="104.000000" x2="173.400000" y2="104.000000"  style="stroke:black; stroke-linecap:round; stroke-width:0.25;"/>
<line x1="173.400000" y1="104.000000" x2="177.400000" y2="104.000000"  style="stroke:black; stroke-linecap:round; stroke-width:0.25;"/>
<line x1="173.400000" y1="112.000000" x2="177.400000" y2="112.000000"  style="stroke:black; stroke-linecap:round; stroke-width:0.25;"/>
<line x1="201.400000" y1="108.000000" x2="205.400000" y2="108.000000"  style="stroke:black; stroke-linecap:round; stroke-width:0.25;"/>
<line x1="205.400000" y1="108.000000" x2="215.400000" y2="108.000000"  style="stroke:black; stroke-linecap:round; stroke-width:0.25;"/>
<line x1="215.400000" y1="108.000000" x2="225.400000" y2="108.000000"  style="stroke:black; stroke-linecap:round; stroke-width:0.25;"/>
<line x1="225.400000" y1="108.000000" x2="225.400000" y2="108.000000"  style="stroke:black; stroke-linecap:round; stroke-width:0.25;"/>
<line x1="225.400000" y1="108.000000" x2="229.400000" y2="108.000000"  style="stroke:black; stroke-linecap:round; stroke-width:0.25;"/>
<line x1="229.400000" y1="108.000000" x2="233.400000" y2="108.000000"  style="stroke:black; stroke-linecap:round; stroke-width:0.25;"/>
<line x1="233.400000" y1="108.000000" x2="243.400000" y2="108.000000"  style="stroke:black; stroke-linecap:round; stroke-width:0.25;"/>
</svg>
