<?xml version="1.0"?>
<svg xmlns="http://www.w3.org/2000/svg" xmlns:xlink="http://www.w3.org/1999/xlink" viewBox="0 0 459.700000 100.000000" width="229.850000mm" height="50.000000mm" version="1.1">
<a xlink:href="dmo-0x7f92eaa1a0d0.svg">
<rect x="1.000000" y="1.000000" width="458.700000" height="99.000000" rx="0" ry="0" style="stroke:none;fill:#cccccc;"/>
<rect x="0.000000" y="0.000000" width="458.700000" height="99.000000" rx="0" ry="0" style="stroke:none;fill:#ffffff;"/>
</a>
<text x="10.000000" y="7.000000" font-family="Arial" font-size="7"></text>
<a xlink:href="osc-0x7f92eaa19b90.svg">
<rect x="35.000000" y="39.000000" width="129.000000" height="24.000000" rx="0" ry="0" style="stroke:none;fill:#cccccc;"/>
<rect x="34.000000" y="38.000000" width="129.000000" height="24.000000" rx="0" ry="0" style="stroke:none;fill:#003366;"/>
</a>
<a xlink:href="osc-0x7f92eaa19b90.svg">
<text x="98.500000" y="52.000000" font-family="Arial" font-size="7" text-anchor="middle" fill="#FFFFFF">osc(vslider(&quot;...,0.999f : *))</text>
</a>
<circle cx="36.000000" cy="40.000000" r="1"/>
<rect x="180.000000" y="43.000000" width="24.000000" height="24.000000" rx="0" ry="0" style="stroke:none;fill:#cccccc;"/>
<rect x="179.000000" y="42.000000" width="24.000000" height="24.000000" rx="0" ry="0" style="stroke:none;fill:#f44800;"/>
<text x="191.000000" y="56.000000" font-family="Arial" font-size="7" text-anchor="middle" fill="#FFFFFF">0.5</text>
<circle cx="181.000000" cy="44.000000" r="1"/>
<rect x="220.000000" y="39.000000" width="24.000000" height="24.000000" rx="0" ry="0" style="stroke:none;fill:#cccccc;"/>
<rect x="219.000000" y="38.000000" width="24.000000" height="24.000000" rx="0" ry="0" style="stroke:none;fill:#4B71A1;"/>
<text x="231.000000" y="52.000000" font-family="Arial" font-size="7" text-anchor="middle" fill="#FFFFFF">*</text>
<circle cx="221.000000" cy="40.000000" r="1"/>
<line x1="216.000000" y1="45.000000" x2="219.000000" y2="46.000000"  transform="rotate(0.000000,219.000000,46.000000)" style="stroke: black; stroke-width:0.25;"/>
<line x1="216.000000" y1="47.000000" x2="219.000000" y2="46.000000"  transform="rotate(0.000000,219.000000,46.000000)" style="stroke: black; stroke-width:0.25;"/>
<line x1="216.000000" y1="53.000000" x2="219.000000" y2="54.000000"  transform="rotate(0.000000,219.000000,54.000000)" style="stroke: black; stroke-width:0.25;"/>
<line x1="216.000000" y1="55.000000" x2="219.000000" y2="54.000000"  transform="rotate(0.000000,219.000000,54.000000)" style="stroke: black; stroke-width:0.25;"/>
<rect x="260.000000" y="43.000000" width="24.000000" height="24.000000" rx="0" ry="0" style="stroke:none;fill:#cccccc;"/>
<rect x="259.000000" y="42.000000" width="24.000000" height="24.000000" rx="0" ry="0" style="stroke:none;fill:#f44800;"/>
<text x="271.000000" y="56.000000" font-family="Arial" font-size="7" text-anchor="middle" fill="#FFFFFF">1</text>
<circle cx="261.000000" cy="44.000000" r="1"/>
<rect x="300.000000" y="39.000000" width="24.000000" height="24.000000" rx="0" ry="0" style="stroke:none;fill:#cccccc;"/>
<rect x="299.000000" y="38.000000" width="24.000000" height="24.000000" rx="0" ry="0" style="stroke:none;fill:#4B71A1;"/>
<text x="311.000000" y="52.000000" font-family="Arial" font-size="7" text-anchor="middle" fill="#FFFFFF">+</text>
<circle cx="301.000000" cy="40.000000" r="1"/>
<line x1="296.000000" y1="45.000000" x2="299.000000" y2="46.000000"  transform="rotate(0.000000,299.000000,46.000000)" style="stroke: black; stroke-width:0.25;"/>
<line x1="296.000000" y1="47.000000" x2="299.000000" y2="46.000000"  transform="rotate(0.000000,299.000000,46.000000)" style="stroke: black; stroke-width:0.25;"/>
<line x1="296.000000" y1="53.000000" x2="299.000000" y2="54.000000"  transform="rotate(0.000000,299.000000,54.000000)" style="stroke: black; stroke-width:0.25;"/>
<line x1="296.000000" y1="55.000000" x2="299.000000" y2="54.000000"  transform="rotate(0.000000,299.000000,54.000000)" style="stroke: black; stroke-width:0.25;"/>
<a xlink:href="writesize-0x7f92e85e3f80.svg">
<rect x="340.000000" y="43.000000" width="38.700000" height="24.000000" rx="0" ry="0" style="stroke:none;fill:#cccccc;"/>
<rect x="339.000000" y="42.000000" width="38.700000" height="24.000000" rx="0" ry="0" style="stroke:none;fill:#003366;"/>
</a>
<a xlink:href="writesize-0x7f92e85e3f80.svg">
<text x="358.350000" y="56.000000" font-family="Arial" font-size="7" text-anchor="middle" fill="#FFFFFF">writesize</text>
</a>
<circle cx="341.000000" cy="44.000000" r="1"/>
<rect x="394.700000" y="39.000000" width="24.000000" height="24.000000" rx="0" ry="0" style="stroke:none;fill:#cccccc;"/>
<rect x="393.700000" y="38.000000" width="24.000000" height="24.000000" rx="0" ry="0" style="stroke:none;fill:#4B71A1;"/>
<text x="405.700000" y="52.000000" font-family="Arial" font-size="7" text-anchor="middle" fill="#FFFFFF">*</text>
<circle cx="395.700000" cy="40.000000" r="1"/>
<line x1="390.700000" y1="45.000000" x2="393.700000" y2="46.000000"  transform="rotate(0.000000,393.700000,46.000000)" style="stroke: black; stroke-width:0.25;"/>
<line x1="390.700000" y1="47.000000" x2="393.700000" y2="46.000000"  transform="rotate(0.000000,393.700000,46.000000)" style="stroke: black; stroke-width:0.25;"/>
<line x1="390.700000" y1="53.000000" x2="393.700000" y2="54.000000"  transform="rotate(0.000000,393.700000,54.000000)" style="stroke: black; stroke-width:0.25;"/>
<line x1="390.700000" y1="55.000000" x2="393.700000" y2="54.000000"  transform="rotate(0.000000,393.700000,54.000000)" style="stroke: black; stroke-width:0.25;"/>
<line x1="25.000000" y1="25.000000" x2="25.000000" y2="75.000000"  style="stroke: black; stroke-linecap:round; stroke-width:0.25; stroke-dasharray:3,3;"/>
<line x1="25.000000" y1="75.000000" x2="426.700000" y2="75.000000"  style="stroke: black; stroke-linecap:round; stroke-width:0.25; stroke-dasharray:3,3;"/>
<line x1="426.700000" y1="75.000000" x2="426.700000" y2="25.000000"  style="stroke: black; stroke-linecap:round; stroke-width:0.25; stroke-dasharray:3,3;"/>
<line x1="25.000000" y1="25.000000" x2="30.000000" y2="25.000000"  style="stroke: black; stroke-linecap:round; stroke-width:0.25; stroke-dasharray:3,3;"/>
<line x1="94.500000" y1="25.000000" x2="426.700000" y2="25.000000"  style="stroke: black; stroke-linecap:round; stroke-width:0.25; stroke-dasharray:3,3;"/>
<text x="30.000000" y="27.000000" font-family="Arial" font-size="7">hgroup(OSCILLATOR)</text>
<line x1="15.000000" y1="15.000000" x2="15.000000" y2="85.000000"  style="stroke: black; stroke-linecap:round; stroke-width:0.25; stroke-dasharray:3,3;"/>
<line x1="15.000000" y1="85.000000" x2="444.700000" y2="85.000000"  style="stroke: black; stroke-linecap:round; stroke-width:0.25; stroke-dasharray:3,3;"/>
<line x1="444.700000" y1="85.000000" x2="444.700000" y2="15.000000"  style="stroke: black; stroke-linecap:round; stroke-width:0.25; stroke-dasharray:3,3;"/>
<line x1="15.000000" y1="15.000000" x2="20.000000" y2="15.000000"  style="stroke: black; stroke-linecap:round; stroke-width:0.25; stroke-dasharray:3,3;"/>
<line x1="39.350000" y1="15.000000" x2="444.700000" y2="15.000000"  style="stroke: black; stroke-linecap:round; stroke-width:0.25; stroke-dasharray:3,3;"/>
<text x="20.000000" y="17.000000" font-family="Arial" font-size="7">step</text>
<line x1="446.700000" y1="49.000000" x2="449.700000" y2="50.000000"  transform="rotate(0.000000,449.700000,50.000000)" style="stroke: black; stroke-width:0.25;"/>
<line x1="446.700000" y1="51.000000" x2="449.700000" y2="50.000000"  transform="rotate(0.000000,449.700000,50.000000)" style="stroke: black; stroke-width:0.25;"/>
<line x1="163.000000" y1="50.000000" x2="167.000000" y2="50.000000"  style="stroke:black; stroke-linecap:round; stroke-width:0.25;"/>
<line x1="167.000000" y1="34.000000" x2="175.000000" y2="34.000000"  style="stroke:black; stroke-linecap:round; stroke-width:0.25;"/>
<line x1="167.000000" y1="50.000000" x2="167.000000" y2="34.000000"  style="stroke:black; stroke-linecap:round; stroke-width:0.25;"/>
<line x1="167.000000" y1="50.000000" x2="167.000000" y2="50.000000"  style="stroke:black; stroke-linecap:round; stroke-width:0.25;"/>
<line x1="175.000000" y1="34.000000" x2="191.000000" y2="34.000000"  style="stroke:black; stroke-linecap:round; stroke-width:0.25;"/>
<line x1="191.000000" y1="34.000000" x2="207.000000" y2="34.000000"  style="stroke:black; stroke-linecap:round; stroke-width:0.25;"/>
<line x1="203.000000" y1="54.000000" x2="207.000000" y2="54.000000"  style="stroke:black; stroke-linecap:round; stroke-width:0.25;"/>
<line x1="207.000000" y1="34.000000" x2="215.000000" y2="34.000000"  style="stroke:black; stroke-linecap:round; stroke-width:0.25;"/>
<line x1="207.000000" y1="54.000000" x2="215.000000" y2="54.000000"  style="stroke:black; stroke-linecap:round; stroke-width:0.25;"/>
<line x1="215.000000" y1="34.000000" x2="215.000000" y2="46.000000"  style="stroke:black; stroke-linecap:round; stroke-width:0.25;"/>
<line x1="215.000000" y1="46.000000" x2="215.000000" y2="46.000000"  style="stroke:black; stroke-linecap:round; stroke-width:0.25;"/>
<line x1="215.000000" y1="46.000000" x2="219.000000" y2="46.000000"  style="stroke:black; stroke-linecap:round; stroke-width:0.25;"/>
<line x1="215.000000" y1="54.000000" x2="219.000000" y2="54.000000"  style="stroke:black; stroke-linecap:round; stroke-width:0.25;"/>
<line x1="243.000000" y1="50.000000" x2="247.000000" y2="50.000000"  style="stroke:black; stroke-linecap:round; stroke-width:0.25;"/>
<line x1="247.000000" y1="34.000000" x2="255.000000" y2="34.000000"  style="stroke:black; stroke-linecap:round; stroke-width:0.25;"/>
<line x1="247.000000" y1="50.000000" x2="247.000000" y2="34.000000"  style="stroke:black; stroke-linecap:round; stroke-width:0.25;"/>
<line x1="247.000000" y1="50.000000" x2="247.000000" y2="50.000000"  style="stroke:black; stroke-linecap:round; stroke-width:0.25;"/>
<line x1="255.000000" y1="34.000000" x2="271.000000" y2="34.000000"  style="stroke:black; stroke-linecap:round; stroke-width:0.25;"/>
<line x1="271.000000" y1="34.000000" x2="287.000000" y2="34.000000"  style="stroke:black; stroke-linecap:round; stroke-width:0.25;"/>
<line x1="283.000000" y1="54.000000" x2="287.000000" y2="54.000000"  style="stroke:black; stroke-linecap:round; stroke-width:0.25;"/>
<line x1="287.000000" y1="34.000000" x2="295.000000" y2="34.000000"  style="stroke:black; stroke-linecap:round; stroke-width:0.25;"/>
<line x1="287.000000" y1="54.000000" x2="295.000000" y2="54.000000"  style="stroke:black; stroke-linecap:round; stroke-width:0.25;"/>
<line x1="295.000000" y1="34.000000" x2="295.000000" y2="46.000000"  style="stroke:black; stroke-linecap:round; stroke-width:0.25;"/>
<line x1="295.000000" y1="46.000000" x2="295.000000" y2="46.000000"  style="stroke:black; stroke-linecap:round; stroke-width:0.25;"/>
<line x1="295.000000" y1="46.000000" x2="299.000000" y2="46.000000"  style="stroke:black; stroke-linecap:round; stroke-width:0.25;"/>
<line x1="295.000000" y1="54.000000" x2="299.000000" y2="54.000000"  style="stroke:black; stroke-linecap:round; stroke-width:0.25;"/>
<line x1="323.000000" y1="50.000000" x2="327.000000" y2="50.000000"  style="stroke:black; stroke-linecap:round; stroke-width:0.25;"/>
<line x1="327.000000" y1="34.000000" x2="335.000000" y2="34.000000"  style="stroke:black; stroke-linecap:round; stroke-width:0.25;"/>
<line x1="327.000000" y1="50.000000" x2="327.000000" y2="34.000000"  style="stroke:black; stroke-linecap:round; stroke-width:0.25;"/>
<line x1="327.000000" y1="50.000000" x2="327.000000" y2="50.000000"  style="stroke:black; stroke-linecap:round; stroke-width:0.25;"/>
<line x1="335.000000" y1="34.000000" x2="358.350000" y2="34.000000"  style="stroke:black; stroke-linecap:round; stroke-width:0.25;"/>
<line x1="358.350000" y1="34.000000" x2="381.700000" y2="34.000000"  style="stroke:black; stroke-linecap:round; stroke-width:0.25;"/>
<line x1="377.700000" y1="54.000000" x2="381.700000" y2="54.000000"  style="stroke:black; stroke-linecap:round; stroke-width:0.25;"/>
<line x1="381.700000" y1="54.000000" x2="389.700000" y2="54.000000"  style="stroke:black; stroke-linecap:round; stroke-width:0.25;"/>
<line x1="381.700000" y1="34.000000" x2="389.700000" y2="34.000000"  style="stroke:black; stroke-linecap:round; stroke-width:0.25;"/>
<line x1="389.700000" y1="46.000000" x2="393.700000" y2="46.000000"  style="stroke:black; stroke-linecap:round; stroke-width:0.25;"/>
<line x1="389.700000" y1="54.000000" x2="393.700000" y2="54.000000"  style="stroke:black; stroke-linecap:round; stroke-width:0.25;"/>
<line x1="389.700000" y1="34.000000" x2="389.700000" y2="46.000000"  style="stroke:black; stroke-linecap:round; stroke-width:0.25;"/>
<line x1="389.700000" y1="46.000000" x2="389.700000" y2="46.000000"  style="stroke:black; stroke-linecap:round; stroke-width:0.25;"/>
<line x1="417.700000" y1="50.000000" x2="421.700000" y2="50.000000"  style="stroke:black; stroke-linecap:round; stroke-width:0.25;"/>
<line x1="421.700000" y1="50.000000" x2="431.700000" y2="50.000000"  style="stroke:black; stroke-linecap:round; stroke-width:0.25;"/>
<line x1="431.700000" y1="50.000000" x2="431.700000" y2="50.000000"  style="stroke:black; stroke-linecap:round; stroke-width:0.25;"/>
<line x1="431.700000" y1="50.000000" x2="435.700000" y2="50.000000"  style="stroke:black; stroke-linecap:round; stroke-width:0.25;"/>
<line x1="435.700000" y1="50.000000" x2="439.700000" y2="50.000000"  style="stroke:black; stroke-linecap:round; stroke-width:0.25;"/>
<line x1="439.700000" y1="50.000000" x2="449.700000" y2="50.000000"  style="stroke:black; stroke-linecap:round; stroke-width:0.25;"/>
</svg>
