<?xml version="1.0"?>
<svg xmlns="http://www.w3.org/2000/svg" xmlns:xlink="http://www.w3.org/1999/xlink" viewBox="0 0 368.600000 100.000000" width="184.300000mm" height="50.000000mm" version="1.1">
<a xlink:href="dmo-0x7f8e9f905da0.svg">
<rect x="1.000000" y="1.000000" width="367.600000" height="99.000000" rx="0" ry="0" style="stroke:none;fill:#cccccc;"/>
<rect x="0.000000" y="0.000000" width="367.600000" height="99.000000" rx="0" ry="0" style="stroke:none;fill:#ffffff;"/>
</a>
<text x="10.000000" y="7.000000" font-family="Arial" font-size="7"></text>
<a xlink:href="osc-0x7f8e9f905860.svg">
<rect x="35.000000" y="39.000000" width="129.000000" height="24.000000" rx="0" ry="0" style="stroke:none;fill:#cccccc;"/>
<rect x="34.000000" y="38.000000" width="129.000000" height="24.000000" rx="0" ry="0" style="stroke:none;fill:#003366;"/>
</a>
<a xlink:href="osc-0x7f8e9f905860.svg">
<text x="98.500000" y="52.000000" font-family="Arial" font-size="7" text-anchor="middle" fill="#FFFFFF">osc(vslider(&quot;...,0.999f : *))</text>
</a>
<circle cx="36.000000" cy="40.000000" r="1"/>
<a xlink:href="ampl-0x7f8e9df40500.svg">
<rect x="180.000000" y="43.000000" width="25.800000" height="24.000000" rx="0" ry="0" style="stroke:none;fill:#cccccc;"/>
<rect x="179.000000" y="42.000000" width="25.800000" height="24.000000" rx="0" ry="0" style="stroke:none;fill:#003366;"/>
</a>
<a xlink:href="ampl-0x7f8e9df40500.svg">
<text x="191.900000" y="56.000000" font-family="Arial" font-size="7" text-anchor="middle" fill="#FFFFFF">ampl</text>
</a>
<circle cx="181.000000" cy="44.000000" r="1"/>
<rect x="221.800000" y="39.000000" width="24.000000" height="24.000000" rx="0" ry="0" style="stroke:none;fill:#cccccc;"/>
<rect x="220.800000" y="38.000000" width="24.000000" height="24.000000" rx="0" ry="0" style="stroke:none;fill:#4B71A1;"/>
<text x="232.800000" y="52.000000" font-family="Arial" font-size="7" text-anchor="middle" fill="#FFFFFF">*</text>
<circle cx="222.800000" cy="40.000000" r="1"/>
<line x1="217.800000" y1="45.000000" x2="220.800000" y2="46.000000"  transform="rotate(0.000000,220.800000,46.000000)" style="stroke: black; stroke-width:0.25;"/>
<line x1="217.800000" y1="47.000000" x2="220.800000" y2="46.000000"  transform="rotate(0.000000,220.800000,46.000000)" style="stroke: black; stroke-width:0.25;"/>
<line x1="217.800000" y1="53.000000" x2="220.800000" y2="54.000000"  transform="rotate(0.000000,220.800000,54.000000)" style="stroke: black; stroke-width:0.25;"/>
<line x1="217.800000" y1="55.000000" x2="220.800000" y2="54.000000"  transform="rotate(0.000000,220.800000,54.000000)" style="stroke: black; stroke-width:0.25;"/>
<a xlink:href="offset-0x7f8e9df41280.svg">
<rect x="261.800000" y="43.000000" width="25.800000" height="24.000000" rx="0" ry="0" style="stroke:none;fill:#cccccc;"/>
<rect x="260.800000" y="42.000000" width="25.800000" height="24.000000" rx="0" ry="0" style="stroke:none;fill:#003366;"/>
</a>
<a xlink:href="offset-0x7f8e9df41280.svg">
<text x="273.700000" y="56.000000" font-family="Arial" font-size="7" text-anchor="middle" fill="#FFFFFF">offset</text>
</a>
<circle cx="262.800000" cy="44.000000" r="1"/>
<rect x="303.600000" y="39.000000" width="24.000000" height="24.000000" rx="0" ry="0" style="stroke:none;fill:#cccccc;"/>
<rect x="302.600000" y="38.000000" width="24.000000" height="24.000000" rx="0" ry="0" style="stroke:none;fill:#4B71A1;"/>
<text x="314.600000" y="52.000000" font-family="Arial" font-size="7" text-anchor="middle" fill="#FFFFFF">+</text>
<circle cx="304.600000" cy="40.000000" r="1"/>
<line x1="299.600000" y1="45.000000" x2="302.600000" y2="46.000000"  transform="rotate(0.000000,302.600000,46.000000)" style="stroke: black; stroke-width:0.25;"/>
<line x1="299.600000" y1="47.000000" x2="302.600000" y2="46.000000"  transform="rotate(0.000000,302.600000,46.000000)" style="stroke: black; stroke-width:0.25;"/>
<line x1="299.600000" y1="53.000000" x2="302.600000" y2="54.000000"  transform="rotate(0.000000,302.600000,54.000000)" style="stroke: black; stroke-width:0.25;"/>
<line x1="299.600000" y1="55.000000" x2="302.600000" y2="54.000000"  transform="rotate(0.000000,302.600000,54.000000)" style="stroke: black; stroke-width:0.25;"/>
<line x1="25.000000" y1="25.000000" x2="25.000000" y2="75.000000"  style="stroke: black; stroke-linecap:round; stroke-width:0.25; stroke-dasharray:3,3;"/>
<line x1="25.000000" y1="75.000000" x2="335.600000" y2="75.000000"  style="stroke: black; stroke-linecap:round; stroke-width:0.25; stroke-dasharray:3,3;"/>
<line x1="335.600000" y1="75.000000" x2="335.600000" y2="25.000000"  style="stroke: black; stroke-linecap:round; stroke-width:0.25; stroke-dasharray:3,3;"/>
<line x1="25.000000" y1="25.000000" x2="30.000000" y2="25.000000"  style="stroke: black; stroke-linecap:round; stroke-width:0.25; stroke-dasharray:3,3;"/>
<line x1="94.500000" y1="25.000000" x2="335.600000" y2="25.000000"  style="stroke: black; stroke-linecap:round; stroke-width:0.25; stroke-dasharray:3,3;"/>
<text x="30.000000" y="27.000000" font-family="Arial" font-size="7">hgroup(OSCILLATOR)</text>
<line x1="15.000000" y1="15.000000" x2="15.000000" y2="85.000000"  style="stroke: black; stroke-linecap:round; stroke-width:0.25; stroke-dasharray:3,3;"/>
<line x1="15.000000" y1="85.000000" x2="353.600000" y2="85.000000"  style="stroke: black; stroke-linecap:round; stroke-width:0.25; stroke-dasharray:3,3;"/>
<line x1="353.600000" y1="85.000000" x2="353.600000" y2="15.000000"  style="stroke: black; stroke-linecap:round; stroke-width:0.25; stroke-dasharray:3,3;"/>
<line x1="15.000000" y1="15.000000" x2="20.000000" y2="15.000000"  style="stroke: black; stroke-linecap:round; stroke-width:0.25; stroke-dasharray:3,3;"/>
<line x1="39.350000" y1="15.000000" x2="353.600000" y2="15.000000"  style="stroke: black; stroke-linecap:round; stroke-width:0.25; stroke-dasharray:3,3;"/>
<text x="20.000000" y="17.000000" font-family="Arial" font-size="7">step</text>
<line x1="355.600000" y1="49.000000" x2="358.600000" y2="50.000000"  transform="rotate(0.000000,358.600000,50.000000)" style="stroke: black; stroke-width:0.25;"/>
<line x1="355.600000" y1="51.000000" x2="358.600000" y2="50.000000"  transform="rotate(0.000000,358.600000,50.000000)" style="stroke: black; stroke-width:0.25;"/>
<line x1="163.000000" y1="50.000000" x2="167.000000" y2="50.000000"  style="stroke:black; stroke-linecap:round; stroke-width:0.25;"/>
<line x1="167.000000" y1="34.000000" x2="175.000000" y2="34.000000"  style="stroke:black; stroke-linecap:round; stroke-width:0.25;"/>
<line x1="167.000000" y1="50.000000" x2="167.000000" y2="34.000000"  style="stroke:black; stroke-linecap:round; stroke-width:0.25;"/>
<line x1="167.000000" y1="50.000000" x2="167.000000" y2="50.000000"  style="stroke:black; stroke-linecap:round; stroke-width:0.25;"/>
<line x1="175.000000" y1="34.000000" x2="191.900000" y2="34.000000"  style="stroke:black; stroke-linecap:round; stroke-width:0.25;"/>
<line x1="191.900000" y1="34.000000" x2="208.800000" y2="34.000000"  style="stroke:black; stroke-linecap:round; stroke-width:0.25;"/>
<line x1="204.800000" y1="54.000000" x2="208.800000" y2="54.000000"  style="stroke:black; stroke-linecap:round; stroke-width:0.25;"/>
<line x1="208.800000" y1="34.000000" x2="216.800000" y2="34.000000"  style="stroke:black; stroke-linecap:round; stroke-width:0.25;"/>
<line x1="208.800000" y1="54.000000" x2="216.800000" y2="54.000000"  style="stroke:black; stroke-linecap:round; stroke-width:0.25;"/>
<line x1="216.800000" y1="34.000000" x2="216.800000" y2="46.000000"  style="stroke:black; stroke-linecap:round; stroke-width:0.25;"/>
<line x1="216.800000" y1="46.000000" x2="216.800000" y2="46.000000"  style="stroke:black; stroke-linecap:round; stroke-width:0.25;"/>
<line x1="216.800000" y1="46.000000" x2="220.800000" y2="46.000000"  style="stroke:black; stroke-linecap:round; stroke-width:0.25;"/>
<line x1="216.800000" y1="54.000000" x2="220.800000" y2="54.000000"  style="stroke:black; stroke-linecap:round; stroke-width:0.25;"/>
<line x1="244.800000" y1="50.000000" x2="248.800000" y2="50.000000"  style="stroke:black; stroke-linecap:round; stroke-width:0.25;"/>
<line x1="248.800000" y1="34.000000" x2="256.800000" y2="34.000000"  style="stroke:black; stroke-linecap:round; stroke-width:0.25;"/>
<line x1="248.800000" y1="50.000000" x2="248.800000" y2="34.000000"  style="stroke:black; stroke-linecap:round; stroke-width:0.25;"/>
<line x1="248.800000" y1="50.000000" x2="248.800000" y2="50.000000"  style="stroke:black; stroke-linecap:round; stroke-width:0.25;"/>
<line x1="256.800000" y1="34.000000" x2="273.700000" y2="34.000000"  style="stroke:black; stroke-linecap:round; stroke-width:0.25;"/>
<line x1="273.700000" y1="34.000000" x2="290.600000" y2="34.000000"  style="stroke:black; stroke-linecap:round; stroke-width:0.25;"/>
<line x1="286.600000" y1="54.000000" x2="290.600000" y2="54.000000"  style="stroke:black; stroke-linecap:round; stroke-width:0.25;"/>
<line x1="290.600000" y1="34.000000" x2="298.600000" y2="34.000000"  style="stroke:black; stroke-linecap:round; stroke-width:0.25;"/>
<line x1="290.600000" y1="54.000000" x2="298.600000" y2="54.000000"  style="stroke:black; stroke-linecap:round; stroke-width:0.25;"/>
<line x1="298.600000" y1="34.000000" x2="298.600000" y2="46.000000"  style="stroke:black; stroke-linecap:round; stroke-width:0.25;"/>
<line x1="298.600000" y1="46.000000" x2="298.600000" y2="46.000000"  style="stroke:black; stroke-linecap:round; stroke-width:0.25;"/>
<line x1="298.600000" y1="46.000000" x2="302.600000" y2="46.000000"  style="stroke:black; stroke-linecap:round; stroke-width:0.25;"/>
<line x1="298.600000" y1="54.000000" x2="302.600000" y2="54.000000"  style="stroke:black; stroke-linecap:round; stroke-width:0.25;"/>
<line x1="326.600000" y1="50.000000" x2="330.600000" y2="50.000000"  style="stroke:black; stroke-linecap:round; stroke-width:0.25;"/>
<line x1="330.600000" y1="50.000000" x2="340.600000" y2="50.000000"  style="stroke:black; stroke-linecap:round; stroke-width:0.25;"/>
<line x1="340.600000" y1="50.000000" x2="340.600000" y2="50.000000"  style="stroke:black; stroke-linecap:round; stroke-width:0.25;"/>
<line x1="340.600000" y1="50.000000" x2="344.600000" y2="50.000000"  style="stroke:black; stroke-linecap:round; stroke-width:0.25;"/>
<line x1="344.600000" y1="50.000000" x2="348.600000" y2="50.000000"  style="stroke:black; stroke-linecap:round; stroke-width:0.25;"/>
<line x1="348.600000" y1="50.000000" x2="358.600000" y2="50.000000"  style="stroke:black; stroke-linecap:round; stroke-width:0.25;"/>
</svg>
