<?xml version="1.0"?>
<svg xmlns="http://www.w3.org/2000/svg" xmlns:xlink="http://www.w3.org/1999/xlink" viewBox="0 0 350.400000 152.000000" width="175.200000mm" height="76.000000mm" version="1.1">
<a xlink:href="wa-0x7f84353435e0.svg">
<rect x="1.000000" y="1.000000" width="349.400000" height="151.000000" rx="0" ry="0" style="stroke:none;fill:#cccccc;"/>
<rect x="0.000000" y="0.000000" width="349.400000" height="151.000000" rx="0" ry="0" style="stroke:none;fill:#ffffff;"/>
</a>
<text x="10.000000" y="7.000000" font-family="Arial" font-size="7"></text>
<rect x="65.000000" y="65.000000" width="180.600000" height="24.000000" rx="0" ry="0" style="stroke:none;fill:#cccccc;"/>
<rect x="64.000000" y="64.000000" width="180.600000" height="24.000000" rx="0" ry="0" style="stroke:none;fill:#477881;"/>
<text x="154.300000" y="78.000000" font-family="Arial" font-size="7" text-anchor="middle" fill="#FFFFFF">vslider(WA GAIN, 0.0f, 0.0f, 1.0f, 0.01f)</text>
<circle cx="66.000000" cy="66.000000" r="1"/>
<line x1="55.000000" y1="55.000000" x2="55.000000" y2="97.000000"  style="stroke: black; stroke-linecap:round; stroke-width:0.25; stroke-dasharray:3,3;"/>
<line x1="55.000000" y1="97.000000" x2="253.600000" y2="97.000000"  style="stroke: black; stroke-linecap:round; stroke-width:0.25; stroke-dasharray:3,3;"/>
<line x1="253.600000" y1="97.000000" x2="253.600000" y2="55.000000"  style="stroke: black; stroke-linecap:round; stroke-width:0.25; stroke-dasharray:3,3;"/>
<line x1="55.000000" y1="55.000000" x2="60.000000" y2="55.000000"  style="stroke: black; stroke-linecap:round; stroke-width:0.25; stroke-dasharray:3,3;"/>
<line x1="98.700000" y1="55.000000" x2="253.600000" y2="55.000000"  style="stroke: black; stroke-linecap:round; stroke-width:0.25; stroke-dasharray:3,3;"/>
<text x="60.000000" y="57.000000" font-family="Arial" font-size="7">vgroup(WA)</text>
<line x1="45.000000" y1="45.000000" x2="45.000000" y2="107.000000"  style="stroke: black; stroke-linecap:round; stroke-width:0.25; stroke-dasharray:3,3;"/>
<line x1="45.000000" y1="107.000000" x2="263.600000" y2="107.000000"  style="stroke: black; stroke-linecap:round; stroke-width:0.25; stroke-dasharray:3,3;"/>
<line x1="263.600000" y1="107.000000" x2="263.600000" y2="45.000000"  style="stroke: black; stroke-linecap:round; stroke-width:0.25; stroke-dasharray:3,3;"/>
<line x1="45.000000" y1="45.000000" x2="50.000000" y2="45.000000"  style="stroke: black; stroke-linecap:round; stroke-width:0.25; stroke-dasharray:3,3;"/>
<line x1="127.400000" y1="45.000000" x2="263.600000" y2="45.000000"  style="stroke: black; stroke-linecap:round; stroke-width:0.25; stroke-dasharray:3,3;"/>
<text x="50.000000" y="47.000000" font-family="Arial" font-size="7">hgroup(FEEDBACK DELAY)</text>
<line x1="35.000000" y1="35.000000" x2="35.000000" y2="117.000000"  style="stroke: black; stroke-linecap:round; stroke-width:0.25; stroke-dasharray:3,3;"/>
<line x1="35.000000" y1="117.000000" x2="273.600000" y2="117.000000"  style="stroke: black; stroke-linecap:round; stroke-width:0.25; stroke-dasharray:3,3;"/>
<line x1="273.600000" y1="117.000000" x2="273.600000" y2="35.000000"  style="stroke: black; stroke-linecap:round; stroke-width:0.25; stroke-dasharray:3,3;"/>
<line x1="35.000000" y1="35.000000" x2="40.000000" y2="35.000000"  style="stroke: black; stroke-linecap:round; stroke-width:0.25; stroke-dasharray:3,3;"/>
<line x1="85.150000" y1="35.000000" x2="273.600000" y2="35.000000"  style="stroke: black; stroke-linecap:round; stroke-width:0.25; stroke-dasharray:3,3;"/>
<text x="40.000000" y="37.000000" font-family="Arial" font-size="7">hgroup(MAIN)</text>
<line x1="25.000000" y1="25.000000" x2="25.000000" y2="127.000000"  style="stroke: black; stroke-linecap:round; stroke-width:0.25; stroke-dasharray:3,3;"/>
<line x1="25.000000" y1="127.000000" x2="283.600000" y2="127.000000"  style="stroke: black; stroke-linecap:round; stroke-width:0.25; stroke-dasharray:3,3;"/>
<line x1="283.600000" y1="127.000000" x2="283.600000" y2="25.000000"  style="stroke: black; stroke-linecap:round; stroke-width:0.25; stroke-dasharray:3,3;"/>
<line x1="25.000000" y1="25.000000" x2="30.000000" y2="25.000000"  style="stroke: black; stroke-linecap:round; stroke-width:0.25; stroke-dasharray:3,3;"/>
<line x1="129.975000" y1="25.000000" x2="283.600000" y2="25.000000"  style="stroke: black; stroke-linecap:round; stroke-width:0.25; stroke-dasharray:3,3;"/>
<text x="30.000000" y="27.000000" font-family="Arial" font-size="7">wgroup(vslide...1.0f, 0.01f))</text>
<a xlink:href="smoo-0x7f8433698a50.svg">
<rect x="293.600000" y="65.000000" width="25.800000" height="24.000000" rx="0" ry="0" style="stroke:none;fill:#cccccc;"/>
<rect x="292.600000" y="64.000000" width="25.800000" height="24.000000" rx="0" ry="0" style="stroke:none;fill:#003366;"/>
</a>
<a xlink:href="smoo-0x7f8433698a50.svg">
<text x="305.500000" y="78.000000" font-family="Arial" font-size="7" text-anchor="middle" fill="#FFFFFF">smoo</text>
</a>
<circle cx="294.600000" cy="66.000000" r="1"/>
<line x1="289.600000" y1="75.000000" x2="292.600000" y2="76.000000"  transform="rotate(0.000000,292.600000,76.000000)" style="stroke: black; stroke-width:0.25;"/>
<line x1="289.600000" y1="77.000000" x2="292.600000" y2="76.000000"  transform="rotate(0.000000,292.600000,76.000000)" style="stroke: black; stroke-width:0.25;"/>
<line x1="15.000000" y1="15.000000" x2="15.000000" y2="137.000000"  style="stroke: black; stroke-linecap:round; stroke-width:0.25; stroke-dasharray:3,3;"/>
<line x1="15.000000" y1="137.000000" x2="335.400000" y2="137.000000"  style="stroke: black; stroke-linecap:round; stroke-width:0.25; stroke-dasharray:3,3;"/>
<line x1="335.400000" y1="137.000000" x2="335.400000" y2="15.000000"  style="stroke: black; stroke-linecap:round; stroke-width:0.25; stroke-dasharray:3,3;"/>
<line x1="15.000000" y1="15.000000" x2="20.000000" y2="15.000000"  style="stroke: black; stroke-linecap:round; stroke-width:0.25; stroke-dasharray:3,3;"/>
<line x1="36.125000" y1="15.000000" x2="335.400000" y2="15.000000"  style="stroke: black; stroke-linecap:round; stroke-width:0.25; stroke-dasharray:3,3;"/>
<text x="20.000000" y="17.000000" font-family="Arial" font-size="7">wag</text>
<line x1="337.400000" y1="75.000000" x2="340.400000" y2="76.000000"  transform="rotate(0.000000,340.400000,76.000000)" style="stroke: black; stroke-width:0.25;"/>
<line x1="337.400000" y1="77.000000" x2="340.400000" y2="76.000000"  transform="rotate(0.000000,340.400000,76.000000)" style="stroke: black; stroke-width:0.25;"/>
<line x1="244.600000" y1="76.000000" x2="248.600000" y2="76.000000"  style="stroke:black; stroke-linecap:round; stroke-width:0.25;"/>
<line x1="248.600000" y1="76.000000" x2="258.600000" y2="76.000000"  style="stroke:black; stroke-linecap:round; stroke-width:0.25;"/>
<line x1="258.600000" y1="76.000000" x2="268.600000" y2="76.000000"  style="stroke:black; stroke-linecap:round; stroke-width:0.25;"/>
<line x1="268.600000" y1="76.000000" x2="278.600000" y2="76.000000"  style="stroke:black; stroke-linecap:round; stroke-width:0.25;"/>
<line x1="278.600000" y1="76.000000" x2="288.600000" y2="76.000000"  style="stroke:black; stroke-linecap:round; stroke-width:0.25;"/>
<line x1="288.600000" y1="76.000000" x2="288.600000" y2="76.000000"  style="stroke:black; stroke-linecap:round; stroke-width:0.25;"/>
<line x1="288.600000" y1="76.000000" x2="292.600000" y2="76.000000"  style="stroke:black; stroke-linecap:round; stroke-width:0.25;"/>
<line x1="318.400000" y1="76.000000" x2="322.400000" y2="76.000000"  style="stroke:black; stroke-linecap:round; stroke-width:0.25;"/>
<line x1="322.400000" y1="76.000000" x2="322.400000" y2="76.000000"  style="stroke:black; stroke-linecap:round; stroke-width:0.25;"/>
<line x1="322.400000" y1="76.000000" x2="326.400000" y2="76.000000"  style="stroke:black; stroke-linecap:round; stroke-width:0.25;"/>
<line x1="326.400000" y1="76.000000" x2="330.400000" y2="76.000000"  style="stroke:black; stroke-linecap:round; stroke-width:0.25;"/>
<line x1="330.400000" y1="76.000000" x2="340.400000" y2="76.000000"  style="stroke:black; stroke-linecap:round; stroke-width:0.25;"/>
</svg>
